<svg width="866" height="433" viewBox="0 0 866 433" fill="none" xmlns="http://www.w3.org/2000/svg">
<path fill-rule="evenodd" clip-rule="evenodd" d="M3.01347 2.83104C1.47931 3.99338 0.907059 4.9644 1.74531 4.98885C2.58212 5.01474 4.52318 4.08401 6.05877 2.92311C7.59293 1.76077 8.16518 0.789757 7.32693 0.765302C6.49012 0.739409 4.54906 1.67014 3.01347 2.83104ZM21.9783 5.7038C19.6491 17.2207 14.3536 23.5388 5.61017 25.2363L0.222656 26.2821L5.50377 26.4475C9.22341 26.564 12.0645 25.5369 15.1055 22.9763C19.9654 18.8851 24.4672 8.59814 23.6635 3.42228C23.245 0.723585 22.8885 1.20693 21.9783 5.7038ZM32.5736 11.4378C32.5736 30.3978 34.519 35.9002 44.785 45.9714C59.3573 60.2661 64.2057 73.2158 64.2057 97.8407C64.2057 115.178 54.2488 186.993 50.6456 195.641C46.6858 205.147 38.8698 211.685 19.2738 221.88C9.19178 227.125 0.941567 231.911 0.941567 232.515C0.941567 234.679 36.3048 215.198 42.9087 209.398C47.5428 205.327 50.5234 201.126 52.4457 195.962C56.7319 184.442 66.036 118.311 66.1525 98.5399C66.3049 72.8922 60.2905 56.9086 45.8303 44.5299C37.2969 37.2251 35.4493 31.9557 35.4493 14.9291C35.4493 6.41444 34.8727 0.719269 34.0114 0.719269C33.1818 0.719269 32.5736 5.25066 32.5736 11.4378ZM41.2006 2.37647C41.2006 3.55175 42.1553 7.7307 43.3228 11.6651C45.8361 20.1309 51.4019 25.9455 61.7614 30.9286L69.2381 34.5249L70.3581 65.4535C71.3905 93.9437 71.1877 98.7628 67.7815 126.591C59.8016 191.809 58.6586 197.449 51.4177 207.406C47.5341 212.744 44.3868 214.731 11.9955 232.289C5.81722 235.638 1.05515 238.671 1.41173 239.028C2.78198 240.398 41.8677 218.35 48.4702 212.484C58.949 203.17 60.65 197.137 67.2079 146.032C72.6284 103.779 72.8139 100.959 72.2546 68.7995C71.9354 50.4423 71.2625 34.7565 70.7593 33.9423C70.256 33.1267 65.7111 30.4869 60.6571 28.0731C50.5521 23.2482 46.5981 18.4291 44.2818 8.11623C42.844 1.70898 41.2006 -1.35079 41.2006 2.37647ZM52.7031 1.88161C52.7031 6.32238 66.857 13.6373 75.4911 13.6575C80.7751 13.6704 88.0879 17.7631 89.8866 21.7147C92.5135 27.4818 91.878 31.1818 85.553 46.9553C79.8693 61.1292 79.5271 62.8497 78.4487 82.7102C77.8247 94.1854 76.3366 109.401 75.1417 116.522C73.9455 123.642 71.944 140.472 70.6917 153.919C67.1863 191.6 63.2136 204.451 51.7484 215.197C48.7146 218.041 36.0431 226.122 23.5872 233.158C11.1328 240.193 0.941567 246.518 0.941567 247.214C0.941567 247.909 2.39808 247.525 4.17666 246.36C5.95669 245.193 16.7935 238.93 28.2602 232.439C39.7268 225.947 51.2696 218.573 53.9094 216.051C64.3768 206.053 68.7679 192.127 72.141 158.236C73.4005 145.579 75.9886 124.218 77.8937 110.767C79.7974 97.3171 81.287 82.1046 81.2022 76.9618C81.0095 65.1126 82.0562 60.3539 88.0864 45.6563C94.039 31.1458 94.3525 24.1703 89.3172 18.1846C85.7716 13.9682 84.2604 13.4316 66.0288 9.92591C64.2646 9.58642 60.5436 7.30921 57.7614 4.86514C54.9792 2.42106 52.7031 1.07747 52.7031 1.88161ZM100.373 4.7069C107.915 13.6747 106.923 25.3528 96.7162 47.7868C89.4294 63.7992 87.8621 69.2613 86.4847 83.4352C85.947 88.9736 83.9225 101.273 81.9872 110.767C79.9455 120.778 77.9153 137.527 77.1533 150.641C75.2625 183.15 70.4875 201.227 60.2272 214.71C58.266 217.285 51.7283 222.441 45.6966 226.166C39.665 229.89 27.7411 237.288 19.2005 242.605C10.6584 247.922 2.89413 252.551 1.9466 252.891C0.997642 253.23 0.589301 253.909 1.03646 254.4C1.48506 254.89 8.27877 251.331 16.1336 246.489C23.9898 241.649 35.2695 234.803 41.2006 231.277C68.2143 215.215 76.0691 199.115 78.5896 154.643C79.3086 141.954 81.4221 124.288 83.4955 113.645C85.4984 103.359 87.819 88.8456 88.6544 81.3925C90.1368 68.1392 91.2827 64.5961 101.724 40.9983C107.739 27.4027 108.571 12.1873 103.658 5.59591C102.029 3.40934 99.7831 1.31626 98.6674 0.943681C97.5531 0.572538 98.3194 2.26426 100.373 4.7069ZM121.933 11.8809C120.074 18.0062 114.035 33.0504 108.514 45.314C101.097 61.7852 97.3877 72.3096 94.3165 85.593C92.0304 95.483 88.814 108.753 87.1691 115.083C85.1404 122.891 83.7802 134.454 82.9376 151.047C81.5702 177.96 79.1303 191.1 73.3991 202.415C65.3301 218.347 63.3516 220.232 33.4205 240.475C5.1817 259.574 -4.13394 266.504 3.81721 262.496C5.79421 261.5 15.4995 255.047 25.3845 248.158C35.2695 241.269 47.8864 232.653 53.422 229.012C73.3272 215.922 84.3352 190.534 84.3352 157.716C84.3352 138.898 86.5365 124.805 94.2763 94.079C99.6724 72.6577 103.388 61.4932 110.266 46.0332C117.365 30.0798 127.47 3.72869 127.47 1.16809C127.47 0.922103 126.984 0.725023 126.391 0.732216C125.799 0.740847 123.792 5.75703 121.933 11.8809ZM150.475 1.46731C150.475 4.04229 158.673 14.3393 165.806 20.7279C178.754 32.3196 196.751 40.5538 215.004 43.2381C231.706 45.6937 237.995 47.8832 245.421 53.8287C252.261 59.3066 262.956 64.5587 273.39 67.5667C288.845 72.0219 295.101 76.9618 300.982 89.3519C305.085 97.999 309.817 100.961 315.095 98.1845C316.98 97.1934 323.577 91.8147 329.755 86.2317C335.932 80.6502 345.839 72.475 351.77 68.0659C365.008 58.2263 372.056 50.9056 376.45 42.4369C379.432 36.687 379.796 34.0775 379.708 19.0822C379.62 4.05812 378.884 -1.05733 377.081 0.838668C376.768 1.16953 377.185 7.26462 378.009 14.3854C379.271 25.2981 379.133 28.6154 377.132 35.4988C374.229 45.4779 364.637 56.5547 348.894 68.1076C342.963 72.4606 333.435 80.4244 327.719 85.8059C312.467 100.17 307.898 100.581 302.375 88.086C297.384 76.7964 289.518 70.7588 272.826 65.4046C264.237 62.6498 256.047 58.8506 251.122 55.3362C239.045 46.7165 232.734 44.1602 217.46 41.7018C209.743 40.4589 200.412 38.4392 196.722 37.2121C181.97 32.3053 163.072 18.5845 156.104 7.72207C151.937 1.2242 150.475 -0.399914 150.475 1.46731ZM173.512 3.23671C173.574 8.11911 178.845 17.3445 184.324 22.1578C193.377 30.11 201.047 32.7037 218.771 33.8071C235.84 34.8687 239.413 36.1044 250.874 44.9097C254.569 47.748 261.746 52.0262 266.823 54.4156C275.239 58.3773 278.033 58.8808 298.455 60.1093C334.792 62.2959 337.098 62.1808 345.708 57.753C360.38 50.2093 370.091 36.9503 370.766 23.5417C371.316 12.6433 370.509 0.719269 369.224 0.719269C368.543 0.719269 368.306 6.846 368.699 14.335C369.357 26.9467 369.127 28.5305 365.564 35.8153C361.199 44.7414 354.835 50.9041 344.647 56.0699C335.413 60.7509 327.935 61.8212 320.077 59.5886C316.552 58.5859 305.903 57.6408 296.414 57.4869C276.967 57.1718 267.981 54.6371 255.813 46.0332C238.536 33.8172 237.318 33.3324 221.053 32.1772C200.212 30.6984 194.12 28.683 185.22 20.3265C179.45 14.909 176.356 9.34618 176.356 4.38754C176.356 2.36927 175.709 0.719269 174.918 0.719269C174.127 0.719269 173.494 1.85284 173.512 3.23671ZM190.839 4.31561C190.712 10.123 195.31 17.2955 201.095 20.3122C203.955 21.8039 211.354 23.2151 219.775 23.8769C235.81 25.137 242.822 27.781 253.279 36.5087C268.946 49.5835 283.064 52.5354 301.731 46.6388C309.819 44.084 315.095 43.3877 324.709 43.6021C338.607 43.9143 343.384 42.6268 349.386 36.9503C357.288 29.4756 361.64 15.3118 359.297 4.6997C358.46 0.913472 358.102 2.23549 357.458 11.5083C356.477 25.6175 353.229 32.8015 345.53 37.8897C340.213 41.4054 338.674 41.6932 326.703 41.4155C316.261 41.1738 311.436 41.8169 302.45 44.6522C282.861 50.8322 272.181 48.719 254.139 35.0903C241.258 25.3586 233.289 22.3276 220.34 22.234C210.77 22.165 202.182 19.6806 197.799 15.7117C196.254 14.312 194.077 10.205 192.961 6.58419C191.168 0.762426 190.924 0.499173 190.839 4.31561ZM205.809 4.99173C208.664 10.5157 211.781 12.0837 226.136 15.2226C240.442 18.35 247.155 21.6083 260.959 32.1211C270.766 39.59 272.159 40.2 280.622 40.7394C289.189 41.286 290.74 40.8516 306.732 33.4503C316.082 29.1218 326.043 24.8292 328.868 23.9114C337.393 21.1422 346.259 9.96188 345.905 2.42394C345.843 1.09041 344.817 2.75768 343.625 6.12817C340.808 14.0876 335.049 19.7224 326.385 22.995C322.553 24.4422 312.56 28.7607 304.178 32.593C282.499 42.503 275.268 42.0125 260.468 29.631C250.681 21.4443 238.089 15.4744 225.605 13.1036C214.172 10.9329 208.699 8.10472 207.28 3.63519C206.773 2.03122 205.736 0.719269 204.978 0.719269C204.221 0.719269 204.594 2.64259 205.809 4.99173ZM218.053 1.25584C218.053 2.72459 228.564 7.41998 235.843 9.20377C245.27 11.5126 255.893 17.0438 265.745 24.7745C276.064 32.8735 282.828 34.1121 291.673 29.5231C306.047 22.0657 331.482 2.95907 329.576 1.05157C329.162 0.637272 325.895 2.99935 322.315 6.30224C314.059 13.915 292.756 27.8573 286.743 29.5835C280.306 31.4306 274.309 29.3994 265.401 22.3549C255.925 14.8601 249.236 11.4177 234.587 6.495C228.261 4.37028 221.953 2.13191 220.569 1.52053C219.184 0.910595 218.053 0.791196 218.053 1.25584ZM385.521 5.03488C387.967 22.0485 388.006 32.0693 385.655 40.1625C382.344 51.5572 378.029 57.9458 362.942 73.7898C349.934 87.4516 344.67 95.9217 344.612 103.287C344.536 113.036 337.776 119.777 323.295 124.541C309.404 129.113 301.57 133.37 291.997 141.542C287.351 145.508 277.317 152.015 269.698 156.001C235.673 173.803 221.929 174.874 209.162 160.719C201.174 151.862 199.069 141.509 202.428 127.588C203.323 123.875 208.593 111.127 214.139 99.2591C226.441 72.9281 227.831 65.2823 221.446 59.0649C216.643 54.3911 169.786 32.511 154.873 27.9781C148.113 25.9239 142.975 25.1816 139.729 25.7916C129.412 27.7278 116.747 48.0314 103.191 84.3602C91.4955 115.705 88.4761 129.87 87.9038 156.081C87.5128 174.01 86.801 180.352 84.2733 188.449C76.9822 211.803 68.4156 223.182 47.6707 237.07C32.6484 247.128 15.9237 260.803 6.69285 270.575L0.222656 277.424L5.97394 272.999C9.13715 270.565 13.3428 266.817 15.3198 264.669C20.0315 259.551 39.1229 244.72 52.7347 235.605C66.8944 226.124 73.4595 218.629 80.1842 204.272C87.8319 187.945 90.0404 177.291 90.0649 156.599C90.0908 136.137 92.594 121.453 99.6767 100.232C114.289 56.4511 129.622 28.5046 139.401 27.8343C149.628 27.1337 157.855 29.9015 192.57 45.7196C221.469 58.888 223.125 60.1712 222.955 69.2742C222.853 74.7493 220.649 80.866 212.666 97.8206C200.963 122.681 199.368 127.696 199.401 139.538C199.43 150.514 202.909 158.287 210.827 165.068C219.076 172.133 227.824 173.998 239.127 171.105C251.283 167.995 280.622 153.142 290.662 145.015C304.687 133.665 307.407 132.078 320.614 127.555C327.54 125.182 334.827 122.179 336.806 120.882C341.829 117.589 345.494 111.028 346.529 103.474C347.83 93.9668 350.522 89.7907 366.033 73.2043C374.244 64.4249 381.849 54.7234 384.275 49.9331C388.196 42.1894 388.43 40.7265 388.349 24.4551C388.299 14.1006 387.572 5.75415 386.531 3.59635C384.883 0.178379 384.833 0.250306 385.521 5.03488ZM393.467 2.27721C393.467 3.39783 394.437 9.38934 395.623 15.5909C396.81 21.7924 397.78 31.1257 397.78 36.3317C397.78 44.6709 396.922 47.6444 390.569 61.3206C386.604 69.8597 379.182 88.2773 374.075 102.248C362.131 134.932 356.651 142.119 342.471 143.698C314.051 146.863 315.814 146.302 281.522 163.123C246.099 180.501 237.639 183.155 226.001 180.545C207.95 176.499 197.053 164.586 193.421 144.933C191.426 134.134 193.502 123.878 201.466 105.177C209.096 87.2574 211.605 76.2382 209.391 70.3632C202.984 53.3654 166.018 36.3274 146.317 41.2904C135.381 44.0452 128.311 52.6217 114.958 79.3325C96.6645 115.927 93.1145 129.611 92.9865 163.993C92.9319 179.194 92.4301 182.674 88.791 193.135C84.1583 206.449 75.6752 220.408 67.4997 228.168C64.5019 231.012 56.0662 237.389 48.7534 242.336C25.0581 258.37 6.64971 281.403 6.72448 294.92C6.86251 319.99 40.0388 333.784 73.5515 322.707C79.8779 320.616 86.5681 318.566 88.4186 318.151C97.2597 316.173 120.092 323.254 131.824 331.612C134.117 333.246 138.082 338.504 140.634 343.296C143.188 348.087 149.108 355.991 153.789 360.856C167.395 375.001 171.146 387.535 170.34 416.159C170.09 425.029 170.315 432.285 170.842 432.284C172.922 432.278 173.801 409.884 172.176 398.262C169.437 378.665 166.925 372.858 155.975 360.795C150.591 354.866 144.157 346.206 141.677 341.551C136.692 332.192 129.473 326.609 114.574 320.588C100.537 314.915 91.7126 314.794 74.9893 320.047C64.2963 323.405 57.8462 324.57 49.826 324.59C24.0747 324.655 5.4707 309.113 8.96892 290.458C11.2766 278.146 30.4615 256.47 51.0697 242.891C72.2215 228.953 83.3776 214.912 90.9017 192.75C94.3611 182.561 94.919 178.235 95.8119 154.643C96.7493 129.89 97.1418 127.08 101.427 114.449C107.381 96.8913 126.186 60.1251 133.415 51.9082C140.449 43.9128 146.479 41.8054 159.253 42.8771C170.702 43.8366 182.429 48.2644 194.159 56.0541C211.994 67.8976 212.188 74.8284 195.782 114.088C182.983 144.718 196.776 176.224 225.64 182.28C238.372 184.953 246.142 182.555 282.756 164.649L315.35 148.712L330.011 147.331C338.076 146.573 347.257 144.917 350.411 143.654C359.096 140.178 365.13 131.979 371.239 115.358C381.462 87.5394 388.863 69.0153 394.032 58.3011C398.777 48.4687 399.212 46.5079 399.142 35.2845C399.068 23.3 396.247 3.02093 394.395 1.16953C393.885 0.657412 393.467 1.15658 393.467 2.27721ZM404.427 9.63677C405.572 14.5407 407.953 21.1767 409.72 24.3818C412.521 29.4613 413.576 30.2093 417.938 30.2093C422.46 30.2093 423.263 29.5634 426.268 23.5043C428.154 19.7022 429.859 13.1641 430.206 8.39962L430.82 0L428.749 9.81515C426.082 22.4599 422.462 28.7708 417.875 28.7708C413.451 28.7708 408.561 20.5323 406.134 8.99086C405.176 4.44221 403.934 0.719269 403.372 0.719269C402.808 0.719269 403.284 4.73279 404.427 9.63677ZM437.279 8.46292C436.746 12.7224 436.214 22.9188 436.097 31.1199C435.898 44.9486 436.166 46.5151 439.782 52.6692C444.68 61.007 450.836 66.4216 468.161 77.635C492.048 93.095 510.262 117.48 510.262 133.998C510.262 145.187 506.781 151.12 491.438 166.085C483.694 173.637 475.066 182.73 472.265 186.291C465.944 194.323 453 206.822 441.634 215.864C436.889 219.639 428.154 227.325 422.223 232.945C415.992 238.851 407.971 244.803 403.224 247.05C392.325 252.209 384.4 259.596 380.815 267.939C379.203 271.691 376.155 282.853 374.04 292.743C371.927 302.632 369.209 315.256 368.003 320.794C364.788 335.559 361.301 341.802 350.598 351.964C318.663 382.286 317.514 383.952 312.282 407.532C310.402 416.001 308.167 424.753 307.312 426.98C305.44 431.862 305.414 432.281 306.985 432.281C308.319 432.281 311.711 420.371 315.133 403.66C318.461 387.4 322.865 380.827 343.336 361.556C355.223 350.365 362.566 342.264 364.382 338.336C366.952 332.78 373.077 308.497 378.341 283.001C382.158 264.511 388.214 256.611 405.11 248.076C409.865 245.675 418.733 239.005 424.818 233.252C430.903 227.499 441.478 218.163 448.317 212.504C455.156 206.846 464.215 198.153 468.446 193.187C472.679 188.221 482.041 178.277 489.251 171.088C496.462 163.9 504.357 155.263 506.794 151.897C515.634 139.688 514.008 126.184 501.389 106.984C492.872 94.0243 481.699 83.3935 468.463 75.6542C455.967 68.3478 446.105 59.5497 441.394 51.5069C437.621 45.0665 437.608 44.9414 438.469 22.8785C438.945 10.6912 439.089 0.719269 438.79 0.719269C438.491 0.719269 437.81 4.20485 437.279 8.46292ZM444.447 11.6694C442.37 33.8632 445.543 47.6501 455.286 58.7513C457.881 61.7104 465.772 68.0817 472.819 72.9109C491.977 86.039 509.276 106.393 515.06 122.612C516.124 125.592 517.021 131.773 517.056 136.349C517.148 148.512 512.553 156.619 499.615 167.116C493.888 171.764 486.396 179.112 482.965 183.447C470.676 198.974 462 208.131 452.058 216.068C446.502 220.503 436.384 229.735 429.573 236.582C422.762 243.429 411.885 252.709 405.399 257.203C388.049 269.228 384.24 277.261 379.777 311.232C377.054 331.96 376.617 333.735 372.187 342.048C369.472 347.144 364.851 351.737 354.296 359.833C328.49 379.623 324.402 385.727 319.98 411.072C318.428 419.968 316.815 428.378 316.394 429.763C315.974 431.147 316.223 432.281 316.946 432.281C317.669 432.281 319.387 425.645 320.766 417.536C322.144 409.427 323.901 400.201 324.671 397.037C327.005 387.453 335.517 376.663 348.798 366.455C375.295 346.084 378.469 340.931 381.337 313.601C382.756 300.073 387.261 280.571 390.361 274.519C393.662 268.077 396.4 265.501 410.002 256.022C415.537 252.166 425.566 243.416 432.288 236.578C439.01 229.74 449.038 220.557 454.574 216.169C465.487 207.519 470.842 202.073 478.294 192.045C485.346 182.553 493.782 173.89 502.786 166.893C519.359 154.014 523.633 136.11 514.682 117.038C506.573 99.7569 487.778 79.6044 469.486 68.5794C462.156 64.1617 452.715 53.5064 449.093 45.5671C446.391 39.6418 446.062 36.572 446.328 19.7799C446.495 9.29583 446.371 0.719269 446.052 0.719269C445.734 0.719269 445.013 5.64626 444.447 11.6694ZM451.864 12.5584C450.46 27.0028 451.471 36.1318 455.486 45.314C459.079 53.5323 464.757 59.4159 478.298 68.9549C506.173 88.5895 525.746 118.219 525.746 140.784C525.746 152.084 521.456 159.154 508.698 168.879C496.806 177.944 490.66 184.203 477.893 200.255C473.358 205.958 464.085 215.271 457.287 220.952C450.489 226.632 440.627 236.386 435.372 242.628C429.9 249.13 421.445 257.015 415.58 261.089C395.076 275.333 391.109 282.812 388.278 312.556C387.189 323.996 385.661 335.709 384.881 338.584C382.37 347.847 376.838 353.911 361.918 363.755C337.001 380.194 331.062 388.551 328.699 410.504C327.964 417.339 326.98 425.196 326.513 427.965C325.939 431.373 326.138 432.535 327.13 431.561C327.935 430.77 329.003 424.944 329.504 418.615C330.004 412.285 331.699 402.666 333.272 397.238C336.72 385.34 343.629 377.71 361.142 366.456C374.497 357.874 382.384 350.234 385.423 342.933C386.613 340.078 388.276 330.367 389.122 321.355C391.169 299.518 393.152 288.916 396.338 282.75C399.421 276.785 409.163 267.21 416.749 262.687C419.669 260.947 428.354 252.721 436.048 244.409C443.741 236.097 455.061 225.137 461.202 220.053C467.343 214.969 476.209 205.779 480.902 199.63C490.267 187.36 502.274 175.496 513.778 167.148C523.553 160.053 527.184 152.639 527.184 139.767C527.184 133.898 526.09 127 524.39 122.164C518.011 104.002 497.453 79.4447 476.99 65.5412C457.844 52.5325 454.939 46.8273 453.881 20.1395L453.082 0L451.864 12.5584ZM458.808 8.77077C457.171 21.8802 458.728 35.0773 462.865 43.1561C467.286 51.7917 473.834 58.1543 488.754 68.3162C494.901 72.5023 503.469 79.7526 507.796 84.4292C522.768 100.608 534.957 128.203 535.046 146.117C535.112 159.547 531.126 165.084 512.912 176.871C500.981 184.593 497.067 188.161 487.929 199.645C481.969 207.135 473.697 216.094 469.545 219.557C455.208 231.511 449.511 237.408 439.839 250.306C432.758 259.75 427.655 264.879 420.982 269.268C408.513 277.467 405.531 280.516 401.077 289.627C397.537 296.867 397.178 299.324 396.335 322.074C395.129 354.643 394.558 355.681 370.641 368.728C344.021 383.247 339.701 389.742 339.609 415.378C339.576 424.674 340.034 432.281 340.627 432.281C341.219 432.281 341.705 424.717 341.705 415.473C341.705 389.627 345.344 384.347 373.859 368.822C396.17 356.675 397.311 354.417 398.486 320.119C399.544 289.205 402.479 283.431 424.38 269.163C428.864 266.242 434.981 259.919 440.637 252.357C451.979 237.195 455.099 233.879 467.096 224.231C472.4 219.964 482.015 209.958 488.459 201.995C498.212 189.947 502.533 185.964 514.215 178.256C531.464 166.878 536.104 160.869 536.978 148.781C537.449 142.279 536.668 137.307 533.669 127.679C524.709 98.9283 510.881 80.1942 487.356 64.9414C481.979 61.4544 475.185 56.0972 472.258 53.036C462.028 42.3376 457.867 26.4763 460.705 8.99086C461.443 4.44221 461.545 0.719269 460.931 0.719269C460.315 0.719269 459.361 4.34295 458.808 8.77077ZM467.35 2.42106C466.706 3.464 465.923 10.1791 465.609 17.3445C464.623 39.8892 470.256 48.3982 494.863 61.5248C508.686 68.8988 509.517 69.6224 517.601 81.3421C522.215 88.0313 530.267 102.244 535.493 112.925C556.549 155.953 558.556 157.406 569.052 137.219C576.93 122.071 586.662 113.157 601.629 107.383C614.822 102.292 637.14 96.5259 652.351 94.2789C685.761 89.3433 691.234 84.7011 701.104 52.9138C707.304 32.9468 707.318 22.365 701.16 9.85111C698.689 4.82917 696.122 0.719269 695.458 0.719269C694.792 0.719269 696.206 4.33575 698.598 8.75638C705.248 21.0386 705.55 31.0307 699.859 50.3373C695.202 66.1339 691.124 75.6326 686.973 80.351C682.427 85.5225 674.017 88.3622 650.215 92.767C597.854 102.458 579.341 112.314 566.838 137.155C563.142 144.495 560.871 147.45 558.921 147.45C555.464 147.45 549.948 138.577 538.816 115.12C529.739 95.9937 516.632 74.7234 510.308 68.8599C508.179 66.8848 500.747 62.329 493.793 58.737C473.877 48.4442 466.783 38.2263 466.804 19.8619C466.808 16.0584 467.501 10.4582 468.345 7.4171C469.93 1.71042 469.408 -0.907717 467.35 2.42106ZM474.922 8.07739C470.607 21.4429 472.635 32.79 480.89 41.486C488.59 49.5965 497.246 51.8881 510.764 49.3951C522.143 47.2977 523.367 48.1738 525.703 60.0834C530.132 82.6598 549.265 114.364 558.458 114.364C559.722 114.364 568.245 111.152 577.398 107.226C597.151 98.7542 613.811 94.1408 644.742 88.5751C657.476 86.2835 670.195 83.1389 673.458 81.4731C682.007 77.11 687.793 69.221 691.856 56.3878C697.948 37.1474 695.976 19.2491 686.101 4.17176C681.737 -2.49299 682.559 1.2803 687.751 11.7457C694.615 25.5815 695.465 35.9822 691.067 52.2937C687.349 66.0764 681.658 74.6342 673.055 79.3757C669.488 81.3421 658.272 84.1674 642.929 86.9654C612.484 92.5153 597.233 96.8079 575.813 105.861C561.462 111.924 558.51 112.724 555.518 111.36C552.271 109.88 540.436 93.4158 535.444 83.4352C533.237 79.0218 527.88 62.0528 526.507 55.1248C525.013 47.5955 522.566 46.6144 507.841 47.6501C495.648 48.5075 493.992 48.3061 488.681 45.3197C475.141 37.7055 471.386 24.271 477.726 6.11379C478.761 3.14752 479.089 0.719269 478.453 0.719269C477.816 0.719269 476.228 4.03078 474.922 8.07739ZM517.119 1.88736C517.119 4.36452 525.765 28.4989 527.328 30.3819C529.893 33.4748 532.576 32.8447 546.881 25.7901C555.534 21.522 561.72 17.3862 564.503 14.0099C568.858 8.7233 572.49 0.719269 570.533 0.719269C569.942 0.719269 568.655 2.94037 567.674 5.65489C565.209 12.4779 557.51 18.7988 543.444 25.5513C533.876 30.146 531.089 30.943 529.426 29.5605C528.284 28.6125 525.318 21.7349 522.835 14.2775C518.77 2.06862 517.119 -1.50759 517.119 1.88736ZM539.765 2.47429C542.091 3.59778 543.909 3.59778 546.235 2.47429C549.076 1.1048 548.681 0.913472 543 0.913472C537.319 0.913472 536.924 1.1048 539.765 2.47429ZM582.408 6.11379C579.926 19.7554 573.963 27.0848 559.986 33.6747C551.347 37.7472 543.61 46.3396 541.489 54.2156C539.23 62.6109 541.615 72.7843 548.101 82.421C557.709 96.6942 563.268 97.8666 591.045 91.4795C601.846 88.9952 622.069 85.3326 635.985 83.3403C663.63 79.3814 669.377 77.612 676.263 70.9458C684.239 63.2223 687.466 53.7798 687.485 38.1213C687.501 24.6781 687.397 24.2624 681.113 12.5872C677.6 6.06056 674.151 0.719269 673.448 0.719269C672.745 0.719269 673.448 2.82241 675.011 5.39452C685.32 22.3592 688.062 32.6404 685.793 45.8333C682.759 63.4813 675.208 73.459 662.223 76.9834C659.392 77.7515 646.087 79.9554 632.66 81.8816C619.232 83.8078 599.584 87.4214 589 89.9115C576.454 92.8634 568.091 94.1264 564.974 93.5409C554.081 91.4968 543 75.2988 543 61.4198C543 48.4097 549.086 40.2388 563.515 33.8747C574.56 29.0024 582.149 18.9599 584.123 6.60577C585.302 -0.772495 583.742 -1.21988 582.408 6.11379ZM594.079 7.45307C592.385 18.7585 587.831 31.5788 583.275 37.8724C580.854 41.2156 575.42 45.8419 570.947 48.3665C566.549 50.8509 561.936 54.4285 560.7 56.3188C557.338 61.45 559.112 69.549 564.701 74.5882C569.125 78.5773 569.564 78.665 580.927 77.8264C587.35 77.3516 605.869 76.4022 622.08 75.716C660.888 74.0718 668.635 71.6795 676.029 59.0592C680.972 50.6193 682.099 39.603 679.064 29.3821C676.735 21.532 665.515 -0.0604186 664.365 1.09041C664.026 1.42991 667.103 8.22412 671.205 16.1879C677.804 29.0024 678.673 31.7155 678.758 39.7885C678.831 46.7827 678.019 50.5704 675.269 56.0282C668.306 69.8554 660.578 72.3196 617.767 74.3681C568.606 76.7187 569.647 76.7489 565.522 72.8691C558.436 66.2058 559.508 55.7951 567.626 52.4318C580.9 46.9294 588.46 37.1387 593.109 19.4203C597.386 3.12738 597.807 0.719269 596.391 0.719269C595.675 0.719269 594.634 3.74883 594.079 7.45307ZM605.036 5.29814C602.789 12.3729 598.023 32.2362 596.959 38.9571C595.791 46.3296 599.319 55.7764 604.662 59.5828C606.764 61.0803 612.274 63.4079 616.907 64.7544C628.158 68.027 651.911 67.2589 659.951 63.3633C670.996 58.0105 676.253 43.5446 671.738 30.9286C668.875 22.9317 656.315 0.730777 654.648 0.723585C653.977 0.720708 654.896 3.14752 656.688 6.11379C658.481 9.08149 662.493 16.3619 665.602 22.2945C670.775 32.1628 671.208 33.8459 670.684 42.06C670.011 52.6217 666.97 57.6278 658.651 61.8571C650.911 65.793 624.914 65.9757 614.02 62.1693C598.178 56.6367 595.889 47.3797 603.309 18.8506C605.758 9.43825 607.488 1.46443 607.156 1.13213C606.823 0.798389 605.869 2.67424 605.036 5.29814ZM615.867 7.40991C611.511 16.0167 607.702 28.5751 607.702 34.3321C607.702 36.7072 609.035 41.4069 610.665 44.7745C614.95 53.6316 624.665 58.2608 638.969 58.2608C650.614 58.2608 655.99 56.2699 660.775 50.1834C664.907 44.927 664.724 35.132 660.322 25.8937C656.5 17.8738 643.82 0.0661727 642.719 1.16953C642.329 1.55938 645.054 5.9872 648.775 11.0091C664.509 32.242 666.48 47.5034 654.328 53.9955C647.8 57.484 628.5 56.7575 620.881 52.7368C611.863 47.9767 608.201 39.3857 610.438 28.2399C611.325 23.8208 613.995 16.0469 616.372 10.966C621.44 0.129469 621.026 -2.78501 615.867 7.40991ZM717.737 3.95598C720.676 12.6361 720.114 24.7126 716.27 35.4183C714.175 41.2558 709.888 53.4777 706.743 62.5764C696.496 92.2247 694.377 93.7654 656.283 99.2203C626.673 103.46 611.603 107.814 599.545 115.611C589.663 122.001 585.692 126.902 583.352 135.595C580.967 144.455 583.327 151.807 590.537 157.982C596.583 163.159 605.133 166.094 622.549 168.969C644.592 172.607 654.284 179.029 669.955 200.375C675.012 207.266 681.909 215.394 685.282 218.438C696.098 228.201 698.298 228.692 731.355 228.71C755.891 228.725 765.408 229.392 788.148 232.691C803.174 234.87 819.026 237.613 823.375 238.787C827.724 239.961 834.895 240.929 839.31 240.938C849.137 240.959 863.634 238.187 863.634 236.287C863.634 235.52 862.501 235.33 861.118 235.867C859.735 236.402 853.725 237.553 847.765 238.426C838.222 239.823 835.305 239.646 823.322 236.936C809.74 233.863 772.689 228.447 753.641 226.748C748.105 226.255 736.459 226.342 727.76 226.945C698.792 228.949 690.68 225.108 672.67 200.86C666.296 192.279 658.937 183.445 656.318 181.23C648.343 174.483 634.759 169.031 618.944 166.232C610.769 164.785 601.821 162.637 599.061 161.457C581.67 154.026 579.777 133.551 595.314 120.948C608.053 110.616 626.014 104.905 658.745 100.777C669.025 99.4792 680.46 97.4394 684.155 96.2425C693.682 93.1569 701.341 84.3803 705.472 71.8161C707.272 66.3396 711.622 54.089 715.136 44.5947C721.872 26.3972 723.431 13.6143 720.003 4.67525C718.191 -0.0489102 716.162 -0.693376 717.737 3.95598ZM756.516 4.93131C754.935 7.22722 749.027 15.1492 743.386 22.5347C730.003 40.0619 724.216 50.8998 717.017 71.9269C706.355 103.067 703.853 104.88 669.528 106.332C631.299 107.949 612.789 113.262 601.387 125.891C596.927 130.828 596.199 132.616 596.199 138.629C596.199 151.101 603.088 156.301 629.269 163.599C653.998 170.493 658.781 173.896 676.313 197.083C692.772 218.848 702.789 223.267 725.705 218.872C740.923 215.953 749.379 215.881 759.904 218.583C764.367 219.728 775.783 221.988 785.273 223.606C794.762 225.223 809.2 228.169 817.356 230.155C825.512 232.138 835.262 233.762 839.021 233.762C846.386 233.762 860.571 230.143 862.915 227.666C863.913 226.611 863.472 226.463 861.477 227.18C854.889 229.548 842.616 232.324 838.732 232.324C836.439 232.324 827.825 230.7 819.591 228.715C811.356 226.729 795.736 223.483 784.88 221.497C774.025 219.512 760.692 216.907 755.253 215.707C746.036 213.675 744.207 213.725 728.449 216.447C700.04 221.352 695.556 219.215 673.164 190.081C661.491 174.893 651.961 168.136 635.567 163.425C610.399 156.192 606.497 154.568 602.015 149.463C593.255 139.479 597.44 127.657 612.734 119.193C624.557 112.65 636.832 110.227 668.809 108.121C706.177 105.659 707.72 104.572 718.575 73.0734C727.045 48.4946 734.014 35.9721 749.803 16.9589C758.222 6.82155 762.301 0.713515 760.636 0.73797C759.951 0.74804 758.098 2.6354 756.516 4.93131ZM769.457 6.79422C767.875 10.1158 762.33 18.3629 757.133 25.1183C743.905 42.316 736.647 55.1334 729.789 73.4172C721.24 96.2051 715.081 108.791 710.345 113.16C704.273 118.763 696.296 120.478 685.934 118.409C681.259 117.477 667.084 116.67 654.431 116.618C632.194 116.524 631.159 116.652 623.439 120.446C612.532 125.806 608.486 130.378 608.486 137.346C608.486 146.637 616.102 152.371 635.637 157.787C655.622 163.329 668.29 172.737 682.988 192.951C690.651 203.493 696.873 208.474 705.114 210.668C711.999 212.501 717.82 211.383 731.671 205.567C742.843 200.877 749.01 201.167 761.706 206.98C767.55 209.657 777.185 212.986 783.116 214.378C789.047 215.771 801.34 218.923 810.435 221.381C830.261 226.74 844.757 227.309 855.529 223.152C861.387 220.892 862.751 220.775 863.932 222.433C865.004 223.937 865.138 223.779 864.488 221.777C864.018 220.328 863.634 218.933 863.634 218.678C863.634 218.423 860.238 219.515 856.086 221.103C844.639 225.485 831.474 225.064 811.747 219.682C802.722 217.221 789.838 213.856 783.116 212.206C776.394 210.556 766.834 207.312 761.871 204.999C747.907 198.49 744.884 198.33 732.154 203.429C707.078 213.475 697.038 210.602 682.492 189.22C674.169 176.989 662.267 166.596 650.187 161.011C644.322 158.3 638.729 156.081 637.757 156.081C633.114 156.081 620.136 150.808 615.624 147.088C611.495 143.681 610.578 141.948 610.578 137.544C610.578 131.011 615.098 126.143 625.675 121.287C632.014 118.379 635.075 117.992 651.555 118.018C661.836 118.035 676.139 118.918 683.341 119.981C709.633 123.862 714.024 119.553 732.706 71.5227C739.585 53.8373 745.383 43.6539 757.997 27.1136C767.264 14.9637 775.609 0.703445 773.435 0.735093C772.828 0.745163 771.038 3.47119 769.457 6.79422ZM777.549 9.70582C775.033 14.6673 768.689 24.5228 763.451 31.609C751.451 47.8472 746.626 57.4293 735.593 86.9352C724.289 117.17 720.844 124.346 714.837 130.172C707.388 137.395 700.316 137.524 674.46 130.906C656.696 126.358 651.745 125.62 642.857 126.191C629.505 127.047 624.956 129.723 624.956 136.716C624.956 142.867 629.379 146.023 644.366 150.565C664.026 156.523 673.294 162.893 683.466 177.445C695.421 194.546 701.087 199.238 709.787 199.238C715.616 199.238 721.064 196.314 729.95 188.42C740.62 178.938 747.493 179.978 763.662 193.518C772.745 201.123 777.742 203.625 794.619 209.017C819.608 216.999 832.17 219.719 840.274 218.905C847.513 218.177 864.846 211.478 863.354 209.985C862.958 209.589 859.139 210.847 854.866 212.778C842.566 218.343 836.206 218.632 819.781 214.378C787.044 205.899 774.998 200.923 763.419 191.098C754.271 183.334 744.295 178.682 739.422 179.906C737.47 180.396 731.842 184.288 726.917 188.556C709.901 203.3 701.679 200.652 683.452 174.558C674.756 162.107 663.919 154.83 645.157 148.841C629.984 143.998 625.875 141.086 626.638 135.715C627.898 126.852 647.039 125.658 674.561 132.725C699.16 139.043 699.252 139.056 705.462 137.383C718.009 134.003 722.69 126.754 737.002 88.5348C748.814 56.9963 752.44 49.7216 764.33 33.728C774.171 20.4905 784.279 2.84255 782.844 1.40545C782.449 1.00985 780.066 4.74574 777.549 9.70582ZM784.219 10.9789C781.33 16.8079 774.335 28.0515 768.675 35.9635C755.803 53.9567 754.686 56.1677 746.473 79.8878C730.588 125.77 727.465 141.126 732.049 150.79C733.625 154.115 738.298 158.809 744.807 163.605C750.456 167.768 760.263 176.032 766.6 181.971C780.522 195.018 792.749 201.702 814.029 207.896C833.75 213.637 843.374 213.37 855.601 206.744C860.019 204.35 863.634 203.084 863.634 203.931C863.634 204.779 864.022 205.082 864.497 204.608C864.971 204.133 864.958 203.094 864.468 202.3C863.926 201.424 859.766 202.65 853.899 205.416C841.582 211.221 832.103 211.349 814.029 205.95C794.087 199.994 781.289 193.291 771.015 183.422C766.052 178.653 755.927 170.047 748.515 164.295C731.736 151.278 729.976 147.771 732.584 132.528C734.785 119.653 753.314 64.3084 758.672 54.6026C760.873 50.6121 767.015 41.2256 772.32 33.7438C782.479 19.4145 790.806 4.37747 789.969 1.86866C789.697 1.05013 787.109 5.14853 784.219 10.9789ZM793.847 7.55233C792.416 11.3098 785.287 23.1705 778.005 33.9092C770.722 44.6465 763.763 55.3679 762.539 57.7343C761.317 60.0992 756.639 74.2559 752.144 89.1922C738.383 134.925 739.061 139.617 762.857 163.368C781.816 182.292 788.345 187.495 801.214 193.937C825.492 206.089 843.374 206.419 857.811 194.978C860.793 192.616 863.68 191.131 864.228 191.679C864.776 192.228 864.8 191.57 864.281 190.218C863.466 188.093 862.538 188.443 857.461 192.791C848.648 200.338 838.649 203.042 827.29 200.948C805.589 196.947 790.157 187.821 767.537 165.61C750.068 148.459 748.075 145.682 745.734 135.228C743.737 126.314 745.357 117.747 754.929 86.6101C763.616 58.3485 764.682 55.9951 775.917 40.2791C789.923 20.6876 800.903 0.719269 797.671 0.719269C796.998 0.719269 795.277 3.79486 793.847 7.55233ZM799.162 11.7198C796.025 17.9328 788.245 30.356 781.874 39.3282C775.501 48.2989 769.977 56.7144 769.596 58.0292C757.795 98.7384 752.919 118.669 752.936 126.132C752.961 136.868 758.641 146.286 774.856 162.461C795.97 183.529 814.363 193.483 832.169 193.483C840.62 193.483 845.886 191.567 851.197 186.558C856.269 181.775 863.634 171.292 863.634 168.857C863.634 167.862 860.875 171.169 857.502 176.205C847.164 191.642 836.4 195.087 817.119 189.129C804.297 185.167 789.168 174.672 774.325 159.44C754.915 139.52 752.104 131.448 757.291 110.517C761.964 91.6608 771.657 58.0062 773.369 54.6875C774.193 53.0921 778.961 46.2461 783.964 39.4735C793.346 26.777 807.047 2.60519 805.653 1.20981C805.22 0.776811 802.298 5.50528 799.162 11.7198ZM807.745 11.3386C804.498 17.2581 798.492 26.5137 794.4 31.9097C779.9 51.0206 773.212 66.5957 770.174 88.3334C769.355 94.1926 767.326 103.464 765.664 108.936C762.33 119.922 762.735 129.88 766.847 137.964C777.88 159.658 808.462 182.387 826.617 182.387C835.735 182.387 841.272 179.761 848.097 172.203C853.934 165.74 863.976 149.198 863.299 147.165C863.049 146.414 861.3 148.598 859.414 152.019C847.405 173.79 839.654 180.537 826.65 180.537C809.493 180.537 778.069 157.326 769.31 138.182C764.831 128.395 764.364 117.444 767.989 107.223C769.241 103.691 771.195 94.6055 772.332 87.0316C775.583 65.3729 780.752 53.61 796.665 31.6478C806.354 18.2738 815.545 2.47429 814.337 1.26591C813.957 0.887578 810.991 5.42041 807.745 11.3386ZM816.685 11.8334C800.286 33.3079 787.555 51.9758 784.485 59.0477C782.222 64.2595 781.094 70.8063 780.286 83.4352C779.68 92.9296 778.048 104.533 776.662 109.221C771.852 125.471 775.75 138.569 789.767 153.272C800.005 164.009 809.696 169.204 821.023 170.027C831.99 170.822 837.703 168.043 845.129 158.301C851.024 150.567 864.31 126.068 863.206 124.964C862.809 124.567 859.04 130.832 854.832 138.885C842.09 163.261 833.575 170.424 819.609 168.509C805.51 166.576 788.393 153.409 780.844 138.691C777.654 132.471 776.862 129.015 776.899 121.495C776.923 116.319 777.796 110.493 778.837 108.548C779.898 106.564 781.184 97.1243 781.766 87.0316C782.512 74.1092 783.664 66.8244 785.862 61.1379C788.716 53.7524 804.998 29.549 820.029 10.3488C823.625 5.75415 826.267 1.69316 825.897 1.32346C825.528 0.953751 821.382 5.68366 816.685 11.8334ZM487.957 7.80263C481.195 15.8426 481.184 26.2303 487.931 32.9814C493.049 38.1011 498.909 37.8609 504.462 32.3053C508.505 28.2601 508.789 27.325 508.183 20.0173C507.335 9.79357 503.54 4.47098 496.679 3.88118C492.53 3.52298 490.962 4.22786 487.957 7.80263ZM490.141 8.26872C482.954 15.9232 482.997 28.0127 490.231 33.0821C494.834 36.3087 498.163 35.7304 503.031 30.8595C506.96 26.9294 507.336 25.7959 506.673 19.9065C505.267 7.42573 496.637 1.35079 490.141 8.26872ZM842.058 6.37848C830.032 10.0381 814.18 24.8292 800.81 44.8637C789.388 61.9794 787.619 69.0657 790.86 84.74C793.776 98.8506 793.766 102.253 790.764 116.749C788.778 126.33 788.643 129.52 790.026 134.138C794.09 147.709 806.514 157.677 819.609 157.875C828.137 158.005 834.567 153.739 840.049 144.314C846.057 133.988 855.979 116.664 860.873 107.957C863.076 104.038 864.56 100.315 864.17 99.6835C863.781 99.052 861.371 102.582 858.816 107.529C856.259 112.475 852.17 119.758 849.726 123.714C847.283 127.67 842.886 135.32 839.956 140.713C833.221 153.111 828.343 156.45 818.07 155.69C805.401 154.755 795.312 146.016 791.711 132.858C790.634 128.925 790.853 125.15 792.587 117.753C794.885 107.949 794.87 106.177 792.24 75.1521C791.51 66.5238 791.859 64.5242 795.353 57.3819C800.596 46.6604 814.461 28.4313 823.68 20.1381C833.431 11.3659 840.889 7.63576 847.559 8.19104C855.782 8.87578 858.212 15.2773 859.469 39.5598C860.021 50.2409 861.231 61.4687 862.159 64.5098C864.328 71.6291 865.334 70.7142 863.535 63.2554C862.777 60.1122 861.887 50.0079 861.556 40.8013C860.86 21.3522 859.029 13.2432 854.254 8.4658C850.711 4.92124 848.238 4.49831 842.058 6.37848ZM624.966 18.6895C622.575 21.2371 621.423 24.4652 620.99 29.8382C620.431 36.7719 620.746 37.7487 624.757 41.5622C630.788 47.2948 641.2 48.4011 646.883 43.9128C653.803 38.4464 651.609 26.8345 642.151 18.8722C636.274 13.9251 629.508 13.8531 624.966 18.6895ZM626.526 19.9986C624.742 21.8989 622.944 25.9757 622.53 29.0599C621.17 39.2059 631.137 47.0273 642.302 44.5745C651.633 42.5232 651.15 29.5361 641.423 20.9926C635.341 15.6484 630.89 15.3521 626.526 19.9986ZM827.584 26.5799C821.018 30.0525 805.637 46.4648 801.553 54.3523C799.251 58.8017 798.425 62.9102 798.452 69.7691C798.486 77.9529 799.326 80.8113 805.182 92.6807C812.54 107.594 813.437 113.879 809.719 124.423C807.957 129.418 807.893 131.195 809.359 134.183C813.949 143.526 821.239 142.12 827.713 130.642C830.254 126.137 836.868 118.203 842.409 113.013C858.763 97.694 862.078 86.8215 857.259 64.2983C856.126 59.0002 854.14 49.644 852.846 43.5071C848.901 24.7918 840.988 19.4908 827.584 26.5799ZM829.494 27.5408C823.131 30.6797 806.416 48.6744 803.121 55.9361C798.554 65.9973 799.441 75.9131 806.153 89.7964C813.916 105.858 815.016 111.295 812.474 121.06C809.792 131.36 809.897 133.57 813.207 136.568C817.336 140.306 821.224 138.254 826.114 129.75C828.478 125.639 835.026 117.744 840.663 112.206C858.41 94.7709 860.044 88.5133 854.383 59.6591C848.567 30.0137 846.169 25.1212 837.489 25.2075C835.657 25.2248 832.059 26.2749 829.494 27.5408ZM824.094 43.6596C804.738 55.5535 802.859 73.6172 819.326 89.4613C827.482 97.307 834.888 98.4607 843.072 93.1597C852.727 86.9079 850.075 56.2353 838.843 44.2351C835.171 40.3107 829.88 40.1036 824.094 43.6596ZM822.58 47.1121C806.987 57.7228 806.197 73.9783 820.591 88.1105C825.863 93.2863 827.719 94.2243 832.685 94.2243C840.42 94.2243 844.502 91.1343 846.481 83.779C850.376 69.3073 840.895 42.4369 831.893 42.4369C830.55 42.4369 826.36 44.54 822.58 47.1121ZM1.8402 48.9103C2.53036 50.4927 3.06523 55.8412 3.02928 60.7969C2.98183 67.2502 3.35279 69.1088 4.3377 67.3495C6.73167 63.0684 6.15654 53.4877 3.27371 49.6296C1.41317 47.138 0.973199 46.9165 1.8402 48.9103ZM151.747 51.5284C143.48 54.6213 138.003 59.239 131.28 68.7837C121.12 83.2065 109.26 104.175 104.273 116.522C99.7486 127.728 99.6005 128.787 98.6429 156.801C97.8262 180.682 97.149 186.983 94.6573 193.879C86.8097 215.592 74.9074 230.602 55.5788 243.158C40.982 252.639 26.9489 267.044 21.3097 278.336C14.1364 292.697 15.4219 303.555 25.2767 311.851C37.7584 322.359 55.2509 322.781 76.617 313.086C92.5638 305.85 97.0656 305.655 115.743 311.393C123.379 313.739 134.334 316.707 140.087 317.99C155.408 321.405 157.64 323.796 173.067 353.338C178.728 364.176 181.076 382.09 180.363 408.991C179.98 423.359 180.242 431.554 181.037 430.133C181.752 428.857 182.366 417.003 182.402 403.793C182.477 376.91 179.966 360.817 174.164 351.003C172.294 347.839 168.476 340.923 165.681 335.635C158.576 322.191 154.704 319.718 131.018 313.499C119.972 310.599 107.355 307.277 102.979 306.117C94.1958 303.785 91.2166 304.475 69.957 313.754C52.266 321.476 33.2422 318.773 23.4665 307.148C16.0732 298.359 17.0595 287.798 26.634 273.199C33.5585 262.638 41.6535 254.847 55.5788 245.338C73.6349 233.009 83.6206 222.099 91.9441 205.609C98.4963 192.625 100.488 181.758 100.302 159.99C100.091 135.31 102.288 124.195 110.823 106.757C119.792 88.4298 136.064 63.8452 142.448 58.9743C157.397 47.5653 178.202 50.8149 192.652 66.8172C197.193 71.8449 197.923 73.6201 197.923 79.6173C197.923 86.5468 195.111 96.2612 189.526 108.618C179.631 130.511 184.518 160.037 200.735 176.346C211.946 187.621 221.283 191.121 240.339 191.192L254.717 191.244L271.095 183.119C287.568 174.945 293.275 173.206 322.259 167.524C340.401 163.967 346.7 161.739 356.992 155.24C366.198 149.427 368.641 146.118 383.352 119.554C399.418 90.5373 410.255 72.721 414.725 67.9709C420.669 61.6543 425.327 62.5865 449.993 75.027C469.868 85.0493 472.869 87.0862 483.42 97.7084C495.615 109.985 501.926 120.449 503.579 131.14C505.057 140.695 499.796 150.058 483.896 166.17C476.468 173.696 466.508 183.983 461.763 189.03C457.018 194.076 448.607 201.788 443.071 206.166C437.536 210.544 428.478 218.121 422.942 223.004C410.368 234.092 402.925 238.805 388.86 244.577C371.597 251.662 370.863 252.655 368.914 271.492C368.093 279.429 365.817 289.467 363.144 296.942C360.717 303.732 357.469 314.408 355.929 320.667C351.616 338.192 345.965 347.365 330.927 361.256C315.071 375.9 309.788 384.295 305.692 401.352C303.982 408.473 300.461 418.346 297.867 423.29C295.274 428.236 293.633 432.281 294.223 432.281C296.651 432.281 304.487 414.548 307.305 402.68C308.966 395.68 311.643 387.339 313.252 384.144C314.862 380.949 323.139 371.538 331.645 363.231C348.437 346.829 353.219 339.355 356.796 323.92C357.96 318.899 361.176 308.538 363.941 300.892C366.976 292.505 369.612 281.713 370.588 273.683C373.163 252.482 372.587 253.249 392.029 245.156C402.355 240.856 412.814 234.211 421.75 226.271C425.711 222.75 435.084 214.987 442.577 209.018C450.071 203.051 461.335 192.524 467.609 185.626C473.884 178.728 483.447 168.772 488.86 163.504C508.85 144.048 510.524 130.668 495.7 108.828C485.711 94.112 474.699 85.5513 449.084 72.5915C418.056 56.8927 418 56.9071 401.589 83.9876C396.498 92.3872 387.323 108.322 381.199 119.399C375.075 130.475 368.47 141.686 366.52 144.311C358.203 155.515 343.189 162.051 312.949 167.64C292.652 171.39 283.318 174.464 266.401 182.965C250.635 190.887 241.055 192.222 226.766 188.489C207.975 183.58 197.998 175.368 191.293 159.291C187.694 150.66 187.257 147.89 187.272 133.784C187.287 118.76 187.549 117.372 192.449 106.33C203.118 82.2901 202.875 73.2648 191.273 62.5635C179.714 51.9053 163.123 47.2732 151.747 51.5284ZM158.763 64.0092C148.76 67.0229 140.696 74.4386 125.116 94.9536C107.498 118.154 104.465 127.722 104.465 160.091C104.465 176.98 103.815 186.237 102.186 192.557C96.6501 214.024 81.4035 233.465 58.174 248.671C43.7211 258.134 36.7764 265.527 30.9661 277.638C24.703 290.693 25.9395 299.952 34.89 306.996C45.5773 315.408 57.8491 313.752 77.2956 301.277C93.8277 290.672 97.983 290.303 114.872 297.931C125.72 302.832 127.703 303.219 150.538 304.894C167.277 306.121 175.748 307.341 178.064 308.86C182.6 311.833 199.365 344.82 199.345 350.731C199.336 353.255 198.311 358.556 197.065 362.512C195.819 366.468 194.254 379.091 193.585 390.563C192.917 402.035 192.022 416.277 191.597 422.211C190.983 430.789 191.098 431.82 192.16 427.246C192.895 424.081 194.111 410.487 194.862 397.037C195.671 382.529 197.151 369.655 198.497 365.389C202.711 352.039 201.776 346.741 191.735 327.056C180.185 304.41 180.241 304.444 150.091 302.788C128.877 301.623 127.743 301.397 114.041 295.62C96.8413 288.369 93.2712 288.617 79.0771 298.051C65.2265 307.256 58.8067 309.937 50.5464 309.968C42.0014 309.999 35.2839 306.409 31.1286 299.589C27.2666 293.252 27.5182 289.283 32.4428 278.868C37.8648 267.4 45.0582 259.574 58.4228 250.602C74.5939 239.745 80.8168 234.293 88.098 224.602C103.073 204.672 106.207 193.86 106.015 162.821C105.856 137.651 107.491 128.313 114.475 114.47C122.522 98.5226 143.93 73.246 153.653 68.214C164.377 62.6642 177.903 65.9973 182.755 75.388C185.868 81.4112 185.551 86.3367 181.256 98.6478C175.809 114.256 175.05 131.646 179.131 147.393C182.889 161.899 190.455 178.638 195.2 182.939C200.232 187.502 218.8 197.119 229.424 200.663C237.453 203.342 241.269 203.68 259.046 203.286L279.452 202.834L291.755 209.146C299.854 213.302 306.588 215.702 311.461 216.171C318.062 216.805 319.307 216.457 322.949 212.966C325.196 210.812 328.177 206.032 329.573 202.345C334.714 188.761 342.308 180.052 358.346 169.342C368.328 162.677 374.339 156.294 379.927 146.429C396.555 117.067 416.056 94.3552 429.671 88.496C450.713 79.439 479.476 93.7467 492.091 119.544C496.85 129.276 497.136 137.334 493.008 145.39C489.808 151.636 460.642 181.138 441.634 197.356C399.263 233.511 387.255 238.843 362.683 232.42C347.36 228.414 342.375 228.526 339.485 232.938C336.346 237.73 338.213 243.834 346.526 255.982C350.149 261.276 353.54 267.879 354.06 270.654C355.57 278.704 353.576 288.161 348.538 296.845C342.158 307.841 341.778 308.945 339.418 323.412C336.125 343.585 330.335 352.474 314.431 361.766C300.215 370.073 296.353 375.066 295.164 386.672C293.266 405.213 289.972 410.606 272.36 424C267.032 428.054 262.941 431.638 263.269 431.966C264.34 433.039 286.765 415.171 289.932 410.718C293.741 405.366 295.419 399.855 297.035 387.39C298.614 375.21 301.768 370.747 313.057 364.727C330.545 355.402 338.998 342.87 341.497 322.562C342.253 316.415 344.155 308.971 345.725 306.019C355.902 286.882 356.495 285.337 356.495 277.905C356.495 269.634 353.277 261.615 345.76 251.15C342.569 246.708 341.167 243.091 341.093 239.111C340.929 230.366 343.269 229.678 359.6 233.669C377.002 237.921 387.203 237.267 399.73 231.09C411.471 225.301 445.307 197.516 470.691 172.817C499.993 144.304 502.949 137.038 493.159 117.58C488.36 108.04 477.349 96.2886 468.197 90.9401C457.993 84.9759 444.862 82.1046 436.931 84.1027C427.182 86.5583 422.446 89.4555 412.384 99.1196C400.85 110.196 389.976 124.612 381.346 140.268C373.547 154.413 365.842 162.891 354.484 169.824C343.164 176.733 335.382 185.78 328.469 200.06C325.197 206.817 321.264 213.02 319.727 213.843C315.117 216.312 305.15 213.856 291.765 206.952L279.16 200.452L261.184 201.394C239.981 202.504 234.26 201.423 215.896 192.827C195.75 183.398 191.191 178.268 183.88 156.801C176.55 135.284 176.255 120.925 182.724 100.657C189.02 80.9278 186.853 71.5817 174.604 65.6506C167.877 62.3908 165.09 62.1031 158.763 64.0092ZM27.0423 66.9122C22.7878 68.7132 18.0775 72.4174 8.4168 81.5608C-3.32301 92.6692 0.54329 91.3069 13.0739 79.9209C27.8878 66.4576 35.7253 64.4206 45.7498 71.4277C52.4156 76.0857 55.954 85.7412 56.7031 101.31C57.2639 112.938 56.3954 121.08 51.3214 151.81C47.6434 174.08 44.1466 190.834 42.4054 194.529C38.6053 202.588 33.4924 206.659 16.3723 215.256C8.51026 219.202 2.41677 222.771 2.83086 223.185C3.88335 224.238 31.9338 209.66 36.8986 205.481C44.0934 199.423 46.5248 191.628 52.5263 155.362C59.9425 110.552 60.3264 106.666 58.4788 95.0975C56.5292 82.8871 52.1797 73.4935 46.6513 69.5548C41.7987 66.098 32.0618 64.7846 27.0423 66.9122ZM24.6656 85.7872C18.0358 89.3505 2.37939 100.547 2.37939 101.725C2.37939 102.427 6.42398 100.137 11.3658 96.6352C23.0466 88.3622 28.6268 85.593 33.6204 85.593C49.169 85.593 52.4932 110.155 42.867 153.924C40.4313 165 37.6894 177.947 36.7749 182.694C35.3558 190.061 34.1337 192.274 28.437 197.799C24.7663 201.359 17.0164 206.745 11.2148 209.769C5.41319 212.791 0.97895 215.578 1.36141 215.961C1.74387 216.343 7.46783 213.702 14.0804 210.091C29.2623 201.8 36.1926 194.437 38.2573 184.4C39.1013 180.298 41.675 168.201 43.9784 157.52C53.6118 112.835 53.1603 95.611 42.1236 86.7036C38.6556 83.9042 29.1027 83.4036 24.6656 85.7872ZM229.114 95.6124C219.127 104.385 209.663 128.894 211.671 140.785C213.096 149.221 220.265 156.089 227.614 156.06C233.715 156.035 251.964 150.759 259.59 146.813C265.889 143.555 271.252 137.718 271.252 134.124C271.252 132.564 267.784 126.67 263.545 121.027C259.306 115.385 253.549 107.18 250.751 102.794C246.007 95.3578 240.841 91.3472 236.008 91.3472C234.887 91.3472 231.784 93.2662 229.114 95.6124ZM138.186 98.4162C129.072 103.645 121.568 111.891 116.179 122.592C109.951 134.961 108.578 143.995 110.002 163.245C111.716 186.452 109.861 203.34 104.353 214.677C97.9571 227.837 79.9311 245.508 63.9857 254.249C50.8699 261.437 45.3199 266.74 41.0093 276.199C36.9805 285.043 37.4938 292.133 42.5277 297.169C50.7232 305.369 62.348 301.149 78.7363 284.028C89.543 272.738 89.7586 272.603 96.8543 272.603C102.642 272.603 105.126 273.445 109.642 276.934C126.817 290.206 136.949 293.883 151.595 292.161C161.575 290.987 167.709 288.385 179.411 280.355C190.635 272.655 197.614 270.658 204.886 273.068C212.385 275.552 215.082 281.289 216.467 297.7C217.907 314.794 219.693 317.123 235.178 322.109C241.18 324.042 259.354 330.578 275.565 336.631C307.371 348.509 311.558 349.129 318.145 342.937C322.364 338.973 323.994 333.593 324.954 320.482C325.606 311.585 326.753 308.119 332.99 296.227C336.993 288.597 340.267 280.593 340.267 278.442C340.267 273.456 331.229 256.33 319.56 239.202C314.67 232.023 303.249 224.675 288.763 219.386C277.621 215.318 275.66 215.05 259.302 215.356L241.777 215.686L223.085 206.163C212.804 200.926 201.651 194.637 198.3 192.189C186.098 183.274 180.367 170.872 169.645 130.188C163.926 108.487 160.961 101.65 155.353 97.238C150.246 93.2173 146.834 93.4518 138.186 98.4162ZM228.695 98.0939C223.4 103.791 216.943 117.13 214.584 127.244C211.532 140.337 214.458 149.927 222.526 153.27C226.461 154.902 228.55 154.803 237.318 152.567C249.409 149.486 263.982 143.153 266.759 139.777C270.152 135.648 268.964 130.956 262.294 122.149C258.751 117.472 252.992 109.437 249.493 104.294C243.797 95.9188 242.577 94.8975 237.794 94.4976C233.467 94.1365 231.739 94.8198 228.695 98.0939ZM434.025 97.9414C418.091 105.885 398.345 128.495 384.866 154.227C380.411 162.732 371.724 172 357.889 183.009C351.031 188.467 345.327 199.163 346.591 204.199C348.664 212.465 364.08 223.52 376.65 225.756C385.029 227.247 395.747 223.435 405.688 215.43C410.433 211.609 417.55 206.284 421.504 203.595C445.552 187.247 478.105 158.868 485.336 147.946C488.875 142.601 489.801 139.672 489.801 133.82C489.801 119.935 478.754 104.635 463.34 97.1689C454.609 92.9396 443.468 93.2331 434.025 97.9414ZM435.626 99.1584C420.453 106.227 400.161 129.047 387.567 153.204C382.726 162.492 372.467 173.909 360.566 183.257C343.612 196.573 345.188 209.389 364.998 219.294C380.516 227.052 391.009 225.177 407.71 211.665C412.925 207.446 421.396 201.201 426.537 197.79C445.819 184.993 477.645 156.499 484.284 146.089C491.694 134.47 488.051 119.563 474.836 107.421C461.746 95.3981 449.322 92.78 435.626 99.1584ZM138.9 99.9295C131.319 103.939 122.064 114.757 116.923 125.613L112.373 135.223L112.355 166.87C112.337 202.289 111.201 208.736 102.728 221.536C94.7709 233.554 78.8326 248.343 67.3099 254.401C49.8347 263.589 42.4831 271.987 40.3752 285.17C39.6247 289.867 40.0704 291.501 43.0481 294.965C46.0187 298.42 47.6319 299.081 52.6097 298.882C60.5062 298.567 65.724 295.139 77.9527 282.23C92.6429 266.722 99.126 266.038 114.539 278.366C126.998 288.329 133.188 290.365 148.632 289.579C162.17 288.89 167.655 286.724 182.505 276.198C195.177 267.217 209.229 268.238 214.546 278.527C215.876 281.099 217.433 289.1 218.084 296.7C219.518 313.45 221.278 315.727 236.616 320.679C242.618 322.617 259.821 328.772 274.846 334.358C300.428 343.868 309.176 345.888 315.041 343.637C319.153 342.057 322.024 334.063 323.103 321.187C324.039 310.015 324.883 307.286 330.773 296.386C339.094 280.988 339.481 274.979 332.819 264.613C330.306 260.701 325.938 253.327 323.114 248.227C316.527 236.33 306.691 228.29 291.163 222.112C279.693 217.547 278.297 217.333 259.749 217.277L240.339 217.219L220.52 206.797C196.924 194.388 193.39 191.908 187.102 183.353C180.676 174.608 177.364 165.82 169.197 135.851C162.049 109.627 157.999 99.5281 154.013 97.9975C149.9 96.418 144.146 97.1531 138.9 99.9295ZM19.6994 104.447C14.3306 106.593 0.695699 114.598 1.33122 115.233C1.63891 115.541 6.88839 113.206 12.9963 110.044C27.6261 102.469 32.2616 102.49 36.2214 110.152C39.5499 116.592 38.6815 127.515 32.5693 156.073C25.9898 186.811 23.685 191.318 10.5778 199.094C1.83733 204.278 0.244223 206.896 8.35641 202.743C16.8525 198.393 23.6448 192.14 26.6512 185.899C30.5837 177.737 39.977 133.098 40.0575 122.192C40.1797 105.748 32.7203 99.2462 19.6994 104.447ZM445.947 104.258C438.064 106.073 431.881 110.281 420.804 121.367C408.006 134.175 399.858 147.187 392.9 165.931C387.48 180.532 385.704 183.101 376.776 189.264C373.527 191.507 370.013 195.408 368.968 197.934C367.15 202.325 367.27 202.71 371.662 206.637C379.268 213.437 384.648 212.183 397.319 200.656C401.971 196.424 407.608 192.951 412.338 191.403C428.118 186.239 440.255 178.805 461.575 161.241C480.377 145.753 484.53 136.691 478.948 123.329C473.586 110.487 458 101.48 445.947 104.258ZM437.3 109.897C428.098 115.178 411.53 132.718 404.759 144.347C401.876 149.3 397.408 159.206 394.828 166.361C390.047 179.629 386.636 184.308 375.799 192.466C371.714 195.54 370.462 197.498 370.462 200.811C370.462 204.413 371.321 205.498 375.599 207.286C382.05 209.983 385.504 208.955 392.748 202.184C400.564 194.877 406.052 191.34 412.877 189.212C427.421 184.675 452.15 168.472 469.175 152.322C481.661 140.48 482.706 128.318 472.259 116.414C462.379 105.156 449.685 102.789 437.3 109.897ZM133.221 116.95C126.818 120.406 119.491 132.361 117.299 142.93C114.722 155.349 119.185 196.606 125.491 218.658C128.298 228.47 129.245 235.277 129.411 246.774C129.579 258.582 130.189 262.802 132.163 265.816C139.139 276.463 149.151 277.232 169.167 268.66C186.98 261.03 193.247 259.449 206.428 259.265C224.379 259.012 225.515 260.017 230.728 280.785C232.355 287.263 234.8 294.266 236.163 296.349C239.496 301.436 265.01 319.522 272.671 322.227C282.12 325.561 291.873 325.066 296.586 321.011C299.859 318.195 300.616 316.196 301.136 309.014C301.857 299.027 299.502 293.142 292.795 288.182C288.589 285.071 287.19 280.778 289.849 279.135C290.586 278.679 293.984 279.279 297.397 280.467C306.205 283.537 309.446 283.205 312.844 278.882C316.53 274.194 316.543 272.285 312.976 259.409C309.481 246.786 305.524 240.688 297.217 235.125C283.741 226.099 269.532 225.85 255.203 234.391C242.721 241.83 239.559 241.388 232.674 231.244C225.49 220.66 216.025 211.953 206.398 207.072C188.86 198.182 175.374 179.927 169.934 157.717C166.846 145.108 155.387 121.974 150.475 118.429C144.853 114.372 138.936 113.865 133.221 116.95ZM443.071 118.052C432.677 123.428 421.865 137.694 417.839 151.341C416.285 156.614 416.378 157.881 418.568 161.226C420.873 164.746 421.635 164.987 427.763 164.152C445.176 161.777 469.677 144.271 469.665 134.213C469.658 127.676 464.834 120.354 458.902 117.874C452.558 115.221 448.453 115.267 443.071 118.052ZM128.831 122.902C121.857 130.237 118.724 139.885 118.693 154.125C118.656 170.811 122.685 200.554 127.529 219.345C130.767 231.912 131.783 239.079 131.783 249.339C131.783 262.753 131.808 262.845 136.672 267.712C143.522 274.565 150.647 274.41 168.162 267.027C188.681 258.376 191.874 257.596 207.026 257.546C221.023 257.498 221.198 257.542 225.121 261.932C227.877 265.016 230.014 270.178 232.145 278.901C233.828 285.797 236.566 293.348 238.227 295.683C242.1 301.125 266.276 318.022 274.182 320.813C288.54 325.882 297.629 322.083 299.243 310.336C300.441 301.621 298.513 296.487 291.246 289.04C282.165 279.732 286.861 274.486 300.03 279.225C306.825 281.669 307.213 281.666 309.988 279.154C314.506 275.063 314.632 272.58 310.96 259.945C306.694 245.264 302.336 239.432 291.752 234.24C278.89 227.931 269.396 228.51 255.043 236.483C241.072 244.242 238.564 243.858 231.546 232.882C224.449 221.782 217.082 214.808 206.482 209.155C187.122 198.832 175.881 184.316 168.945 160.683C163.95 143.665 154.617 124.201 149.533 120.2C147.155 118.328 143.65 117.241 139.993 117.241C135.136 117.241 133.355 118.144 128.831 122.902ZM445.71 118.79C431.612 122.963 413.386 155.095 421.36 161.716C426.013 165.58 448.072 156.834 459.418 146.627C467.693 139.184 469.519 133.97 466.138 127.429C462.169 119.75 454.058 116.319 445.71 118.79ZM4.53612 129.516L0.222656 131.59L5.25503 130.614C19.2019 127.908 21.8863 130.498 21.5153 146.308C21.0322 166.941 16.5563 179.813 7.17452 187.551C4.22986 189.979 2.15796 192.302 2.57062 192.715C4.296 194.441 15.1329 183.025 17.9179 176.549C21.2867 168.712 23.9194 154.538 23.9352 144.142C23.9582 129.595 16.3291 123.842 4.53612 129.516ZM131.23 137.445C122.747 147.534 123.095 164.934 132.335 192.561C137.683 208.551 150.524 237.789 154.932 244.015C161.224 252.899 170.961 254.052 194.073 248.644C207.382 245.53 212.301 241.299 212.301 232.965C212.301 225.028 207.831 219.629 192.045 208.499C174.655 196.237 169.175 188.499 164.154 169.112C156.399 139.154 141.69 125.009 131.23 137.445ZM134.98 135.469C133.97 135.876 131.868 138.711 130.307 141.771C126.583 149.076 126.57 164.562 130.276 179.278C135.957 201.824 153.441 241.414 160.029 246.646C163.802 249.641 165.182 249.844 177.075 249.155C198.733 247.899 210.863 242.481 210.863 234.069C210.863 227.85 206.37 220.926 198.839 215.538C173.389 197.326 168.528 191.383 162.876 171.58C154.617 142.64 145.736 131.143 134.98 135.469ZM701.676 168.319C701.169 169.643 701.758 171.681 703.009 172.932C706.063 175.988 710.114 174.237 709.528 170.113C708.962 166.118 703.04 164.766 701.676 168.319ZM703.418 168.866C702.985 169.566 703.536 170.893 704.643 171.812C706.884 173.673 709.179 171.534 707.63 169.028C706.531 167.247 704.467 167.167 703.418 168.866ZM570.485 175.909C569.603 177.559 568.881 181.896 568.881 185.548C568.881 195.201 564.667 202.115 558.782 202.115C558.101 202.115 553.88 198.905 549.4 194.982C538.978 185.859 533.877 184.106 523.935 186.229C510.87 189.02 504.678 193.032 493.244 206.118C487.343 212.871 477.847 222.385 472.14 227.263C457.704 239.6 453.067 245.288 446.534 258.664C439.431 273.206 438.056 274.7 426.373 280.593C415.68 285.986 410.095 291.74 407.908 299.62C405.135 309.611 406.151 325.581 410.72 343.811C415.635 363.415 415.848 366.115 412.93 371.759C410.213 377.018 408.457 377.626 391.724 379.118C377.687 380.37 371.097 382.591 365.07 388.105C361.318 391.537 360.914 395.201 364.004 397.767C365.76 399.225 369.232 398.951 382.18 396.337C395.454 393.657 399.119 393.386 403.651 394.745C410.263 396.727 420.338 407.687 425.402 418.41C432.961 434.411 432.46 433.568 431.487 428.684C429.339 417.914 417.298 399.974 408.697 394.725C403.096 391.308 396.16 391.326 379.807 394.801C369.438 397.005 366.499 397.193 365.016 395.75C362.141 392.954 364.256 389.829 371.807 385.717C377.281 382.736 381.855 381.679 393.562 380.689C407.678 379.495 408.577 379.219 412.427 374.906C417.669 369.037 417.71 362.676 412.626 343.746C409.674 332.753 408.778 326.084 408.771 315.04C408.758 294.896 411.943 289.589 429.004 281.321C438.377 276.776 442.972 271.727 447.407 261.095C451.816 250.516 454.607 247.213 482.81 219.177C511.804 190.356 515.72 187.729 529.692 187.729C537.364 187.729 540.314 189.185 549.049 197.281C555.971 203.696 560.454 204.964 564.692 201.709C568.539 198.754 570.319 193.994 570.319 186.66C570.319 174.761 569.785 174.935 602.67 176.084C627.361 176.946 632.365 177.513 638.072 180.089C647.685 184.429 655.505 192.069 669.072 210.375C675.663 219.269 683.478 228.145 686.436 230.099C695.064 235.797 708.282 238.091 731.566 237.93C744.861 237.839 756.551 238.599 764.424 240.065C771.146 241.316 780.739 242.352 785.743 242.368C790.747 242.382 803.687 243.76 814.499 245.429C835.338 248.647 859.693 248.479 862.822 245.097C863.958 243.868 863.426 243.671 860.758 244.334C850.165 246.967 834.916 246.832 817.624 243.95C807.739 242.303 795.297 240.955 789.977 240.955C784.656 240.955 772.363 239.691 762.659 238.146C750.558 236.218 738.915 235.408 725.603 235.569C694.3 235.949 686.676 232.376 671.202 210.073C659.417 193.089 647.206 181.536 636.996 177.716C629.807 175.024 624.56 174.454 600.349 173.741C572.75 172.927 572.054 172.977 570.485 175.909ZM605.545 186.842C597.222 190.779 592.904 195.225 586.037 206.925C578.495 219.771 565.974 225.733 553.552 222.385C550.406 221.538 544.137 218.255 539.621 215.09C522.711 203.238 515.671 202.018 506.192 209.297C487.322 223.786 464.327 245.271 460.841 251.668C453.087 265.908 454.737 281.518 466.691 307.027C470.61 315.389 474.238 324.598 474.754 327.488C476.038 334.695 472.252 342.166 464.668 347.387C454.676 354.264 449.987 360.777 446.052 373.24C439.017 395.525 438.608 408.266 444.347 426.527C447.066 435.177 447.197 429.352 444.509 419.334C441.568 408.366 441.831 396.009 445.293 382.562C449.57 365.948 454.407 356.792 461.512 351.861C464.813 349.569 469.455 345.645 471.828 343.14C475.582 339.177 476.141 337.526 476.141 330.399C476.141 323.568 475.031 319.948 469.445 308.555C461.247 291.838 458.169 281.702 458.169 271.431C458.169 258.629 460.721 252.694 470.345 243.113C480.225 233.279 506.044 210.9 510.531 208.279C515.762 205.226 521.906 206.196 530.123 211.369C534.438 214.085 540.786 218.071 544.231 220.226C547.912 222.529 553.325 224.416 557.362 224.805C571.066 226.122 580.895 219.85 590.406 203.721C598.724 189.615 609.511 183.834 624.91 185.23C635.502 186.191 643.284 190.275 650.802 198.817C656.414 205.195 659.925 210.326 670.97 228.296C679.314 241.873 691.866 245.875 731.355 247.549C746.899 248.21 753.915 249.254 766.581 252.799C782.176 257.162 782.82 257.219 812.591 256.921C840.673 256.64 861.647 255.013 863.548 252.968C863.991 252.492 860.794 252.518 856.445 253.024C852.096 253.531 833.579 254.253 815.297 254.63L782.058 255.315L767.849 250.963C755.957 247.321 749.773 246.394 729.917 245.277C682.888 242.631 681.465 242.015 666.683 217.939C650.678 191.868 639.754 183.402 622.158 183.428C615.259 183.438 610.808 184.353 605.545 186.842ZM611.708 196.247C606.947 199.266 603.455 203.244 599.278 210.399C592.166 222.579 583.997 230.211 575.792 232.333C572.386 233.213 568.444 234.27 567.032 234.68C559.792 236.786 541.083 235.273 528.475 231.561C512.357 226.817 507.995 227.313 493.198 235.584C466.469 250.524 461.742 261.543 471.082 287.145C476.36 301.615 493.044 330.706 498.292 334.587C501.975 337.311 528.587 349.553 540.843 354.159C547.774 356.765 559.226 355.946 566.202 352.347C568.862 350.976 574.92 346.33 579.664 342.023C589.686 332.927 595.877 329.481 610.089 325.088C629.331 319.14 647.905 306.741 651.898 297.179C653.648 292.99 653.688 290.481 652.155 281.04C650.043 268.028 651.169 262.503 658.254 251.1C662.244 244.677 662.625 243.067 662.102 234.838C661.371 223.365 656.198 212.422 647.197 203.307C634.985 190.941 623.63 188.682 611.708 196.247ZM614.172 196.697C610.228 198.984 605.709 204.078 599.794 212.907C589.319 228.539 583.371 232.996 568.881 236.067C555.81 238.838 543.351 238.069 529.341 233.632C514.167 228.824 507.972 229.384 494.603 236.768C467.622 251.668 463.381 262.292 473.746 288.999C478.541 301.354 493.919 328.138 498.8 332.638C500.573 334.27 507.768 337.97 514.789 340.857C521.811 343.746 530.869 347.801 534.918 349.871C540.362 352.652 544.53 353.65 550.908 353.696C561.472 353.775 567.526 350.859 580.087 339.646C590.316 330.516 596.1 327.257 608.359 323.727C622.985 319.514 644.821 307.026 648.358 300.849C649.498 298.859 650.118 291.187 650.118 279.059V260.341L654.924 252.832C657.567 248.702 660.066 242.814 660.477 239.748C662.141 227.344 651.833 207.184 639.429 198.584C631.268 192.925 621.886 192.225 614.172 196.697ZM620.815 212.012C619.33 213.498 617.043 217.937 615.737 221.874C614.43 225.812 611.925 230.382 610.171 232.029C604.904 236.978 586.556 243.94 569.406 247.499C551.135 251.29 547.437 252.895 537.85 261.197C525.735 271.688 521.489 271.868 505.821 262.555C495.131 256.201 493.016 255.785 487.056 258.869C480.959 262.023 479.01 268.087 480.964 277.821C483.007 287.997 495.69 312.389 502.777 319.767C508.909 326.151 546.458 345.968 552.423 345.968C559.178 345.968 565.404 342.06 573.69 332.617C584.06 320.801 586.242 319.393 599.84 315.746C617.837 310.921 626.901 304.813 630.772 294.9C631.698 292.527 632.944 280.551 633.541 268.287C634.681 244.851 634.963 243.454 640.307 234.87C644.178 228.653 644.52 223.799 641.499 217.954C637.134 209.51 626.399 206.424 620.815 212.012ZM164.357 213.377C161.217 216.848 161.355 220.187 164.876 225.888C167.819 230.654 175.306 235.201 180.208 235.201C184.272 235.201 189.296 231.103 189.296 227.785C189.296 224.27 182.223 217.352 174.709 213.516C168.021 210.103 167.328 210.093 164.357 213.377ZM620.67 215.364C619.125 217.903 617.458 221.825 616.963 224.08C614.687 234.45 596.915 243.894 569.229 249.447C552.953 252.712 546.531 255.558 537.968 263.304C528.303 272.046 521.631 273.276 512.031 268.085C493.622 258.128 494.196 258.338 489.713 259.902C484.202 261.824 482.612 264.956 482.612 273.892C482.612 279.811 484.045 283.943 490.511 296.664C501.906 319.084 503.713 320.876 526.952 332.801C554.945 347.167 559.876 346.962 572.806 330.908C581.125 320.578 585.692 317.78 601.493 313.327C626.657 306.237 630.353 300.77 631.13 269.494C631.652 248.503 631.68 248.352 637.049 237.334C643.156 224.806 643.072 221.459 636.496 214.877C630.64 209.02 624.409 209.211 620.67 215.364ZM164.302 215.861C163.011 219.226 166.837 227.092 171.134 229.909C177.66 234.188 182.856 234.513 185.451 230.806C188.478 226.482 186.653 223.251 178.129 217.842C170.78 213.178 165.615 212.439 164.302 215.861ZM693.971 251.953C686.39 253.367 681.344 255.542 678.505 258.619C674.456 263.004 666.119 292.794 667.36 298.443C669.195 306.798 690.335 321.699 706.912 326.321C711.261 327.534 719.344 329.258 724.876 330.155C735.95 331.948 744.749 335.847 754.457 343.263C762.876 349.69 774.606 354.831 793.9 360.547C806.951 364.413 811.829 365.184 821.811 364.957C835.506 364.648 843.395 366.299 850.694 371.006C853.461 372.791 857.667 375.398 860.039 376.799L864.353 379.345L859.68 375.141C850.081 366.499 842.941 364.121 823.375 363.048C796.693 361.587 771.688 353.531 754.155 340.748C744.115 333.429 733.307 329.066 721.078 327.398C707.468 325.543 696.797 321.63 685.853 314.483C672.313 305.64 669.528 302.421 669.528 295.611C669.528 289.914 675.543 265.98 678.241 260.935C678.966 259.578 682.469 257.357 686.021 255.999C691.524 253.896 695.316 253.682 711.56 254.552C750.223 256.627 756.899 258.551 771.372 271.805C782.856 282.32 785.881 284.111 792.157 284.111C798.384 284.111 800.967 282.956 809.783 276.222C818.049 269.91 830.776 265.815 848.768 263.675C856.944 262.704 863.634 261.403 863.634 260.783C863.634 259.334 864.314 259.289 847.019 261.859C827.868 264.704 818.613 267.977 806.773 276.087C792.627 285.779 788.548 285.222 774.184 271.638C761.33 259.484 751.485 255.604 729.166 253.899C718.976 253.121 707.697 252.215 704.102 251.884C700.508 251.553 695.948 251.585 693.971 251.953ZM586.854 267.41C580.527 270.052 567.263 275.883 557.378 280.367C544.17 286.357 536.632 288.88 528.944 289.881C518.54 291.235 513.049 293.171 511.03 296.195C505.118 305.055 522.002 319.154 540.856 321.1C550.409 322.087 552.92 319.832 557.423 306.224C561.946 292.558 568.878 285.55 577.877 285.55C581.429 285.55 587.086 286.521 590.448 287.708C598.832 290.667 601.039 290.447 606.153 286.141C611.788 281.398 612.316 273.237 607.342 267.765C602.333 262.253 599.328 262.199 586.854 267.41ZM697.261 264.877C688.351 269.273 683.563 288.159 688.811 298.209C691.426 303.219 697.705 309.021 703.901 312.151C718.489 319.524 749.944 306.616 754.505 291.387C756.91 283.352 752.437 273.882 744.263 269.71C731.261 263.073 706.151 260.492 697.261 264.877ZM698.595 266.137C695.35 267.548 693.001 270.114 691.078 274.352C683.878 290.228 691.232 306.482 707.873 311.471C716.036 313.918 724.925 312.31 737.199 306.166C748.436 300.541 752.907 295.168 752.916 287.276C752.929 275.834 744.699 269.405 725.694 266.013C711.803 263.533 704.508 263.568 698.595 266.137ZM593.324 266.446C592.138 266.891 579.197 272.591 564.567 279.115C544.126 288.231 535.855 291.202 528.848 291.947C512.675 293.665 509.553 296.394 513.717 305.173C515.211 308.323 518.246 311.258 521.991 313.173C528.134 316.316 540.431 320.029 544.797 320.057C548.934 320.086 552.526 315.238 555.914 305.049C559.817 293.318 567.223 284.823 574.786 283.404C578.247 282.753 582.964 283.36 589.104 285.246C600.035 288.604 605.111 287.493 607.729 281.169C611.955 270.963 603.722 262.549 593.324 266.446ZM855.338 270.517C844.607 273.409 840.613 275.774 833.597 283.389C819.52 298.668 815.973 317.878 824.246 334.037C827.818 341.013 830.905 344.065 846.021 355.568C855.707 362.939 863.634 368.479 863.634 367.88C863.634 367.28 857.648 362.302 850.334 356.816C843.02 351.331 834.929 344.901 832.359 342.525C822.673 333.578 819.027 312.965 824.856 300.112C832.169 283.986 843.45 274.418 858.242 271.799C861.208 271.274 863.634 270.268 863.634 269.566C863.634 268.863 863.473 268.331 863.275 268.382C863.076 268.434 859.506 269.395 855.338 270.517ZM707.853 280.988C704.732 284.439 704.834 288.84 708.104 291.8C713.702 296.871 725.603 293.109 725.603 286.269C725.603 279.286 712.83 275.486 707.853 280.988ZM709.17 282.056C702.462 288.769 712.841 296.199 720.969 290.503C722.728 289.271 724.165 287.367 724.165 286.269C724.165 283.599 718.546 279.796 714.602 279.796C712.858 279.796 710.414 280.813 709.17 282.056ZM854.656 283.603C844.274 290.995 840.665 306.207 844.872 324.845C846.715 333.017 853.457 346.499 858.491 352.082C863.746 357.91 864.549 356.894 859.63 350.644C846.495 333.96 841.218 309.001 847.771 294.559C849.668 290.379 852.684 287.101 857.367 284.13C861.124 281.746 863.255 279.796 862.101 279.796C860.948 279.796 857.598 281.509 854.656 283.603ZM860.75 302.834C858.674 307.849 859.536 326.843 862.035 331.141C862.866 332.571 863.566 332.984 863.591 332.061C863.614 331.136 864.067 329.25 864.597 327.869C865.224 326.233 865.01 325.697 863.985 326.331C861.523 327.853 860.208 313.075 862.16 305.825C864.153 298.42 863.313 296.641 860.75 302.834ZM426.824 308.854C424.074 311.606 424.713 320.718 427.856 323.563C434.974 330.009 442.134 321.656 437.616 312.176C435.081 306.859 430.292 305.384 426.824 308.854ZM428.304 310.251C424.699 313.857 427.861 324.39 432.549 324.39C436.683 324.39 438.777 318.409 436.387 313.423C434.194 308.846 430.972 307.581 428.304 310.251ZM1.18168 314.358C1.56414 315.525 5.0638 318.899 8.95742 321.859C24.588 333.737 47.5715 337.156 74.7277 331.643C91.0929 328.322 98.4388 328.551 106.621 332.64C117.222 337.939 121.664 345.213 125.302 363.231C128.903 381.066 130.389 383.806 139.861 390.081C144.44 393.115 150.111 398.338 152.463 401.689C156.197 407.009 156.821 409.333 157.382 420.03C157.736 426.768 158.59 432.281 159.282 432.281C160.974 432.281 160.872 422.919 159.077 413.45C157.125 403.147 152.008 395.824 142.518 389.75C138.203 386.99 133.713 383.263 132.538 381.469C131.363 379.675 129.082 371.763 127.468 363.885C123.946 346.696 119.29 338.351 110.019 332.617C100.748 326.882 91.4021 326.217 72.9692 329.978C64.7664 331.652 54.9979 333.022 51.261 333.022C35.0093 333.022 17.3529 327.09 7.33268 318.267C3.56703 314.951 0.799222 313.191 1.18168 314.358ZM640.053 320.952C635.308 323.061 623.567 327.473 613.962 330.759C597.502 336.388 590.432 340.239 575.564 351.679C563.197 361.194 547.242 363.93 529.341 359.606C515.175 356.184 509.01 356.737 503.852 361.897L499.434 366.318L500.554 387.431C502.37 421.656 503.395 433.099 504.495 431.408C505.066 430.533 504.902 423.088 504.134 414.864C500.041 371.067 500.543 363.913 507.939 360.541C512.74 358.351 517.233 358.494 527.508 361.157C549.226 366.787 564.002 363.483 582.54 348.846C593.318 340.337 600.335 336.756 613.243 333.177C618.825 331.629 628.757 327.886 635.317 324.859C645.856 319.996 648.494 319.363 658.026 319.414C667.653 319.468 670.428 320.188 683.906 326.138C692.21 329.804 706.768 335.467 716.257 338.723C727.455 342.565 737.802 347.344 745.733 352.335C761.408 362.201 773.007 367.981 787.008 372.902C797.46 376.576 799.808 376.842 821.937 376.868C843.523 376.894 846.188 377.179 851.509 380.029C854.725 381.751 858.201 384.179 859.233 385.423C860.265 386.668 861.779 387.686 862.594 387.686C865.654 387.686 858.586 381.784 851.193 378.164C844.632 374.954 841.907 374.46 832.37 374.762C805.457 375.612 801.053 375.325 790.308 372.01C776.019 367.604 762.115 360.882 746.969 351.058C738.433 345.522 729.436 341.269 718.213 337.467C709.229 334.421 694.762 328.818 686.063 325.013C672.684 319.161 668.585 318.019 659.464 317.608C650.253 317.19 647.422 317.68 640.053 320.952ZM642.878 329.894C638.897 331.376 634.368 333.265 632.813 334.092C631.259 334.918 622.871 337.634 614.172 340.127C601.798 343.673 595.828 346.332 586.743 352.35C568.32 364.551 555.007 370.178 538.687 372.66C521.441 375.284 516.288 382.476 514.963 405.768C514.515 413.624 513.86 422.805 513.505 426.167C513.139 429.642 513.47 432.281 514.271 432.281C515.047 432.281 515.693 428.236 515.707 423.29C515.749 408.657 518.188 389.699 520.636 384.957C523.598 379.229 528.343 376.891 543.913 373.491C559.825 370.015 569.508 365.761 586.468 354.797C596.685 348.191 602.98 345.289 613.453 342.358C620.966 340.255 631.642 336.54 637.177 334.103C645.61 330.392 649.107 329.665 658.745 329.621C669.673 329.571 671.466 330.058 694.69 339.403C723.628 351.046 732.568 355.53 753.641 368.969C762.34 374.518 774.309 381.141 780.24 383.687C790.044 387.898 792.333 388.313 805.402 388.263C813.31 388.231 823.986 387.693 829.126 387.066C840.906 385.63 848.432 387.565 857.247 394.298C860.915 397.098 864.284 399.023 864.734 398.573C865.722 397.585 866.113 397.927 856.712 391.537C845.594 383.978 844.225 383.847 810.338 387.085C793.542 388.69 776.255 382.07 746.394 362.598C730.421 352.18 728.033 351.01 697.566 338.682C674.901 329.512 670.345 328.146 660.901 327.703C652.908 327.329 648.244 327.896 642.878 329.894ZM2.37939 329.581C2.37939 330.987 20.5117 338.707 28.9216 340.877C38.9173 343.46 60.0533 343.762 74.4372 341.529C88.4301 339.357 96.9405 341.497 103.593 348.866C109.68 355.607 111.122 363.218 108.78 376.235C105.746 393.092 101.323 398.731 83.0038 409.115C62.1079 420.955 52.2675 420.513 32.3076 406.837C15.5268 395.339 9.603 393.152 4.78486 396.677C2.70433 398.199 3.48938 398.475 9.90207 398.475C16.8094 398.475 18.506 399.203 29.1775 406.754C50.6168 421.922 59.839 422.959 80.2963 412.501C103.324 400.728 109.622 392.032 111.197 369.827C112.045 357.855 109.802 351.173 103.015 345.459C95.5976 339.216 88.9434 337.993 73.0598 339.961C46.762 343.218 30.3651 341.264 10.6469 332.528C6.10047 330.513 2.37939 329.186 2.37939 329.581ZM651.555 335.797C649.183 336.369 642.066 339.171 635.739 342.023C629.413 344.875 619.873 348.214 614.539 349.443C601.721 352.397 596.776 354.558 579.607 364.714C571.667 369.409 560.448 374.997 554.675 377.129C541.936 381.834 531.315 390.775 527.93 399.642C525.344 406.419 521.398 432.281 522.95 432.281C523.49 432.281 524.685 426.292 525.605 418.974C528.587 395.259 534.945 386.771 555.72 378.777C561.772 376.448 571.9 371.438 578.227 367.643C595.874 357.055 600.662 354.925 615.429 351.087C622.95 349.132 633.186 345.413 638.174 342.824C646.43 338.537 648.401 338.113 660.182 338.087C672.372 338.058 674.122 338.462 690.377 345.055C715.98 355.441 733.77 365.164 748.821 376.998C765.504 390.113 777.237 397.175 787.21 400.101C795.615 402.568 799.849 402.271 821.479 397.7C839.919 393.804 847.321 395.609 858.961 406.843C862.321 410.087 865.072 412.033 865.072 411.17C865.072 409.084 854.872 399.942 849.367 397.094C841.63 393.091 833.5 392.886 818.645 396.322C801.286 400.335 788.361 399.898 778.203 394.954C774.314 393.06 762.827 385.272 752.675 377.645C731.405 361.664 719.155 354.807 693.796 344.681C668.93 334.752 661.955 333.285 651.555 335.797ZM1.54401 344.343C1.96961 345.03 8.30608 347.754 15.6275 350.395C30.3565 355.709 40.4097 356.414 67.1316 354.004C78.6745 352.963 81.5587 353.138 85.3776 355.115C93.8018 359.473 96.5236 367.477 92.8744 377.163C89.0843 387.219 71.1403 399.194 59.862 399.194C51.56 399.194 47.5643 396.647 36.473 384.285C29.3558 376.35 25.2695 373.004 21.3759 371.923C14.4887 370.009 5.12994 370.047 2.37939 371.999C0.763277 373.145 1.74387 373.357 6.28882 372.839C18.759 371.419 23.6347 373.706 36.1682 386.855C52.358 403.839 58.3753 405.206 76.0936 395.919C96.8572 385.038 103.27 364.776 88.9951 355.151C84.2029 351.92 73.1446 349.562 68.8599 350.858C67.4868 351.272 60.9174 352.279 54.2617 353.095C39.4234 354.915 28.0891 353.34 13.0725 347.371C1.3801 342.723 0.383692 342.461 1.54401 344.343ZM638.957 350.176C629.015 355.412 622.332 357.839 613.367 359.471C603.573 361.253 596.953 363.839 579.045 372.883C545.104 390.027 538.307 396.661 533.643 417.208C532.389 422.729 531.026 428.379 530.615 429.763C530.203 431.147 530.465 432.281 531.195 432.281C531.927 432.281 533.584 427.006 534.876 420.558C537.577 407.086 542.044 398.592 550.018 391.763C553.098 389.125 566.205 381.611 579.144 375.064C598.329 365.36 604.527 362.904 612.734 361.762C620.233 360.719 626.589 358.435 637.663 352.806C651.599 345.721 653.169 345.255 662.825 345.334C673.561 345.422 685.898 349.431 708.349 360.127C729.621 370.261 748.252 386.285 757.843 402.694C763.826 412.93 767.844 417.106 772.885 418.331C777.588 419.475 789.506 417.153 808.278 411.435C829.921 404.841 832.517 404.439 840.748 406.416C845.989 407.673 850.051 410.08 855.782 415.319C860.1 419.269 863.634 421.87 863.634 421.1C863.634 418.311 851.085 408.213 844.487 405.692C835.648 402.315 827.389 403.232 806.121 409.956C797.027 412.83 785.524 415.565 780.558 416.031C772.45 416.793 771.168 416.54 767.969 413.532C766.009 411.691 762.509 406.82 760.189 402.707C754.614 392.824 741.603 378.92 730.538 371.019C711.304 357.288 675.996 343.091 661.077 343.091C653.479 343.091 650.76 343.962 638.957 350.176ZM261.475 350.572C259.012 353.036 259.331 355.726 262.635 360.368C265.765 364.767 276.069 370.424 280.949 370.424C284.312 370.424 288.506 366.908 288.506 364.087C288.506 360.455 278.297 352.028 271.961 350.432C264.094 348.45 263.588 348.457 261.475 350.572ZM651.203 353.119C647.846 354.644 642.617 357.887 639.583 360.326C633.062 365.57 621.058 370.415 614.516 370.445C594.393 370.537 559.443 388.175 549.451 403.281C544.134 411.318 537.237 432.281 539.909 432.281C540.612 432.281 541.535 430.178 541.96 427.605C542.386 425.033 544.193 419.05 545.978 414.309C553.544 394.191 583.348 375.607 612.97 372.538C625.039 371.287 628.885 369.759 641.196 361.328C657.525 350.142 665.83 349.517 687.501 357.845C707.513 365.535 720.925 374.145 731.874 386.328C740.207 395.602 742.857 403.626 742.857 419.59C742.857 428.175 743.391 432.281 744.506 432.281C746.689 432.281 745.215 407.706 742.593 400.377C736.163 382.399 712.358 364.114 682.195 353.984C669.127 349.595 659.551 349.327 651.203 353.119ZM262.625 354.71C262.625 358.908 269.754 365.558 276.145 367.325C282.419 369.058 285.63 368.215 285.63 364.836C285.63 358.674 275.797 351.723 267.081 351.723C263.528 351.723 262.625 352.328 262.625 354.71ZM654.431 361.733C651.268 363.346 645.511 367.198 641.639 370.291C633.067 377.139 624.359 379.98 605.68 382.021C582.172 384.592 568.247 391.846 558.552 406.578C553.344 414.492 548.078 428.105 549.072 431.087C549.378 432.005 551.069 428.368 552.829 423.004C561.04 397.974 574.996 387.826 606.521 383.956C626.102 381.552 635.696 378.068 646.005 369.615C660.303 357.895 673.33 357.513 695.776 368.155C719.935 379.61 731.355 397.057 731.355 422.513C731.355 428.066 731.976 432.281 732.792 432.281C734.575 432.281 734.571 430.429 732.754 414.558C730.099 391.373 720.055 378.363 695.638 366.478C683.832 360.732 680.575 359.783 671.104 359.327C662.241 358.899 659.098 359.353 654.431 361.733ZM222.666 368.507C211.917 373.807 207.979 384.734 208.008 409.166C208.027 426.007 208.816 432.281 210.915 432.281C211.551 432.281 211.395 429.854 210.573 426.886C208.359 418.91 209.943 389.781 212.999 382.286C218.063 369.864 228.698 365.124 240.145 370.189C249.285 374.234 260.808 385.366 262.823 392.098C264.294 397.009 264.081 398.19 260.675 404.006C256.339 411.409 248.268 418.756 236.363 426.138C231.804 428.965 228.375 431.579 228.743 431.947C229.684 432.889 243.25 424.36 250.757 418.105C259.048 411.198 265.501 401.333 265.501 395.568C265.501 384.316 244.316 366.035 231.398 366.141C229.198 366.158 225.269 367.224 222.666 368.507ZM661.019 367.587C659.107 368.402 653.284 372.207 648.079 376.04C632.254 387.692 630.642 388.244 605.815 390.52C578.583 393.017 566.097 401.989 559.656 423.69C556.967 432.75 556.973 432.702 558.816 431.561C559.607 431.072 560.26 429.578 560.268 428.24C560.293 423.986 567.45 410.159 572.204 405.182C580.795 396.186 587.611 393.869 611.092 391.96C629.006 390.503 636.011 387.795 650.01 376.92C654.642 373.321 660.121 370.004 662.184 369.548C664.246 369.091 667.071 368.41 668.46 368.033C672.411 366.96 686.796 370.405 694.382 374.239C709.572 381.918 717.964 393.744 721.277 412.141C724.798 431.691 725.241 433.456 725.422 428.684C725.69 421.653 723.007 407.705 719.654 398.698C713.239 381.469 694.227 368.066 674.336 366.752C668.924 366.394 662.932 366.77 661.019 367.587ZM665.729 376.225C663.246 376.991 658.07 379.878 654.227 382.638C645.719 388.755 632.887 395.551 627.298 396.9C625.028 397.449 616.484 398.485 608.31 399.204C588.819 400.918 578.438 406.22 572.806 417.339C569.989 422.901 568.186 432.879 570.227 431.618C571.068 431.098 571.756 429.297 571.756 427.616C571.756 422.571 577.496 412.291 582.327 408.684C588.796 403.854 595.091 402.184 612.638 400.642C629.54 399.156 638.537 395.963 650.632 387.161C666.214 375.822 677.182 374.106 690.549 380.916C703.714 387.624 709.651 397.439 713.337 418.586C714.559 425.603 715.879 431.662 716.269 432.052C718.975 434.759 713.701 407.07 709.873 398.475C706.65 391.235 698.439 382.802 690.831 378.92C684.078 375.473 672.277 374.205 665.729 376.225ZM657.307 391.428C636.371 403.808 633.8 404.783 614.478 407.683C599.363 409.952 595.206 411.118 591.112 414.243C585.489 418.534 581.772 424.783 581.922 429.691C581.998 432.157 582.556 431.546 584.113 427.289C586.861 419.783 592.704 413.843 599.015 412.146C601.815 411.392 609.84 410.078 616.845 409.227C631.826 407.404 637.591 405.297 652.752 396.1C666.378 387.836 672.538 385.659 679.231 386.747C692.427 388.889 701.119 400.785 704.351 421.132C705.326 427.263 706.607 432.281 707.199 432.281C709.728 432.281 703.106 404.677 699.202 398.941C693.259 390.214 686.102 385.761 677.055 385.167C669.36 384.661 668.04 385.079 657.307 391.428ZM467.399 390.772C459.848 394.437 457.519 407.761 461.69 423.438C463.872 431.646 466.406 435.933 464.788 428.684C464.259 426.311 463.073 419.691 462.153 413.971C460.693 404.895 460.79 402.924 462.918 398.462C465.648 392.732 470.44 390.175 474.476 392.294C479.112 394.726 485.814 411.343 486.601 422.353C486.993 427.814 487.919 432.281 488.659 432.281C490.225 432.281 488.896 418.252 486.616 410.703C484.1 402.372 478.481 392.2 475.519 390.615C472.215 388.846 471.332 388.863 467.399 390.772ZM668.09 398.294C664.532 399.237 657.702 402.43 652.913 405.387C641.702 412.314 632.608 415.689 619.205 417.9C607.002 419.912 601.692 422.198 598.444 426.839C594.576 432.361 595.992 432.705 600.95 427.447C603.562 424.675 607.282 422.073 609.217 421.663C611.151 421.253 617.771 419.951 623.928 418.77C635.14 416.618 642.215 413.709 659.226 404.255C679.11 393.206 689.95 399.755 694.047 425.301L695.282 433L694.765 424.029C693.607 403.946 683.515 394.208 668.09 398.294ZM2.37939 413.316C2.37939 414.221 4.73885 418.697 7.62168 423.263C13.8244 433.079 13.7094 432.932 14.5088 432.133C14.8539 431.789 12.2658 427.043 8.75756 421.588C5.24928 416.133 2.37939 412.412 2.37939 413.316ZM383.93 413.134C379.859 413.932 370.394 422.205 367.144 427.804C363.295 434.439 366.275 433.163 370.454 426.387C375.382 418.4 381.921 414.641 391.122 414.509C400.637 414.371 408.495 418.34 414.674 426.406C419.992 433.344 420.997 432.32 416.111 424.941C410.18 415.985 395.974 410.773 383.93 413.134ZM823.802 415.112C814.223 416.969 803.325 423.766 800.213 429.822C799.09 432.006 800.321 431.338 804.148 427.685C812.031 420.158 820.873 416.52 831.283 416.52C841.668 416.52 849.446 419.791 856.367 427.07C859.093 429.936 861.973 432.281 862.77 432.281C863.566 432.281 861.68 429.68 858.577 426.502C849.023 416.713 836.573 412.635 823.802 415.112ZM830.669 426.173C826.748 426.87 820.051 430.872 821.08 431.902C821.45 432.272 823.231 431.537 825.04 430.27C829.233 427.332 838.072 427.312 843.71 430.229C846.116 431.474 848.409 432.169 848.804 431.773C849.748 430.829 842.336 427.119 837.753 426.242C835.776 425.863 832.589 425.832 830.669 426.173ZM386.996 430.234C384.191 432.521 384.21 432.551 387.715 431.448C392.25 430.022 394.544 430.011 399.937 431.385C403.179 432.212 403.848 432.074 402.627 430.831C399.839 427.99 390.2 427.621 386.996 430.234Z" fill="#BDDBFA"/>
</svg>
