<svg xmlns="http://www.w3.org/2000/svg" width="248" height="25" viewBox="0 0 248 25" fill="none">
  <path d="M0 14.2601C0 12.1917 0.45267 10.352 1.35801 8.74105C2.26335 7.11018 3.52076 5.84726 5.13026 4.95227C6.75987 4.03739 8.60072 3.57995 10.6528 3.57995C13.1677 3.57995 15.3204 4.23628 17.1109 5.54893C18.9015 6.86158 20.0985 8.65155 20.7021 10.9189H15.0286C14.6061 10.0438 14.0026 9.37749 13.218 8.92005C12.4534 8.46261 11.5783 8.23389 10.5925 8.23389C9.0031 8.23389 7.7155 8.78083 6.72969 9.8747C5.74388 10.9686 5.25097 12.4304 5.25097 14.2601C5.25097 16.0899 5.74388 17.5517 6.72969 18.6456C7.7155 19.7395 9.0031 20.2864 10.5925 20.2864C11.5783 20.2864 12.4534 20.0577 13.218 19.6002C14.0026 19.1428 14.6061 18.4765 15.0286 17.6014H20.7021C20.0985 19.8687 18.9015 21.6587 17.1109 22.9714C15.3204 24.2641 13.1677 24.9105 10.6528 24.9105C8.60072 24.9105 6.75987 24.463 5.13026 23.568C3.52076 22.6531 2.26335 21.3902 1.35801 19.7792C0.45267 18.1683 0 16.3286 0 14.2601Z" fill="#0958A8"/>
  <path d="M28.4192 10.889C29.0227 9.97415 29.7772 9.25815 30.6825 8.74105C31.5879 8.20406 32.5938 7.93556 33.7003 7.93556V13.3353H32.2819C30.9944 13.3353 30.0287 13.6138 29.3849 14.1706C28.7411 14.7076 28.4192 15.6623 28.4192 17.0346V24.7613H23.2587V8.11456H28.4192V10.889Z" fill="#0958A8"/>
  <path d="M38.1586 6.38425C37.2533 6.38425 36.5089 6.1257 35.9255 5.60859C35.3621 5.0716 35.0805 4.41528 35.0805 3.63962C35.0805 2.84407 35.3621 2.18775 35.9255 1.67064C36.5089 1.13365 37.2533 0.865155 38.1586 0.865155C39.0439 0.865155 39.7681 1.13365 40.3315 1.67064C40.9149 2.18775 41.2066 2.84407 41.2066 3.63962C41.2066 4.41528 40.9149 5.0716 40.3315 5.60859C39.7681 6.1257 39.0439 6.38425 38.1586 6.38425ZM40.7238 8.11456V24.7613H35.5633V8.11456H40.7238Z" fill="#0958A8"/>
  <path d="M50.7103 25C49.2417 25 47.9339 24.7514 46.7872 24.2542C45.6404 23.757 44.7351 23.0807 44.0712 22.2255C43.4072 21.3504 43.0351 20.3759 42.9546 19.3019H48.0547C48.115 19.8787 48.3866 20.3461 48.8695 20.7041C49.3523 21.0621 49.9458 21.2411 50.65 21.2411C51.2938 21.2411 51.7867 21.1217 52.1287 20.8831C52.4908 20.6245 52.6719 20.2963 52.6719 19.8986C52.6719 19.4212 52.4204 19.0732 51.9174 18.8544C51.4145 18.6158 50.5997 18.3572 49.473 18.0788C48.2659 17.8003 47.26 17.5119 46.4552 17.2136C45.6505 16.8954 44.9564 16.4081 44.3729 15.7518C43.7895 15.0756 43.4978 14.1706 43.4978 13.037C43.4978 12.0823 43.7593 11.2172 44.2824 10.4415C44.8256 9.64598 45.6102 9.01949 46.6363 8.56205C47.6825 8.10461 48.9198 7.8759 50.3482 7.8759C52.4606 7.8759 54.1204 8.393 55.3275 9.42721C56.5548 10.4614 57.2589 11.8337 57.44 13.5442H52.6719C52.5914 12.9674 52.3299 12.5099 51.8873 12.1718C51.4648 11.8337 50.9014 11.6647 50.1973 11.6647C49.5937 11.6647 49.131 11.784 48.8091 12.0227C48.4872 12.2414 48.3263 12.5497 48.3263 12.9475C48.3263 13.4248 48.5777 13.7828 49.0807 14.0215C49.6038 14.2601 50.4085 14.4988 51.4949 14.7375C52.7423 15.0557 53.7583 15.3739 54.5429 15.6921C55.3275 15.9905 56.0116 16.4877 56.595 17.1838C57.1986 17.86 57.5104 18.7749 57.5305 19.9284C57.5305 20.9029 57.2489 21.778 56.6856 22.5537C56.1423 23.3095 55.3477 23.9061 54.3015 24.3437C53.2754 24.7812 52.0784 25 50.7103 25Z" fill="#0958A8"/>
  <path d="M69.4695 20.4356V24.7613H66.844C64.973 24.7613 63.5143 24.3138 62.4682 23.4189C61.422 22.504 60.8989 21.0223 60.8989 18.9737V12.3508H58.8468V8.11456H60.8989V4.05728H66.0594V8.11456H69.4393V12.3508H66.0594V19.0334C66.0594 19.5306 66.1801 19.8886 66.4215 20.1074C66.6629 20.3262 67.0653 20.4356 67.6286 20.4356H69.4695Z" fill="#0958A8"/>
  <path d="M74.3357 6.38425C73.4303 6.38425 72.6859 6.1257 72.1025 5.60859C71.5392 5.0716 71.2575 4.41528 71.2575 3.63962C71.2575 2.84407 71.5392 2.18775 72.1025 1.67064C72.6859 1.13365 73.4303 0.865155 74.3357 0.865155C75.2209 0.865155 75.9452 1.13365 76.5085 1.67064C77.0919 2.18775 77.3836 2.84407 77.3836 3.63962C77.3836 4.41528 77.0919 5.0716 76.5085 5.60859C75.9452 6.1257 75.2209 6.38425 74.3357 6.38425ZM76.9008 8.11456V24.7613H71.7404V8.11456H76.9008Z" fill="#0958A8"/>
  <path d="M79.0109 16.4081C79.0109 14.6977 79.3328 13.1961 79.9766 11.9033C80.6405 10.6106 81.5358 9.61615 82.6624 8.92005C83.7891 8.22395 85.0465 7.8759 86.4347 7.8759C87.6217 7.8759 88.6578 8.11456 89.543 8.59188C90.4483 9.06921 91.1424 9.6957 91.6253 10.4714V8.11456H96.7857V24.7613H91.6253V22.4045C91.1223 23.1802 90.4182 23.8067 89.5128 24.284C88.6276 24.7613 87.5915 25 86.4045 25C85.0364 25 83.7891 24.6519 82.6624 23.9558C81.5358 23.2399 80.6405 22.2355 79.9766 20.9427C79.3328 19.6301 79.0109 18.1185 79.0109 16.4081ZM91.6253 16.4379C91.6253 15.1651 91.2631 14.1607 90.5389 13.4248C89.8347 12.6889 88.9696 12.321 87.9436 12.321C86.9175 12.321 86.0424 12.6889 85.3181 13.4248C84.6139 14.1408 84.2619 15.1352 84.2619 16.4081C84.2619 17.681 84.6139 18.6953 85.3181 19.4511C86.0424 20.187 86.9175 20.5549 87.9436 20.5549C88.9696 20.5549 89.8347 20.187 90.5389 19.4511C91.2631 18.7152 91.6253 17.7108 91.6253 16.4379Z" fill="#0958A8"/>
  <path d="M110.176 7.93556C112.148 7.93556 113.717 8.572 114.884 9.84487C116.071 11.0979 116.664 12.8282 116.664 15.0358V24.7613H111.534V15.722C111.534 14.6082 111.242 13.743 110.659 13.1265C110.075 12.5099 109.291 12.2017 108.305 12.2017C107.319 12.2017 106.535 12.5099 105.951 13.1265C105.368 13.743 105.076 14.6082 105.076 15.722V24.7613H99.9155V8.11456H105.076V10.3222C105.599 9.58632 106.303 9.00955 107.188 8.59188C108.074 8.15434 109.069 7.93556 110.176 7.93556Z" fill="#0958A8"/>
  <path d="M144.39 24.7613H139.23L130.599 11.8437V24.7613H125.438V3.81862H130.599L139.23 16.7959V3.81862H144.39V24.7613Z" fill="#0958A8"/>
  <path d="M146.501 16.4081C146.501 14.6977 146.823 13.1961 147.467 11.9033C148.131 10.6106 149.026 9.61615 150.153 8.92005C151.279 8.22395 152.537 7.8759 153.925 7.8759C155.112 7.8759 156.148 8.11456 157.033 8.59188C157.939 9.06921 158.633 9.6957 159.115 10.4714V8.11456H164.276V24.7613H159.115V22.4045C158.613 23.1802 157.908 23.8067 157.003 24.284C156.118 24.7613 155.082 25 153.895 25C152.527 25 151.279 24.6519 150.153 23.9558C149.026 23.2399 148.131 22.2355 147.467 20.9427C146.823 19.6301 146.501 18.1185 146.501 16.4081ZM159.115 16.4379C159.115 15.1651 158.753 14.1607 158.029 13.4248C157.325 12.6889 156.46 12.321 155.434 12.321C154.408 12.321 153.533 12.6889 152.808 13.4248C152.104 14.1408 151.752 15.1352 151.752 16.4081C151.752 17.681 152.104 18.6953 152.808 19.4511C153.533 20.187 154.408 20.5549 155.434 20.5549C156.46 20.5549 157.325 20.187 158.029 19.4511C158.753 18.7152 159.115 17.7108 159.115 16.4379Z" fill="#0958A8"/>
  <path d="M172.566 10.889C173.17 9.97415 173.924 9.25815 174.83 8.74105C175.735 8.20406 176.741 7.93556 177.847 7.93556V13.3353H176.429C175.141 13.3353 174.176 13.6138 173.532 14.1706C172.888 14.7076 172.566 15.6623 172.566 17.0346V24.7613H167.406V8.11456H172.566V10.889Z" fill="#0958A8"/>
  <path d="M187.285 19.9881L190.937 8.11456H196.429L190.454 24.7613H184.086L178.111 8.11456H183.633L187.285 19.9881Z" fill="#0958A8"/>
  <path d="M196.971 16.4081C196.971 14.6977 197.293 13.1961 197.937 11.9033C198.601 10.6106 199.496 9.61615 200.623 8.92005C201.75 8.22395 203.007 7.8759 204.395 7.8759C205.582 7.8759 206.618 8.11456 207.504 8.59188C208.409 9.06921 209.103 9.6957 209.586 10.4714V8.11456H214.746V24.7613H209.586V22.4045C209.083 23.1802 208.379 23.8067 207.473 24.284C206.588 24.7613 205.552 25 204.365 25C202.997 25 201.75 24.6519 200.623 23.9558C199.496 23.2399 198.601 22.2355 197.937 20.9427C197.293 19.6301 196.971 18.1185 196.971 16.4081ZM209.586 16.4379C209.586 15.1651 209.224 14.1607 208.499 13.4248C207.795 12.6889 206.93 12.321 205.904 12.321C204.878 12.321 204.003 12.6889 203.279 13.4248C202.574 14.1408 202.222 15.1352 202.222 16.4081C202.222 17.681 202.574 18.6953 203.279 19.4511C204.003 20.187 204.878 20.5549 205.904 20.5549C206.93 20.5549 207.795 20.187 208.499 19.4511C209.224 18.7152 209.586 17.7108 209.586 16.4379ZM209.978 3.96778L202.705 6.98091V3.46062L209.978 0V3.96778Z" fill="#0958A8"/>
  <path d="M233.75 16.1695C233.75 16.6468 233.719 17.144 233.659 17.6611H221.98C222.061 18.6953 222.393 19.4909 222.976 20.0477C223.58 20.5847 224.314 20.8532 225.179 20.8532C226.467 20.8532 227.362 20.3162 227.865 19.2422H233.357C233.076 20.3361 232.563 21.3206 231.818 22.1957C231.094 23.0708 230.179 23.757 229.072 24.2542C227.966 24.7514 226.728 25 225.36 25C223.71 25 222.242 24.6519 220.954 23.9558C219.667 23.2597 218.661 22.2653 217.936 20.9726C217.212 19.6798 216.85 18.1683 216.85 16.4379C216.85 14.7076 217.202 13.1961 217.906 11.9033C218.63 10.6106 219.636 9.61615 220.924 8.92005C222.212 8.22395 223.69 7.8759 225.36 7.8759C226.99 7.8759 228.438 8.214 229.706 8.89022C230.973 9.56643 231.959 10.531 232.663 11.784C233.387 13.037 233.75 14.4988 233.75 16.1695ZM228.468 14.827C228.468 13.9519 228.167 13.2558 227.563 12.7387C226.96 12.2216 226.205 11.963 225.3 11.963C224.435 11.963 223.7 12.2116 223.097 12.7088C222.513 13.206 222.151 13.9121 222.01 14.827H228.468Z" fill="#0958A8"/>
  <path d="M240.697 20.5549H248V24.7613H234.933V20.7041L241.934 12.321H234.993V8.11456H247.849V12.1718L240.697 20.5549Z" fill="#0958A8"/>
</svg>