<svg xmlns="http://www.w3.org/2000/svg" width="177" height="50" viewBox="0 0 177 50" fill="none">
  <path d="M0.851562 10.2637C0.851562 8.78464 1.17156 7.46908 1.81156 6.31708C2.45156 5.15086 3.34045 4.24774 4.47823 3.60774C5.63023 2.95352 6.93157 2.62641 8.38224 2.62641C10.16 2.62641 11.6818 3.09574 12.9476 4.03441C14.2134 4.97308 15.0596 6.25308 15.4862 7.87441H11.4756C11.1769 7.24863 10.7502 6.77219 10.1956 6.44508C9.65513 6.11797 9.03646 5.95441 8.33957 5.95441C7.21601 5.95441 6.30579 6.34552 5.6089 7.12775C4.91201 7.90997 4.56357 8.9553 4.56357 10.2637C4.56357 11.5722 4.91201 12.6175 5.6089 13.3997C6.30579 14.182 7.21601 14.5731 8.33957 14.5731C9.03646 14.5731 9.65513 14.4095 10.1956 14.0824C10.7502 13.7553 11.1769 13.2789 11.4756 12.6531H15.4862C15.0596 14.2744 14.2134 15.5544 12.9476 16.4931C11.6818 17.4175 10.16 17.8798 8.38224 17.8798C6.93157 17.8798 5.63023 17.5598 4.47823 16.9198C3.34045 16.2655 2.45156 15.3624 1.81156 14.2104C1.17156 13.0584 0.851562 11.7429 0.851562 10.2637Z" fill="#F1F7FE"/>
  <path d="M20.9416 7.85308C21.3682 7.19886 21.9016 6.68686 22.5416 6.31708C23.1816 5.93308 23.8927 5.74108 24.6749 5.74108V9.60241H23.6722C22.762 9.60241 22.0794 9.80153 21.6242 10.1997C21.1691 10.5837 20.9416 11.2664 20.9416 12.2477V17.7731H17.2936V5.86908H20.9416V7.85308Z" fill="#F1F7FE"/>
  <path d="M27.8266 4.63174C27.1866 4.63174 26.6604 4.44685 26.2479 4.07708C25.8497 3.69308 25.6506 3.22374 25.6506 2.66908C25.6506 2.10019 25.8497 1.63085 26.2479 1.26107C26.6604 0.877073 27.1866 0.685073 27.8266 0.685073C28.4524 0.685073 28.9644 0.877073 29.3626 1.26107C29.775 1.63085 29.9813 2.10019 29.9813 2.66908C29.9813 3.22374 29.775 3.69308 29.3626 4.07708C28.9644 4.44685 28.4524 4.63174 27.8266 4.63174ZM29.6399 5.86908V17.7731H25.9919V5.86908H29.6399Z" fill="#F1F7FE"/>
  <path d="M36.6996 17.9438C35.6614 17.9438 34.7369 17.766 33.9263 17.4104C33.1156 17.0549 32.4756 16.5713 32.0063 15.9598C31.5369 15.334 31.2738 14.6371 31.2169 13.8691H34.8223C34.8649 14.2815 35.0569 14.6158 35.3983 14.8718C35.7396 15.1278 36.1591 15.2558 36.6569 15.2558C37.112 15.2558 37.4605 15.1704 37.7023 14.9998C37.9583 14.8149 38.0863 14.5802 38.0863 14.2958C38.0863 13.9544 37.9085 13.7055 37.5529 13.5491C37.1974 13.3784 36.6214 13.1935 35.8249 12.9944C34.9716 12.7953 34.2605 12.5891 33.6916 12.3757C33.1227 12.1482 32.632 11.7997 32.2196 11.3304C31.8071 10.8469 31.6009 10.1997 31.6009 9.38908C31.6009 8.70641 31.7858 8.08775 32.1556 7.53308C32.5396 6.96419 33.0943 6.51619 33.8196 6.18908C34.5591 5.86197 35.4338 5.69841 36.4436 5.69841C37.9369 5.69841 39.1103 6.06819 39.9636 6.80775C40.8312 7.5473 41.3289 8.52864 41.4569 9.75175H38.0863C38.0294 9.3393 37.8445 9.01219 37.5316 8.77041C37.2329 8.52864 36.8347 8.40775 36.3369 8.40775C35.9103 8.40775 35.5831 8.49308 35.3556 8.66375C35.128 8.82019 35.0143 9.04064 35.0143 9.32508C35.0143 9.66641 35.192 9.92241 35.5476 10.0931C35.9174 10.2637 36.4863 10.4344 37.2543 10.6051C38.136 10.8326 38.8543 11.0602 39.4089 11.2877C39.9636 11.5011 40.4472 11.8566 40.8596 12.3544C41.2863 12.838 41.5067 13.4922 41.5209 14.3171C41.5209 15.014 41.3218 15.6398 40.9236 16.1944C40.5396 16.7349 39.9778 17.1615 39.2383 17.4744C38.5129 17.7873 37.6667 17.9438 36.6996 17.9438Z" fill="#F1F7FE"/>
  <path d="M49.9608 14.6798V17.7731H48.1048C46.7821 17.7731 45.751 17.4531 45.0114 16.8131C44.2719 16.1589 43.9021 15.0993 43.9021 13.6344V8.89841H42.4514V5.86908H43.9021V2.96774H47.5501V5.86908H49.9394V8.89841H47.5501V13.6771C47.5501 14.0326 47.6354 14.2886 47.8061 14.4451C47.9768 14.6015 48.2612 14.6798 48.6594 14.6798H49.9608Z" fill="#F1F7FE"/>
  <path d="M53.4008 4.63174C52.7608 4.63174 52.2345 4.44685 51.8221 4.07708C51.4239 3.69308 51.2248 3.22374 51.2248 2.66908C51.2248 2.10019 51.4239 1.63085 51.8221 1.26107C52.2345 0.877073 52.7608 0.685073 53.4008 0.685073C54.0265 0.685073 54.5385 0.877073 54.9368 1.26107C55.3492 1.63085 55.5554 2.10019 55.5554 2.66908C55.5554 3.22374 55.3492 3.69308 54.9368 4.07708C54.5385 4.44685 54.0265 4.63174 53.4008 4.63174ZM55.2141 5.86908V17.7731H51.5661V5.86908H55.2141Z" fill="#F1F7FE"/>
  <path d="M56.7058 11.7997C56.7058 10.5766 56.9333 9.50286 57.3884 8.57841C57.8578 7.65397 58.4907 6.94286 59.2871 6.44508C60.0836 5.9473 60.9724 5.69841 61.9538 5.69841C62.7929 5.69841 63.5253 5.86908 64.1511 6.21041C64.7911 6.55174 65.2818 6.99974 65.6231 7.55441V5.86908H69.2711V17.7731H65.6231V16.0878C65.2676 16.6424 64.7698 17.0904 64.1298 17.4318C63.504 17.7731 62.7716 17.9438 61.9324 17.9438C60.9653 17.9438 60.0836 17.6949 59.2871 17.1971C58.4907 16.6851 57.8578 15.9669 57.3884 15.0424C56.9333 14.1038 56.7058 13.0229 56.7058 11.7997ZM65.6231 11.8211C65.6231 10.9109 65.3671 10.1926 64.8551 9.66641C64.3573 9.14019 63.7458 8.87708 63.0204 8.87708C62.2951 8.87708 61.6764 9.14019 61.1644 9.66641C60.6667 10.1784 60.4178 10.8895 60.4178 11.7997C60.4178 12.71 60.6667 13.4353 61.1644 13.9757C61.6764 14.502 62.2951 14.7651 63.0204 14.7651C63.7458 14.7651 64.3573 14.502 64.8551 13.9757C65.3671 13.4495 65.6231 12.7313 65.6231 11.8211Z" fill="#F1F7FE"/>
  <path d="M78.737 5.74108C80.1307 5.74108 81.2401 6.19619 82.065 7.10641C82.9041 8.00241 83.3236 9.23975 83.3236 10.8184V17.7731H79.697V11.3091C79.697 10.5126 79.4907 9.89397 79.0783 9.45308C78.6658 9.01219 78.1112 8.79175 77.4143 8.79175C76.7174 8.79175 76.1627 9.01219 75.7503 9.45308C75.3378 9.89397 75.1316 10.5126 75.1316 11.3091V17.7731H71.4836V5.86908H75.1316V7.44775C75.5014 6.92152 75.9992 6.50908 76.625 6.21041C77.2507 5.89752 77.9547 5.74108 78.737 5.74108Z" fill="#F1F7FE"/>
  <path d="M102.923 17.7731H99.2755L93.1741 8.53575V17.7731H89.5261V2.79708H93.1741L99.2755 12.0771V2.79708H102.923V17.7731Z" fill="#F1F7FE"/>
  <path d="M104.416 11.7997C104.416 10.5766 104.643 9.50286 105.098 8.57841C105.568 7.65397 106.201 6.94286 106.997 6.44508C107.794 5.9473 108.682 5.69841 109.664 5.69841C110.503 5.69841 111.235 5.86908 111.861 6.21041C112.501 6.55174 112.992 6.99974 113.333 7.55441V5.86908H116.981V17.7731H113.333V16.0878C112.978 16.6424 112.48 17.0904 111.84 17.4318C111.214 17.7731 110.482 17.9438 109.642 17.9438C108.675 17.9438 107.794 17.6949 106.997 17.1971C106.201 16.6851 105.568 15.9669 105.098 15.0424C104.643 14.1038 104.416 13.0229 104.416 11.7997ZM113.333 11.8211C113.333 10.9109 113.077 10.1926 112.565 9.66641C112.067 9.14019 111.456 8.87708 110.73 8.87708C110.005 8.87708 109.386 9.14019 108.874 9.66641C108.377 10.1784 108.128 10.8895 108.128 11.7997C108.128 12.71 108.377 13.4353 108.874 13.9757C109.386 14.502 110.005 14.7651 110.73 14.7651C111.456 14.7651 112.067 14.502 112.565 13.9757C113.077 13.4495 113.333 12.7313 113.333 11.8211Z" fill="#F1F7FE"/>
  <path d="M122.842 7.85308C123.268 7.19886 123.802 6.68686 124.442 6.31708C125.082 5.93308 125.793 5.74108 126.575 5.74108V9.60241H125.572C124.662 9.60241 123.979 9.80153 123.524 10.1997C123.069 10.5837 122.842 11.2664 122.842 12.2477V17.7731H119.194V5.86908H122.842V7.85308Z" fill="#F1F7FE"/>
  <path d="M133.247 14.3598L135.828 5.86908H139.711L135.487 17.7731H130.985L126.761 5.86908H130.665L133.247 14.3598Z" fill="#F1F7FE"/>
  <path d="M140.094 11.7997C140.094 10.5766 140.322 9.50286 140.777 8.57841C141.246 7.65397 141.879 6.94286 142.676 6.44508C143.472 5.9473 144.361 5.69841 145.342 5.69841C146.181 5.69841 146.914 5.86908 147.54 6.21041C148.18 6.55174 148.67 6.99974 149.012 7.55441V5.86908H152.66V17.7731H149.012V16.0878C148.656 16.6424 148.158 17.0904 147.518 17.4318C146.892 17.7731 146.16 17.9438 145.321 17.9438C144.354 17.9438 143.472 17.6949 142.676 17.1971C141.879 16.6851 141.246 15.9669 140.777 15.0424C140.322 14.1038 140.094 13.0229 140.094 11.7997ZM149.012 11.8211C149.012 10.9109 148.756 10.1926 148.244 9.66641C147.746 9.14019 147.134 8.87708 146.409 8.87708C145.684 8.87708 145.065 9.14019 144.553 9.66641C144.055 10.1784 143.806 10.8895 143.806 11.7997C143.806 12.71 144.055 13.4353 144.553 13.9757C145.065 14.502 145.684 14.7651 146.409 14.7651C147.134 14.7651 147.746 14.502 148.244 13.9757C148.756 13.4495 149.012 12.7313 149.012 11.8211ZM149.289 2.90374L144.148 5.05841V2.54107L149.289 0.0664062V2.90374Z" fill="#F1F7FE"/>
  <path d="M166.093 11.6291C166.093 11.9704 166.072 12.326 166.029 12.6957H157.773C157.83 13.4353 158.065 14.0042 158.477 14.4024C158.904 14.7864 159.423 14.9784 160.035 14.9784C160.945 14.9784 161.578 14.5944 161.933 13.8264H165.816C165.617 14.6086 165.254 15.3126 164.728 15.9384C164.216 16.5642 163.569 17.0549 162.787 17.4104C162.004 17.766 161.13 17.9438 160.163 17.9438C158.996 17.9438 157.958 17.6949 157.048 17.1971C156.138 16.6993 155.427 15.9882 154.915 15.0638C154.403 14.1393 154.147 13.0584 154.147 11.8211C154.147 10.5837 154.396 9.50286 154.893 8.57841C155.405 7.65397 156.116 6.94286 157.027 6.44508C157.937 5.9473 158.982 5.69841 160.163 5.69841C161.315 5.69841 162.339 5.94019 163.235 6.42374C164.131 6.9073 164.828 7.59708 165.325 8.49308C165.837 9.38908 166.093 10.4344 166.093 11.6291ZM162.36 10.6691C162.36 10.0433 162.147 9.54552 161.72 9.17575C161.293 8.80597 160.76 8.62108 160.12 8.62108C159.508 8.62108 158.989 8.79886 158.563 9.15441C158.15 9.50997 157.894 10.0149 157.795 10.6691H162.36Z" fill="#F1F7FE"/>
  <path d="M171.005 14.7651H176.167V17.7731H166.93V14.8718L171.879 8.87708H166.973V5.86908H176.061V8.77041L171.005 14.7651Z" fill="#F1F7FE"/>
  <path d="M51.5245 39.2558C51.5245 40.4931 51.0979 41.5242 50.2445 42.3491C49.4054 43.1598 48.1183 43.5651 46.3832 43.5651H43.5245V49.7731H41.5832V34.9038H46.3832C48.0614 34.9038 49.3343 35.3091 50.2018 36.1198C51.0836 36.9304 51.5245 37.9758 51.5245 39.2558ZM46.3832 41.9651C47.4641 41.9651 48.2605 41.7304 48.7725 41.2611C49.2845 40.7918 49.5405 40.1233 49.5405 39.2558C49.5405 37.4211 48.4881 36.5038 46.3832 36.5038H43.5245V41.9651H46.3832Z" fill="#F1F7FE"/>
  <path d="M58.6094 49.9651C57.5142 49.9651 56.5187 49.7162 55.6227 49.2184C54.7409 48.7207 54.044 48.0167 53.532 47.1064C53.0342 46.182 52.7854 45.1153 52.7854 43.9064C52.7854 42.7118 53.0414 41.6593 53.5534 40.7491C54.0796 39.8247 54.7907 39.1207 55.6867 38.6371C56.5827 38.1393 57.5854 37.8904 58.6947 37.8904C59.804 37.8904 60.8067 38.1393 61.7027 38.6371C62.5987 39.1207 63.3027 39.8175 63.8147 40.7278C64.3409 41.638 64.604 42.6975 64.604 43.9064C64.604 45.1153 64.3338 46.182 63.7934 47.1064C63.2671 48.0167 62.5489 48.7207 61.6387 49.2184C60.7285 49.7162 59.7187 49.9651 58.6094 49.9651ZM58.6094 48.2584C59.3062 48.2584 59.9605 48.0949 60.572 47.7678C61.1836 47.4407 61.6742 46.95 62.044 46.2958C62.428 45.6415 62.62 44.8451 62.62 43.9064C62.62 42.9678 62.4351 42.1713 62.0654 41.5171C61.6956 40.8629 61.212 40.3793 60.6147 40.0664C60.0174 39.7393 59.3702 39.5758 58.6734 39.5758C57.9622 39.5758 57.308 39.7393 56.7107 40.0664C56.1276 40.3793 55.6582 40.8629 55.3027 41.5171C54.9471 42.1713 54.7694 42.9678 54.7694 43.9064C54.7694 44.8593 54.94 45.6629 55.2813 46.3171C55.6369 46.9713 56.1062 47.462 56.6894 47.7891C57.2725 48.102 57.9125 48.2584 58.6094 48.2584Z" fill="#F1F7FE"/>
  <path d="M68.6712 39.9811C69.0125 39.3127 69.4961 38.7935 70.1219 38.4238C70.7619 38.054 71.537 37.8691 72.4472 37.8691V39.8744H71.9352C69.7592 39.8744 68.6712 41.0549 68.6712 43.4158V49.7731H66.7299V38.0824H68.6712V39.9811Z" fill="#F1F7FE"/>
  <path d="M76.6295 39.6824V46.5731C76.6295 47.142 76.7504 47.5473 76.9922 47.7891C77.234 48.0167 77.6535 48.1304 78.2509 48.1304H79.6802V49.7731H77.9309C76.85 49.7731 76.0393 49.5242 75.4989 49.0264C74.9584 48.5287 74.6882 47.7109 74.6882 46.5731V39.6824H73.1735V38.0824H74.6882V35.1384H76.6295V38.0824H79.6802V39.6824H76.6295Z" fill="#F1F7FE"/>
  <path d="M80.8804 43.8851C80.8804 42.6904 81.1222 41.6451 81.6057 40.7491C82.0893 39.8389 82.7506 39.1349 83.5897 38.6371C84.443 38.1393 85.3888 37.8904 86.427 37.8904C87.451 37.8904 88.3399 38.1109 89.0937 38.5518C89.8475 38.9927 90.4093 39.5473 90.779 40.2158V38.0824H92.7417V49.7731H90.779V47.5971C90.3951 48.2798 89.819 48.8487 89.051 49.3038C88.2973 49.7447 87.4155 49.9651 86.4057 49.9651C85.3675 49.9651 84.4288 49.7091 83.5897 49.1971C82.7506 48.6851 82.0893 47.9669 81.6057 47.0424C81.1222 46.118 80.8804 45.0655 80.8804 43.8851ZM90.779 43.9064C90.779 43.0247 90.6013 42.2567 90.2457 41.6024C89.8902 40.9482 89.4066 40.4504 88.7951 40.1091C88.1977 39.7535 87.5364 39.5758 86.811 39.5758C86.0857 39.5758 85.4244 39.7464 84.827 40.0878C84.2297 40.4291 83.7533 40.9269 83.3977 41.5811C83.0422 42.2353 82.8644 43.0033 82.8644 43.8851C82.8644 44.7811 83.0422 45.5633 83.3977 46.2318C83.7533 46.886 84.2297 47.3909 84.827 47.7464C85.4244 48.0878 86.0857 48.2584 86.811 48.2584C87.5364 48.2584 88.1977 48.0878 88.7951 47.7464C89.4066 47.3909 89.8902 46.886 90.2457 46.2318C90.6013 45.5633 90.779 44.7882 90.779 43.9064Z" fill="#F1F7FE"/>
  <path d="M100.353 39.6824H97.8997V49.7731H95.9584V39.6824H94.4437V38.0824H95.9584V37.2504C95.9584 35.942 96.2926 34.9891 96.9611 34.3918C97.6437 33.7802 98.7317 33.4744 100.225 33.4744V35.0958C99.3717 35.0958 98.7673 35.2664 98.4117 35.6078C98.0704 35.9349 97.8997 36.4824 97.8997 37.2504V38.0824H100.353V39.6824Z" fill="#F1F7FE"/>
  <path d="M107.289 49.9651C106.193 49.9651 105.198 49.7162 104.302 49.2184C103.42 48.7207 102.723 48.0167 102.211 47.1064C101.713 46.182 101.465 45.1153 101.465 43.9064C101.465 42.7118 101.721 41.6593 102.233 40.7491C102.759 39.8247 103.47 39.1207 104.366 38.6371C105.262 38.1393 106.265 37.8904 107.374 37.8904C108.483 37.8904 109.486 38.1393 110.382 38.6371C111.278 39.1207 111.982 39.8175 112.494 40.7278C113.02 41.638 113.283 42.6975 113.283 43.9064C113.283 45.1153 113.013 46.182 112.473 47.1064C111.946 48.0167 111.228 48.7207 110.318 49.2184C109.408 49.7162 108.398 49.9651 107.289 49.9651ZM107.289 48.2584C107.985 48.2584 108.64 48.0949 109.251 47.7678C109.863 47.4407 110.353 46.95 110.723 46.2958C111.107 45.6415 111.299 44.8451 111.299 43.9064C111.299 42.9678 111.114 42.1713 110.745 41.5171C110.375 40.8629 109.891 40.3793 109.294 40.0664C108.697 39.7393 108.049 39.5758 107.353 39.5758C106.641 39.5758 105.987 39.7393 105.39 40.0664C104.807 40.3793 104.337 40.8629 103.982 41.5171C103.626 42.1713 103.449 42.9678 103.449 43.9064C103.449 44.8593 103.619 45.6629 103.961 46.3171C104.316 46.9713 104.785 47.462 105.369 47.7891C105.952 48.102 106.592 48.2584 107.289 48.2584Z" fill="#F1F7FE"/>
  <path d="M117.35 33.9864V49.7731H115.409V33.9864H117.35Z" fill="#F1F7FE"/>
  <path d="M121.235 36.1838C120.865 36.1838 120.552 36.0558 120.296 35.7998C120.04 35.5438 119.912 35.2309 119.912 34.8611C119.912 34.4913 120.04 34.1784 120.296 33.9224C120.552 33.6664 120.865 33.5384 121.235 33.5384C121.591 33.5384 121.889 33.6664 122.131 33.9224C122.387 34.1784 122.515 34.4913 122.515 34.8611C122.515 35.2309 122.387 35.5438 122.131 35.7998C121.889 36.0558 121.591 36.1838 121.235 36.1838ZM122.174 38.0824V49.7731H120.232V38.0824H122.174Z" fill="#F1F7FE"/>
  <path d="M130.154 49.9651C129.059 49.9651 128.064 49.7162 127.168 49.2184C126.286 48.7207 125.589 48.0167 125.077 47.1064C124.579 46.182 124.33 45.1153 124.33 43.9064C124.33 42.7118 124.586 41.6593 125.098 40.7491C125.625 39.8247 126.336 39.1207 127.232 38.6371C128.128 38.1393 129.13 37.8904 130.24 37.8904C131.349 37.8904 132.352 38.1393 133.248 38.6371C134.144 39.1207 134.848 39.8175 135.36 40.7278C135.886 41.638 136.149 42.6975 136.149 43.9064C136.149 45.1153 135.879 46.182 135.338 47.1064C134.812 48.0167 134.094 48.7207 133.184 49.2184C132.274 49.7162 131.264 49.9651 130.154 49.9651ZM130.154 48.2584C130.851 48.2584 131.506 48.0949 132.117 47.7678C132.729 47.4407 133.219 46.95 133.589 46.2958C133.973 45.6415 134.165 44.8451 134.165 43.9064C134.165 42.9678 133.98 42.1713 133.61 41.5171C133.241 40.8629 132.757 40.3793 132.16 40.0664C131.562 39.7393 130.915 39.5758 130.218 39.5758C129.507 39.5758 128.853 39.7393 128.256 40.0664C127.673 40.3793 127.203 40.8629 126.848 41.5171C126.492 42.1713 126.314 42.9678 126.314 43.9064C126.314 44.8593 126.485 45.6629 126.826 46.3171C127.182 46.9713 127.651 47.462 128.234 47.7891C128.818 48.102 129.458 48.2584 130.154 48.2584Z" fill="#F1F7FE"/>
</svg>