<svg width="487" height="433" viewBox="0 0 487 433" fill="none" xmlns="http://www.w3.org/2000/svg">
<path fill-rule="evenodd" clip-rule="evenodd" d="M125.521 0.370562C125.296 0.64249 125.214 54.9225 125.213 204.387C125.212 407.568 125.213 408.034 125.762 408.583C126.064 408.885 126.466 409.142 126.655 409.154C126.844 409.166 152.246 409.185 183.103 409.198L239.208 409.22L239.716 408.557C240.21 407.913 240.225 401.884 240.223 204.464C240.222 68.7228 240.13 0.862348 239.945 0.517409C239.676 0.0137755 238.15 0 182.748 0C135.411 0 125.776 0.0622654 125.521 0.370562ZM379.356 0.895409C379.272 1.38802 379.235 93.1903 379.274 204.901C379.343 399.462 379.367 408.032 379.837 408.503C380.305 408.972 382.848 408.998 433.155 409.048L485.981 409.1V408.152V407.204L483.16 407.205C417.866 407.22 381.393 407.124 381.277 406.938C381.112 406.67 381.074 29.9995 381.24 29.8339C381.323 29.7507 424.063 29.7168 483.14 29.7535C485.575 29.7549 485.957 29.8179 486.067 30.2373C486.151 30.5618 486.202 30.4943 486.221 30.0306C486.236 29.6518 486.174 29.0628 486.083 28.722L485.917 28.1021H433.526H381.135L381.125 21.1454C381.107 7.70685 381.154 1.26597 381.271 1.14915C381.336 1.08441 404.89 1.0125 433.614 0.989358C482.764 0.94996 485.845 0.919654 485.93 0.473878C486.016 0.027 482.981 0 432.765 0H379.509L379.356 0.895409ZM254.105 0.545511C253.786 0.674725 253.446 0.985501 253.35 1.23622C253.253 1.48665 253.174 52.5528 253.173 114.716C253.172 211.969 253.226 227.815 253.562 228.276C253.947 228.803 254.852 228.813 310.458 228.873C360.581 228.927 367.025 228.887 367.513 228.516C368.062 228.1 368.063 227.811 368.003 114.669L367.943 1.2398L367.354 0.757654C366.796 0.301959 363.702 0.276337 310.725 0.292868C279.904 0.30251 254.425 0.416296 254.105 0.545511ZM6.26052 1.31391L0 1.38802V2.28205V3.17608L53.4552 3.17223L106.91 3.16837L107.048 15.9796C107.124 23.0258 107.14 29.073 107.083 29.4176C106.996 29.9524 106.935 29.983 106.671 29.6262C106.327 29.1633 110.884 29.1914 37.0815 29.2L0.275187 29.2041V30.032V30.8599L53.18 30.7897C82.2778 30.7511 106.302 30.6128 106.568 30.4828C107.027 30.2579 107.047 31.4961 106.981 55.4165L106.91 80.5868L105.281 80.6204C104.05 80.646 103.563 80.7766 103.286 81.1552C102.907 81.6745 102.913 80.854 102.896 135.008C102.893 144.332 102.969 152.164 103.064 152.413C103.291 153.003 103.855 153.237 105.534 153.435L106.91 153.597L106.981 175.294L107.051 196.99L77.2605 196.993C60.8756 196.995 36.7893 196.993 23.7349 196.99L0 196.984V197.813V198.643L4.88458 198.678C7.57096 198.697 31.6259 198.728 58.3397 198.747L106.91 198.781V209.801V220.822L54.2119 220.852C25.2278 220.869 1.17312 220.9 0.756766 220.921C0.107873 220.954 0 221.077 0 221.786V222.612L28.5507 222.619C107.212 222.638 107.97 222.634 108.418 222.185C108.791 221.812 108.837 209.898 108.837 111.995C108.837 11.8447 108.798 2.18507 108.397 1.78393C107.999 1.38499 103.524 1.33926 60.2396 1.29187C33.9945 1.26322 9.70394 1.27313 6.26052 1.31391ZM127.304 1.32961C127.162 1.55939 127.098 8.69814 127.123 21.4152L127.137 28.366L182.518 28.3299L237.9 28.2938L237.987 28.8862C238.051 29.3154 237.876 29.5548 237.35 29.7546C236.875 29.9356 217.77 30.0306 181.881 30.0306H127.137L127.135 64.9516C127.125 311.873 127.159 379.768 127.293 379.902C127.38 379.989 129.362 380.062 131.697 380.063L135.943 380.067L135.944 362.985C135.944 353.59 135.951 339.779 135.957 332.293C135.966 323.134 135.876 318.589 135.681 318.394C135.249 317.961 135.333 317.194 135.834 317.002C136.076 316.909 136.211 316.667 136.134 316.465C136.057 316.263 136.09 315.941 136.209 315.749C136.525 315.237 137.594 315.665 137.594 316.304C137.594 316.597 137.749 316.849 137.938 316.864C138.127 316.879 158.739 316.91 183.742 316.933C231.683 316.977 230.371 316.942 229.608 318.153C229.327 318.599 226.532 318.631 183.795 318.679C158.763 318.708 138.127 318.739 137.937 318.748C137.664 318.762 137.607 325.03 137.662 349.373L137.731 379.98L187.897 379.987C215.489 379.991 238.121 379.937 238.191 379.866C238.351 379.707 238.357 169.943 238.198 169.784C238.027 169.612 228.555 169.681 224.363 169.885C220.895 170.053 219.258 169.925 214.509 169.113C213.601 168.958 212.3 168.744 211.619 168.637C210.041 168.39 204.311 166.233 203.226 165.478C202.022 164.639 200.893 163.341 200.683 162.551C200.582 162.172 200.494 160.933 200.487 159.796C200.475 157.971 200.578 157.54 201.368 156.097C201.86 155.198 202.263 154.242 202.263 153.971C202.263 152.252 208.179 151.814 231.845 151.781C234.116 151.778 236.5 151.852 237.143 151.945L238.312 152.116L238.311 140.045C238.31 133.406 238.318 101.071 238.328 68.1888C238.338 35.3067 238.339 6.76048 238.329 4.75256L238.312 1.10204H182.878C152.389 1.10204 127.381 1.20453 127.304 1.32961ZM254.941 2.34184C254.892 2.49337 254.877 8.56838 254.907 15.8419L254.961 29.0664L310.243 29.1176C349.102 29.1537 365.612 29.2567 365.819 29.4642C366.028 29.6739 365.975 29.8978 365.634 30.2392C365.181 30.6921 362.028 30.723 310.058 30.7836L254.961 30.8478L255.01 116.605L255.059 202.362L310.667 202.37L366.275 202.377V180.122C366.275 167.882 366.276 157.775 366.279 157.661C366.281 157.547 365.448 157.392 364.428 157.316C362.793 157.195 362.532 157.097 362.227 156.49C361.953 155.946 361.89 148.36 361.928 120.359C361.954 100.865 362.028 84.4646 362.092 83.9133C362.247 82.5878 363.34 81.9707 365.073 82.2308L366.275 82.4115L366.277 77.3664C366.301 27.9095 366.248 2.38372 366.121 2.17846C365.898 1.81727 255.056 1.98009 254.941 2.34184ZM132.13 37.1631C131.568 37.5196 132.212 38.5279 133.13 38.7291C133.542 38.8191 134.064 38.9624 134.292 39.0475C135.433 39.4746 151.565 40.3149 154.243 40.0868C158.333 39.7383 159.017 39.6672 160.572 39.4305C162.53 39.1321 163.737 38.6271 163.737 38.1053C163.737 37.4251 162.905 37.3824 159.292 37.878C155.455 38.4042 152.328 38.4924 146.262 38.2455C137.947 37.9069 134.667 37.6573 133.776 37.2956C132.695 36.8561 132.623 36.8503 132.13 37.1631ZM450.62 41.9098C448.198 42.0035 444.15 42.2242 441.623 42.4008C438.203 42.6397 436.13 42.6432 433.505 42.4154C426.914 41.8429 426.403 41.8291 424.542 42.1738C422.695 42.5157 421.809 43.0193 422.405 43.3885C423.113 43.8263 441.212 44.0891 446.629 43.74C448.37 43.6279 451.961 43.4621 454.61 43.3714C459.571 43.2017 460.391 42.9992 460.022 42.0355C459.84 41.5616 459.689 41.5597 450.62 41.9098ZM74.6275 44.3542C74.1264 44.4729 70.4114 44.5837 66.3719 44.5999C57.9872 44.6341 46.3336 45.0763 43.8924 45.4529C42.9843 45.5928 40.9036 45.7929 39.269 45.8976C36.4516 46.0775 36.3008 46.1177 36.3795 46.6687C36.4585 47.2239 36.6112 47.2498 39.7646 47.241C41.5808 47.236 43.8718 47.1437 44.8556 47.036C48.2261 46.6668 58.6559 46.2918 65.9894 46.2761C73.4041 46.2601 75.4083 46.0631 76.2913 45.2631C77.4028 44.2561 76.6884 43.8657 74.6275 44.3542ZM333.39 44.7005C333.003 44.9294 330.256 45.0454 324.171 45.0895C315.568 45.1518 307.387 45.4967 300.78 46.0755C297.889 46.3287 296.345 46.4276 293.419 46.5472C292.921 46.5676 292.996 47.574 293.51 47.7716C294.14 48.0138 296.641 47.9768 299.954 47.6763C301.544 47.5322 304.701 47.3332 306.972 47.2343C309.242 47.1352 311.203 46.9916 311.329 46.915C311.455 46.8384 316.409 46.7483 322.338 46.7145C333.569 46.6505 334.016 46.6045 334.634 45.4471C335.159 44.4655 334.476 44.0558 333.39 44.7005ZM145.035 47.1765C142.011 47.7911 137.814 47.7972 134.895 47.1916C132.897 46.777 132.578 46.7679 132.359 47.1214C131.866 47.9201 133.037 48.4832 136.355 49.0436C138.733 49.4453 142.396 49.3381 145.21 48.7846C146.846 48.4628 148.911 48.2672 150.441 48.2898C153.144 48.3292 154.38 47.9534 154.38 47.0924C154.38 46.6618 154.035 46.6186 150.883 46.6569C148.823 46.6817 146.419 46.8955 145.035 47.1765ZM446.904 51.6739C444.256 51.8704 441.036 52.1803 439.75 52.363C438.463 52.5456 434.634 52.7404 431.241 52.7958C425.943 52.8826 425 52.9622 424.561 53.3595C424.28 53.6138 424.09 53.9397 424.137 54.0833C424.187 54.232 426.709 54.3921 429.992 54.4552C434.887 54.5494 436.321 54.4781 439.474 53.9835C441.518 53.6628 444.985 53.3408 447.18 53.2677C451.649 53.1187 452.756 52.8542 452.629 51.9662C452.525 51.2403 452.661 51.2472 446.904 51.6739ZM71.8239 57.1852C69.3547 57.4337 66.8172 57.4971 64.2563 57.3737C59.8555 57.1615 50.3012 57.1166 44.03 57.2786C39.8689 57.3858 35.6536 57.8343 34.9994 58.2391C34.6255 58.4705 34.5652 59.1353 34.8996 59.3419C35.0237 59.4188 36.6646 59.367 38.5458 59.2268C46.4701 58.6358 56.4399 58.5248 61.1893 58.9749C64.8207 59.3188 69.7457 59.1656 75.608 58.5261C77.9229 58.2735 78.7328 56.932 76.6182 56.8521C76.0247 56.8295 73.8672 56.9797 71.8239 57.1852ZM330.363 58.0602C325.242 58.5283 321.921 58.546 317.704 58.1266C315.8 57.9374 312.379 57.8955 308.485 58.014C305.08 58.1173 301.489 58.1804 300.505 58.1536C298.341 58.095 291.967 58.8556 291.608 59.2155C291.466 59.3573 291.428 59.675 291.522 59.9219C291.668 60.3007 291.985 60.3431 293.554 60.1944C297.527 59.8177 305.085 59.6348 312.063 59.7464C328.997 60.0172 334.935 59.7794 335.748 58.7981C336.17 58.2892 335.87 57.572 335.256 57.6197C334.986 57.6404 332.784 57.8387 330.363 58.0602ZM385.47 58.3559C384.605 58.4275 384.413 58.5608 384.276 59.1824C384.186 59.5902 383.988 60.3329 383.836 60.8335C383.683 61.3341 383.635 62.0474 383.728 62.4188C383.821 62.7902 383.9 77.4242 383.904 94.9384L383.909 126.783L384.575 127.449L385.24 128.115L435.542 128.045L485.844 127.975L485.913 93.1914L485.983 58.4082L484.125 58.403C457.417 58.3275 386.221 58.2936 385.47 58.3559ZM130.508 59.0281C129.942 59.7433 129.81 61.7929 129.868 69.0154C129.9 73.1067 129.949 87.8867 129.977 101.86C130.023 125.846 130.054 127.294 130.518 127.758C130.986 128.227 133.402 128.25 181.658 128.25H232.307L232.81 127.628C233.292 127.033 233.311 125.575 233.267 93.3005C233.229 65.1869 233.159 59.5194 232.844 59.1394C232.495 58.7184 228.58 58.6837 181.624 58.6837C141.279 58.6837 130.725 58.7548 130.508 59.0281ZM386.294 60.0106C385.526 60.0993 385.452 60.2861 385.772 61.3416C385.916 61.8196 389.387 64.4694 389.869 64.4694C389.94 64.4694 390.45 64.8207 391.002 65.2502C391.553 65.6795 392.199 66.1013 392.438 66.1873C392.676 66.2732 394.877 67.6574 397.329 69.2636C399.781 70.8696 401.827 72.1837 401.874 72.1837C401.978 72.1837 406.058 74.8162 407.828 76.0249C410.502 77.8504 412.865 79.347 413.073 79.347C413.194 79.347 413.456 79.5049 413.656 79.6975C414.064 80.0909 417.076 82.1021 417.256 82.1021C417.32 82.1021 419.11 83.2491 421.234 84.6506C425.621 87.5462 429.398 89.9715 430.78 90.7807C431.878 91.4232 434.871 93.4278 435.072 93.6554C435.356 93.9769 437.058 94.7756 437.459 94.7756C437.688 94.7756 438.205 94.5483 438.606 94.2709C439.008 93.9931 440.389 93.1812 441.676 92.4668C442.962 91.7521 444.533 90.8325 445.166 90.4231C445.799 90.0137 447.966 88.6306 449.982 87.3498C451.997 86.0689 453.77 84.9225 453.922 84.8024C455.122 83.8489 457.613 82.1021 457.773 82.1021C457.881 82.1021 459.585 80.8312 461.557 79.2781C463.53 77.7251 465.795 75.9582 466.591 75.3521C467.387 74.746 469.047 73.3469 470.28 72.2432C471.513 71.1396 473.135 69.7953 473.884 69.2562C475.254 68.2715 479.372 65.9544 480.271 65.6632C480.536 65.5775 480.753 65.4128 480.753 65.2974C480.753 65.1819 481.124 64.9331 481.578 64.745C482.032 64.5568 482.404 64.3025 482.404 64.1802C482.404 63.8146 483.239 63.0919 483.662 63.0919C484.206 63.0919 484.148 64.2063 483.567 64.8968C482.718 65.906 481.344 66.7881 477.863 68.558C475.913 69.5499 470.987 73.2985 469.47 74.9457C469.394 75.0278 468.032 76.1114 466.443 77.354C464.854 78.5965 463.364 79.7738 463.132 79.9702C462.901 80.1667 462.127 80.748 461.412 81.2615C460.698 81.7754 460.113 82.2986 460.113 82.4245C460.113 82.5501 460.002 82.6531 459.866 82.6531C459.73 82.6531 458.028 83.7381 456.082 85.0639C452.517 87.4944 447.047 91.0978 446.151 91.6067C445.884 91.7582 444.861 92.3941 443.877 93.02C442.894 93.646 441.593 94.4114 440.988 94.7208C438.611 95.9358 438.578 95.8121 441.875 98.0184C443.512 99.1141 444.947 100.01 445.064 100.01C445.181 100.01 445.933 100.506 446.735 101.112C447.537 101.718 448.291 102.214 448.411 102.214C448.531 102.214 449.82 102.998 451.276 103.956C452.731 104.914 454.29 105.927 454.74 106.207C455.19 106.487 455.686 106.824 455.841 106.955C456.378 107.411 459.921 109.653 460.102 109.653C460.203 109.653 460.529 109.87 460.826 110.135C461.125 110.4 461.798 110.856 462.323 111.148C462.848 111.439 463.34 111.754 463.416 111.847C463.491 111.939 464.544 112.627 465.755 113.374C466.966 114.122 468.732 115.264 469.679 115.913C470.626 116.561 471.455 117.092 471.52 117.092C471.585 117.092 472.606 117.749 473.788 118.552C474.97 119.356 476.542 120.379 477.281 120.825C478.02 121.272 478.902 121.824 479.24 122.051C479.577 122.278 480.582 122.906 481.473 123.445C482.479 124.055 483.123 124.641 483.175 124.994C483.277 125.688 482.497 126.054 481.927 125.579C481.381 125.126 480.449 124.579 479.858 124.365C479.593 124.269 479.377 124.081 479.377 123.947C479.377 123.814 479.262 123.704 479.121 123.704C478.98 123.704 478.144 123.228 477.263 122.647C471.281 118.697 469.851 117.768 469.607 117.672C469.456 117.613 468.963 117.303 468.512 116.984C468.061 116.664 467.481 116.279 467.223 116.128C465.151 114.911 464.023 114.193 463.553 113.792C463.251 113.533 462.012 112.731 460.801 112.01C459.591 111.289 458.352 110.477 458.05 110.205C457.747 109.934 457.066 109.477 456.536 109.192C455.375 108.565 453.395 107.307 448.308 103.963C446.198 102.576 443.193 100.664 441.629 99.7141C440.066 98.7636 438.601 97.8407 438.374 97.6627C437.518 96.9915 437.002 97.0348 435.3 97.92C433.745 98.7289 429.83 100.966 428.742 101.667C428.515 101.813 427.847 102.194 427.259 102.512C426.67 102.831 426.051 103.211 425.883 103.357C425.412 103.766 421.612 106.499 420.074 107.534C419.317 108.043 418.517 108.679 418.296 108.948C418.076 109.216 417.642 109.551 417.333 109.694C416.479 110.087 415.76 110.542 414.677 111.375C414.136 111.792 413.614 112.133 413.518 112.133C413.423 112.133 412.545 112.67 411.568 113.326C410.59 113.982 408.575 115.11 407.089 115.832C405.604 116.554 403.955 117.38 403.425 117.667C402.895 117.955 401.409 118.706 400.123 119.335C394.881 121.901 392.825 122.975 392.738 123.196C392.688 123.324 392.477 123.429 392.271 123.429C392.064 123.429 391.341 123.803 390.664 124.26C389.987 124.718 388.976 125.283 388.419 125.516C387.861 125.75 387.474 126.01 387.559 126.095C387.738 126.274 484.847 126.422 485.362 126.244C485.635 126.15 485.706 119.271 485.706 93.0931V60.0613L484.536 60.0227C482.031 59.9403 387.007 59.9285 386.294 60.0106ZM131.815 61.1859C131.815 62.0769 131.955 62.2607 133.26 63.0823C134.054 63.5826 135.2 64.3165 135.805 64.713C136.41 65.1095 137.092 65.5282 137.319 65.6437C137.753 65.8644 137.945 65.9881 141.271 68.1888C142.416 68.9465 144.909 70.5582 146.812 71.7705C148.715 72.9827 151.288 74.6325 152.532 75.4367C154.742 76.8658 157.08 78.3549 158.009 78.9247C158.264 79.0811 159.564 79.9278 160.898 80.8061C162.232 81.6844 164.121 82.9242 165.095 83.5612C166.07 84.1982 167.143 84.9054 167.479 85.1327C167.816 85.36 168.69 85.9077 169.422 86.3497C170.155 86.7919 172.116 88.0452 173.781 89.1351C175.446 90.225 177.179 91.3237 177.634 91.5764C178.088 91.8293 179.122 92.5156 179.933 93.1016C180.743 93.6876 181.883 94.3822 182.465 94.645L183.524 95.123L187.321 92.9153C191.825 90.2961 197.653 86.621 200.837 84.393C203.745 82.3575 211.152 76.8895 211.34 76.6398C211.418 76.536 211.915 76.1233 212.445 75.723C212.974 75.3226 214.708 73.8506 216.297 72.4518C219.545 69.5939 220.334 69.0462 224.415 66.8215C226.649 65.6043 228.277 64.4838 228.614 63.933C228.975 63.344 229.902 63.1699 230.191 63.6371C230.392 63.9633 229.858 65.0276 229.255 65.5015C228.018 66.4746 225.762 67.8827 224.025 68.766C222.953 69.3115 222.009 69.8664 221.927 69.9989C221.845 70.1317 221.381 70.4296 220.895 70.6604C220.023 71.0756 218.723 72.1314 216.848 73.947C216.318 74.4597 215.018 75.5753 213.958 76.4261C212.899 77.2766 211.576 78.3436 211.018 78.7974C210.461 79.2511 209.883 79.6225 209.734 79.6225C209.586 79.6225 209.237 79.9168 208.959 80.2763C208.682 80.6361 207.464 81.5902 206.253 82.3969C205.042 83.2036 203.928 83.9717 203.776 84.104C203.199 84.6082 197.978 88.2298 197.585 88.3989C197.358 88.4967 196.429 89.0662 195.521 89.6646C190.597 92.9085 185.627 95.8776 185.121 95.8776C184.988 95.8776 184.921 95.9898 184.972 96.127C185.058 96.3614 189.29 99.2146 192.823 101.42C193.701 101.968 195.744 103.27 197.363 104.313C203.195 108.072 203.741 108.421 204.617 108.964C205.689 109.629 207.027 110.549 207.216 110.753C207.292 110.834 208.468 111.572 209.83 112.391C211.193 113.211 213.607 114.77 215.197 115.855C216.786 116.94 218.643 118.139 219.324 118.519C220.006 118.9 221.291 119.695 222.182 120.287C223.073 120.878 224.683 121.948 225.76 122.663C226.837 123.378 227.979 124.081 228.299 124.226C229.268 124.664 229.462 125.908 228.562 125.908C228.363 125.908 227.247 125.32 226.082 124.6C224.917 123.88 223.694 123.132 223.364 122.937C223.034 122.742 221.836 121.97 220.7 121.22C219.565 120.471 217.77 119.333 216.71 118.691C215.651 118.049 214.722 117.445 214.646 117.349C214.448 117.098 211.497 115.212 210.312 114.579C209.972 114.397 209.693 114.144 209.693 114.017C209.693 113.89 209.566 113.786 209.411 113.786C209.256 113.786 207.553 112.756 205.627 111.498C203.701 110.24 201.568 108.872 200.887 108.459C200.206 108.046 198.946 107.247 198.087 106.683C197.227 106.119 195.265 104.852 193.726 103.867C192.188 102.882 190.228 101.616 189.372 101.053C188.516 100.49 187.656 99.9478 187.462 99.8486C187.267 99.7494 186.282 99.1254 185.273 98.4619C184.264 97.7982 183.322 97.2552 183.18 97.2552C182.909 97.2552 180.484 98.3947 180.248 98.6333C180.025 98.8578 177.197 100.561 177.047 100.561C176.705 100.561 171.94 103.521 170.203 104.812C169.144 105.599 167.661 106.67 166.907 107.191C166.154 107.712 165.225 108.425 164.843 108.776C164.462 109.127 163.778 109.61 163.324 109.851C162.87 110.091 160.888 111.356 158.921 112.661C156.953 113.966 153.981 115.702 152.316 116.518C150.651 117.335 148.546 118.379 147.638 118.84C145.521 119.913 145.017 120.163 142.685 121.295C139.962 122.618 137.755 123.784 137.594 123.986C137.518 124.081 136.762 124.507 135.915 124.933C135.067 125.358 134.076 125.935 133.713 126.215C133.071 126.709 134.388 126.723 182.377 126.729L231.7 126.735L231.7 93.6873C231.7 68.4649 231.623 60.5922 231.373 60.4376C231.193 60.3266 208.719 60.2271 181.431 60.2172L131.815 60.199V61.1859ZM131.794 68.5222C131.662 97.248 131.819 125.486 132.111 125.414C132.292 125.369 132.949 124.987 133.572 124.565C135.057 123.559 140.115 120.812 143.235 119.318C153.14 114.574 156.215 112.898 160.346 109.992C161.481 109.193 162.77 108.353 163.211 108.125C163.651 107.897 164.012 107.616 164.012 107.501C164.012 107.387 164.414 107.06 164.906 106.775C165.398 106.491 166.729 105.558 167.864 104.702C170.735 102.537 172.972 101.045 175.041 99.9158C176.013 99.3857 177.791 98.3864 178.994 97.6955C180.196 97.0048 181.31 96.3928 181.47 96.3361C181.756 96.235 180.585 95.0784 180.179 95.0602C180.065 95.0552 178.686 94.2141 177.113 93.1914C175.541 92.1687 173.25 90.7118 172.022 89.9542C170.795 89.1965 168.955 87.9961 167.933 87.2869C166.911 86.5775 165.023 85.3534 163.737 84.5668C162.45 83.7803 160.345 82.4462 159.058 81.6021C156.811 80.1273 153.624 78.0929 152.7 77.5432C152.458 77.3989 151.303 76.6297 150.135 75.8343C148.966 75.0389 147.961 74.3878 147.901 74.3878C147.841 74.3878 147.262 74.0297 146.614 73.5916C143.135 71.2393 135.689 66.398 135.55 66.398C135.462 66.398 134.585 65.8352 133.602 65.1472L131.815 63.8964L131.794 68.5222ZM385.63 94.6378C385.626 111.534 385.697 125.352 385.787 125.345C385.877 125.339 386.446 125.033 387.051 124.666C390.971 122.29 395.221 120.005 400.398 117.492C406.442 114.557 406.681 114.438 408.516 113.418C410.971 112.054 417.24 107.889 420.172 105.675C424.844 102.145 428.148 100.03 433.718 97.0045L435.718 95.9176L432.299 93.7185C430.418 92.5087 427.951 90.9309 426.816 90.212C425.681 89.4932 423.514 88.0967 422 87.109C420.486 86.121 418.567 84.8812 417.735 84.3539C416.902 83.8263 415.169 82.7008 413.884 81.8531C412.598 81.005 411.422 80.2603 411.269 80.1978C411.117 80.1355 409.073 78.8227 406.727 77.2807C404.381 75.7387 402.338 74.4256 402.187 74.363C402.035 74.3002 400.797 73.5175 399.435 72.6235C398.072 71.7294 395.348 69.9463 393.381 68.6611C391.413 67.3758 388.979 65.7831 387.972 65.1213C386.964 64.4598 386.027 63.9184 385.889 63.9184C385.739 63.9184 385.635 76.2844 385.63 94.6378ZM39.5114 71.8928C36.7428 72.0482 36.1709 72.311 37.0367 73.0301C37.3867 73.321 38.5791 73.4009 42.2055 73.3773C44.7983 73.3604 47.6264 73.4453 48.4905 73.5663C49.3549 73.6872 52.5746 73.8666 55.6454 73.9646C58.7165 74.063 62.9629 74.2592 65.0818 74.4005C71.3104 74.8165 73.6735 74.7454 75.5486 74.0859C77.1728 73.5142 77.5905 73.1971 77.5987 72.5281C77.6045 72.0435 76.187 72.0956 74.521 72.6411C73.2582 73.0546 72.4626 73.0673 66.2137 72.7744C62.4128 72.5962 57.5073 72.3884 55.3127 72.3127C53.1181 72.2369 49.719 72.0529 47.7588 71.9038C45.7989 71.7548 43.7556 71.6567 43.2182 71.6862C42.681 71.7154 41.0128 71.8085 39.5114 71.8928ZM294.019 73.3684C293.42 73.7032 293.548 74.3721 294.264 74.6446C294.615 74.7782 296.875 74.8215 299.286 74.7405C301.971 74.6504 304.444 74.7149 305.668 74.9069C306.768 75.0794 310.421 75.2909 313.786 75.3766C317.152 75.4626 320.074 75.5866 320.281 75.6524C320.487 75.718 323.087 75.8478 326.059 75.94C331.082 76.0965 331.599 76.0665 333.39 75.516C335.758 74.7873 336.131 74.5642 335.915 74.0024C335.701 73.4437 334.34 73.4299 332.789 73.971C331.342 74.4757 329.711 74.5099 324.859 74.1374C322.74 73.9748 318.468 73.8396 315.365 73.8371C312.262 73.8346 308.671 73.6855 307.384 73.5056C304.738 73.1356 294.622 73.0318 294.019 73.3684ZM8.16316 80.6747C7.74102 81.1414 7.70525 83.9549 7.70525 116.589V151.996L8.28452 152.521C8.84232 153.026 9.56332 153.046 27.7095 153.046H46.5554L47.0342 152.454C47.4839 151.898 47.5117 149.706 47.4913 116.409C47.4704 81.8481 47.4566 80.9461 46.9445 80.5711C46.5072 80.251 43.2496 80.1848 27.5198 80.1774C9.51846 80.1689 8.59906 80.1923 8.16316 80.6747ZM56.5725 80.7934C56.2227 81.3301 56.1671 86.1535 56.1586 116.71L56.1487 152.006L56.7227 152.526C57.2737 153.025 58.0582 153.046 76.2134 153.046C91.8424 153.046 95.2094 152.98 95.5853 152.668C96.0044 152.32 96.0404 149.459 96.0404 116.517C96.0404 81.4313 96.0303 80.7383 95.5082 80.4587C95.156 80.27 88.5468 80.1735 75.9762 80.1735H56.9765L56.5725 80.7934ZM9.94252 82.1429C9.07458 82.4641 9.28648 83.3213 10.2821 83.5166C10.6151 83.5822 10.9915 84.1494 11.3545 85.1327C11.6619 85.9661 12.0194 86.6894 12.1484 86.7398C12.2778 86.7905 12.3834 86.9842 12.3834 87.1707C12.3834 87.3572 12.9407 88.3416 13.6218 89.3585C14.3029 90.3751 14.8601 91.2686 14.8601 91.3438C14.8601 91.4188 15.1515 91.9428 15.5079 92.5081C15.8643 93.0732 16.2465 93.8457 16.3577 94.2246C16.5985 95.0456 19.2136 100.311 19.5669 100.685C19.7026 100.829 19.8135 101.118 19.8135 101.328C19.8135 101.731 21.3014 105.372 21.7522 106.072C21.8986 106.299 22.0967 106.671 22.1925 106.898C22.2883 107.125 22.952 108.551 23.6672 110.066C24.3827 111.582 25.5723 114.211 26.3112 115.908C27.0498 117.606 27.7392 118.908 27.8426 118.801C28.2821 118.349 34.1838 106.334 34.836 104.564C35.2284 103.499 35.7105 102.256 35.9073 101.801C36.7915 99.7588 37.9759 96.4794 37.9759 96.0738C37.9759 95.8286 38.086 95.3431 38.2205 94.9952C38.3551 94.6472 38.7423 93.3705 39.081 92.1582C39.4198 90.946 40.0599 88.7764 40.5035 87.3368C40.9471 85.8973 41.4267 84.3387 41.5693 83.8734C41.7118 83.408 41.8285 82.7722 41.8285 82.46C41.8285 81.8941 41.7988 81.893 26.1786 81.9093C17.571 81.9184 10.2648 82.0233 9.94252 82.1429ZM43.6425 82.4647C43.4356 82.7956 43.1871 83.5623 43.0908 84.1684C42.9213 85.2322 42.1152 88.0014 40.4297 93.3093C39.9883 94.7001 39.627 96.0796 39.627 96.3749C39.627 96.864 38.5334 99.9026 37.5466 102.155C37.3286 102.652 37.1503 103.174 37.1503 103.313C37.1503 103.633 34.9909 108.396 34.1513 109.929C33.2449 111.583 30.5436 117.292 30.5447 117.551C30.5453 117.728 30.4473 117.914 30.327 117.964C30.0491 118.081 28.8947 120.311 28.8947 120.731C28.8947 121.443 31.378 127.81 32.2575 129.352C32.9405 130.55 34.2619 132.732 35.15 134.127C36.0741 135.579 37.9759 140.179 37.9759 140.963C37.9759 141.186 38.2709 141.898 38.6314 142.544C38.9921 143.191 39.5725 144.517 39.9215 145.49C40.5478 147.237 41.1909 148.485 41.6265 148.799C41.7492 148.887 41.8761 149.321 41.908 149.763C41.9576 150.447 41.8566 150.579 41.2305 150.652C40.616 150.723 40.3807 150.541 39.8031 149.55C39.4228 148.897 38.9071 147.742 38.6572 146.985C38.4076 146.227 37.9173 144.987 37.5678 144.23C36.3803 141.656 35.4992 139.426 35.4992 138.996C35.4992 138.397 34.1632 135.81 31.9732 132.167C30.9512 130.467 29.6429 127.837 29.0659 126.322C28.4888 124.806 27.9216 123.395 27.8055 123.186C27.6605 122.925 27.1395 123.615 26.1414 125.39C25.3423 126.812 24.025 129.067 23.214 130.401C22.4033 131.736 21.7398 132.88 21.7398 132.944C21.7398 133.008 21.1206 133.909 20.3639 134.948C19.6071 135.986 18.9879 136.912 18.9879 137.006C18.9879 137.181 17.3497 139.711 17.0759 139.959C16.727 140.276 11.2863 150.823 11.2832 151.189C11.283 151.227 18.9915 151.227 28.4131 151.189L45.5435 151.117V116.572V82.0258L44.7813 81.9445C44.2391 81.8867 43.91 82.0371 43.6425 82.4647ZM58.5987 82.1622C58.0079 82.3809 57.9919 82.4187 58.2316 83.0438C58.3235 83.2835 58.6281 83.4797 58.9086 83.4797C59.2715 83.4797 59.5165 83.8172 59.7592 84.6506C59.9466 85.2945 60.3673 86.2554 60.6945 86.7858C61.0217 87.3162 61.6475 88.3557 62.0848 89.096C62.5223 89.8363 63.0953 90.7661 63.3578 91.1623C63.6203 91.5585 63.9533 92.1497 64.0975 92.4759C64.242 92.8021 64.4913 93.1504 64.652 93.2498C64.8127 93.3493 64.9442 93.6556 64.9442 93.9312C64.9442 94.4808 65.892 96.6268 67.0816 98.7705C67.5021 99.5282 68.3224 101.326 68.9045 102.765C69.4868 104.205 70.7989 107.118 71.8201 109.24C72.8416 111.361 74.2712 114.43 74.9971 116.059L76.3172 119.021L77.2749 117.299C78.1114 115.794 82.7525 106.338 83.3934 104.832C83.6617 104.202 85.3797 99.5855 86.367 96.8419C86.6285 96.1151 88.0044 91.1642 88.5895 88.8455C88.705 88.3876 88.9257 87.7677 89.0798 87.468C89.344 86.9555 90.1553 83.7218 90.3226 82.5154C90.3983 81.9699 90.2411 81.9644 74.766 81.9644C66.1675 81.9644 58.8923 82.0533 58.5987 82.1622ZM92.3405 82.2641C92.149 82.4559 91.8383 83.3959 91.6504 84.3528C91.3237 86.0149 90.9448 87.3269 89.1387 93.0528C88.6968 94.4538 88.3352 95.7966 88.3352 96.0363C88.3352 96.2763 88.0209 97.2996 87.637 98.3101C87.2529 99.321 86.5624 101.14 86.1026 102.352C85.0679 105.08 83.4767 108.501 80.0198 115.432L77.3434 120.798L78.1973 123.146C78.6667 124.438 79.3443 126.07 79.7028 126.772C80.0614 127.475 80.3548 128.199 80.3548 128.382C80.3548 128.566 80.8991 129.541 81.5642 130.549C84.039 134.301 85.2377 136.678 86.3024 139.944C86.6755 141.089 87.3475 142.779 87.7955 143.7C88.2438 144.621 88.6104 145.516 88.6104 145.689C88.6104 146.071 89.4998 148.031 89.7637 148.231C89.8685 148.31 90.1421 148.738 90.3716 149.181C90.8413 150.087 90.5615 150.704 89.6809 150.704C89.2428 150.704 87.7848 148.887 87.7848 148.341C87.7848 148.248 86.9914 146.293 86.022 143.997C85.0525 141.7 84.1234 139.312 83.9578 138.689C83.6196 137.418 82.5411 135.307 80.9153 132.733C79.4978 130.49 78.1301 127.68 77.1568 125.013C76.7283 123.839 76.3128 122.878 76.2335 122.88C76.1543 122.88 75.6075 123.779 75.0186 124.877C73.5488 127.616 71.2381 131.479 70.8052 131.92C70.6087 132.12 70.448 132.406 70.448 132.555C70.448 132.703 69.7831 133.78 68.9705 134.948C68.1579 136.116 67.2599 137.504 66.9751 138.033C66.6903 138.562 66.2365 139.305 65.9666 139.684C64.7577 141.381 64.0749 142.603 61.9967 146.789L59.7787 151.255H76.9465H94.1141L94.1224 141.819C94.162 96.6568 94.1304 82.3019 93.9906 82.1619C93.6829 81.8539 92.6887 81.9156 92.3405 82.2641ZM264.07 82.3465C263.633 82.8308 263.597 85.3829 263.546 119.427L263.492 155.988L264.142 156.514C264.768 157.022 265.501 157.041 284.257 157.041C302.765 157.041 303.744 157.016 304.177 156.537C304.596 156.074 304.633 153.107 304.633 119.481C304.633 83.2959 304.627 82.9231 304.082 82.3776C303.542 81.8371 303.165 81.8266 284.036 81.8266C265.278 81.8266 264.523 81.8462 264.07 82.3465ZM314.168 82.4465C313.845 82.968 313.78 88.8158 313.758 119.34C313.733 155.442 313.735 155.617 314.294 156.327L314.854 157.041H334.353H353.851L354.402 156.34C354.948 155.645 354.953 155.274 354.904 119.312C354.856 84.0142 354.839 82.97 354.33 82.4066C353.806 81.8274 353.782 81.8266 334.179 81.8266H314.552L314.168 82.4465ZM105.449 82.3363C105.1 82.4347 104.821 82.6082 104.83 82.722C104.839 82.8358 104.846 83.165 104.846 83.4538C104.846 83.8409 104.989 83.9417 105.389 83.837C105.96 83.6874 106.289 84.2043 106.629 85.7851C106.723 86.2196 106.884 86.4904 106.988 86.3869C107.271 86.1028 107.049 82.849 106.719 82.4504C106.406 82.0729 106.389 82.0713 105.449 82.3363ZM265.436 83.6915C265.351 83.7772 265.283 84.2913 265.285 84.8344C265.288 85.4876 265.369 85.6959 265.524 85.4501C265.99 84.7137 266.734 85.2457 267.213 86.6582C267.472 87.4214 268.707 89.715 269.957 91.7552C271.207 93.7953 272.385 95.8983 272.574 96.4287C272.764 96.959 273.539 98.5903 274.296 100.054C275.053 101.517 275.896 103.314 276.168 104.048C276.441 104.782 276.827 105.627 277.026 105.926C277.226 106.225 277.391 106.659 277.395 106.891C277.398 107.122 278.512 109.54 279.871 112.264C281.23 114.988 282.342 117.37 282.342 117.556C282.342 117.742 282.703 118.674 283.145 119.628C283.586 120.582 283.995 121.538 284.054 121.752C284.168 122.167 285.154 120.684 285.51 119.564C285.619 119.219 286.044 118.367 286.454 117.67C289.349 112.751 293.16 103.854 294.727 98.3572C295.354 96.16 296.174 93.4542 296.549 92.3445C297.538 89.4233 298.539 85.8885 298.747 84.5864L298.928 83.4571L282.259 83.4968C273.092 83.5185 265.521 83.6061 265.436 83.6915ZM300.79 83.7491C300.648 83.837 300.414 84.5872 300.272 85.4162C300.129 86.2452 299.877 87.2955 299.712 87.7501C299.547 88.2047 298.919 90.1883 298.316 92.1582C297.714 94.1282 296.727 97.3516 296.123 99.3215C295.143 102.521 294.39 104.69 293.205 107.725C292.727 108.949 289.665 115.265 288.932 116.541C288.627 117.071 287.684 118.917 286.836 120.644L285.295 123.782L286.186 125.878C286.677 127.031 287.174 128.347 287.291 128.801C287.409 129.256 287.705 130 287.949 130.454C288.193 130.909 288.394 131.394 288.395 131.532C288.396 131.772 289.082 132.93 291.019 135.964C292.167 137.762 293.469 140.583 294.606 143.735C295.743 146.888 296.988 149.741 298.237 152.057C299.015 153.5 299.138 153.932 298.888 154.334C298.718 154.606 298.578 154.898 298.578 154.982C298.578 155.067 299.538 155.099 300.711 155.055L302.844 154.975L302.917 119.395L302.989 83.8163L302.019 83.7028C301.485 83.6406 300.932 83.6612 300.79 83.7491ZM316.81 83.686C315.662 83.7849 315.64 83.8062 315.644 84.804C315.647 85.5567 315.717 85.7141 315.912 85.4082C316.32 84.7674 317.045 85.3854 317.435 86.7056C317.619 87.3286 318.013 88.1903 318.311 88.6207C318.609 89.051 318.932 89.6224 319.029 89.8908C319.125 90.1589 319.682 91.0887 320.266 91.9571C320.849 92.8253 321.645 94.1557 322.035 94.9134C323.445 97.6596 326.063 103.213 326.646 104.694C328.01 108.162 329 110.429 329.771 111.857C331.468 115.001 332.144 116.416 332.148 116.83C332.15 117.065 332.254 117.375 332.379 117.519C332.505 117.663 333.018 118.745 333.52 119.923L334.433 122.065L335.601 119.785C336.243 118.531 337.535 116.017 338.472 114.199C339.409 112.381 340.489 110.149 340.873 109.24C341.257 108.331 341.799 107.091 342.077 106.485C342.83 104.846 343.751 102.178 345.073 97.8062C345.554 96.2151 346.373 93.5573 346.893 91.8998C347.412 90.2424 347.837 88.6865 347.837 88.4422C347.837 88.1981 347.959 87.876 348.108 87.7267C348.342 87.4919 348.896 85.2754 349.03 84.0307C349.07 83.6678 347.178 83.6155 333.527 83.6012C324.976 83.5924 317.453 83.6304 316.81 83.686ZM350.988 83.9458C350.78 84.1538 350.532 84.7848 350.436 85.3482C350.341 85.9116 350.035 87.1164 349.758 88.0256C349.48 88.9348 348.86 90.9804 348.379 92.5715C347.898 94.1626 347.346 95.9603 347.152 96.5664C346.959 97.1725 346.588 98.4123 346.329 99.3215C345.681 101.599 345.038 103.404 344.765 103.716C344.638 103.86 344.535 104.213 344.535 104.501C344.535 105.111 344.505 105.182 341.366 111.995C340.368 114.16 338.997 116.919 338.142 118.48C337.443 119.757 337.332 119.967 336.314 121.951C335.992 122.578 335.729 123.366 335.729 123.702C335.729 124.038 336.434 126.067 337.295 128.21C338.721 131.758 339.577 133.411 341.717 136.747C342.577 138.087 343.41 139.965 344.67 143.403C345.17 144.767 345.733 146.301 345.921 146.813C346.11 147.325 346.68 148.598 347.188 149.644C347.696 150.69 348.112 151.615 348.112 151.701C348.112 151.787 348.36 152.172 348.663 152.558C349.341 153.421 349.367 154.172 348.731 154.529C347.967 154.959 348.813 155.153 351.029 155.057L352.928 154.975L352.998 119.396L353.067 83.818L352.217 83.6929C351.709 83.6185 351.213 83.7207 350.988 83.9458ZM363.792 84.6506C363.673 98.0327 363.714 155.112 363.843 155.112C363.944 155.112 364.532 154.066 365.15 152.787L366.275 150.461V121.232C366.275 89.4084 366.397 92.0048 364.754 88.9899C363.731 87.1117 363.924 84.76 365.027 85.6758C365.235 85.8491 365.488 86.4791 365.589 87.0756C365.913 88.9951 366.275 88.5601 366.275 86.251V84.0307H365.036C363.937 84.0307 363.797 84.1004 363.792 84.6506ZM9.40591 118.07C9.42435 136.034 9.53552 150.632 9.65275 150.511C9.77026 150.39 10.5025 148.989 11.2802 147.398C14.1518 141.524 14.711 140.554 18.4095 135.037C18.9546 134.224 19.521 133.356 19.6682 133.108C19.8154 132.861 20.4481 131.852 21.0744 130.867C22.3083 128.927 23.1479 127.459 24.8549 124.255C25.4603 123.119 26.1117 121.959 26.3021 121.678C26.7609 121 26.5892 120.505 23.8032 114.475C21.037 108.487 18.478 102.787 18.2986 102.214C18.1803 101.836 17.6659 100.737 17.1557 99.7731C16.6455 98.8093 15.7724 96.9497 15.2154 95.6404C14.6584 94.3315 13.7814 92.6404 13.2662 91.8827C12.7511 91.1251 11.712 89.3582 10.9569 87.9567C10.2018 86.5552 9.53635 85.4082 9.47828 85.4082C9.41994 85.4082 9.38747 100.106 9.40591 118.07ZM58.0846 117.987C58.0844 135.982 58.1251 150.704 58.1755 150.704C58.3128 150.704 61.642 143.914 61.642 143.634C61.642 143.5 62.0754 142.732 62.6052 141.926C63.1349 141.121 63.5683 140.407 63.5683 140.34C63.5683 140.215 68.394 132.762 69.4276 131.291C70.0008 130.475 72.4379 126.222 74.2252 122.919C75.2935 120.944 75.2828 120.683 74.0263 118.056C73.5915 117.147 72.7442 115.287 72.1437 113.924C71.5432 112.56 70.4945 110.266 69.8134 108.827C69.1323 107.387 68.118 105.093 67.5596 103.73C67.0013 102.366 66.015 100.258 65.3683 99.046C64.7216 97.8338 63.9679 96.222 63.6935 95.4644C63.4192 94.7067 62.6596 93.246 62.0055 92.2186C61.3517 91.1909 60.8164 90.2404 60.8164 90.1062C60.8164 89.9721 60.7083 89.8211 60.5759 89.7704C60.4436 89.72 59.8291 88.6868 59.2102 87.4746L58.0852 85.2705L58.0846 117.987ZM104.855 85.6838C104.775 86.2775 104.696 151.255 104.775 151.255C104.811 151.255 105.337 150.266 105.944 149.057L107.048 146.859V118.377V89.8947L106.111 88.0945C105.595 87.1043 105.114 86.064 105.042 85.7824C104.95 85.4242 104.894 85.3947 104.855 85.6838ZM265.299 120.467C265.289 139.371 265.338 154.837 265.408 154.837C265.479 154.837 266.467 152.946 267.606 150.635C270.308 145.15 271.172 143.627 273.873 139.597C276.531 135.629 279.255 131.209 280.696 128.526C283.454 123.389 283.249 123.926 282.81 123.015C282.591 122.561 282.189 121.631 281.916 120.949C281.643 120.267 281.213 119.213 280.961 118.607C280.709 118.001 280.334 117.071 280.128 116.541C279.922 116.011 279.358 114.895 278.874 114.061C277.741 112.111 276.563 109.529 276.563 108.998C276.563 108.77 276.462 108.521 276.337 108.444C276.213 108.367 275.769 107.399 275.352 106.292C274.934 105.186 273.995 103.103 273.266 101.663C272.537 100.224 271.658 98.3641 271.312 97.5307C270.966 96.6973 270.118 95.142 269.427 94.0747C268.275 92.2952 266.255 88.4568 265.591 86.7858C265.408 86.3235 265.312 97.3987 265.299 120.467ZM315.645 89.4031C315.573 99.0471 315.661 154.398 315.748 154.486C315.806 154.544 316.248 153.748 316.729 152.717C317.211 151.686 317.739 150.595 317.904 150.293C318.069 149.991 318.703 148.752 319.313 147.538C320.414 145.347 322.434 141.876 322.762 141.612C322.856 141.537 323.108 141.136 323.321 140.722C323.534 140.308 323.936 139.724 324.215 139.425C324.493 139.125 324.721 138.804 324.721 138.712C324.721 138.619 325.074 138.025 325.505 137.392C326.613 135.762 330.131 129.867 331.991 126.522L333.565 123.692L333.038 122.803C332.748 122.314 332.104 120.922 331.605 119.709C330.311 116.564 328.858 113.441 328.464 112.959C328.279 112.732 327.903 111.988 327.63 111.306C327.357 110.624 326.766 109.199 326.318 108.138C325.868 107.077 325.402 105.961 325.282 105.658C325.16 105.355 324.378 103.681 323.542 101.939C322.707 100.196 321.685 98.0266 321.271 97.1174C320.858 96.2083 319.855 94.397 319.043 93.0928C318.231 91.7882 317.566 90.6203 317.566 90.4969C317.566 90.3738 317.374 90.0602 317.139 89.7999C316.903 89.5395 316.476 88.724 316.188 87.9873L315.666 86.648L315.645 89.4031ZM283.435 126.947C283.061 127.664 282.693 128.312 282.617 128.388C282.542 128.464 282.194 129.084 281.846 129.765C281.497 130.447 281.002 131.337 280.745 131.743C280.488 132.149 279.736 133.389 279.072 134.498C278.408 135.608 276.481 138.623 274.789 141.199C273.096 143.775 270.938 147.495 269.992 149.464C269.047 151.434 268.095 153.375 267.878 153.777C267.66 154.18 267.482 154.646 267.482 154.815C267.482 155.035 271.652 155.115 282.448 155.103C290.679 155.093 297.482 155.017 297.565 154.933C297.648 154.85 297.332 154.081 296.863 153.225C295.304 150.383 293.075 145.298 293.075 144.586C293.075 143.805 289.936 137.257 288.63 135.313C287.421 133.513 286.358 131.291 285.385 128.526C284.905 127.162 284.423 125.955 284.313 125.845C284.204 125.734 283.808 126.23 283.435 126.947ZM333.983 126.412C333.732 126.689 333.527 126.997 333.527 127.097C333.527 127.196 333.176 127.868 332.748 128.59C332.319 129.312 330.988 131.555 329.789 133.573C327.285 137.792 327.246 137.854 325.409 140.554C324.652 141.666 323.983 142.701 323.922 142.852C323.86 143.004 323.534 143.5 323.196 143.954C322.858 144.409 322.257 145.401 321.86 146.158C321.464 146.916 321.031 147.722 320.898 147.949C320.434 148.747 317.566 154.764 317.566 154.94C317.566 155.226 347.811 155.102 347.988 154.816C348.074 154.676 348.042 154.561 347.917 154.561C347.792 154.561 347.087 153.352 346.349 151.875C345.611 150.398 344.851 148.879 344.66 148.5C344.468 148.121 343.853 146.448 343.293 144.781C342.733 143.114 342.182 141.626 342.069 141.475C341.955 141.323 341.738 140.827 341.586 140.372C341.433 139.917 340.456 138.12 339.413 136.377C337.77 133.632 337.147 132.41 335.975 129.628C335.847 129.325 335.483 128.364 335.166 127.492C334.848 126.621 334.555 125.908 334.513 125.908C334.472 125.908 334.233 126.135 333.983 126.412ZM424.752 133.646C424.146 133.776 422.846 133.879 421.862 133.874C420.879 133.87 417.977 133.955 415.414 134.063C412.501 134.185 408.374 134.126 404.406 133.904C398.66 133.583 397.801 133.594 395.34 134.018C391.983 134.597 390.77 134.992 390.38 135.636C390.14 136.032 390.185 136.213 390.596 136.52C391.041 136.85 391.224 136.849 391.888 136.505C393.465 135.688 396.254 135.41 401.499 135.544C412.203 135.819 425.007 135.602 426.957 135.112C427.853 134.887 428.008 134.269 427.294 133.768C426.637 133.308 426.388 133.296 424.752 133.646ZM142.272 134.075C137.645 134.906 136.218 135.446 136.218 136.361C136.218 137.112 136.721 137.178 138.282 136.63C140.724 135.772 144.413 135.538 150.957 135.825C154.278 135.97 159.285 136.015 162.085 135.924C164.885 135.832 167.672 135.759 168.277 135.759C168.883 135.76 170.344 135.635 171.525 135.482C173.485 135.228 173.665 135.153 173.589 134.62C173.508 134.054 173.379 134.037 169.516 134.058C167.321 134.07 163.668 134.132 161.397 134.196C159.127 134.259 154.05 134.23 150.115 134.131C146.18 134.033 142.65 134.007 142.272 134.075ZM169.378 142.738C168.924 142.836 167.686 142.855 166.626 142.781C165.551 142.706 162.997 142.861 160.847 143.132C157.845 143.511 156.205 143.571 153.417 143.406C148.78 143.131 137.983 143.236 137.121 143.564C136.696 143.726 136.487 143.993 136.545 144.299C136.63 144.74 137.212 144.787 143.376 144.847C147.082 144.884 151.91 144.994 154.105 145.093C156.794 145.213 158.589 145.165 159.609 144.945C160.441 144.765 163.349 144.551 166.07 144.469C168.792 144.386 171.238 144.201 171.505 144.058C171.981 143.803 172.195 142.749 171.786 142.679C171.098 142.56 170.094 142.585 169.378 142.738ZM416.083 142.731C414.84 143.149 410.764 143.407 408.241 143.226C404.918 142.988 392.181 142.996 391.317 143.237C390.883 143.357 390.629 143.627 390.629 143.967C390.629 144.488 390.963 144.512 401.223 144.709C409.863 144.876 412.455 144.837 415.269 144.502C417.167 144.277 420.207 144.092 422.025 144.092C425.425 144.092 425.99 143.929 425.99 142.948C425.99 142.506 425.597 142.466 421.381 142.482C418.846 142.492 416.462 142.604 416.083 142.731ZM106.658 150.943C106.539 151.135 106.517 151.366 106.608 151.457C106.854 151.704 107.123 151.341 106.989 150.942C106.896 150.662 106.831 150.662 106.658 150.943ZM164.287 151.817C162.698 151.939 157.559 152.052 152.867 152.069C145.268 152.095 144.058 152.161 141.79 152.675C139.448 153.206 139.245 153.304 139.245 153.912C139.245 154.275 138.96 155.035 138.611 155.6C137.402 157.557 137.142 159.676 137.74 162.701C137.914 163.582 139.806 165.473 141.171 166.13C142.571 166.803 147.537 168.444 149.461 168.869C153.383 169.735 159.253 169.948 179.973 169.974C187.097 169.983 190.651 169.213 192.433 167.273C194.33 165.208 195.145 161.46 194.275 158.803C193.899 157.655 192.235 155.837 191.283 155.534C190.965 155.433 190.705 155.261 190.705 155.151C190.705 154.956 189 154.366 186.668 153.752C183.627 152.952 179.115 152.321 174.744 152.084C172.095 151.94 169.309 151.772 168.552 151.709C167.796 151.646 165.876 151.695 164.287 151.817ZM397.508 151.964C393.608 152.942 393.385 153.036 393.284 153.744C393.231 154.114 392.97 154.728 392.704 155.109C391.528 156.791 390.951 160.726 391.621 162.491C391.962 163.388 393.806 165.11 395.243 165.874C396.712 166.654 401.904 168.346 403.7 168.629C404.533 168.761 406.08 169.017 407.14 169.198C408.353 169.406 413.092 169.554 419.936 169.6C425.915 169.639 432.416 169.687 434.383 169.705C439.465 169.75 442.303 169.395 444.232 168.473C447.061 167.12 448.66 164.451 448.629 161.132C448.585 156.522 446.058 154.531 438.374 153.052C436.707 152.731 435.539 152.538 430.944 151.823C429.807 151.647 425.143 151.613 418.147 151.731C404.58 151.96 403.785 151.96 401.223 151.733C399.765 151.604 398.675 151.672 397.508 151.964ZM459.407 152.188C456.366 152.951 456.261 153.012 456.261 154.027C456.261 154.472 456.158 154.837 456.033 154.837C455.907 154.837 455.505 155.479 455.138 156.263C454.287 158.084 454.176 161.978 454.943 163.102C455.845 164.424 458.136 165.959 460.311 166.698C461.489 167.098 462.638 167.5 462.865 167.59C464.406 168.203 466.072 168.612 467.021 168.612C467.631 168.612 468.349 168.73 468.617 168.873C469.654 169.429 474.902 169.726 480.409 169.541L485.981 169.355V168.572V167.789L480.133 167.882C472.658 168 467.565 167.344 462.348 165.591C458.496 164.296 457.975 164.011 456.917 162.623C456.252 161.749 456.167 161.409 456.198 159.729C456.24 157.443 457.092 155.734 458.684 154.741C460.229 153.777 463.448 153.089 465.31 153.326C466.16 153.435 467.97 153.494 469.332 153.457C475.086 153.305 476.725 153.273 481.234 153.23L485.981 153.184V152.335V151.486L477.794 151.705C468.71 151.947 467.929 151.948 464.379 151.721C462.347 151.591 461.453 151.675 459.407 152.188ZM227.03 153.522C225.289 153.632 220.336 153.709 216.022 153.694C207.876 153.665 206.294 153.839 204.603 154.948C202.889 156.073 201.781 158.793 202.116 161.057C202.24 161.896 202.575 162.462 203.442 163.298C204.888 164.691 205.23 164.865 208.726 165.988C213.062 167.38 220.392 168.51 223.347 168.243C224.388 168.148 228.177 168.069 231.766 168.066L238.291 168.061L238.37 162.309C238.414 159.144 238.409 155.886 238.359 155.068L238.268 153.58L235.332 153.497C233.717 153.451 231.9 153.393 231.295 153.368C230.69 153.342 228.77 153.412 227.03 153.522ZM399.814 153.309C399.721 153.402 398.855 153.674 397.889 153.915C394.302 154.808 393.062 156.746 393.217 161.222C393.258 162.39 395.595 164.578 397.261 165.009C398.003 165.201 398.857 165.467 399.159 165.6C400.732 166.293 402.539 166.746 405.902 167.29C409.175 167.82 410.794 167.897 419.523 167.935C424.972 167.959 430.792 168.073 432.457 168.188C434.629 168.338 436.507 168.277 439.105 167.971C443.523 167.451 445.096 166.811 445.993 165.169C447.976 161.538 447.225 157.943 444.152 156.352C442.622 155.56 438.102 154.517 432.595 153.686C430.296 153.339 414.822 153.203 407.14 153.462C405.324 153.524 402.97 153.477 401.91 153.358C400.849 153.239 399.906 153.217 399.814 153.309ZM144.198 154.098C141.478 154.9 141.119 155.129 140.105 156.712C139.343 157.9 139.245 158.283 139.245 160.056C139.245 161.881 139.321 162.154 140.1 163.14C140.983 164.255 142.075 164.959 143.51 165.334C143.964 165.453 145.265 165.872 146.4 166.264C150.779 167.777 154.792 168.166 166.626 168.22C172.529 168.248 178.844 168.29 180.661 168.315C185.547 168.381 188.755 167.952 190.295 167.027C193.453 165.128 194.022 159.511 191.276 157.333C189.735 156.111 187.761 155.461 183.275 154.697C182.14 154.504 180.874 154.269 180.462 154.174C177.944 153.596 166.406 153.457 151.353 153.822C151.126 153.828 149.888 153.755 148.601 153.661C146.653 153.519 145.917 153.592 144.198 154.098ZM365.724 154.837C365.489 155.277 365.515 155.388 365.852 155.388C366.091 155.388 366.275 155.148 366.275 154.837C366.275 154.534 366.217 154.286 366.147 154.286C366.076 154.286 365.886 154.534 365.724 154.837ZM390.375 175.312C389.901 175.66 389.878 177.803 389.851 224.658C389.824 272.521 389.835 273.65 390.347 274.025C390.786 274.346 395.054 274.408 416.649 274.408C442.154 274.408 442.435 274.402 443.139 273.848L443.85 273.288L443.854 224.743C443.857 182.256 443.806 176.121 443.448 175.574L443.039 174.949H416.955C395.806 174.949 390.777 175.018 390.375 175.312ZM450.089 175.382C449.851 175.62 449.654 175.961 449.651 176.14C449.644 176.566 449.644 272.161 449.651 272.942C449.665 274.46 449.014 274.408 468.251 274.408H485.981V273.453V272.498L471.19 272.491C463.055 272.486 455.672 272.482 454.783 272.482L453.169 272.48L453.841 271.584C454.44 270.786 458.738 262.249 458.738 261.856C458.738 261.769 459.039 261.303 459.407 260.82C459.775 260.337 460.208 259.632 460.369 259.254C460.531 258.876 461.066 257.987 461.558 257.279C462.05 256.57 463.072 254.981 463.829 253.746C464.585 252.512 465.421 251.244 465.686 250.928C465.951 250.613 466.168 250.188 466.168 249.984C466.168 249.779 466.283 249.612 466.424 249.612C466.566 249.612 466.763 249.352 466.864 249.034C466.965 248.716 467.294 248.21 467.595 247.908C467.896 247.607 468.321 246.968 468.54 246.489C468.758 246.01 469.15 245.294 469.41 244.898C470.526 243.2 472.929 239.153 473.728 237.628C475.051 235.1 476.379 232.821 476.612 232.677C476.893 232.502 477.508 233.785 478.653 236.939C479.644 239.665 481.745 244.397 482.077 244.647C482.467 244.941 484.493 248.148 485.213 249.612L485.959 251.128L485.97 249.298C485.981 247.553 485.911 247.355 484.473 245.027C483.643 243.685 482.838 242.437 482.684 242.254C482.53 242.071 482.404 241.796 482.404 241.643C482.404 241.489 482.177 240.957 481.9 240.46C481.622 239.963 481.169 238.936 480.891 238.179C480.614 237.421 480.283 236.684 480.157 236.54C480.03 236.396 479.927 235.955 479.927 235.561C479.927 235.167 479.816 234.727 479.68 234.583C479.087 233.955 477.971 230.579 478.16 229.983C478.34 229.416 480.228 225.432 480.935 224.128C481.099 223.825 481.523 223.019 481.876 222.337C482.23 221.655 482.792 220.601 483.126 219.995C485.487 215.704 485.819 214.814 485.896 212.556C485.938 211.344 485.901 210.538 485.815 210.766C485.569 211.415 478.98 224.663 478.826 224.817C478.751 224.892 478.317 225.727 477.863 226.672C477.409 227.616 476.976 228.39 476.9 228.39C476.496 228.393 474.148 223.671 474.148 222.857C474.148 222.62 471.803 217.469 471.402 216.827C470.897 216.016 469.658 213.309 467.492 208.286C465.283 203.165 464.899 202.314 462.388 196.99C461.637 195.399 460.803 193.601 460.534 192.995C460.265 192.389 459.751 191.499 459.391 191.016C459.032 190.534 458.738 190.068 458.738 189.98C458.738 189.893 458.366 189.308 457.912 188.681C457.458 188.054 457.086 187.421 457.086 187.277C457.086 187.132 456.715 186.463 456.261 185.789C455.807 185.115 455.435 184.447 455.435 184.303C455.435 184.159 455.32 184.041 455.179 184.041C455.037 184.041 454.836 183.762 454.732 183.421C454.628 183.08 454.403 182.628 454.232 182.417C454.061 182.206 453.798 181.4 453.647 180.628C453.447 179.609 453.231 179.197 452.861 179.127C452.58 179.074 452.248 179.135 452.123 179.263C451.615 179.785 452.485 182.326 454.264 185.514C455.287 187.346 456.172 188.973 456.232 189.129C456.292 189.286 456.674 189.847 457.081 190.378C457.958 191.519 458.505 192.502 459.302 194.373C459.626 195.13 460.676 197.362 461.637 199.332C462.598 201.302 463.713 203.719 464.114 204.704C464.515 205.689 464.955 206.613 465.092 206.757C465.23 206.901 465.342 207.185 465.342 207.388C465.342 207.592 465.714 208.553 466.168 209.526C466.622 210.498 466.993 211.351 466.993 211.421C466.993 211.491 467.934 213.511 469.085 215.909C472.122 222.242 472.697 223.497 472.915 224.266C473.023 224.644 473.731 226.223 474.49 227.773C475.808 230.468 475.85 230.622 475.432 231.26C475.192 231.627 474.623 232.616 474.169 233.457C473.714 234.298 473.221 235.208 473.073 235.48C472.714 236.139 470.341 240.272 470.022 240.796C469.884 241.023 468.883 242.697 467.799 244.516C466.714 246.334 465.743 247.884 465.64 247.959C465.537 248.035 465.128 248.655 464.73 249.337C464.332 250.019 463.812 250.825 463.574 251.128C461.944 253.203 458.289 259.421 455.963 264.077C453.017 269.97 451.983 271.913 451.576 272.322C451.418 272.48 451.344 254.207 451.382 224.659L451.445 176.74L460.251 176.677C465.094 176.642 472.865 176.611 477.519 176.608L485.981 176.602V175.776V174.949H468.251C452.5 174.949 450.473 174.997 450.089 175.382ZM391.575 181.63C391.466 214.43 391.49 272.48 391.612 272.48C391.851 272.48 392.664 270.967 395.856 264.581C397.459 261.373 398.991 258.459 399.26 258.106C399.529 257.753 400.226 256.659 400.808 255.674C401.391 254.689 402.806 252.478 403.953 250.76C406.187 247.415 406.181 247.424 407.408 245.342C407.855 244.584 408.731 243.159 409.355 242.174C409.979 241.189 410.569 240.164 410.666 239.895C410.763 239.627 411.34 238.673 411.949 237.775C412.558 236.877 413.056 235.975 413.056 235.769C413.056 235.564 413.174 235.278 413.318 235.134C413.638 234.814 414.825 232.734 415.415 231.46C415.842 230.538 415.828 230.483 414.295 226.914C413.442 224.927 412.614 222.991 412.455 222.612C412.297 222.234 412.057 221.738 411.922 221.51C411.787 221.283 411.605 220.911 411.516 220.684C411.356 220.273 410.909 219.323 408.02 213.245C407.192 211.502 406.05 208.899 405.484 207.459C404.917 206.02 403.53 202.92 402.401 200.572C401.273 198.223 400.056 195.604 399.697 194.751C398.95 192.98 398.037 191.317 397.37 190.515C397.118 190.212 396.567 189.283 396.148 188.449C395.728 187.616 395.081 186.53 394.711 186.037C393.012 183.772 391.674 179.52 392.554 179.182C393.223 178.925 393.751 179.578 393.951 180.909C394.052 181.586 394.306 182.311 394.515 182.52C394.723 182.729 394.894 183.032 394.894 183.194C394.894 183.356 395.313 184.078 395.824 184.798C396.336 185.518 397.009 186.613 397.319 187.231C397.63 187.848 398.369 189.088 398.961 189.986C399.949 191.482 401.018 193.587 403.428 198.781C403.92 199.842 404.668 201.453 405.09 202.362C406.179 204.71 408.378 209.899 408.378 210.12C408.378 210.222 409.231 212.052 410.273 214.186C412.831 219.426 414.08 222.117 414.739 223.811C415.044 224.591 415.678 226.029 416.15 227.005L417.007 228.781L418.966 224.801C420.043 222.612 421.369 220.063 421.913 219.137C422.457 218.21 422.995 217.156 423.109 216.795C423.222 216.434 423.982 214.786 424.798 213.133C425.613 211.481 426.839 208.691 427.523 206.934C428.206 205.177 428.881 203.492 429.021 203.189C429.445 202.276 431.153 196.907 432.176 193.272C433.257 189.43 434.367 186.032 434.625 185.774C434.719 185.679 434.796 185.406 434.795 185.166C434.794 184.926 435.094 183.738 435.46 182.526C436.311 179.712 436.943 176.914 436.767 176.739C436.692 176.664 426.497 176.602 414.111 176.602H391.592L391.575 181.63ZM438.762 176.806C438.597 176.921 438.309 177.821 438.123 178.806C437.821 180.401 436.376 185.544 435.606 187.76C434.977 189.574 432.633 197.437 431.911 200.158C431.709 200.916 431.038 202.705 430.419 204.134C429.799 205.563 429.292 206.91 429.292 207.127C429.292 207.344 428.995 208.097 428.631 208.8C427.751 210.498 426.816 212.548 426.816 212.777C426.816 212.999 423.938 218.815 422.739 221.016C422.268 221.88 421.762 222.81 421.615 223.082C421.468 223.354 420.596 225.14 419.677 227.051L418.006 230.526L418.72 232.148C419.112 233.041 419.596 234.143 419.796 234.597C419.996 235.052 420.243 235.796 420.344 236.25C420.446 236.705 420.696 237.449 420.9 237.903C422.497 241.465 423.271 242.992 423.894 243.811C424.29 244.333 424.614 244.912 424.614 245.097C424.614 245.282 424.724 245.475 424.857 245.526C425.103 245.618 428.192 251.067 428.192 251.406C428.192 251.507 428.545 252.354 428.976 253.287C429.407 254.221 430.035 255.791 430.371 256.776C430.707 257.761 431.543 259.93 432.228 261.597C432.914 263.264 433.672 265.124 433.912 265.73C434.152 266.336 434.512 267.027 434.71 267.267C434.909 267.506 435.071 267.79 435.071 267.898C435.071 268.005 435.505 268.738 436.035 269.525C437.06 271.05 437.197 271.619 436.668 272.149C436.411 272.406 436.961 272.48 439.145 272.48H441.953L441.883 224.61L441.814 176.74L440.438 176.668C439.681 176.629 438.927 176.691 438.762 176.806ZM131.422 182.27C131.184 182.508 130.989 183.103 130.989 183.592C130.989 184.081 130.844 184.627 130.666 184.805C130.42 185.052 130.42 185.295 130.666 185.837C130.908 186.367 130.989 194.671 130.989 218.611C130.989 254.48 130.808 251.522 133.004 251.562C134.479 251.59 217.848 251.589 226.666 251.562C232.329 251.544 233.384 251.477 233.752 251.108C234.141 250.719 234.185 247.23 234.185 216.818V182.96L233.582 182.399C232.981 181.837 232.922 181.837 182.417 181.837C136.818 181.837 131.812 181.879 131.422 182.27ZM132.693 184.517C132.75 185.206 132.959 185.638 133.328 185.832C133.631 185.99 135.179 186.972 136.768 188.014C139.673 189.918 141.427 191.05 145.368 193.563C146.54 194.312 148.869 195.823 150.542 196.921C152.214 198.02 153.635 198.919 153.699 198.919C153.762 198.919 154.344 199.275 154.991 199.71C156.335 200.612 160.536 203.345 164.09 205.63C165.42 206.485 166.57 207.184 166.647 207.184C166.724 207.184 166.936 207.313 167.119 207.47C167.302 207.628 168.628 208.512 170.066 209.436C175.263 212.773 180.408 216.105 181.486 216.834C184.147 218.631 184.05 218.624 186.622 217.184C187.884 216.477 189.31 215.691 189.792 215.438C190.274 215.184 191.265 214.549 191.994 214.026C192.723 213.504 193.505 212.992 193.732 212.89C193.959 212.787 195.303 211.958 196.718 211.046C198.133 210.134 199.392 209.388 199.516 209.388C199.639 209.388 199.781 209.28 199.832 209.149C199.882 209.017 201.162 208.068 202.676 207.04C204.189 206.012 205.469 205.065 205.519 204.937C205.57 204.809 205.742 204.704 205.902 204.704C206.062 204.704 207.011 204.052 208.011 203.254C209.012 202.456 210.264 201.473 210.794 201.069C211.323 200.666 212.088 200.048 212.493 199.696C212.897 199.344 213.623 198.746 214.106 198.368C214.588 197.989 216.101 196.718 217.468 195.544C220.193 193.204 221.867 192.029 224.486 190.617C227.716 188.875 228.607 188.291 229.575 187.279C230.405 186.411 230.882 186.48 230.882 187.468C230.882 188.402 228.498 190.29 225.31 191.879C223.834 192.615 222.627 193.322 222.627 193.45C222.627 193.579 222.46 193.684 222.257 193.684C222.053 193.684 221.662 193.932 221.388 194.235C221.115 194.538 220.793 194.786 220.674 194.786C220.555 194.786 219.615 195.58 218.584 196.552C216.887 198.151 215.712 199.125 211.894 202.098C211.213 202.629 210.223 203.421 209.693 203.859C208.53 204.82 204.481 207.735 204.308 207.735C204.24 207.735 203.102 208.515 201.779 209.468C199.115 211.388 199.055 211.426 194.24 214.33C192.371 215.457 190.595 216.586 190.292 216.84C189.989 217.094 188.875 217.768 187.815 218.339C186.756 218.909 185.855 219.405 185.814 219.44C185.772 219.475 186.949 220.289 188.428 221.25C189.907 222.211 191.18 223.065 191.255 223.149C191.331 223.233 191.641 223.45 191.943 223.632C194.563 225.203 196.458 226.391 197.034 226.821C198.073 227.596 201.431 229.776 201.588 229.776C201.663 229.776 203.549 230.994 205.778 232.482C211.292 236.165 212.921 237.215 213.122 237.215C213.378 237.215 221.374 242.55 221.48 242.792C221.531 242.907 221.706 243 221.871 243C222.035 243 223.232 243.715 224.531 244.589C225.83 245.464 227.365 246.424 227.942 246.725C229.928 247.757 230.629 248.842 229.535 249.19C229.173 249.305 228.079 248.741 225.966 247.349C224.29 246.245 221.972 244.722 220.815 243.965C219.658 243.207 218.385 242.371 217.986 242.108C217.587 241.844 217.075 241.542 216.848 241.436C216.621 241.329 214.294 239.84 211.678 238.126C209.061 236.412 206.851 235.01 206.767 235.01C206.684 235.01 206.331 234.793 205.984 234.528C205.637 234.263 205.08 233.86 204.746 233.633C204.411 233.406 203.883 233.003 203.571 232.737C203.259 232.472 202.885 232.255 202.739 232.255C202.594 232.255 201.591 231.678 200.511 230.973C199.431 230.268 197.371 228.922 195.934 227.982C194.496 227.042 193.01 226.112 192.631 225.917C192.253 225.721 191.881 225.48 191.806 225.381C191.73 225.282 191.173 224.904 190.567 224.541C189.962 224.178 189.405 223.809 189.329 223.721C189.253 223.632 188.291 223.021 187.191 222.363C186.091 221.704 185.124 221.057 185.042 220.925C184.752 220.454 183.54 220.696 181.974 221.539C181.1 222.008 180.19 222.566 179.951 222.778C179.712 222.99 179.419 223.163 179.301 223.163C179.183 223.163 178.061 223.783 176.808 224.541C175.555 225.299 174.422 225.919 174.29 225.919C174.158 225.919 173.717 226.229 173.308 226.607C172.901 226.986 172.488 227.296 172.391 227.296C172.295 227.296 171.933 227.513 171.586 227.778C171.239 228.043 170.681 228.446 170.347 228.674C170.013 228.901 169.472 229.318 169.146 229.601C168.82 229.883 168.243 230.31 167.864 230.548C167.486 230.786 166.301 231.64 165.231 232.445C164.161 233.25 163.202 233.908 163.101 233.908C162.999 233.908 162.348 234.342 161.654 234.873C160.96 235.403 160.257 235.837 160.091 235.837C159.925 235.837 159.578 236.029 159.319 236.263C158.581 236.932 154.123 239.505 152.484 240.208C151.668 240.558 150.306 241.218 149.457 241.674C146.797 243.103 145.51 243.761 143.098 244.926C141.811 245.547 139.768 246.603 138.557 247.274C137.346 247.945 135.879 248.754 135.297 249.072C134.714 249.39 134.292 249.704 134.357 249.77C134.495 249.908 232.297 249.941 232.435 249.803C232.517 249.72 232.547 234.251 232.537 196.508L232.533 183.49H182.57H132.607L132.693 184.517ZM132.638 187.409C132.634 187.559 132.632 229.037 132.637 238.97L132.64 249.129L133.26 248.688C135.061 247.407 141.108 244.158 148.326 240.593C152.791 238.388 156.692 236.367 156.994 236.102C157.297 235.836 157.978 235.385 158.508 235.099C159.463 234.584 164.044 231.595 164.837 230.97C165.064 230.792 166.55 229.68 168.14 228.501C169.729 227.321 171.091 226.289 171.167 226.206C171.313 226.047 171.498 225.935 175.57 223.54C177.007 222.694 178.493 221.79 178.872 221.53C179.25 221.27 180.205 220.757 180.993 220.389C181.782 220.021 182.432 219.645 182.438 219.555C182.444 219.464 181.008 218.472 179.246 217.351C177.485 216.229 175.813 215.094 175.531 214.829C175.25 214.564 174.948 214.347 174.861 214.347C174.774 214.347 173.841 213.789 172.789 213.107C171.736 212.425 170.822 211.868 170.759 211.868C170.696 211.868 170.111 211.514 169.46 211.082C167.468 209.758 160.112 204.96 158.508 203.938C157.676 203.407 156.19 202.449 155.206 201.809C154.222 201.168 152.488 200.058 151.353 199.34C147.744 197.059 138.858 191.265 138.144 190.727C137.766 190.442 136.837 189.854 136.08 189.421C135.323 188.989 134.642 188.548 134.567 188.443C134.418 188.235 132.642 187.283 132.638 187.409ZM255.449 204.175C255.036 204.32 254.996 205.361 255.017 215.609L255.04 226.883L310.647 226.952L366.254 227.022L366.333 220.891C366.377 217.519 366.35 212.367 366.275 209.441L366.137 204.121L311.02 204.068C280.706 204.039 255.699 204.087 255.449 204.175ZM0 230.193V231.161L53.5608 231.148C83.0191 231.141 107.169 231.182 107.226 231.24C107.284 231.298 107.329 276.617 107.326 331.948L107.32 432.551H108.295H109.27L109.191 331.468C109.113 232.51 109.101 230.372 108.588 229.805L108.063 229.225H54.0317H0V230.193ZM416.25 233.426C413.972 237.626 411.281 242.266 409.898 244.378C409.253 245.363 408.567 246.479 408.374 246.857C408.18 247.236 406.863 249.302 405.448 251.448C404.033 253.594 402.874 255.437 402.874 255.544C402.874 255.651 402.457 256.312 401.947 257.014C401.437 257.717 400.721 258.849 400.356 259.531C399.991 260.213 399.356 261.295 398.944 261.936C398.533 262.577 398.196 263.172 398.196 263.259C398.196 263.542 394.646 270.666 394.048 271.584L393.464 272.48H414.519H435.575L434.033 269.794C432.607 267.309 431.655 265.118 429.513 259.393C429.06 258.181 428.081 255.743 427.339 253.976C426.597 252.209 425.99 250.682 425.99 250.583C425.99 250.483 425.681 249.996 425.302 249.499C424.924 249.002 424.614 248.495 424.614 248.372C424.614 248.248 423.871 246.999 422.963 245.596C422.055 244.192 421.312 242.965 421.312 242.869C421.312 242.773 420.965 241.988 420.541 241.125C420.117 240.262 419.3 238.255 418.725 236.663C417.537 233.376 417.167 232.531 416.913 232.531C416.816 232.531 416.517 232.934 416.25 233.426ZM257.032 235.837C254.297 235.968 254.132 236.01 253.804 236.663C253.529 237.212 253.457 257.181 253.452 334.952L253.446 432.551H254.372H255.298L255.267 349.416L255.236 266.281L310.336 266.251C354.308 266.227 365.521 266.151 365.855 265.873C366.415 265.408 366.386 264.838 365.793 264.651C365.528 264.568 340.854 264.507 310.962 264.516C281.07 264.524 256.303 264.522 255.924 264.511L255.236 264.49L255.203 250.99L255.168 237.49H310.859H366.55V335.021V432.551H367.444H368.338L368.267 337.569C368.228 285.329 368.197 241.278 368.199 239.678C368.2 237.624 368.088 236.615 367.818 236.244C367.444 235.732 366.204 235.72 313.675 235.709C284.107 235.704 258.618 235.761 257.032 235.837ZM196.178 254.694C195.785 255.088 189.048 255.512 183 255.523C175.139 255.538 174.964 255.576 174.414 257.407C174.164 258.239 174.199 259.122 174.586 261.746C174.852 263.557 175.171 266.373 175.294 268.002C175.416 269.632 175.672 272.674 175.862 274.764C176.133 277.738 176.136 278.635 175.875 278.896C175.692 279.08 174.841 279.23 173.984 279.23C172.594 279.23 172.383 279.307 172.026 279.944C171.805 280.337 171.704 280.864 171.8 281.115C172.031 281.719 172.935 281.691 174.882 281.021C175.761 280.718 176.711 280.47 176.992 280.47C177.273 280.47 177.719 280.357 177.981 280.219C179.285 279.533 181.217 279.055 182.779 279.031C183.733 279.016 187.523 279.105 191.202 279.228C199.812 279.516 202.969 279.116 204.808 277.501C205.537 276.861 205.453 274.66 204.651 273.37C203.138 270.933 202.982 270.169 203.096 265.73C203.235 260.301 203.2 257.26 202.991 256.424C202.802 255.671 202.082 255.315 199.841 254.865C198.352 254.565 196.398 254.474 196.178 254.694ZM138.144 256.733C136.142 257.345 135.021 257.977 134.288 258.905C133.732 259.609 133.699 259.864 133.865 262.148C133.964 263.512 134.154 265 134.288 265.454C134.422 265.909 134.672 268.054 134.842 270.222C135.191 274.663 135.73 277.62 136.292 278.182C136.898 278.789 137.674 278.328 137.493 277.469C137 275.128 136.513 271.557 136.353 269.103C136.251 267.551 136.066 265.847 135.94 265.317C135.814 264.786 135.628 263.346 135.526 262.116C135.342 259.88 135.342 259.88 136.133 259.316C136.569 259.005 137.85 258.561 138.979 258.329C140.767 257.962 141.391 257.955 143.785 258.279C145.299 258.484 147.115 258.786 147.82 258.949C149.818 259.413 159.317 259.442 162.315 258.994C164.53 258.663 164.919 258.664 165.137 259.002C165.442 259.472 165.278 261.452 164.718 264.077C164.184 266.583 164.186 269.717 164.724 271.791C165.365 274.264 165.742 276.575 165.773 278.219C165.822 280.855 165.008 280.958 157.545 279.26C156.485 279.019 153.823 278.742 151.628 278.646C148.368 278.503 147.11 278.566 144.749 278.988C143.159 279.273 140.745 279.505 139.382 279.505C137.046 279.505 136.901 279.54 136.82 280.107C136.764 280.503 136.944 280.82 137.349 281.037C138.074 281.425 141.886 281.429 142.902 281.043C143.29 280.895 144.899 280.629 146.477 280.451C149.435 280.118 155.627 280.419 158.095 281.017C163.588 282.347 164.607 282.408 165.966 281.493C167.622 280.378 167.925 277.597 166.845 273.444C165.609 268.696 165.602 267.626 166.771 262.329C167.215 260.316 166.912 258.013 166.132 257.466C165.378 256.937 164.429 256.944 160.927 257.504C158.463 257.898 157.485 257.916 153.399 257.636C150.817 257.459 147.969 257.187 147.07 257.031C141.609 256.085 140.395 256.044 138.144 256.733ZM192.494 256.98C189.583 257.428 188.509 257.458 181.486 257.293C176.005 257.164 175.862 257.22 176.009 259.456C176.067 260.33 176.301 262.348 176.529 263.939C176.757 265.53 177.006 268.114 177.082 269.682C177.158 271.249 177.285 272.637 177.365 272.766C177.444 272.895 177.57 274.146 177.645 275.545C177.719 276.945 177.814 278.124 177.855 278.166C177.896 278.207 178.483 278.032 179.158 277.776C180.205 277.379 181.175 277.328 185.752 277.434C197.219 277.7 200.915 277.619 202.332 277.072C203.513 276.616 203.639 276.482 203.639 275.687C203.639 275.203 203.441 274.524 203.199 274.178C202.958 273.833 202.446 272.783 202.062 271.844C201.376 270.17 201.364 270.016 201.406 263.59L201.449 257.042L200.737 256.771C199.721 256.384 195.708 256.486 192.494 256.98ZM0.114753 257.304C0.0517352 257.367 0 257.707 0 258.06V258.7L38.8702 258.771C60.249 258.81 84.3037 258.78 92.3254 258.704C106.578 258.57 106.91 258.554 106.91 258.027C106.91 257.633 106.649 257.431 105.947 257.279C104.971 257.067 0.326097 257.092 0.114753 257.304ZM229.437 257.206C229.309 257.322 223.588 257.906 221.113 258.056C219.578 258.149 217.402 258.044 215.388 257.779C211.692 257.293 211.121 257.415 210.264 258.869C209.58 260.03 209.507 262.788 209.944 270.965C210.311 277.837 210.37 278.266 210.943 278.266C211.171 278.266 211.473 278.568 211.613 278.938C212.004 279.969 214.785 281.293 216.573 281.299C217.565 281.303 221.239 280.577 222.214 280.183C222.517 280.061 224.683 279.885 227.029 279.793C231.749 279.606 233.147 279.311 233.909 278.342C234.446 277.658 234.44 277.088 233.863 274.271C233.297 271.507 233.135 267.035 233.521 264.814C233.723 263.651 233.969 261.88 234.068 260.879C234.24 259.14 234.212 259.02 233.442 258.157C232.728 257.357 232.46 257.248 231.071 257.2C230.209 257.169 229.474 257.172 229.437 257.206ZM211.875 259.55C211.319 260.107 211.304 260.301 211.477 264.583C211.741 271.117 211.858 274.608 211.877 276.513C211.894 278.133 211.926 278.209 212.651 278.346C213.067 278.425 213.903 278.681 214.509 278.916C216.002 279.496 217.669 279.464 220.269 278.809C221.872 278.404 223.737 278.221 227.286 278.121C233.184 277.953 233.424 277.802 232.364 274.925C231.678 273.064 231.509 265.808 232.086 263.014C232.651 260.282 232.653 259.36 232.098 259.147C231.333 258.853 228.934 258.971 224.459 259.523C220.411 260.022 219.871 260.031 216.891 259.654C215.127 259.431 213.406 259.186 213.068 259.11C212.671 259.021 212.248 259.177 211.875 259.55ZM9.45737 268.179L8.79086 268.76L8.72592 304.666C8.67006 335.37 8.71711 340.618 9.05064 340.895C9.34041 341.137 14.8574 341.239 30.5111 341.295L51.5814 341.371L52.3192 342.078C53.4744 343.187 54.0496 342.881 54.2031 341.078C54.2739 340.247 54.3281 323.587 54.3237 304.056L54.3154 268.546L53.7152 268.06C53.1527 267.604 51.7655 267.574 31.6196 267.585C10.1481 267.597 10.123 267.598 9.45737 268.179ZM11.8331 269.4C11.3033 269.449 10.7565 269.599 10.6178 269.735C10.467 269.882 11.3132 270.954 12.7227 272.402C14.0189 273.733 15.4944 275.318 16.0019 275.924C16.509 276.53 17.3272 277.46 17.8198 277.99C18.8509 279.1 22.2902 284.159 22.2902 284.566C22.2902 284.716 22.4492 285.002 22.6435 285.203C22.8375 285.403 23.5695 286.558 24.2699 287.771C24.9702 288.983 25.7441 290.196 25.9901 290.466C27.0119 291.59 29.947 296.602 31.3081 299.546C31.5698 300.112 31.8904 300.542 32.0203 300.5C32.1502 300.458 33.3907 298.569 34.7768 296.302C36.1632 294.034 37.655 291.624 38.0923 290.946C38.5293 290.267 39.2836 288.903 39.7682 287.915C40.2525 286.927 41.0525 285.312 41.5456 284.327C42.0387 283.342 42.752 281.916 43.1304 281.158C43.5091 280.401 43.9095 279.719 44.0204 279.643C44.1315 279.567 44.696 278.39 45.2749 277.026C46.2287 274.779 46.9404 273.597 48.7261 271.294C49.3695 270.464 50.5203 270.346 50.468 271.116C50.452 271.351 49.8876 272.28 49.2134 273.182C48.5395 274.084 47.5219 275.814 46.9519 277.026C46.382 278.238 45.6198 279.788 45.2579 280.47C44.896 281.152 43.8387 283.259 42.9086 285.153C41.9782 287.047 41.1149 288.783 40.9897 289.01C40.3573 290.159 37.4704 294.813 36.7172 295.898C35.4191 297.768 33.0225 302.165 33.0225 302.675C33.0225 303.213 37.3479 311.671 38.4715 313.33C38.9055 313.971 39.9748 315.983 40.848 317.801C42.8816 322.037 43.8021 323.828 44.0347 324C44.322 324.213 46.7819 327.802 46.7819 328.008C46.7819 328.109 47.1437 328.728 47.586 329.384C48.477 330.705 48.9498 331.666 49.8169 333.919C50.4664 335.605 52.3189 339.153 52.5498 339.153C52.7284 339.153 52.6654 269.737 52.4868 269.559C52.3448 269.417 13.3094 269.264 11.8331 269.4ZM10.6115 272.728C10.3806 273.102 10.5512 336.398 10.7832 336.398C10.8867 336.398 11.6093 335.128 12.3887 333.574C13.168 332.021 14.0857 330.378 14.4275 329.924C15.0338 329.118 15.6207 328.097 17.7521 324.138C18.3234 323.077 18.939 322.023 19.1203 321.796C19.4326 321.404 20.3633 319.797 21.5122 317.664C21.7979 317.133 22.8301 315.459 23.8062 313.944C24.7823 312.429 26.1098 310.346 26.7562 309.316C27.4026 308.286 28.2697 306.922 28.6831 306.286C29.0964 305.649 29.7756 304.47 30.1925 303.667L30.9503 302.205L29.8664 300.085C29.2703 298.919 28.0647 296.77 27.1874 295.31C26.3101 293.85 25.5924 292.527 25.5924 292.371C25.5924 292.215 25.4879 292.046 25.3599 291.995C25.0289 291.865 22.8095 288.611 21.7739 286.738C19.7018 282.991 18.8591 281.749 16.5112 278.985C15.8302 278.183 14.8769 277.033 14.3931 276.43C12.7734 274.41 10.7788 272.457 10.6115 272.728ZM76.0324 274.709C73.7307 274.829 70.9045 275.058 69.7518 275.219C68.5993 275.379 67.1614 275.51 66.5563 275.51C65.5747 275.51 65.4657 275.577 65.5442 276.127C65.6581 276.924 67.1865 277.219 69.4848 276.887C71.207 276.639 81.5625 276.174 82.28 276.313C82.5067 276.357 83.8447 276.306 85.2534 276.2C87.4108 276.038 87.8013 275.937 87.7287 275.56C87.5019 274.382 85.3365 274.224 76.0324 274.709ZM265.001 276.343C264.523 277.015 264.445 277.392 264.598 278.298C264.779 279.367 264.807 291.421 264.728 332.517L264.692 350.814L265.569 351.182C266.275 351.48 270.554 351.551 287.64 351.551H308.835L309.49 352.259C309.901 352.704 310.373 352.934 310.76 352.879C311.271 352.806 311.394 352.581 311.492 351.551C311.556 350.869 311.618 333.657 311.629 313.302C311.65 276.972 311.64 276.285 311.116 275.901C310.665 275.571 307.079 275.51 288.087 275.51H265.593L265.001 276.343ZM267.62 277.116C267.166 277.165 266.681 277.316 266.544 277.45C266.395 277.594 267.278 278.696 268.709 280.151C270.038 281.503 271.203 282.732 271.299 282.881C271.394 283.031 272.03 283.809 272.711 284.61C273.392 285.411 274.327 286.512 274.79 287.057C275.803 288.25 277.664 290.817 277.664 291.022C277.664 291.286 280.176 295.431 281.759 297.779C283.551 300.437 284.929 302.631 285.424 303.613C285.615 303.991 285.844 304.363 285.932 304.439C286.021 304.515 286.637 305.662 287.301 306.988C287.965 308.314 288.581 309.398 288.669 309.398C288.758 309.398 289.252 308.685 289.766 307.814C290.829 306.015 293.42 301.919 294.204 300.8C294.491 300.389 294.726 299.989 294.726 299.91C294.726 299.831 295.135 299.113 295.636 298.314C296.136 297.516 297.005 295.871 297.567 294.658C298.674 292.271 298.892 291.846 300.615 288.735C301.245 287.598 301.988 286.049 302.266 285.291C303.489 281.963 305.928 278.541 307.078 278.541C307.909 278.541 307.808 279.238 306.79 280.525C305.317 282.387 304.772 283.3 304.109 285.016C303.467 286.679 301.998 289.719 301.57 290.273C301.318 290.599 299.904 293.448 298.722 296.011C298.308 296.906 297.55 298.238 297.036 298.97C296.522 299.702 296.101 300.395 296.101 300.51C296.1 300.625 295.607 301.37 295.006 302.164C294.404 302.958 293.831 303.929 293.733 304.321C293.635 304.714 293.385 305.1 293.177 305.18C292.969 305.259 292.799 305.445 292.799 305.593C292.799 305.74 292.38 306.502 291.866 307.285C290.74 309.005 289.772 310.995 289.772 311.592C289.772 311.833 290.14 312.77 290.589 313.676C291.039 314.581 291.41 315.417 291.415 315.534C291.42 315.65 291.712 316.208 292.065 316.774C292.418 317.339 293.122 318.607 293.631 319.592C294.139 320.577 294.709 321.57 294.898 321.799C295.407 322.415 299.404 330.293 299.404 330.68C299.404 330.863 300.24 332.226 301.262 333.709C302.283 335.192 303.243 336.623 303.394 336.89C303.546 337.156 304.244 338.363 304.945 339.572C305.647 340.781 306.563 342.577 306.98 343.562C308.026 346.032 309.69 349.345 309.885 349.346C309.974 349.347 310.066 333.106 310.09 313.255C310.125 284.61 310.063 277.159 309.791 277.14C308.684 277.065 268.299 277.042 267.62 277.116ZM266.449 313.655C266.488 331.907 266.601 346.753 266.7 346.647C266.8 346.541 267.439 345.38 268.121 344.068C268.803 342.755 269.824 340.958 270.39 340.073C271.739 337.964 272.321 336.952 273.585 334.515C274.162 333.403 274.884 332.141 275.19 331.711C275.496 331.28 275.963 330.454 276.227 329.875C276.491 329.296 277.322 327.892 278.073 326.755C279.864 324.044 282.067 320.385 282.067 320.122C282.067 320.007 282.16 319.872 282.274 319.822C282.491 319.725 284.819 316.403 284.819 316.189C284.819 316.122 285.315 315.278 285.922 314.316C287.843 311.267 287.824 311.714 286.177 308.379C285.368 306.742 284.175 304.562 283.525 303.535C282.874 302.507 282.342 301.62 282.342 301.563C282.342 301.506 281.561 300.289 280.605 298.858C278.751 296.081 277.879 294.687 277.03 293.143C276.111 291.47 274.16 288.629 273.339 287.771C272.905 287.316 271.569 285.766 270.371 284.327C267.951 281.42 267.032 280.47 266.641 280.47C266.476 280.47 266.405 292.769 266.449 313.655ZM464.379 281.536C462.672 281.777 461.765 282.261 461.765 282.929C461.765 283.56 462.409 283.847 462.845 283.41C463.207 283.047 473.695 282.957 479.652 283.265C481.544 283.363 483.711 283.363 484.468 283.265C485.706 283.105 485.852 283.012 485.929 282.342L486.015 281.597L482.627 281.626C480.764 281.642 476.205 281.584 472.497 281.498C468.789 281.412 465.136 281.429 464.379 281.536ZM337.898 282.522C337.793 282.628 334.358 282.864 325.429 283.378C323.557 283.486 322.984 283.782 323.259 284.498C323.499 285.126 324.375 285.202 327.962 284.909C329.888 284.752 333.692 284.547 336.417 284.454C344.524 284.176 345.882 284.102 346.178 283.918C346.634 283.636 346.504 282.992 345.929 282.683C345.42 282.411 338.155 282.265 337.898 282.522ZM405.076 283.225L401.636 283.363V284.051V284.74L409.892 284.749C416.792 284.757 418.481 284.838 420.182 285.243C422.364 285.763 429.203 286.012 430.324 285.612C430.727 285.469 430.944 285.167 430.944 284.748C430.944 284.105 430.94 284.104 427.096 284.087C424.579 284.075 422.05 283.871 419.78 283.497C416.243 282.914 413.91 282.871 405.076 283.225ZM77.3137 284.148C77.0371 284.442 72.2893 284.862 68.7314 284.907C65.0884 284.953 64.4046 285.168 64.7802 286.148C64.9352 286.552 65.5466 286.584 70.6588 286.455C73.797 286.376 77.1301 286.163 78.0655 285.982C79.5275 285.699 80.33 285.734 83.7767 286.234C88.0328 286.852 89.1608 286.796 89.1608 285.966C89.1608 285.25 88.7744 285.089 86.7358 284.96C85.7459 284.897 84.6953 284.716 84.4011 284.558C83.8194 284.247 77.5613 283.884 77.3137 284.148ZM417.184 290.526C416.344 291.007 414.919 291.042 413.123 290.627C412.038 290.376 411.613 290.39 410.969 290.699C409.552 291.379 409.949 291.879 412.093 292.114C416.751 292.625 416.78 292.624 417.767 291.96C419.488 290.802 418.962 289.508 417.184 290.526ZM481.458 290.533C481.027 290.86 480.062 290.917 476.367 290.833C471.723 290.728 470.686 290.869 470.39 291.642C470.097 292.406 470.647 292.546 473.206 292.359C474.579 292.258 476.189 292.264 476.783 292.372C478.679 292.716 481.471 292.664 482.096 292.273C482.843 291.806 483.096 291.029 482.668 290.513C482.261 290.021 482.132 290.024 481.458 290.533ZM334.078 292.724C332.791 292.919 329.697 293.163 327.203 293.266C322.73 293.452 322.12 293.601 322.437 294.427C322.622 294.909 330.041 294.936 334.117 294.47C337.818 294.047 340.15 294.116 344.157 294.768C347.568 295.323 348.112 295.247 348.112 294.217C348.112 293.682 347.812 293.57 345.635 293.301C344.954 293.216 343.406 292.965 342.196 292.741C339.55 292.254 337.216 292.249 334.078 292.724ZM64.2877 293.289C63.538 294.039 64.046 294.52 65.5929 294.524C66.3714 294.526 67.6892 294.717 68.5217 294.949C69.5038 295.222 71.7744 295.417 74.9886 295.503C77.7129 295.577 80.9946 295.767 82.2811 295.926C85.1524 296.28 86.7826 296.008 86.9064 295.153C86.9606 294.78 86.8109 294.511 86.4936 294.412C86.2201 294.326 82.7764 294.132 78.8412 293.981C74.906 293.83 70.448 293.518 68.9345 293.289C65.4792 292.764 64.8119 292.764 64.2877 293.289ZM322.313 301.745C321.973 301.909 321.694 302.274 321.694 302.555C321.694 302.98 321.892 303.058 322.867 303.022C323.513 302.997 324.658 303.116 325.413 303.285C328.771 304.04 330.538 304.195 337.655 304.354C344.573 304.509 345.257 304.483 345.612 304.054C346.498 302.985 345.697 302.845 337.517 302.642C333.28 302.536 329.741 302.407 329.653 302.355C329.429 302.222 323.89 301.405 323.366 301.427C323.127 301.437 322.654 301.58 322.313 301.745ZM385.218 302.491C384.474 303.094 384.388 303.784 384.437 308.709C384.458 310.831 384.498 325.673 384.525 341.692C384.572 369.248 384.601 370.844 385.066 371.309C385.534 371.778 387.929 371.801 435.701 371.8L485.844 371.799L485.929 370.921L486.014 370.042L436.972 370.031C410 370.024 387.883 369.971 387.824 369.912C387.766 369.853 388.27 369.546 388.945 369.228C389.62 368.91 390.252 368.523 390.348 368.366C390.445 368.21 390.714 368.082 390.947 368.082C391.179 368.082 391.698 367.851 392.1 367.568C392.853 367.038 397.318 364.689 399.022 363.927C399.552 363.69 400.852 363.051 401.911 362.507C402.971 361.963 405.286 360.815 407.057 359.955C408.827 359.096 410.421 358.217 410.599 358.003C410.777 357.788 411.097 357.613 411.31 357.613C411.523 357.613 411.769 357.427 411.856 357.199C411.943 356.972 412.2 356.786 412.427 356.786C412.654 356.786 413.309 356.414 413.882 355.96C414.455 355.505 415.03 355.128 415.16 355.122C415.29 355.116 415.824 354.744 416.348 354.295C416.872 353.847 417.442 353.48 417.613 353.48C417.785 353.48 418.223 353.219 418.587 352.9C418.951 352.581 419.805 351.936 420.486 351.466C421.168 350.997 421.893 350.448 422.099 350.245C422.305 350.043 423.506 349.189 424.768 348.348C426.031 347.507 427.209 346.644 427.386 346.43C427.564 346.216 427.83 346.041 427.978 346.041C428.125 346.041 428.946 345.625 429.801 345.117C436.522 341.121 437.346 340.732 438.237 341.124C439.493 341.676 442.248 343.41 452.069 349.829C454.446 351.383 456.536 352.653 456.715 352.653C456.894 352.653 457.082 352.749 457.132 352.866C457.217 353.062 458.194 353.72 464.379 357.745C466.293 358.99 469.49 361.026 470.879 361.884C471.123 362.035 472.201 362.748 473.272 363.467C474.343 364.187 475.267 364.776 475.325 364.776C475.383 364.776 477.03 365.832 478.986 367.123C481.039 368.478 482.773 369.439 483.089 369.396C484.008 369.271 483.909 368.427 482.904 367.83C482.402 367.532 481.832 367.148 481.638 366.977C481.444 366.806 480.454 366.174 479.437 365.573C477.309 364.314 473.051 361.609 472.613 361.236C472.022 360.736 467.377 357.713 466.939 357.545C466.692 357.45 463.91 355.677 460.756 353.604C457.603 351.532 454.589 349.563 454.059 349.228C453.53 348.893 452.044 347.939 450.757 347.106C449.471 346.274 446.406 344.305 443.946 342.732C441.487 341.158 439.474 339.799 439.474 339.712C439.474 339.625 439.939 339.311 440.506 339.013C441.953 338.254 447.013 335.229 447.18 335.024C447.255 334.93 447.813 334.558 448.418 334.196C450.636 332.869 456.411 329.048 456.824 328.633C457.058 328.398 457.509 328.123 457.825 328.023C458.142 327.922 458.722 327.542 459.114 327.179C459.506 326.815 460.483 326.081 461.285 325.548C462.088 325.015 463.041 324.262 463.403 323.876C463.766 323.49 464.207 323.174 464.384 323.174C464.561 323.174 464.94 322.915 465.226 322.599C465.512 322.282 466.677 321.328 467.815 320.477C468.952 319.627 470.392 318.429 471.014 317.815C472.964 315.892 474.697 314.534 476.656 313.393C477.697 312.787 479.612 311.676 480.91 310.924C483.661 309.33 484.605 308.474 484.605 307.57C484.605 306.659 483.753 306.722 483.041 307.686C482.728 308.111 480.955 309.286 479.068 310.32C474.952 312.575 473.716 313.447 469.835 316.837C468.187 318.277 466.244 319.888 465.519 320.419C464.793 320.949 463.497 321.948 462.638 322.639C461.779 323.33 460.316 324.411 459.386 325.04C458.456 325.67 457.528 326.349 457.322 326.549C457.117 326.75 456.453 327.208 455.848 327.567C455.243 327.927 454.438 328.491 454.059 328.821C453.681 329.15 452.814 329.75 452.133 330.152C451.452 330.555 450.258 331.288 449.48 331.782C444.127 335.177 444.076 335.209 440.604 337.183C438.223 338.537 437.962 338.625 437.302 338.3C436.418 337.864 432.579 335.447 429.205 333.201C427.815 332.276 426.256 331.302 425.741 331.037C425.225 330.771 424.668 330.436 424.503 330.291C424.174 330.004 417.445 325.63 415.671 324.55C415.065 324.182 414.446 323.782 414.295 323.663C413.702 323.195 405.014 317.603 398.52 313.511C396.694 312.36 392.035 309.324 389.179 307.423C388.078 306.691 387.061 306.092 386.918 306.092C386.475 306.092 386.132 305.16 386.283 304.367L386.427 303.613H436.204H485.981V302.826V302.039L435.902 302.02C388.244 302.001 385.794 302.024 385.218 302.491ZM63.6729 303.186C63.4445 303.782 63.7477 304.1 64.7409 304.305C65.2313 304.407 66.1895 304.682 66.8706 304.917C67.8381 305.251 69.5836 305.357 74.851 305.399C78.5592 305.429 82.4019 305.55 83.3906 305.667C84.9042 305.847 85.2479 305.808 85.5685 305.422C86.6648 304.099 83.807 303.617 74.84 303.615C69.7306 303.613 67.7013 303.512 66.5021 303.199C64.5169 302.682 63.8674 302.679 63.6729 303.186ZM30.3967 306.256C29.7976 307.255 29.0584 308.464 28.7541 308.942C28.45 309.42 27.9546 310.23 27.6533 310.742C27.3523 311.253 26.8308 312.011 26.4945 312.425C26.1582 312.84 25.7515 313.475 25.5902 313.837C25.4292 314.199 24.8745 315.177 24.3577 316.01C23.8406 316.844 23.1135 318.084 22.742 318.766C22.3705 319.447 21.7261 320.501 21.3097 321.107C20.8933 321.714 20.0193 323.227 19.3671 324.471C17.5806 327.878 17.5528 327.926 14.9691 331.99C14.632 332.52 13.933 333.76 13.4159 334.745C12.8986 335.73 12.092 337.151 11.6234 337.903C11.1547 338.654 10.8317 339.367 10.9057 339.487C10.9797 339.607 19.887 339.686 30.6996 339.662C48.7451 339.623 50.3593 339.582 50.3593 339.166C50.3593 338.916 50.2454 338.595 50.1059 338.451C49.706 338.038 47.974 334.412 47.7759 333.573C47.5618 332.668 45.4629 329.023 43.0096 325.298C42.0327 323.814 40.8656 321.769 40.4157 320.752C39.2384 318.091 37.9982 315.708 36.5856 313.393C35.6783 311.906 35.2777 311.158 33.4499 307.539C32.5891 305.834 31.7949 304.439 31.6854 304.439C31.5756 304.439 30.9957 305.257 30.3967 306.256ZM140.028 304.655C137.821 304.713 137.01 304.836 136.751 305.148C135.856 306.227 135.922 306.23 166.816 306.23C195.215 306.23 196.575 306.207 196.866 305.731C197.11 305.333 197.066 305.155 196.646 304.842C196.199 304.51 192.131 304.461 169.54 304.514C154.921 304.549 141.64 304.612 140.028 304.655ZM386.166 338.465C386.166 355.36 386.242 369.174 386.333 369.162C386.425 369.15 387.058 368.789 387.739 368.359C390.589 366.561 395.032 364.153 399.159 362.17C401.581 361.006 403.748 359.94 403.975 359.799C404.202 359.659 404.88 359.333 405.48 359.075C407.217 358.33 410.07 356.768 411.268 355.906C411.873 355.471 414.412 353.747 416.909 352.076C419.406 350.405 422.564 348.18 423.926 347.131C425.289 346.082 427.084 344.845 427.917 344.383C428.749 343.92 430.173 343.11 431.081 342.583C431.989 342.056 433.506 341.228 434.452 340.743C436.25 339.822 436.455 339.596 435.743 339.323C435.326 339.163 428.375 334.658 426.083 333.063C425.453 332.625 424.846 332.266 424.735 332.266C424.468 332.266 421.595 330.357 420.916 329.729C420.623 329.457 420.266 329.235 420.124 329.235C419.981 329.235 419.261 328.801 418.524 328.271C417.786 327.74 417.137 327.306 417.082 327.306C417.026 327.306 415.798 326.532 414.354 325.584C412.909 324.638 409.602 322.499 407.005 320.832C404.408 319.165 401.27 317.132 400.033 316.314C398.796 315.495 397.191 314.473 396.466 314.041C395.741 313.61 394.998 313.133 394.815 312.981C394.372 312.615 391.562 310.776 391.444 310.776C391.393 310.776 390.334 310.094 389.091 309.26C387.847 308.427 386.68 307.745 386.497 307.745C386.24 307.745 386.165 314.662 386.166 338.465ZM321.603 311.786C321.144 312.245 321.455 312.977 322.176 313.131C322.592 313.221 323.49 313.496 324.171 313.743C325.163 314.103 326.694 314.204 331.876 314.251C335.433 314.283 339.528 314.391 340.977 314.49C343.155 314.639 343.671 314.597 343.959 314.25C344.986 313.012 342.777 312.657 333.39 312.555C327.079 312.486 325.127 312.377 324.058 312.035C322.601 311.568 321.892 311.496 321.603 311.786ZM287.784 314.02C287.524 314.584 286.244 316.658 284.941 318.628C283.639 320.598 282.454 322.457 282.308 322.76C281.96 323.485 281.595 324.08 280.277 326.067C279.673 326.976 278.988 328.092 278.754 328.546C278.022 329.966 277.27 331.285 276.946 331.715C276.603 332.171 275.606 333.935 274.145 336.674C272.586 339.596 272.331 340.038 271.164 341.824C270.551 342.763 269.584 344.451 269.014 345.575C268.444 346.699 267.68 347.965 267.317 348.388C266.954 348.811 266.657 349.253 266.657 349.368C266.657 349.716 270.057 349.764 289.291 349.688C302.868 349.634 307.66 349.533 307.66 349.299C307.66 349.126 307.079 347.795 306.37 346.341C305.661 344.888 304.887 343.268 304.65 342.74C304.414 342.212 303.756 341.001 303.188 340.049C302.62 339.096 302.156 338.203 302.156 338.063C302.156 337.924 301.433 336.841 300.549 335.658C298.797 333.309 298.873 333.444 296.38 328.271C295.431 326.301 294.252 324.007 293.761 323.174C291.569 319.453 288.672 313.809 288.672 313.259C288.672 312.667 288.238 313.039 287.784 314.02ZM228.868 319.248C228.802 319.361 228.764 332.831 228.783 349.179C228.816 376.986 228.849 378.924 229.292 379.204C229.637 379.421 229.852 379.417 230.08 379.189C230.381 378.888 230.492 359.794 230.371 329.028L230.332 319.041H229.66C229.291 319.041 228.935 319.134 228.868 319.248ZM74.0254 324.838C68.0946 325.221 65.1567 325.665 64.3567 326.299C62.7846 327.546 62.3393 329.651 62.4398 335.365C62.4659 336.852 62.5088 336.949 63.1371 336.949C63.9993 336.949 64.0612 336.677 64.0975 332.728C64.122 330.053 64.2257 329.278 64.679 328.389C64.9825 327.794 65.3829 327.299 65.5689 327.289C65.7552 327.279 66.96 327.128 68.2465 326.953C71.6696 326.488 87.582 326.468 90.6743 326.926C92.0365 327.128 93.6221 327.246 94.1978 327.188C94.9845 327.109 95.421 327.235 95.954 327.694C96.5523 328.209 96.7012 328.647 96.9048 330.492C97.0374 331.695 97.2524 333.597 97.3822 334.718C97.5121 335.84 97.565 336.962 97.4995 337.211C97.4343 337.461 96.1816 338.251 94.7157 338.967C91.1404 340.711 89.1341 340.902 85.2159 339.87C83.7272 339.478 82.4129 339.097 82.2951 339.024C82.1773 338.951 80.9417 338.762 79.5496 338.605C77.574 338.381 76.4628 338.403 74.4897 338.708C71.6434 339.148 63.3729 338.927 61.6439 338.364C60.4895 337.989 58.708 337.954 58.4928 338.302C57.9903 339.116 59.9157 340.001 63.4307 340.573C65.8791 340.971 72.1979 340.96 74.7134 340.553C77.1461 340.16 80.0922 340.309 82.625 340.954C83.4955 341.176 84.9193 341.539 85.7897 341.761C88.7202 342.508 92.4393 342.098 94.5437 340.796C95.0242 340.499 95.5886 340.253 95.7977 340.25C96.4785 340.241 98.8047 338.606 99.0337 337.976C99.2725 337.319 99.0493 333.869 98.5218 330.062C98.229 327.949 98.0997 327.619 97.2006 326.687C96.3085 325.762 96.058 325.653 94.815 325.651C94.0511 325.65 92.6523 325.524 91.7065 325.37C90.7607 325.216 88.284 325.035 86.2028 324.968C84.1215 324.901 81.1803 324.802 79.6668 324.749C78.1532 324.695 75.6146 324.735 74.0254 324.838ZM327.886 334.86C322.808 335.328 322.371 335.443 321.553 336.516C320.453 337.961 320.049 339.776 320.046 343.3C320.043 346.683 320.255 347.344 321.186 346.845C321.635 346.605 321.694 346.203 321.694 343.398C321.694 339.972 322.037 338.038 322.754 337.418C323.6 336.686 328.146 336.242 336.279 336.097C340.262 336.025 349.52 336.39 350.451 336.655C350.905 336.784 351.896 336.908 352.653 336.93C354.523 336.984 354.854 337.117 355.243 337.971C355.427 338.376 355.759 340.682 355.98 343.095C356.386 347.537 356.309 348.245 355.423 348.245C355.243 348.245 354.217 348.679 353.141 349.21C351.935 349.804 350.413 350.292 349.168 350.482C347.047 350.805 347.017 350.801 340.957 349.206C338.617 348.59 335.039 348.415 332.702 348.802C329.364 349.355 324.627 349.402 321.832 348.911C316.343 347.946 315.915 347.938 315.915 348.797C315.915 349.324 316.894 349.761 319.63 350.456C321.876 351.027 329.353 351.127 332.702 350.631C335.781 350.175 338.528 350.33 341.37 351.12C345.851 352.366 347.342 352.548 349.563 352.121C351.397 351.769 351.932 351.571 354.717 350.217C355.7 349.738 356.641 349.347 356.807 349.347C356.972 349.347 357.328 349.104 357.596 348.808C358.017 348.342 358.064 347.899 357.936 345.57C357.731 341.827 357.265 338.642 356.756 337.5C356.118 336.071 354.74 335.296 352.838 335.296C351.977 335.296 350.841 335.171 350.312 335.017C348.753 334.565 332.329 334.45 327.886 334.86ZM75.5068 357.735C75.2352 358.444 75.7426 358.635 78.3971 358.827C81.0309 359.018 85.0255 359.416 88.6731 359.852C91.461 360.185 93.0134 359.869 93.0134 358.969C93.0134 358.542 92.813 358.437 91.9814 358.43C91.414 358.426 89.7111 358.239 88.1976 358.017C86.6841 357.794 83.2511 357.53 80.5691 357.431C76.0739 357.265 75.6777 357.289 75.5068 357.735ZM48.433 358.954C47.7635 359.525 47.7591 359.552 48.2712 359.948C48.5844 360.191 49.0632 360.289 49.4545 360.191C49.8161 360.1 53.1745 360.183 56.9176 360.376C64.0895 360.746 65.0901 360.647 64.8892 359.592C64.7879 359.058 63.4032 358.923 54.4871 358.576C49.2569 358.372 49.1036 358.382 48.433 358.954ZM15.075 359.541C12.3262 359.649 11.4783 359.776 11.1242 360.132C10.7064 360.551 10.7158 360.627 11.2532 361.165C11.8218 361.734 12.0282 361.745 21.9723 361.745C31.4457 361.745 32.1416 361.712 32.5671 361.241C33.1196 360.63 33.1587 359.852 32.6469 359.655C32.1279 359.456 19.3515 359.373 15.075 359.541ZM10.6415 367.438C10.2727 367.807 10.4885 368.515 11.2494 369.434L12.0268 370.373L21.3551 370.398L30.6834 370.424L32.1969 369.735L33.7105 369.046L67.2833 368.909L100.856 368.771V368.082V367.393L55.841 367.323C31.0824 367.285 10.7428 367.337 10.6415 367.438ZM334.009 368.108C332.91 368.74 333.815 369.436 335.729 369.429C336.773 369.425 343.772 370.029 345.498 370.272C349.239 370.799 350.164 370.835 350.864 370.481C351.247 370.286 351.552 369.892 351.552 369.589C351.552 369.129 351.343 369.038 350.176 368.99C349.419 368.959 347.066 368.747 344.948 368.519C339.702 367.956 334.605 367.764 334.009 368.108ZM307.648 369.173C305.595 369.382 305.183 369.565 305.183 370.265C305.183 370.715 305.582 370.779 309.38 370.936C321.328 371.432 321.813 371.435 322.358 371.031C322.647 370.817 322.816 370.463 322.732 370.245C322.612 369.931 321.292 369.778 316.364 369.51C312.946 369.324 309.991 369.13 309.798 369.08C309.606 369.03 308.638 369.072 307.648 369.173ZM267.551 370.619C266.846 370.963 266.742 371.713 267.331 372.204C267.626 372.448 270.483 372.546 278.181 372.574C288.045 372.61 288.664 372.583 289.202 372.095C289.866 371.493 289.948 370.688 289.368 370.465C288.575 370.161 268.197 370.305 267.551 370.619ZM273.88 378.212L266.657 378.285L266.667 379.038C266.672 379.452 266.954 380.13 267.292 380.544L267.909 381.297L278.072 381.323C286.544 381.345 288.283 381.284 288.522 380.959C288.68 380.744 289.181 380.462 289.635 380.331C290.089 380.201 305.988 380.026 324.966 379.943C357.224 379.801 359.492 379.76 359.772 379.317C359.987 378.975 359.987 378.758 359.772 378.543C359.49 378.261 293.884 378.008 273.88 378.212ZM11.8617 379.355C11.2436 379.746 11.7106 380.396 12.75 380.591C13.2783 380.69 32.6884 380.785 55.8837 380.801C96.2383 380.83 98.0724 380.809 98.4197 380.334C99.3479 379.063 100.859 379.106 55.2117 379.109C30.8804 379.111 12.0794 379.217 11.8617 379.355ZM407.002 380.198C406.67 380.408 406.563 381.41 406.452 385.367C406.262 392.13 406.469 396.405 407.002 396.742C407.256 396.902 420.897 397.004 442.38 397.006C472.139 397.01 477.425 396.952 477.879 396.62C478.382 396.252 478.418 395.789 478.486 388.633C478.555 381.338 478.536 381.016 478.004 380.484C477.455 379.934 477.161 379.929 442.433 379.933C420.907 379.936 407.256 380.038 407.002 380.198ZM408.86 381.531L408.103 381.619V388.488V395.358H442.501H476.9V388.599C476.9 383.087 476.829 381.813 476.518 381.694C476.116 381.539 410.165 381.381 408.86 381.531ZM127.753 381.808L127.131 381.897L127.203 394.619L127.274 407.342L182.793 407.412L238.312 407.481V394.6V381.72H183.344C153.111 381.72 128.095 381.759 127.753 381.808ZM432.227 385.436C431.357 386.471 431.011 388.809 431.48 390.485C432.068 392.588 434.431 393.541 435.997 392.307C436.787 391.685 436.953 390.822 436.33 390.582C436.114 390.499 435.789 390.61 435.608 390.828C435.134 391.4 434.077 391.316 433.465 390.659C432.713 389.85 432.518 387.995 433.085 387.035C433.438 386.438 433.744 386.266 434.457 386.266C435.232 386.266 435.433 386.405 435.749 387.161C436.242 388.34 436.459 388.527 436.904 388.158C437.496 387.666 437.333 386.379 436.56 385.46C435.929 384.709 435.681 384.613 434.383 384.613C433.095 384.613 432.836 384.712 432.227 385.436ZM195.246 385.15C192.807 385.435 189.474 386.953 188.268 388.329C186.982 389.795 187.074 390.851 188.61 392.268C190.079 393.624 190.901 394.062 193.044 394.631C195.6 395.31 198.085 395.361 199.232 394.759C199.759 394.482 200.448 394.255 200.761 394.255C201.075 394.255 201.572 394.073 201.866 393.851C202.16 393.628 202.598 393.442 202.84 393.438C204.195 393.411 206.662 391.311 207.313 389.63C207.713 388.598 207.721 388.355 207.384 387.701C206.825 386.619 206.155 386.107 204.624 385.593C203.025 385.056 198.055 384.821 195.246 385.15ZM447.278 385.376C446.954 385.638 446.471 386.286 446.204 386.817C445.937 387.347 445.523 387.925 445.284 388.101C444.888 388.39 444.892 388.469 445.326 388.949C445.589 389.24 445.804 389.855 445.804 390.317C445.804 391.269 446.408 391.92 447.06 391.67C447.371 391.55 447.473 391.219 447.413 390.523C447.315 389.385 447.705 389.031 449.063 389.025L449.982 389.021L449.888 390.467C449.802 391.791 449.847 391.921 450.413 392.001C450.859 392.065 451.102 391.903 451.285 391.421C451.578 390.651 451.248 387.675 450.724 386.355C450.163 384.941 448.427 384.448 447.278 385.376ZM170.914 386.151C168.086 386.808 164.814 388.284 164.081 389.232C163.546 389.924 163.653 391.582 164.267 392.108C165.406 393.085 168.914 394.689 170.847 395.116C174.936 396.021 179.062 395.521 180.596 393.936C181.446 393.057 181.486 392.918 181.486 390.849V388.682L180.276 387.607C179.61 387.015 178.743 386.464 178.349 386.383C177.956 386.301 176.944 386.056 176.102 385.837C174.226 385.35 174.41 385.338 170.914 386.151ZM439.957 385.695C438.312 385.925 437.741 386.416 438.482 386.963C438.768 387.175 439.413 387.332 439.914 387.314C441.348 387.26 441.675 387.723 441.68 389.812C441.685 391.858 441.914 392.429 442.672 392.279C443.221 392.17 443.27 391.724 443.043 388.893C442.942 387.626 442.984 387.514 443.612 387.367C444.037 387.267 444.323 386.98 444.378 386.599C444.452 386.086 444.335 385.99 443.638 385.99C443.182 385.99 442.733 385.866 442.639 385.715C442.455 385.417 441.976 385.413 439.957 385.695ZM216.637 386.681C215.839 386.876 214.884 387.234 214.514 387.477C214.143 387.72 213.661 387.919 213.441 387.919C213.222 387.919 212.584 388.365 212.023 388.91C211.098 389.809 211.017 390.004 211.152 391.011C211.348 392.469 212.766 393.926 215.164 395.131L216.985 396.046L222.319 395.966C226.125 395.909 227.918 395.774 228.58 395.498C231.05 394.464 231.609 392.257 229.95 390.082C229.158 389.043 228.694 388.746 226.854 388.095C221.711 386.277 219.526 385.975 216.637 386.681ZM447.91 386.77C447.27 387.478 447.337 387.643 448.264 387.643C449.214 387.643 449.564 387.232 449.096 386.667C448.662 386.143 448.461 386.161 447.91 386.77ZM195.751 386.834C193.352 387.067 191.124 387.948 189.779 389.196C188.861 390.048 188.862 390.629 189.785 391.423C190.683 392.196 190.98 392.215 190.98 391.5C190.98 391.149 191.164 390.949 191.488 390.949C191.767 390.949 192.22 391.197 192.494 391.5C192.767 391.803 193.195 392.051 193.444 392.051C193.693 392.051 194.052 392.206 194.242 392.396C194.477 392.631 195.574 392.739 197.698 392.738C200.673 392.735 200.89 392.695 202.633 391.818C205.687 390.281 206.729 388.393 205.014 387.505C203.416 386.678 199.949 386.427 195.751 386.834ZM141.997 387.526C137.492 388.622 137.292 388.684 136.682 389.203C134.958 390.666 134.616 391.496 135.115 393.009C135.517 394.228 136.934 395.008 140.639 396.052C142.055 396.45 143.635 396.953 144.152 397.169C145.471 397.72 146.167 397.653 146.876 396.904C147.224 396.536 147.971 396.179 148.603 396.078C151.394 395.631 154.764 394.152 155.546 393.03C155.657 392.871 155.75 392.285 155.752 391.728C155.757 390.49 154.754 389.19 153.315 388.571C149.153 386.779 146.195 386.506 141.997 387.526ZM172.68 387.355C172.377 387.479 171.449 387.727 170.616 387.907C167.681 388.542 165.388 389.755 165.388 390.673C165.388 391.374 168.28 392.878 169.628 392.878C170.153 392.878 171.426 393.075 172.457 393.315C174.857 393.875 178.191 393.758 179.228 393.078C179.885 392.647 179.973 392.415 179.973 391.102C179.973 389.028 179.147 388.223 176.352 387.572C174.104 387.049 173.514 387.014 172.68 387.355ZM216.435 388.393C213.989 389.141 212.891 389.803 212.773 390.598C212.66 391.363 214.159 393.038 215.563 393.717C217.03 394.427 217.666 394.424 217.479 393.708C217.295 393.004 217.977 392.726 218.803 393.169C219.941 393.779 222.463 394.236 224.746 394.246C226.95 394.255 228.08 393.983 228.995 393.222C229.895 392.473 228.772 390.532 227.085 389.922C222.588 388.296 221.063 387.912 219.242 387.945C218.455 387.96 217.192 388.161 216.435 388.393ZM141.96 389.156C138.505 389.851 136.874 390.636 136.586 391.745C136.285 392.899 138.484 394.212 141.309 394.565C142.217 394.679 143.579 394.852 144.336 394.95C146.955 395.289 153.681 393.343 154.135 392.115C154.554 390.981 152.789 389.735 149.573 388.897C147.4 388.33 145.798 388.385 141.96 389.156ZM267.857 390.812C267.77 391.039 267.77 391.411 267.857 391.639C267.998 392.005 273.149 392.045 312.67 391.983C356.126 391.916 357.326 391.9 357.423 391.396C357.478 391.111 357.356 390.772 357.152 390.642C356.948 390.513 336.808 390.405 312.398 390.402C273.198 390.399 267.997 390.447 267.857 390.812Z" fill="#E5E7EB"/>
</svg>
