<svg width="24" height="24" viewBox="0 0 24 24" fill="none" xmlns="http://www.w3.org/2000/svg">
<mask id="mask0_1634_2891" style="mask-type:alpha" maskUnits="userSpaceOnUse" x="0" y="0" width="24" height="24">
<rect width="24" height="24" fill="#D9D9D9"/>
</mask>
<g mask="url(#mask0_1634_2891)">
<path d="M4.66675 21.0001C4.21675 21.0001 3.82642 20.8349 3.49575 20.5044C3.16525 20.1737 3 19.7834 3 19.3334V4.6669C3 4.2169 3.16525 3.82657 3.49575 3.4959C3.82642 3.1654 4.21675 3.00015 4.66675 3.00015H9.51675C9.57225 2.38898 9.83892 1.8584 10.3168 1.4084C10.7944 0.958398 11.3555 0.733398 12 0.733398C12.6445 0.733398 13.2056 0.958398 13.6833 1.4084C14.1611 1.8584 14.4278 2.38898 14.4833 3.00015H19.3333C19.7833 3.00015 20.1736 3.1654 20.5043 3.4959C20.8348 3.82657 21 4.2169 21 4.6669V19.3334C21 19.7834 20.8348 20.1737 20.5043 20.5044C20.1736 20.8349 19.7833 21.0001 19.3333 21.0001H4.66675ZM12 3.7169C12.2167 3.7169 12.3958 3.64606 12.5375 3.5044C12.6792 3.36273 12.75 3.18356 12.75 2.9669C12.75 2.75023 12.6792 2.57106 12.5375 2.4294C12.3958 2.28773 12.2167 2.2169 12 2.2169C11.7833 2.2169 11.6042 2.28773 11.4625 2.4294C11.3208 2.57106 11.25 2.75023 11.25 2.9669C11.25 3.18356 11.3208 3.36273 11.4625 3.5044C11.6042 3.64606 11.7833 3.7169 12 3.7169ZM4.66675 18.3334C5.63342 17.4167 6.737 16.6821 7.9775 16.1294C9.218 15.5766 10.5583 15.3001 11.9983 15.3001C13.4383 15.3001 14.7791 15.5766 16.0208 16.1294C17.2624 16.6821 18.3666 17.4167 19.3333 18.3334V4.6669H4.66675V18.3334ZM12.0333 13.3169C12.9999 13.3169 13.8194 12.9807 14.4918 12.3084C15.1639 11.6362 15.5 10.8168 15.5 9.85015C15.5 8.88348 15.1639 8.06406 14.4918 7.3919C13.8194 6.71956 12.9999 6.3834 12.0333 6.3834C11.0666 6.3834 10.2472 6.71956 9.575 7.3919C8.90283 8.06406 8.56675 8.88348 8.56675 9.85015C8.56675 10.8168 8.90283 11.6362 9.575 12.3084C10.2472 12.9807 11.0666 13.3169 12.0333 13.3169ZM6.25 19.3334H17.75V19.1001C16.9167 18.3946 16.0139 17.8627 15.0418 17.5044C14.0694 17.1461 13.0555 16.9669 12 16.9669C10.9445 16.9669 9.93058 17.1461 8.95825 17.5044C7.98608 17.8627 7.08333 18.3946 6.25 19.1001V19.3334ZM12.0333 11.6501C11.5332 11.6501 11.1083 11.4751 10.7582 11.1251C10.4082 10.7751 10.2332 10.3501 10.2332 9.85015C10.2332 9.35015 10.4082 8.92515 10.7582 8.57515C11.1083 8.22515 11.5332 8.05015 12.0333 8.05015C12.5333 8.05015 12.9583 8.22515 13.3083 8.57515C13.6583 8.92515 13.8333 9.35015 13.8333 9.85015C13.8333 10.3501 13.6583 10.7751 13.3083 11.1251C12.9583 11.4751 12.5333 11.6501 12.0333 11.6501Z"/>
</g>
</svg>
