<svg width="24" height="24" viewBox="0 0 24 24" fill="none" xmlns="http://www.w3.org/2000/svg">
<mask id="mask0_955_3782" style="mask-type:alpha" maskUnits="userSpaceOnUse" x="0" y="0" width="24" height="24">
<rect width="24" height="24" fill="#D9D9D9"/>
</mask>
<g mask="url(#mask0_955_3782)">
<path d="M11.9986 22.0236C11.732 22.0236 11.4778 21.9736 11.2361 21.8736C10.9945 21.7736 10.7736 21.632 10.5736 21.4486L2.54863 13.4236C2.3653 13.2236 2.22363 13.0028 2.12363 12.7611C2.02363 12.5195 1.97363 12.2653 1.97363 11.9986C1.97363 11.732 2.02363 11.4736 2.12363 11.2236C2.22363 10.9736 2.3653 10.757 2.54863 10.5736L10.5736 2.54863C10.7736 2.34863 10.9945 2.2028 11.2361 2.11113C11.4778 2.01947 11.732 1.97363 11.9986 1.97363C12.2653 1.97363 12.5236 2.01947 12.7736 2.11113C13.0236 2.2028 13.2403 2.34863 13.4236 2.54863L21.4486 10.5736C21.6486 10.757 21.7945 10.9736 21.8861 11.2236C21.9778 11.4736 22.0236 11.732 22.0236 11.9986C22.0236 12.2653 21.9778 12.5195 21.8861 12.7611C21.7945 13.0028 21.6486 13.2236 21.4486 13.4236L13.4236 21.4486C13.2403 21.632 13.0236 21.7736 12.7736 21.8736C12.5236 21.9736 12.2653 22.0236 11.9986 22.0236ZM11.9986 20.0236L20.0236 11.9986L11.9986 3.97363L3.97363 11.9986L11.9986 20.0236ZM10.9986 12.9986H12.9986V6.99863H10.9986V12.9986ZM11.9986 15.9986C12.282 15.9986 12.5195 15.9028 12.7111 15.7111C12.9028 15.5195 12.9986 15.282 12.9986 14.9986C12.9986 14.7153 12.9028 14.4778 12.7111 14.2861C12.5195 14.0945 12.282 13.9986 11.9986 13.9986C11.7153 13.9986 11.4778 14.0945 11.2861 14.2861C11.0945 14.4778 10.9986 14.7153 10.9986 14.9986C10.9986 15.282 11.0945 15.5195 11.2861 15.7111C11.4778 15.9028 11.7153 15.9986 11.9986 15.9986Z"/>
</g>
</svg>
