<svg width="24" height="24" viewBox="0 0 24 24" fill="none" xmlns="http://www.w3.org/2000/svg">
<mask id="mask0_955_3783" style="mask-type:alpha" maskUnits="userSpaceOnUse" x="0" y="0" width="24" height="24">
<rect width="24" height="24" fill="#D9D9D9"/>
</mask>
<g mask="url(#mask0_955_3783)">
<path d="M12.002 21.998C11.5686 21.998 11.177 21.8939 10.827 21.6855C10.477 21.4772 10.202 21.198 10.002 20.848C9.45195 20.848 8.98112 20.6522 8.58945 20.2605C8.19779 19.8689 8.00195 19.398 8.00195 18.848V15.298C7.01862 14.648 6.23112 13.7897 5.63945 12.723C5.04779 11.6564 4.75195 10.498 4.75195 9.24805C4.75195 7.23138 5.45612 5.51888 6.86445 4.11055C8.27279 2.70221 9.98529 1.99805 12.002 1.99805C14.0186 1.99805 15.7311 2.70221 17.1394 4.11055C18.5478 5.51888 19.2519 7.23138 19.2519 9.24805C19.2519 10.5314 18.9561 11.698 18.3645 12.748C17.7728 13.798 16.9853 14.648 16.002 15.298V18.848C16.002 19.398 15.8061 19.8689 15.4145 20.2605C15.0228 20.6522 14.552 20.848 14.002 20.848C13.802 21.198 13.527 21.4772 13.177 21.6855C12.827 21.8939 12.4353 21.998 12.002 21.998ZM10.002 18.848H14.002V17.948H10.002V18.848ZM10.002 16.948H14.002V15.998H10.002V16.948ZM9.80195 13.998H11.252V11.298L9.05195 9.09805L10.102 8.04805L12.002 9.94805L13.902 8.04805L14.952 9.09805L12.752 11.298V13.998H14.202C15.102 13.5647 15.8353 12.9272 16.402 12.0855C16.9686 11.2439 17.252 10.298 17.252 9.24805C17.252 7.78138 16.7436 6.53971 15.727 5.52305C14.7103 4.50638 13.4686 3.99805 12.002 3.99805C10.5353 3.99805 9.29362 4.50638 8.27695 5.52305C7.26029 6.53971 6.75195 7.78138 6.75195 9.24805C6.75195 10.298 7.03529 11.2439 7.60195 12.0855C8.16862 12.9272 8.90195 13.5647 9.80195 13.998Z"/>
</g>
</svg>
