<svg width="24" height="24" viewBox="0 0 24 24" fill="none" xmlns="http://www.w3.org/2000/svg">
<mask id="mask0_1642_2894" style="mask-type:alpha" maskUnits="userSpaceOnUse" x="0" y="0" width="24" height="24">
<rect width="24" height="24" fill="#D9D9D9"/>
</mask>
<g mask="url(#mask0_1642_2894)">
<path d="M9.66675 21C8.81675 21 8.09175 20.6903 7.49175 20.0708C6.89175 19.4514 6.55008 18.7362 6.46675 17.925C5.47775 17.825 4.65275 17.4027 3.99175 16.6582C3.33058 15.9139 3 15.0168 3 13.9668C3 13.6056 3.04583 13.2542 3.1375 12.9125C3.22917 12.5708 3.36667 12.2444 3.55 11.9333C3.36667 11.6333 3.22917 11.3166 3.1375 10.9833C3.04583 10.6499 3 10.2944 3 9.91675C3 8.91108 3.34167 8.04575 4.025 7.32075C4.70833 6.59575 5.53058 6.17217 6.49175 6.05C6.53058 5.2 6.85833 4.47917 7.475 3.8875C8.09167 3.29583 8.82775 3 9.68325 3C10.1499 3 10.5707 3.08608 10.9457 3.25825C11.3207 3.43058 11.6722 3.67508 12 3.99175C12.3222 3.67508 12.6694 3.43058 13.0418 3.25825C13.4139 3.08608 13.8333 3 14.3 3C15.1445 3 15.8709 3.29442 16.4793 3.88325C17.0876 4.47225 17.4168 5.19175 17.4668 6.04175C18.4389 6.14175 19.2708 6.55842 19.9625 7.29175C20.6542 8.02508 21 8.90008 21 9.91675C21 10.2944 20.9514 10.6528 20.8543 10.9918C20.7569 11.3306 20.6166 11.65 20.4333 11.95C20.6166 12.2722 20.7569 12.6124 20.8543 12.9708C20.9514 13.3291 21 13.6833 21 14.0333C21 15.0889 20.6681 15.9764 20.0043 16.6957C19.3403 17.4152 18.5138 17.825 17.525 17.925C17.4417 18.7362 17.0986 19.4514 16.4958 20.0708C15.8931 20.6903 15.1723 21 14.3333 21C13.8611 21 13.4375 20.9181 13.0625 20.7543C12.6875 20.5903 12.3333 20.3499 12 20.0333C11.6612 20.3499 11.3056 20.5903 10.9333 20.7543C10.5611 20.9181 10.1389 21 9.66675 21ZM12.8333 6.08325V17.9168C12.8333 18.3111 12.9819 18.6458 13.2793 18.9208C13.5764 19.1958 13.9333 19.3333 14.35 19.3333C14.75 19.3333 15.0958 19.1611 15.3875 18.8168C15.6792 18.4723 15.8389 18.1111 15.8668 17.7333C15.4944 17.5999 15.1486 17.4207 14.8293 17.1957C14.5098 16.9707 14.2333 16.6944 14 16.3668C13.8555 16.1668 13.8013 15.9584 13.8375 15.7418C13.8737 15.5251 13.9918 15.3445 14.1918 15.2C14.3918 15.0555 14.6001 15.0013 14.8168 15.0375C15.0334 15.0737 15.2139 15.1918 15.3583 15.3918C15.5639 15.6806 15.8195 15.9014 16.125 16.0543C16.4305 16.2069 16.7666 16.2832 17.1333 16.2832C17.7389 16.2832 18.257 16.0736 18.6875 15.6543C19.118 15.2348 19.3333 14.6944 19.3333 14.0333C19.3333 13.9056 19.3208 13.7751 19.2958 13.6418C19.2708 13.5084 19.2416 13.3723 19.2083 13.2333C18.9139 13.4333 18.5931 13.5833 18.2458 13.6833C17.8986 13.7833 17.5389 13.8333 17.1668 13.8333C16.9278 13.8333 16.7291 13.7541 16.5708 13.5958C16.4124 13.4374 16.3333 13.2388 16.3333 13C16.3333 12.7612 16.4124 12.5626 16.5708 12.4043C16.7291 12.2459 16.9278 12.1668 17.1668 12.1668C17.7723 12.1668 18.2848 11.9459 18.7043 11.5043C19.1236 11.0626 19.3333 10.5334 19.3333 9.91675C19.3333 9.31108 19.1124 8.79442 18.6708 8.36675C18.2291 7.93892 17.7166 7.71108 17.1333 7.68325C16.9611 8.04992 16.7236 8.37358 16.4208 8.65425C16.1181 8.93475 15.7751 9.14725 15.3918 9.29175C15.1694 9.38058 14.9555 9.375 14.75 9.275C14.5445 9.175 14.4056 9.01392 14.3333 8.79175C14.2611 8.56942 14.2708 8.35275 14.3625 8.14175C14.4542 7.93058 14.6111 7.78892 14.8333 7.71675C15.1166 7.62225 15.3486 7.43892 15.5293 7.16675C15.7098 6.89442 15.8 6.58325 15.8 6.23325C15.8 5.79442 15.6542 5.42358 15.3625 5.12075C15.0708 4.81808 14.7223 4.66675 14.3168 4.66675C13.9111 4.66675 13.5624 4.80425 13.2708 5.07925C12.9791 5.35425 12.8333 5.68892 12.8333 6.08325ZM11.1668 17.9168V6.08325C11.1668 5.68892 11.0237 5.35425 10.7375 5.07925C10.4513 4.80425 10.0999 4.66675 9.68325 4.66675C9.27775 4.66675 8.92642 4.81808 8.62925 5.12075C8.33192 5.42358 8.18325 5.79442 8.18325 6.23325C8.18325 6.57775 8.26942 6.88475 8.44175 7.15425C8.61392 7.42358 8.84167 7.6055 9.125 7.7C9.34717 7.77217 9.50825 7.91383 9.60825 8.125C9.70825 8.33617 9.72217 8.54725 9.65 8.75825C9.56117 8.98058 9.41117 9.1445 9.2 9.25C8.98883 9.3555 8.77217 9.36383 8.55 9.275C8.16667 9.14167 7.82642 8.93475 7.52925 8.65425C7.23192 8.37358 6.99717 8.04992 6.825 7.68325C6.25833 7.72225 5.75692 7.95425 5.32075 8.37925C4.88475 8.80425 4.66675 9.31675 4.66675 9.91675C4.66675 10.5334 4.87642 11.0626 5.29575 11.5043C5.71525 11.9459 6.22775 12.1668 6.83325 12.1668C7.07225 12.1668 7.27092 12.2459 7.42925 12.4043C7.58758 12.5626 7.66675 12.7612 7.66675 13C7.66675 13.2388 7.58758 13.4374 7.42925 13.5958C7.27092 13.7541 7.07225 13.8333 6.83325 13.8333C6.46108 13.8333 6.10142 13.7805 5.75425 13.675C5.40692 13.5695 5.08608 13.4223 4.79175 13.2333C4.74725 13.3499 4.71525 13.4722 4.69575 13.6C4.67642 13.7278 4.66675 13.8556 4.66675 13.9833C4.66675 14.6444 4.87925 15.1931 5.30425 15.6293C5.72925 16.0653 6.2445 16.2832 6.85 16.2832C7.2055 16.2832 7.53883 16.2041 7.85 16.0458C8.16117 15.8874 8.4195 15.6694 8.625 15.3918C8.7695 15.2028 8.95283 15.0874 9.175 15.0458C9.39717 15.0041 9.60275 15.0555 9.79175 15.2C9.98058 15.3445 10.0958 15.5278 10.1375 15.75C10.1792 15.9722 10.1278 16.1778 9.98325 16.3668C9.74992 16.6944 9.47492 16.9722 9.15825 17.2C8.84158 17.4278 8.49717 17.6084 8.125 17.7418C8.15283 18.1194 8.31392 18.4791 8.60825 18.8208C8.90275 19.1624 9.25558 19.3333 9.66675 19.3333C10.0834 19.3333 10.4376 19.1958 10.7293 18.9208C11.0209 18.6458 11.1668 18.3111 11.1668 17.9168Z"/>
</g>
</svg>
