<svg width="24" height="24" viewBox="0 0 24 24" fill="none" xmlns="http://www.w3.org/2000/svg">
<path d="M10.25 3.75H7.75C6.68913 3.75 5.67172 4.17143 4.92157 4.92157C4.17143 5.67172 3.75 6.68913 3.75 7.75V16.25C3.75 17.3109 4.17143 18.3283 4.92157 19.0784C5.67172 19.8286 6.68913 20.25 7.75 20.25H16.25C17.3109 20.25 18.3283 19.8286 19.0784 19.0784C19.8286 18.3283 20.25 17.3109 20.25 16.25V13.75M13.75 3.75H19.25C19.526 3.75 19.776 3.862 19.957 4.043M19.957 4.043C20.1446 4.23049 20.2499 4.48481 20.25 4.75V10.25M19.957 4.043L19.25 4.75L12.75 11.25" stroke-width="2.5" stroke-linecap="round" stroke-linejoin="round"/>
</svg>
