<svg width="24" height="24" viewBox="0 0 24 24" fill="none" xmlns="http://www.w3.org/2000/svg">
<mask id="mask0_1633_2888" style="mask-type:alpha" maskUnits="userSpaceOnUse" x="0" y="0" width="24" height="24">
<rect width="24" height="24" fill="#D9D9D9"/>
</mask>
<g mask="url(#mask0_1633_2888)">
<path d="M12 22C10.6167 22 9.31667 21.7375 8.1 21.2125C6.88333 20.6875 5.825 19.975 4.925 19.075C4.025 18.175 3.3125 17.1167 2.7875 15.9C2.2625 14.6833 2 13.3833 2 12C2 10.6167 2.2625 9.31667 2.7875 8.1C3.3125 6.88333 4.025 5.825 4.925 4.925C5.825 4.025 6.88333 3.3125 8.1 2.7875C9.31667 2.2625 10.6167 2 12 2C13.3833 2 14.6833 2.2625 15.9 2.7875C17.1167 3.3125 18.175 4.025 19.075 4.925C19.975 5.825 20.6875 6.88333 21.2125 8.1C21.7375 9.31667 22 10.6167 22 12C22 13.3833 21.7375 14.6833 21.2125 15.9C20.6875 17.1167 19.975 18.175 19.075 19.075C18.175 19.975 17.1167 20.6875 15.9 21.2125C14.6833 21.7375 13.3833 22 12 22ZM12 20.3333C14.3263 20.3333 16.2968 19.526 17.9115 17.9115C19.526 16.2968 20.3333 14.3263 20.3333 12C20.3333 9.67367 19.526 7.70317 17.9115 6.0885C16.2968 4.474 14.3263 3.66675 12 3.66675C9.67367 3.66675 7.70317 4.474 6.0885 6.0885C4.474 7.70317 3.66675 9.67367 3.66675 12C3.66675 14.3263 4.474 16.2968 6.0885 17.9115C7.70317 19.526 9.67367 20.3333 12 20.3333ZM12 18C10.3333 18 8.91667 17.4167 7.75 16.25C6.58333 15.0833 6 13.6667 6 12C6 10.3333 6.58333 8.91667 7.75 7.75C8.91667 6.58333 10.3333 6 12 6C13.6667 6 15.0833 6.58333 16.25 7.75C17.4167 8.91667 18 10.3333 18 12C18 13.6667 17.4167 15.0833 16.25 16.25C15.0833 17.4167 13.6667 18 12 18ZM12 16.3332C13.2 16.3332 14.2222 15.9111 15.0667 15.0668C15.9111 14.2223 16.3333 13.2 16.3333 12C16.3333 10.8 15.9111 9.77775 15.0667 8.93325C14.2222 8.08892 13.2 7.66675 12 7.66675C10.8 7.66675 9.77775 8.08892 8.93325 8.93325C8.08892 9.77775 7.66675 10.8 7.66675 12C7.66675 13.2 8.08892 14.2223 8.93325 15.0668C9.77775 15.9111 10.8 16.3332 12 16.3332ZM12 14C11.45 14 10.9792 13.8042 10.5875 13.4125C10.1958 13.0208 10 12.55 10 12C10 11.45 10.1958 10.9792 10.5875 10.5875C10.9792 10.1958 11.45 10 12 10C12.55 10 13.0208 10.1958 13.4125 10.5875C13.8042 10.9792 14 11.45 14 12C14 12.55 13.8042 13.0208 13.4125 13.4125C13.0208 13.8042 12.55 14 12 14Z"/>
</g>
</svg>
