<svg width="24" height="24" viewBox="0 0 24 24" fill="#1C1B1F" xmlns="http://www.w3.org/2000/svg">
<path d="M9.74909 9.49689C9.74909 8.45476 9.04027 8.45476 9.04027 8.45476H6.1293V10.6889H8.85979C9.33137 10.6889 9.74909 10.5376 9.74909 9.49689ZM9.04027 12.2332H6.1293V14.9084H8.90927C9.327 14.8967 10.0999 14.7628 10.0999 13.6072C10.0955 12.2245 9.04027 12.2332 9.04027 12.2332ZM16.5025 10.6889C14.9554 10.6889 14.74 12.2318 14.74 12.2318H18.0294C18.0294 12.2318 18.0497 10.6889 16.5025 10.6889Z"/>
<path d="M18.8779 2.78711H5.12355C4.56035 2.78711 4.02022 3.01084 3.62197 3.40908C3.22373 3.80733 3 4.34746 3 4.91066V18.6636C3 19.2268 3.22373 19.7669 3.62197 20.1651C4.02022 20.5634 4.56035 20.7871 5.12355 20.7871H18.8764C19.4396 20.7871 19.9798 20.5634 20.378 20.1651C20.7763 19.7669 21 19.2268 21 18.6636V4.91066C21 4.34771 20.7765 3.8078 20.3785 3.4096C19.9806 3.0114 19.4409 2.7875 18.8779 2.78711ZM14.3091 7.26419H18.4398V8.49844H14.3091V7.26419ZM12.2205 13.7324C12.2205 16.7889 9.04027 16.6885 9.04027 16.6885H3.82963V6.67471H9.04027C10.6238 6.67471 11.8741 7.54801 11.8741 9.34116C11.8741 11.1343 10.3458 11.2464 10.3458 11.2464C12.3602 11.2464 12.2205 13.7324 12.2205 13.7324ZM14.7662 13.5694C14.7662 15.4295 16.5287 15.3159 16.5287 15.3159C18.1924 15.3159 18.1298 14.2389 18.1298 14.2389H19.8895C19.8895 17.0975 16.4632 16.901 16.4632 16.901C12.3515 16.901 12.6164 13.073 12.6164 13.073C12.6164 13.073 12.6164 9.22618 16.4632 9.22618C20.5168 9.22327 19.9491 13.5694 19.9491 13.5694H14.7662Z"/>
</svg>
