<svg width="48" height="48" viewBox="0 0 48 48" fill="none" xmlns="http://www.w3.org/2000/svg">
<mask id="mask0_722_839" style="mask-type:alpha" maskUnits="userSpaceOnUse" x="0" y="0" width="48" height="48">
<rect width="48" height="48" fill="#D9D9D9"/>
</mask>
<g mask="url(#mask0_722_839)">
<path d="M7.45 43.2496C6.14833 43.2496 5.0395 42.7918 4.1235 41.8761C3.20783 40.9601 2.75 39.8513 2.75 38.5496V16.0496C2.75 14.7343 3.20783 13.6138 4.1235 12.6881C5.0395 11.7624 6.14833 11.2996 7.45 11.2996H14.85V6.29961C14.85 5.03294 15.308 3.93294 16.224 2.99961C17.1397 2.06628 18.2483 1.59961 19.55 1.59961H28.45C29.7517 1.59961 30.8605 2.06628 31.7765 2.99961C32.6922 3.93294 33.15 5.03294 33.15 6.29961V11.2996H40.55C41.8653 11.2996 42.9858 11.7624 43.9115 12.6881C44.8372 13.6138 45.3 14.7343 45.3 16.0496V38.5496C45.3 39.8513 44.8372 40.9601 43.9115 41.8761C42.9858 42.7918 41.8653 43.2496 40.55 43.2496H7.45ZM19.55 11.2996H28.45V6.29961H19.55V11.2996ZM40.55 28.9996H28.55V29.6586C28.55 30.3193 28.3227 30.8746 27.868 31.3246C27.4133 31.7746 26.8565 31.9996 26.1975 31.9996H21.8885C21.2295 31.9996 20.675 31.7724 20.225 31.3181C19.775 30.8641 19.55 30.3079 19.55 29.6496V28.9996H7.45V38.5496H40.55V28.9996ZM22.55 28.9996H25.55V25.9996H22.55V28.9996ZM7.45 25.9996H19.55V25.3406C19.55 24.6799 19.7773 24.1246 20.232 23.6746C20.6867 23.2246 21.2435 22.9996 21.9025 22.9996H26.2115C26.8705 22.9996 27.425 23.2266 27.875 23.6806C28.325 24.1349 28.55 24.6913 28.55 25.3496V25.9996H40.55V16.0496H7.45V25.9996Z" fill="#1E2939"/>
</g>
</svg>
