<svg width="302" height="48" viewBox="0 0 302 48" fill="none" xmlns="http://www.w3.org/2000/svg">
<path d="M0.725586 25.2562C0.725586 23.7309 1.05559 22.3742 1.71559 21.1862C2.37559 19.9836 3.29225 19.0522 4.46559 18.3922C5.65359 17.7176 6.99559 17.3802 8.49159 17.3802C10.3249 17.3802 11.8943 17.8642 13.1996 18.8322C14.5049 19.8002 15.3776 21.1202 15.8176 22.7922H11.6816C11.3736 22.1469 10.9336 21.6556 10.3616 21.3182C9.80425 20.9809 9.16625 20.8122 8.44759 20.8122C7.28892 20.8122 6.35025 21.2156 5.63159 22.0222C4.91292 22.8289 4.55359 23.9069 4.55359 25.2562C4.55359 26.6056 4.91292 27.6836 5.63159 28.4902C6.35025 29.2969 7.28892 29.7002 8.44759 29.7002C9.16625 29.7002 9.80425 29.5316 10.3616 29.1942C10.9336 28.8569 11.3736 28.3656 11.6816 27.7202H15.8176C15.3776 29.3922 14.5049 30.7122 13.1996 31.6802C11.8943 32.6336 10.3249 33.1102 8.49159 33.1102C6.99559 33.1102 5.65359 32.7802 4.46559 32.1202C3.29225 31.4456 2.37559 30.5142 1.71559 29.3262C1.05559 28.1382 0.725586 26.7816 0.725586 25.2562Z" fill="#0958A8"/>
<path d="M21.4434 22.7702C21.8834 22.0956 22.4334 21.5676 23.0934 21.1862C23.7534 20.7902 24.4867 20.5922 25.2934 20.5922V24.5742H24.2594C23.3207 24.5742 22.6167 24.7796 22.1474 25.1902C21.6781 25.5862 21.4434 26.2902 21.4434 27.3022V33.0002H17.6814V20.7242H21.4434V22.7702Z" fill="#0958A8"/>
<path d="M28.5436 19.4482C27.8836 19.4482 27.3409 19.2576 26.9156 18.8762C26.5049 18.4802 26.2996 17.9962 26.2996 17.4242C26.2996 16.8376 26.5049 16.3536 26.9156 15.9722C27.3409 15.5762 27.8836 15.3782 28.5436 15.3782C29.1889 15.3782 29.7169 15.5762 30.1276 15.9722C30.5529 16.3536 30.7656 16.8376 30.7656 17.4242C30.7656 17.9962 30.5529 18.4802 30.1276 18.8762C29.7169 19.2576 29.1889 19.4482 28.5436 19.4482ZM30.4136 20.7242V33.0002H26.6516V20.7242H30.4136Z" fill="#0958A8"/>
<path d="M37.6938 33.1762C36.6232 33.1762 35.6698 32.9929 34.8338 32.6262C33.9978 32.2596 33.3378 31.7609 32.8538 31.1302C32.3698 30.4849 32.0985 29.7662 32.0398 28.9742H35.7578C35.8018 29.3996 35.9998 29.7442 36.3518 30.0082C36.7038 30.2722 37.1365 30.4042 37.6498 30.4042C38.1192 30.4042 38.4785 30.3162 38.7278 30.1402C38.9918 29.9496 39.1238 29.7076 39.1238 29.4142C39.1238 29.0622 38.9405 28.8056 38.5738 28.6442C38.2072 28.4682 37.6132 28.2776 36.7918 28.0722C35.9118 27.8669 35.1785 27.6542 34.5918 27.4342C34.0052 27.1996 33.4992 26.8402 33.0738 26.3562C32.6485 25.8576 32.4358 25.1902 32.4358 24.3542C32.4358 23.6502 32.6265 23.0122 33.0078 22.4402C33.4038 21.8536 33.9758 21.3916 34.7238 21.0542C35.4865 20.7169 36.3885 20.5482 37.4298 20.5482C38.9698 20.5482 40.1798 20.9296 41.0598 21.6922C41.9545 22.4549 42.4678 23.4669 42.5998 24.7282H39.1238C39.0652 24.3029 38.8745 23.9656 38.5518 23.7162C38.2438 23.4669 37.8332 23.3422 37.3198 23.3422C36.8798 23.3422 36.5425 23.4302 36.3078 23.6062C36.0732 23.7676 35.9558 23.9949 35.9558 24.2882C35.9558 24.6402 36.1392 24.9042 36.5058 25.0802C36.8872 25.2562 37.4738 25.4322 38.2658 25.6082C39.1752 25.8429 39.9158 26.0776 40.4878 26.3122C41.0598 26.5322 41.5585 26.8989 41.9838 27.4122C42.4238 27.9109 42.6512 28.5856 42.6658 29.4362C42.6658 30.1549 42.4605 30.8002 42.0498 31.3722C41.6538 31.9296 41.0745 32.3696 40.3118 32.6922C39.5638 33.0149 38.6912 33.1762 37.6938 33.1762Z" fill="#0958A8"/>
<path d="M51.3694 29.8102V33.0002H49.4554C48.0914 33.0002 47.0281 32.6702 46.2654 32.0102C45.5027 31.3356 45.1214 30.2429 45.1214 28.7322V23.8482H43.6254V20.7242H45.1214V17.7322H48.8834V20.7242H51.3474V23.8482H48.8834V28.7762C48.8834 29.1429 48.9714 29.4069 49.1474 29.5682C49.3234 29.7296 49.6167 29.8102 50.0274 29.8102H51.3694Z" fill="#0958A8"/>
<path d="M54.9169 19.4482C54.2569 19.4482 53.7142 19.2576 53.2889 18.8762C52.8782 18.4802 52.6729 17.9962 52.6729 17.4242C52.6729 16.8376 52.8782 16.3536 53.2889 15.9722C53.7142 15.5762 54.2569 15.3782 54.9169 15.3782C55.5622 15.3782 56.0902 15.5762 56.5009 15.9722C56.9262 16.3536 57.1389 16.8376 57.1389 17.4242C57.1389 17.9962 56.9262 18.4802 56.5009 18.8762C56.0902 19.2576 55.5622 19.4482 54.9169 19.4482ZM56.7869 20.7242V33.0002H53.0249V20.7242H56.7869Z" fill="#0958A8"/>
<path d="M58.3252 26.8402C58.3252 25.5789 58.5599 24.4716 59.0292 23.5182C59.5132 22.5649 60.1659 21.8316 60.9872 21.3182C61.8085 20.8049 62.7252 20.5482 63.7372 20.5482C64.6025 20.5482 65.3579 20.7242 66.0032 21.0762C66.6632 21.4282 67.1692 21.8902 67.5212 22.4622V20.7242H71.2832V33.0002H67.5212V31.2622C67.1545 31.8342 66.6412 32.2962 65.9812 32.6482C65.3359 33.0002 64.5805 33.1762 63.7152 33.1762C62.7179 33.1762 61.8085 32.9196 60.9872 32.4062C60.1659 31.8782 59.5132 31.1376 59.0292 30.1842C58.5599 29.2162 58.3252 28.1016 58.3252 26.8402ZM67.5212 26.8622C67.5212 25.9236 67.2572 25.1829 66.7292 24.6402C66.2159 24.0976 65.5852 23.8262 64.8372 23.8262C64.0892 23.8262 63.4512 24.0976 62.9232 24.6402C62.4099 25.1682 62.1532 25.9016 62.1532 26.8402C62.1532 27.7789 62.4099 28.5269 62.9232 29.0842C63.4512 29.6269 64.0892 29.8982 64.8372 29.8982C65.5852 29.8982 66.2159 29.6269 66.7292 29.0842C67.2572 28.5416 67.5212 27.8009 67.5212 26.8622Z" fill="#0958A8"/>
<path d="M81.0448 20.5922C82.4822 20.5922 83.6262 21.0616 84.4768 22.0002C85.3422 22.9242 85.7748 24.2002 85.7748 25.8282V33.0002H82.0348V26.3342C82.0348 25.5129 81.8222 24.8749 81.3968 24.4202C80.9715 23.9656 80.3995 23.7382 79.6808 23.7382C78.9622 23.7382 78.3902 23.9656 77.9648 24.4202C77.5395 24.8749 77.3268 25.5129 77.3268 26.3342V33.0002H73.5648V20.7242H77.3268V22.3522C77.7082 21.8096 78.2215 21.3842 78.8668 21.0762C79.5122 20.7536 80.2382 20.5922 81.0448 20.5922Z" fill="#0958A8"/>
<path d="M105.987 33.0002H102.225L95.9332 23.4742V33.0002H92.1712V17.5562H95.9332L102.225 27.1262V17.5562H105.987V33.0002Z" fill="#0958A8"/>
<path d="M107.526 26.8402C107.526 25.5789 107.761 24.4716 108.23 23.5182C108.714 22.5649 109.367 21.8316 110.188 21.3182C111.009 20.8049 111.926 20.5482 112.938 20.5482C113.803 20.5482 114.559 20.7242 115.204 21.0762C115.864 21.4282 116.37 21.8902 116.722 22.4622V20.7242H120.484V33.0002H116.722V31.2622C116.355 31.8342 115.842 32.2962 115.182 32.6482C114.537 33.0002 113.781 33.1762 112.916 33.1762C111.919 33.1762 111.009 32.9196 110.188 32.4062C109.367 31.8782 108.714 31.1376 108.23 30.1842C107.761 29.2162 107.526 28.1016 107.526 26.8402ZM116.722 26.8622C116.722 25.9236 116.458 25.1829 115.93 24.6402C115.417 24.0976 114.786 23.8262 114.038 23.8262C113.29 23.8262 112.652 24.0976 112.124 24.6402C111.611 25.1682 111.354 25.9016 111.354 26.8402C111.354 27.7789 111.611 28.5269 112.124 29.0842C112.652 29.6269 113.29 29.8982 114.038 29.8982C114.786 29.8982 115.417 29.6269 115.93 29.0842C116.458 28.5416 116.722 27.8009 116.722 26.8622Z" fill="#0958A8"/>
<path d="M126.528 22.7702C126.968 22.0956 127.518 21.5676 128.178 21.1862C128.838 20.7902 129.571 20.5922 130.378 20.5922V24.5742H129.344C128.405 24.5742 127.701 24.7796 127.232 25.1902C126.762 25.5862 126.528 26.2902 126.528 27.3022V33.0002H122.766V20.7242H126.528V22.7702Z" fill="#0958A8"/>
<path d="M137.258 29.4802L139.92 20.7242H143.924L139.568 33.0002H134.926L130.57 20.7242H134.596L137.258 29.4802Z" fill="#0958A8"/>
<path d="M144.319 26.8402C144.319 25.5789 144.554 24.4716 145.023 23.5182C145.507 22.5649 146.16 21.8316 146.981 21.3182C147.803 20.8049 148.719 20.5482 149.731 20.5482C150.597 20.5482 151.352 20.7242 151.997 21.0762C152.657 21.4282 153.163 21.8902 153.515 22.4622V20.7242H157.277V33.0002H153.515V31.2622C153.149 31.8342 152.635 32.2962 151.975 32.6482C151.33 33.0002 150.575 33.1762 149.709 33.1762C148.712 33.1762 147.803 32.9196 146.981 32.4062C146.16 31.8782 145.507 31.1376 145.023 30.1842C144.554 29.2162 144.319 28.1016 144.319 26.8402ZM153.515 26.8622C153.515 25.9236 153.251 25.1829 152.723 24.6402C152.21 24.0976 151.579 23.8262 150.831 23.8262C150.083 23.8262 149.445 24.0976 148.917 24.6402C148.404 25.1682 148.147 25.9016 148.147 26.8402C148.147 27.7789 148.404 28.5269 148.917 29.0842C149.445 29.6269 150.083 29.8982 150.831 29.8982C151.579 29.8982 152.21 29.6269 152.723 29.0842C153.251 28.5416 153.515 27.8009 153.515 26.8622ZM153.801 17.6662L148.499 19.8882V17.2922L153.801 14.7402V17.6662Z" fill="#0958A8"/>
<path d="M171.131 26.6642C171.131 27.0162 171.109 27.3829 171.065 27.7642H162.551C162.61 28.5269 162.852 29.1136 163.277 29.5242C163.717 29.9202 164.252 30.1182 164.883 30.1182C165.822 30.1182 166.474 29.7222 166.841 28.9302H170.845C170.64 29.7369 170.266 30.4629 169.723 31.1082C169.195 31.7536 168.528 32.2596 167.721 32.6262C166.914 32.9929 166.012 33.1762 165.015 33.1762C163.812 33.1762 162.742 32.9196 161.803 32.4062C160.864 31.8929 160.131 31.1596 159.603 30.2062C159.075 29.2529 158.811 28.1382 158.811 26.8622C158.811 25.5862 159.068 24.4716 159.581 23.5182C160.109 22.5649 160.842 21.8316 161.781 21.3182C162.72 20.8049 163.798 20.5482 165.015 20.5482C166.203 20.5482 167.259 20.7976 168.183 21.2962C169.107 21.7949 169.826 22.5062 170.339 23.4302C170.867 24.3542 171.131 25.4322 171.131 26.6642ZM167.281 25.6742C167.281 25.0289 167.061 24.5156 166.621 24.1342C166.181 23.7529 165.631 23.5622 164.971 23.5622C164.34 23.5622 163.805 23.7456 163.365 24.1122C162.94 24.4789 162.676 24.9996 162.573 25.6742H167.281Z" fill="#0958A8"/>
<path d="M176.196 29.8982H181.52V33.0002H171.994V30.0082L177.098 23.8262H172.038V20.7242H181.41V23.7162L176.196 29.8982Z" fill="#0958A8"/>
<path d="M191.818 30.1402C191.312 30.1402 190.852 30.0202 190.438 29.7802C190.025 29.5269 189.692 29.1936 189.438 28.7802C189.198 28.3669 189.078 27.9069 189.078 27.4002C189.078 26.8936 189.198 26.4402 189.438 26.0402C189.692 25.6269 190.025 25.3002 190.438 25.0602C190.852 24.8069 191.312 24.6802 191.818 24.6802C192.325 24.6802 192.778 24.8069 193.178 25.0602C193.592 25.3002 193.918 25.6269 194.158 26.0402C194.412 26.4402 194.538 26.8936 194.538 27.4002C194.538 27.9069 194.412 28.3669 194.158 28.7802C193.918 29.1936 193.592 29.5269 193.178 29.7802C192.778 30.0202 192.325 30.1402 191.818 30.1402Z" fill="#0958A8"/>
<path d="M213.332 22.1542C213.332 23.4302 212.892 24.4936 212.012 25.3442C211.147 26.1802 209.82 26.5982 208.03 26.5982H205.082V33.0002H203.08V17.6662H208.03C209.761 17.6662 211.074 18.0842 211.968 18.9202C212.878 19.7562 213.332 20.8342 213.332 22.1542ZM208.03 24.9482C209.145 24.9482 209.966 24.7062 210.494 24.2222C211.022 23.7382 211.286 23.0489 211.286 22.1542C211.286 20.2622 210.201 19.3162 208.03 19.3162H205.082V24.9482H208.03Z" fill="#0958A8"/>
<path d="M220.639 33.1982C219.509 33.1982 218.483 32.9416 217.559 32.4282C216.649 31.9149 215.931 31.1889 215.403 30.2502C214.889 29.2969 214.633 28.1969 214.633 26.9502C214.633 25.7182 214.897 24.6329 215.425 23.6942C215.967 22.7409 216.701 22.0149 217.625 21.5162C218.549 21.0029 219.583 20.7462 220.727 20.7462C221.871 20.7462 222.905 21.0029 223.829 21.5162C224.753 22.0149 225.479 22.7336 226.007 23.6722C226.549 24.6109 226.821 25.7036 226.821 26.9502C226.821 28.1969 226.542 29.2969 225.985 30.2502C225.442 31.1889 224.701 31.9149 223.763 32.4282C222.824 32.9416 221.783 33.1982 220.639 33.1982ZM220.639 31.4382C221.357 31.4382 222.032 31.2696 222.663 30.9322C223.293 30.5949 223.799 30.0889 224.181 29.4142C224.577 28.7396 224.775 27.9182 224.775 26.9502C224.775 25.9822 224.584 25.1609 224.203 24.4862C223.821 23.8116 223.323 23.3129 222.707 22.9902C222.091 22.6529 221.423 22.4842 220.705 22.4842C219.971 22.4842 219.297 22.6529 218.681 22.9902C218.079 23.3129 217.595 23.8116 217.229 24.4862C216.862 25.1609 216.679 25.9822 216.679 26.9502C216.679 27.9329 216.855 28.7616 217.207 29.4362C217.573 30.1109 218.057 30.6169 218.659 30.9542C219.26 31.2769 219.92 31.4382 220.639 31.4382Z" fill="#0958A8"/>
<path d="M231.015 22.9022C231.367 22.2129 231.866 21.6776 232.511 21.2962C233.171 20.9149 233.97 20.7242 234.909 20.7242V22.7922H234.381C232.137 22.7922 231.015 24.0096 231.015 26.4442V33.0002H229.013V20.9442H231.015V22.9022Z" fill="#0958A8"/>
<path d="M239.222 22.5942V29.7002C239.222 30.2869 239.347 30.7049 239.596 30.9542C239.845 31.1889 240.278 31.3062 240.894 31.3062H242.368V33.0002H240.564C239.449 33.0002 238.613 32.7436 238.056 32.2302C237.499 31.7169 237.22 30.8736 237.22 29.7002V22.5942H235.658V20.9442H237.22V17.9082H239.222V20.9442H242.368V22.5942H239.222Z" fill="#0958A8"/>
<path d="M243.606 26.9282C243.606 25.6962 243.855 24.6182 244.354 23.6942C244.852 22.7556 245.534 22.0296 246.4 21.5162C247.28 21.0029 248.255 20.7462 249.326 20.7462C250.382 20.7462 251.298 20.9736 252.076 21.4282C252.853 21.8829 253.432 22.4549 253.814 23.1442V20.9442H255.838V33.0002H253.814V30.7562C253.418 31.4602 252.824 32.0469 252.032 32.5162C251.254 32.9709 250.345 33.1982 249.304 33.1982C248.233 33.1982 247.265 32.9342 246.4 32.4062C245.534 31.8782 244.852 31.1376 244.354 30.1842C243.855 29.2309 243.606 28.1456 243.606 26.9282ZM253.814 26.9502C253.814 26.0409 253.63 25.2489 253.264 24.5742C252.897 23.8996 252.398 23.3862 251.768 23.0342C251.152 22.6676 250.47 22.4842 249.722 22.4842C248.974 22.4842 248.292 22.6602 247.676 23.0122C247.06 23.3642 246.568 23.8776 246.202 24.5522C245.835 25.2269 245.652 26.0189 245.652 26.9282C245.652 27.8522 245.835 28.6589 246.202 29.3482C246.568 30.0229 247.06 30.5436 247.676 30.9102C248.292 31.2622 248.974 31.4382 249.722 31.4382C250.47 31.4382 251.152 31.2622 251.768 30.9102C252.398 30.5436 252.897 30.0229 253.264 29.3482C253.63 28.6589 253.814 27.8596 253.814 26.9502Z" fill="#0958A8"/>
<path d="M263.687 22.5942H261.157V33.0002H259.155V22.5942H257.593V20.9442H259.155V20.0862C259.155 18.7369 259.499 17.7542 260.189 17.1382C260.893 16.5076 262.015 16.1922 263.555 16.1922V17.8642C262.675 17.8642 262.051 18.0402 261.685 18.3922C261.333 18.7296 261.157 19.2942 261.157 20.0862V20.9442H263.687V22.5942Z" fill="#0958A8"/>
<path d="M270.839 33.1982C269.71 33.1982 268.683 32.9416 267.759 32.4282C266.85 31.9149 266.131 31.1889 265.603 30.2502C265.09 29.2969 264.833 28.1969 264.833 26.9502C264.833 25.7182 265.097 24.6329 265.625 23.6942C266.168 22.7409 266.901 22.0149 267.825 21.5162C268.749 21.0029 269.783 20.7462 270.927 20.7462C272.071 20.7462 273.105 21.0029 274.029 21.5162C274.953 22.0149 275.679 22.7336 276.207 23.6722C276.75 24.6109 277.021 25.7036 277.021 26.9502C277.021 28.1969 276.742 29.2969 276.185 30.2502C275.642 31.1889 274.902 31.9149 273.963 32.4282C273.024 32.9416 271.983 33.1982 270.839 33.1982ZM270.839 31.4382C271.558 31.4382 272.232 31.2696 272.863 30.9322C273.494 30.5949 274 30.0889 274.381 29.4142C274.777 28.7396 274.975 27.9182 274.975 26.9502C274.975 25.9822 274.784 25.1609 274.403 24.4862C274.022 23.8116 273.523 23.3129 272.907 22.9902C272.291 22.6529 271.624 22.4842 270.905 22.4842C270.172 22.4842 269.497 22.6529 268.881 22.9902C268.28 23.3129 267.796 23.8116 267.429 24.4862C267.062 25.1609 266.879 25.9822 266.879 26.9502C266.879 27.9329 267.055 28.7616 267.407 29.4362C267.774 30.1109 268.258 30.6169 268.859 30.9542C269.46 31.2769 270.12 31.4382 270.839 31.4382Z" fill="#0958A8"/>
<path d="M281.215 16.7202V33.0002H279.213V16.7202H281.215Z" fill="#0958A8"/>
<path d="M285.221 18.9862C284.84 18.9862 284.517 18.8542 284.253 18.5902C283.989 18.3262 283.857 18.0036 283.857 17.6222C283.857 17.2409 283.989 16.9182 284.253 16.6542C284.517 16.3902 284.84 16.2582 285.221 16.2582C285.588 16.2582 285.896 16.3902 286.145 16.6542C286.409 16.9182 286.541 17.2409 286.541 17.6222C286.541 18.0036 286.409 18.3262 286.145 18.5902C285.896 18.8542 285.588 18.9862 285.221 18.9862ZM286.189 20.9442V33.0002H284.187V20.9442H286.189Z" fill="#0958A8"/>
<path d="M294.419 33.1982C293.29 33.1982 292.263 32.9416 291.339 32.4282C290.43 31.9149 289.711 31.1889 289.183 30.2502C288.67 29.2969 288.413 28.1969 288.413 26.9502C288.413 25.7182 288.677 24.6329 289.205 23.6942C289.748 22.7409 290.481 22.0149 291.405 21.5162C292.329 21.0029 293.363 20.7462 294.507 20.7462C295.651 20.7462 296.685 21.0029 297.609 21.5162C298.533 22.0149 299.259 22.7336 299.787 23.6722C300.33 24.6109 300.601 25.7036 300.601 26.9502C300.601 28.1969 300.323 29.2969 299.765 30.2502C299.223 31.1889 298.482 31.9149 297.543 32.4282C296.605 32.9416 295.563 33.1982 294.419 33.1982ZM294.419 31.4382C295.138 31.4382 295.813 31.2696 296.443 30.9322C297.074 30.5949 297.58 30.0889 297.961 29.4142C298.357 28.7396 298.555 27.9182 298.555 26.9502C298.555 25.9822 298.365 25.1609 297.983 24.4862C297.602 23.8116 297.103 23.3129 296.487 22.9902C295.871 22.6529 295.204 22.4842 294.485 22.4842C293.752 22.4842 293.077 22.6529 292.461 22.9902C291.86 23.3129 291.376 23.8116 291.009 24.4862C290.643 25.1609 290.459 25.9822 290.459 26.9502C290.459 27.9329 290.635 28.7616 290.987 29.4362C291.354 30.1109 291.838 30.6169 292.439 30.9542C293.041 31.2769 293.701 31.4382 294.419 31.4382Z" fill="#0958A8"/>
</svg>
