<svg width="177" height="64" viewBox="0 0 177 64" fill="none" xmlns="http://www.w3.org/2000/svg">
<path d="M1.07617 15.7637C1.07617 14.2846 1.39535 12.9691 2.03371 11.8171C2.67207 10.6509 3.55869 9.74774 4.69355 9.10774C5.8426 8.45352 7.1406 8.12641 8.58755 8.12641C10.3608 8.12641 11.8787 8.59574 13.1412 9.53441C14.4037 10.4731 15.2478 11.7531 15.6734 13.3744H11.673C11.3751 12.7486 10.9495 12.2722 10.3962 11.9451C9.85718 11.618 9.2401 11.4544 8.54499 11.4544C7.42431 11.4544 6.51642 11.8455 5.82132 12.6277C5.12622 13.41 4.77866 14.4553 4.77866 15.7637C4.77866 17.0722 5.12622 18.1175 5.82132 18.8997C6.51642 19.682 7.42431 20.0731 8.54499 20.0731C9.2401 20.0731 9.85718 19.9095 10.3962 19.5824C10.9495 19.2553 11.3751 18.7789 11.673 18.1531H15.6734C15.2478 19.7744 14.4037 21.0544 13.1412 21.9931C11.8787 22.9175 10.3608 23.3797 8.58755 23.3797C7.1406 23.3797 5.8426 23.0597 4.69355 22.4197C3.55869 21.7655 2.67207 20.8624 2.03371 19.7104C1.39535 18.5584 1.07617 17.2429 1.07617 15.7637Z" fill="#F1F7FE"/>
<path d="M21.1147 13.3531C21.5403 12.6989 22.0723 12.1869 22.7106 11.8171C23.349 11.4331 24.0583 11.2411 24.8385 11.2411V15.1024H23.8384C22.9305 15.1024 22.2496 15.3015 21.7956 15.6997C21.3417 16.0837 21.1147 16.7664 21.1147 17.7477V23.2731H17.4761V11.3691H21.1147V13.3531Z" fill="#F1F7FE"/>
<path d="M27.9821 10.1317C27.3437 10.1317 26.8188 9.94685 26.4075 9.57707C26.0103 9.19307 25.8117 8.72374 25.8117 8.16907C25.8117 7.60018 26.0103 7.13085 26.4075 6.76107C26.8188 6.37707 27.3437 6.18507 27.9821 6.18507C28.6063 6.18507 29.1169 6.37707 29.5141 6.76107C29.9255 7.13085 30.1312 7.60018 30.1312 8.16907C30.1312 8.72374 29.9255 9.19307 29.5141 9.57707C29.1169 9.94685 28.6063 10.1317 27.9821 10.1317ZM29.7908 11.3691V23.2731H26.1521V11.3691H29.7908Z" fill="#F1F7FE"/>
<path d="M36.8324 23.4437C35.7968 23.4437 34.8747 23.266 34.0661 22.9104C33.2575 22.5549 32.6192 22.0713 32.151 21.4597C31.6829 20.834 31.4205 20.1371 31.3637 19.3691H34.9598C35.0024 19.7815 35.1939 20.1157 35.5344 20.3717C35.8748 20.6277 36.2933 20.7557 36.7898 20.7557C37.2437 20.7557 37.5913 20.6704 37.8324 20.4997C38.0878 20.3149 38.2155 20.0802 38.2155 19.7957C38.2155 19.4544 38.0381 19.2055 37.6835 19.0491C37.3289 18.8784 36.7543 18.6935 35.9599 18.4944C35.1088 18.2953 34.3995 18.0891 33.8321 17.8757C33.2646 17.6482 32.7752 17.2997 32.3638 16.8304C31.9524 16.3469 31.7467 15.6997 31.7467 14.8891C31.7467 14.2064 31.9312 13.5877 32.3 13.0331C32.683 12.4642 33.2363 12.0162 33.9597 11.6891C34.6974 11.362 35.5698 11.1984 36.577 11.1984C38.0665 11.1984 39.2368 11.5682 40.088 12.3077C40.9533 13.0473 41.4498 14.0286 41.5775 15.2517H38.2155C38.1587 14.8393 37.9743 14.5122 37.6622 14.2704C37.3643 14.0286 36.9671 13.9077 36.4706 13.9077C36.045 13.9077 35.7188 13.9931 35.4918 14.1637C35.2648 14.3202 35.1513 14.5406 35.1513 14.8251C35.1513 15.1664 35.3287 15.4224 35.6833 15.5931C36.0521 15.7637 36.6196 15.9344 37.3856 16.1051C38.2651 16.3326 38.9815 16.5602 39.5347 16.7877C40.088 17.0011 40.5703 17.3566 40.9817 17.8544C41.4073 18.338 41.6271 18.9922 41.6413 19.8171C41.6413 20.514 41.4427 21.1397 41.0455 21.6944C40.6625 22.2348 40.1022 22.6615 39.3645 22.9744C38.641 23.2873 37.797 23.4437 36.8324 23.4437Z" fill="#F1F7FE"/>
<path d="M50.0596 20.1797V23.2731H48.2083C46.889 23.2731 45.8606 22.9531 45.1229 22.3131C44.3852 21.6588 44.0164 20.5993 44.0164 19.1344V14.3984H42.5695V11.3691H44.0164V8.46774H47.6551V11.3691H50.0383V14.3984H47.6551V19.1771C47.6551 19.5326 47.7402 19.7886 47.9104 19.9451C48.0806 20.1015 48.3643 20.1797 48.7616 20.1797H50.0596Z" fill="#F1F7FE"/>
<path d="M53.4907 10.1317C52.8524 10.1317 52.3275 9.94685 51.9161 9.57707C51.5189 9.19307 51.3203 8.72374 51.3203 8.16907C51.3203 7.60018 51.5189 7.13085 51.9161 6.76107C52.3275 6.37707 52.8524 6.18507 53.4907 6.18507C54.1149 6.18507 54.6256 6.37707 55.0228 6.76107C55.4342 7.13085 55.6399 7.60018 55.6399 8.16907C55.6399 8.72374 55.4342 9.19307 55.0228 9.57707C54.6256 9.94685 54.1149 10.1317 53.4907 10.1317ZM55.2994 11.3691V23.2731H51.6608V11.3691H55.2994Z" fill="#F1F7FE"/>
<path d="M56.7873 17.2997C56.7873 16.0766 57.0142 15.0029 57.4682 14.0784C57.9363 13.154 58.5676 12.4429 59.362 11.9451C60.1564 11.4473 61.043 11.1984 62.0218 11.1984C62.8588 11.1984 63.5894 11.3691 64.2135 11.7104C64.8519 12.0517 65.3413 12.4997 65.6818 13.0544V11.3691H69.3204V23.2731H65.6818V21.5877C65.3271 22.1424 64.8306 22.5904 64.1923 22.9317C63.5681 23.2731 62.8375 23.4437 62.0005 23.4437C61.0359 23.4437 60.1564 23.1949 59.362 22.6971C58.5676 22.1851 57.9363 21.4669 57.4682 20.5424C57.0142 19.6037 56.7873 18.5229 56.7873 17.2997ZM65.6818 17.3211C65.6818 16.4109 65.4264 15.6926 64.9157 15.1664C64.4192 14.6402 63.8092 14.3771 63.0858 14.3771C62.3623 14.3771 61.7452 14.6402 61.2345 15.1664C60.738 15.6784 60.4898 16.3895 60.4898 17.2997C60.4898 18.21 60.738 18.9353 61.2345 19.4757C61.7452 20.002 62.3623 20.2651 63.0858 20.2651C63.8092 20.2651 64.4192 20.002 64.9157 19.4757C65.4264 18.9495 65.6818 18.2313 65.6818 17.3211Z" fill="#F1F7FE"/>
<path d="M78.762 11.2411C80.1522 11.2411 81.2587 11.6962 82.0815 12.6064C82.9184 13.5024 83.3369 14.7397 83.3369 16.3184V23.2731H79.7196V16.8091C79.7196 16.0126 79.5139 15.394 79.1025 14.9531C78.6911 14.5122 78.1378 14.2917 77.4427 14.2917C76.7476 14.2917 76.1944 14.5122 75.783 14.9531C75.3716 15.394 75.1659 16.0126 75.1659 16.8091V23.2731H71.5273V11.3691H75.1659V12.9477C75.5347 12.4215 76.0312 12.0091 76.6554 11.7104C77.2796 11.3975 77.9818 11.2411 78.762 11.2411Z" fill="#F1F7FE"/>
<path d="M102.887 23.2731H99.2479L93.1622 14.0357V23.2731H89.5235V8.29707H93.1622L99.2479 17.5771V8.29707H102.887V23.2731Z" fill="#F1F7FE"/>
<path d="M104.375 17.2997C104.375 16.0766 104.602 15.0029 105.056 14.0784C105.524 13.154 106.155 12.4429 106.95 11.9451C107.744 11.4473 108.631 11.1984 109.61 11.1984C110.447 11.1984 111.177 11.3691 111.801 11.7104C112.44 12.0517 112.929 12.4997 113.27 13.0544V11.3691H116.908V23.2731H113.27V21.5877C112.915 22.1424 112.418 22.5904 111.78 22.9317C111.156 23.2731 110.425 23.4437 109.588 23.4437C108.624 23.4437 107.744 23.1949 106.95 22.6971C106.155 22.1851 105.524 21.4669 105.056 20.5424C104.602 19.6037 104.375 18.5229 104.375 17.2997ZM113.27 17.3211C113.27 16.4109 113.014 15.6926 112.504 15.1664C112.007 14.6402 111.397 14.3771 110.674 14.3771C109.95 14.3771 109.333 14.6402 108.822 15.1664C108.326 15.6784 108.078 16.3895 108.078 17.2997C108.078 18.21 108.326 18.9353 108.822 19.4757C109.333 20.002 109.95 20.2651 110.674 20.2651C111.397 20.2651 112.007 20.002 112.504 19.4757C113.014 18.9495 113.27 18.2313 113.27 17.3211Z" fill="#F1F7FE"/>
<path d="M122.754 13.3531C123.179 12.6989 123.711 12.1869 124.35 11.8171C124.988 11.4331 125.697 11.2411 126.477 11.2411V15.1024H125.477C124.569 15.1024 123.889 15.3015 123.435 15.6997C122.981 16.0837 122.754 16.7664 122.754 17.7477V23.2731H119.115V11.3691H122.754V13.3531Z" fill="#F1F7FE"/>
<path d="M133.132 19.8597L135.707 11.3691H139.579L135.366 23.2731H130.877L126.663 11.3691H130.557L133.132 19.8597Z" fill="#F1F7FE"/>
<path d="M139.962 17.2997C139.962 16.0766 140.189 15.0029 140.643 14.0784C141.111 13.154 141.742 12.4429 142.537 11.9451C143.331 11.4473 144.218 11.1984 145.197 11.1984C146.034 11.1984 146.764 11.3691 147.388 11.7104C148.027 12.0517 148.516 12.4997 148.857 13.0544V11.3691H152.495V23.2731H148.857V21.5877C148.502 22.1424 148.005 22.5904 147.367 22.9317C146.743 23.2731 146.012 23.4437 145.175 23.4437C144.211 23.4437 143.331 23.1949 142.537 22.6971C141.742 22.1851 141.111 21.4669 140.643 20.5424C140.189 19.6037 139.962 18.5229 139.962 17.2997ZM148.857 17.3211C148.857 16.4109 148.601 15.6926 148.09 15.1664C147.594 14.6402 146.984 14.3771 146.26 14.3771C145.537 14.3771 144.92 14.6402 144.409 15.1664C143.913 15.6784 143.665 16.3895 143.665 17.2997C143.665 18.21 143.913 18.9353 144.409 19.4757C144.92 20.002 145.537 20.2651 146.26 20.2651C146.984 20.2651 147.594 20.002 148.09 19.4757C148.601 18.9495 148.857 18.2313 148.857 17.3211ZM149.133 8.40374L144.005 10.5584V8.04107L149.133 5.56641V8.40374Z" fill="#F1F7FE"/>
<path d="M165.895 17.1291C165.895 17.4704 165.873 17.826 165.831 18.1957H157.596C157.653 18.9353 157.887 19.5042 158.298 19.9024C158.724 20.2864 159.241 20.4784 159.851 20.4784C160.759 20.4784 161.391 20.0944 161.745 19.3264H165.618C165.419 20.1086 165.058 20.8126 164.533 21.4384C164.022 22.0642 163.377 22.5549 162.596 22.9104C161.816 23.266 160.944 23.4437 159.979 23.4437C158.816 23.4437 157.78 23.1949 156.872 22.6971C155.965 22.1993 155.255 21.4882 154.745 20.5637C154.234 19.6393 153.979 18.5584 153.979 17.3211C153.979 16.0837 154.227 15.0029 154.723 14.0784C155.234 13.154 155.943 12.4429 156.851 11.9451C157.759 11.4473 158.802 11.1984 159.979 11.1984C161.128 11.1984 162.15 11.4402 163.043 11.9237C163.937 12.4073 164.632 13.0971 165.129 13.9931C165.639 14.8891 165.895 15.9344 165.895 17.1291ZM162.171 16.1691C162.171 15.5433 161.958 15.0455 161.532 14.6757C161.107 14.306 160.575 14.1211 159.937 14.1211C159.327 14.1211 158.809 14.2989 158.383 14.6544C157.972 15.01 157.716 15.5149 157.617 16.1691H162.171Z" fill="#F1F7FE"/>
<path d="M170.793 20.2651H175.943V23.2731H166.729V20.3717L171.666 14.3771H166.771V11.3691H175.836V14.2704L170.793 20.2651Z" fill="#F1F7FE"/>
<path d="M51.6193 44.7557C51.6193 45.9931 51.1937 47.0242 50.3426 47.8491C49.5056 48.6597 48.2218 49.0651 46.4911 49.0651H43.6398V55.2731H41.7034V40.4037H46.4911C48.165 40.4037 49.4347 40.8091 50.3 41.6197C51.1795 42.4304 51.6193 43.4757 51.6193 44.7557ZM46.4911 47.4651C47.5692 47.4651 48.3637 47.2304 48.8743 46.7611C49.385 46.2917 49.6404 45.6233 49.6404 44.7557C49.6404 42.9211 48.5906 42.0037 46.4911 42.0037H43.6398V47.4651H46.4911Z" fill="#F1F7FE"/>
<path d="M58.686 55.4651C57.5937 55.4651 56.6007 55.2162 55.707 54.7184C54.8274 54.2206 54.1323 53.5166 53.6217 52.6064C53.1251 51.682 52.8769 50.6153 52.8769 49.4064C52.8769 48.2117 53.1322 47.1593 53.6429 46.2491C54.1678 45.3246 54.8771 44.6206 55.7708 44.1371C56.6645 43.6393 57.6646 43.3904 58.7711 43.3904C59.8776 43.3904 60.8777 43.6393 61.7714 44.1371C62.6651 44.6206 63.3673 45.3175 63.878 46.2277C64.4029 47.138 64.6653 48.1975 64.6653 49.4064C64.6653 50.6153 64.3958 51.682 63.8567 52.6064C63.3318 53.5166 62.6154 54.2206 61.7076 54.7184C60.7997 55.2162 59.7925 55.4651 58.686 55.4651ZM58.686 53.7584C59.3811 53.7584 60.0336 53.5948 60.6436 53.2677C61.2536 52.9406 61.743 52.45 62.1118 51.7957C62.4949 51.1415 62.6864 50.3451 62.6864 49.4064C62.6864 48.4677 62.502 47.6713 62.1331 47.0171C61.7643 46.3629 61.282 45.8793 60.6862 45.5664C60.0904 45.2393 59.4449 45.0757 58.7498 45.0757C58.0405 45.0757 57.388 45.2393 56.7922 45.5664C56.2106 45.8793 55.7424 46.3629 55.3878 47.0171C55.0331 47.6713 54.8558 48.4677 54.8558 49.4064C54.8558 50.3593 55.026 51.1628 55.3665 51.8171C55.7211 52.4713 56.1893 52.962 56.7709 53.2891C57.3525 53.602 57.9909 53.7584 58.686 53.7584Z" fill="#F1F7FE"/>
<path d="M68.722 45.4811C69.0625 44.8126 69.5448 44.2935 70.169 43.9237C70.8074 43.554 71.5805 43.3691 72.4884 43.3691V45.3744H71.9777C69.8072 45.3744 68.722 46.5549 68.722 48.9157V55.2731H66.7857V43.5824H68.722V45.4811Z" fill="#F1F7FE"/>
<path d="M76.66 45.1824V52.0731C76.66 52.642 76.7806 53.0473 77.0217 53.2891C77.2629 53.5166 77.6814 53.6304 78.2772 53.6304H79.7028V55.2731H77.958C76.8799 55.2731 76.0713 55.0242 75.5322 54.5264C74.9932 54.0286 74.7236 53.2108 74.7236 52.0731V45.1824H73.2128V43.5824H74.7236V40.6384H76.66V43.5824H79.7028V45.1824H76.66Z" fill="#F1F7FE"/>
<path d="M80.8999 49.3851C80.8999 48.1904 81.1411 47.1451 81.6234 46.2491C82.1057 45.3389 82.7654 44.6348 83.6023 44.1371C84.4535 43.6393 85.3968 43.3904 86.4324 43.3904C87.4538 43.3904 88.3404 43.6108 89.0922 44.0517C89.8441 44.4926 90.4044 45.0473 90.7732 45.7157V43.5824H92.7309V55.2731H90.7732V53.0971C90.3902 53.7797 89.8157 54.3486 89.0497 54.8037C88.2978 55.2446 87.4183 55.4651 86.4111 55.4651C85.3755 55.4651 84.4393 55.2091 83.6023 54.6971C82.7654 54.1851 82.1057 53.4669 81.6234 52.5424C81.1411 51.618 80.8999 50.5655 80.8999 49.3851ZM90.7732 49.4064C90.7732 48.5246 90.5959 47.7566 90.2413 47.1024C89.8866 46.4482 89.4043 45.9504 88.7943 45.6091C88.1985 45.2535 87.5389 45.0757 86.8154 45.0757C86.0919 45.0757 85.4323 45.2464 84.8365 45.5877C84.2407 45.9291 83.7655 46.4268 83.4108 47.0811C83.0562 47.7353 82.8788 48.5033 82.8788 49.3851C82.8788 50.2811 83.0562 51.0633 83.4108 51.7317C83.7655 52.386 84.2407 52.8909 84.8365 53.2464C85.4323 53.5877 86.0919 53.7584 86.8154 53.7584C87.5389 53.7584 88.1985 53.5877 88.7943 53.2464C89.4043 52.8909 89.8866 52.386 90.2413 51.7317C90.5959 51.0633 90.7732 50.2882 90.7732 49.4064Z" fill="#F1F7FE"/>
<path d="M100.323 45.1824H97.8757V55.2731H95.9393V45.1824H94.4285V43.5824H95.9393V42.7504C95.9393 41.442 96.2727 40.4891 96.9394 39.8917C97.6203 39.2802 98.7055 38.9744 100.195 38.9744V40.5957C99.3439 40.5957 98.741 40.7664 98.3864 41.1077C98.0459 41.4348 97.8757 41.9824 97.8757 42.7504V43.5824H100.323V45.1824Z" fill="#F1F7FE"/>
<path d="M107.24 55.4651C106.148 55.4651 105.155 55.2162 104.261 54.7184C103.382 54.2206 102.687 53.5166 102.176 52.6064C101.68 51.682 101.431 50.6153 101.431 49.4064C101.431 48.2117 101.687 47.1593 102.197 46.2491C102.722 45.3246 103.432 44.6206 104.325 44.1371C105.219 43.6393 106.219 43.3904 107.326 43.3904C108.432 43.3904 109.432 43.6393 110.326 44.1371C111.22 44.6206 111.922 45.3175 112.432 46.2277C112.957 47.138 113.22 48.1975 113.22 49.4064C113.22 50.6153 112.95 51.682 112.411 52.6064C111.886 53.5166 111.17 54.2206 110.262 54.7184C109.354 55.2162 108.347 55.4651 107.24 55.4651ZM107.24 53.7584C107.936 53.7584 108.588 53.5948 109.198 53.2677C109.808 52.9406 110.297 52.45 110.666 51.7957C111.049 51.1415 111.241 50.3451 111.241 49.4064C111.241 48.4677 111.056 47.6713 110.688 47.0171C110.319 46.3629 109.836 45.8793 109.241 45.5664C108.645 45.2393 107.999 45.0757 107.304 45.0757C106.595 45.0757 105.942 45.2393 105.347 45.5664C104.765 45.8793 104.297 46.3629 103.942 47.0171C103.588 47.6713 103.41 48.4677 103.41 49.4064C103.41 50.3593 103.581 51.1628 103.921 51.8171C104.276 52.4713 104.744 52.962 105.325 53.2891C105.907 53.602 106.545 53.7584 107.24 53.7584Z" fill="#F1F7FE"/>
<path d="M117.277 39.4864V55.2731H115.34V39.4864H117.277Z" fill="#F1F7FE"/>
<path d="M121.151 41.6837C120.782 41.6837 120.47 41.5557 120.215 41.2997C119.96 41.0437 119.832 40.7309 119.832 40.3611C119.832 39.9913 119.96 39.6784 120.215 39.4224C120.47 39.1664 120.782 39.0384 121.151 39.0384C121.506 39.0384 121.804 39.1664 122.045 39.4224C122.3 39.6784 122.428 39.9913 122.428 40.3611C122.428 40.7309 122.3 41.0437 122.045 41.2997C121.804 41.5557 121.506 41.6837 121.151 41.6837ZM122.088 43.5824V55.2731H120.151V43.5824H122.088Z" fill="#F1F7FE"/>
<path d="M130.048 55.4651C128.955 55.4651 127.962 55.2162 127.069 54.7184C126.189 54.2206 125.494 53.5166 124.983 52.6064C124.487 51.682 124.239 50.6153 124.239 49.4064C124.239 48.2117 124.494 47.1593 125.005 46.2491C125.53 45.3246 126.239 44.6206 127.133 44.1371C128.026 43.6393 129.026 43.3904 130.133 43.3904C131.239 43.3904 132.239 43.6393 133.133 44.1371C134.027 44.6206 134.729 45.3175 135.24 46.2277C135.765 47.138 136.027 48.1975 136.027 49.4064C136.027 50.6153 135.758 51.682 135.218 52.6064C134.694 53.5166 133.977 54.2206 133.069 54.7184C132.161 55.2162 131.154 55.4651 130.048 55.4651ZM130.048 53.7584C130.743 53.7584 131.395 53.5948 132.005 53.2677C132.615 52.9406 133.105 52.45 133.474 51.7957C133.857 51.1415 134.048 50.3451 134.048 49.4064C134.048 48.4677 133.864 47.6713 133.495 47.0171C133.126 46.3629 132.644 45.8793 132.048 45.5664C131.452 45.2393 130.807 45.0757 130.112 45.0757C129.402 45.0757 128.75 45.2393 128.154 45.5664C127.572 45.8793 127.104 46.3629 126.75 47.0171C126.395 47.6713 126.218 48.4677 126.218 49.4064C126.218 50.3593 126.388 51.1628 126.728 51.8171C127.083 52.4713 127.551 52.962 128.133 53.2891C128.714 53.602 129.353 53.7584 130.048 53.7584Z" fill="#F1F7FE"/>
</svg>
