<svg width="1766" height="1571" viewBox="0 0 1766 1571" fill="none" xmlns="http://www.w3.org/2000/svg">
<g clip-path="url(#clip0_718_1972)">
<path fill-rule="evenodd" clip-rule="evenodd" d="M456.129 1.345C455.31 2.332 455.012 199.348 455.009 741.848C455.006 1479.32 455.01 1481.01 457.003 1483C458.101 1484.1 459.563 1485.03 460.25 1485.08C460.938 1485.12 553.245 1485.19 665.377 1485.23L869.254 1485.31L871.101 1482.91C872.895 1480.57 872.949 1458.69 872.944 742.128C872.941 249.438 872.605 3.13 871.934 1.878C870.956 0.0500001 865.409 0 664.087 0C492.069 0 457.057 0.226 456.129 1.345ZM1378.54 3.25C1378.23 5.038 1378.1 338.246 1378.24 743.714C1378.49 1449.9 1378.58 1481 1380.29 1482.71C1381.99 1484.41 1391.23 1484.51 1574.04 1484.69L1766 1484.88V1481.44V1478L1755.75 1478C1518.48 1478.06 1385.94 1477.71 1385.52 1477.03C1384.92 1476.06 1384.78 108.887 1385.38 108.286C1385.68 107.984 1540.99 107.861 1755.68 107.994C1764.53 107.999 1765.91 108.228 1766.31 109.75C1766.62 110.928 1766.8 110.683 1766.87 109C1766.93 107.625 1766.7 105.487 1766.37 104.25L1765.77 102H1575.38H1385L1384.97 76.75C1384.9 27.973 1385.07 4.595 1385.49 4.171C1385.73 3.936 1471.32 3.675 1575.7 3.591C1754.31 3.448 1765.5 3.338 1765.81 1.72C1766.13 0.098 1755.1 0 1572.62 0H1379.09L1378.54 3.25ZM923.389 1.98C922.228 2.449 920.993 3.577 920.644 4.487C920.294 5.396 920.006 190.747 920.002 416.376C919.997 769.369 920.194 826.884 921.417 828.556C922.816 830.469 926.103 830.504 1128.17 830.722C1310.31 830.92 1333.73 830.774 1335.5 829.429C1337.5 827.917 1337.5 826.87 1337.28 416.207L1337.06 4.5L1334.92 2.75C1332.9 1.096 1321.65 1.003 1129.14 1.063C1017.14 1.098 924.55 1.511 923.389 1.98ZM22.75 4.769L0 5.038V8.283V11.528L194.25 11.514L388.5 11.5L389 58C389.275 83.575 389.333 105.524 389.129 106.775C388.812 108.716 388.591 108.827 387.629 107.532C386.38 105.852 402.94 105.954 134.75 105.985L1 106V109.005V112.01L193.25 111.755C298.988 111.615 386.29 111.113 387.255 110.641C388.923 109.825 388.998 114.319 388.755 201.141L388.5 292.5L382.58 292.622C378.107 292.715 376.335 293.189 375.33 294.563C373.952 296.448 373.973 293.47 373.912 490.029C373.902 523.87 374.177 552.298 374.524 553.202C375.346 555.345 377.396 556.192 383.5 556.911L388.5 557.5L388.756 636.25L389.012 715L280.756 715.011C221.215 715.017 133.688 715.012 86.25 715L0 714.979V717.989V721L17.75 721.126C27.512 721.196 114.925 721.308 212 721.376L388.5 721.5V761.5V801.5L197 801.611C91.675 801.672 4.263 801.784 2.75 801.861C0.392 801.98 0 802.428 0 805V808L103.75 808.025C389.598 808.094 392.349 808.079 393.978 806.45C395.335 805.093 395.5 761.853 395.5 406.5C395.5 42.992 395.36 7.931 393.904 6.475C392.456 5.027 376.196 4.861 218.904 4.689C123.532 4.585 35.263 4.621 22.75 4.769ZM462.608 4.826C462.092 5.66 461.858 31.571 461.95 77.729L462 102.958L663.25 102.827L864.5 102.696L864.819 104.846C865.051 106.404 864.413 107.273 862.504 107.998C860.777 108.655 791.351 109 660.935 109H462L461.995 235.75C461.959 1131.98 462.082 1378.42 462.568 1378.9C462.884 1379.22 470.086 1379.48 478.571 1379.49L494 1379.5L494.004 1317.5C494.006 1283.4 494.029 1233.27 494.054 1206.1C494.086 1172.85 493.758 1156.36 493.051 1155.65C491.479 1154.08 491.784 1151.3 493.604 1150.6C494.486 1150.26 494.977 1149.38 494.696 1148.65C494.415 1147.92 494.537 1146.75 494.968 1146.05C496.118 1144.19 500 1145.75 500 1148.07C500 1149.13 500.563 1150.04 501.25 1150.1C501.938 1150.15 576.84 1150.27 667.699 1150.35C841.909 1150.51 837.142 1150.38 834.368 1154.78C833.347 1156.39 823.192 1156.51 667.891 1156.69C576.926 1156.79 501.937 1156.9 501.249 1156.94C500.254 1156.99 500.05 1179.74 500.249 1268.09L500.5 1379.19L682.798 1379.21C783.062 1379.23 865.305 1379.03 865.56 1378.77C866.14 1378.19 866.164 616.831 865.585 616.252C864.962 615.629 830.544 615.88 815.308 616.618C802.707 617.228 796.758 616.763 779.5 613.817C776.2 613.254 771.475 612.477 769 612.09C763.266 611.194 742.443 603.365 738.5 600.622C734.124 597.579 730.024 592.865 729.26 590C728.893 588.625 728.572 584.125 728.546 580C728.505 573.374 728.879 571.81 731.75 566.572C733.538 563.312 735 559.841 735 558.858C735 552.618 756.497 551.029 842.5 550.908C850.75 550.896 859.413 551.165 861.75 551.505L866 552.123L865.996 508.311C865.993 484.215 866.021 366.85 866.057 247.5C866.093 128.15 866.095 24.538 866.061 17.25L866 4H664.559C553.766 4 462.888 4.372 462.608 4.826ZM926.426 8.5C926.25 9.05 926.195 31.1 926.303 57.5L926.5 105.5L1127.39 105.686C1268.6 105.817 1328.59 106.191 1329.34 106.944C1330.1 107.705 1329.91 108.518 1328.67 109.757C1327.03 111.401 1315.57 111.513 1126.71 111.733L926.5 111.966L926.679 423.233L926.857 734.5L1128.93 734.527L1331 734.554V653.777C1331 609.35 1331.01 572.663 1331.02 572.25C1331.02 571.837 1328 571.275 1324.29 571C1318.35 570.559 1317.4 570.203 1316.29 568C1315.3 566.025 1315.07 538.493 1315.2 436.857C1315.3 366.103 1315.57 306.575 1315.8 304.574C1316.36 299.763 1320.33 297.523 1326.63 298.467L1331 299.123L1331.01 280.811C1331.1 101.301 1330.9 8.652 1330.44 7.907C1329.63 6.596 926.845 7.187 926.426 8.5ZM480.147 134.888C478.104 136.182 480.443 139.842 483.779 140.572C485.275 140.899 487.175 141.419 488 141.728C492.148 143.278 550.771 146.328 560.5 145.5C575.363 144.235 577.851 143.977 583.5 143.118C590.617 142.035 595 140.202 595 138.308C595 135.839 591.978 135.684 578.848 137.483C564.907 139.393 553.541 139.713 531.5 138.817C501.283 137.588 489.364 136.682 486.128 135.369C482.198 133.774 481.938 133.753 480.147 134.888ZM1637.5 152.117C1628.7 152.457 1613.99 153.258 1604.81 153.899C1592.38 154.766 1584.85 154.779 1575.31 153.952C1551.36 151.874 1549.5 151.824 1542.74 153.075C1536.03 154.316 1532.81 156.144 1534.97 157.484C1537.55 159.073 1603.31 160.027 1623 158.76C1629.32 158.353 1642.38 157.751 1652 157.422C1670.03 156.806 1673.01 156.071 1671.67 152.573C1671.01 150.853 1670.46 150.846 1637.5 152.117ZM271.188 160.989C269.367 161.42 255.867 161.822 241.188 161.881C210.719 162.005 168.371 163.61 159.5 164.977C156.2 165.485 148.639 166.211 142.699 166.591C132.461 167.244 131.913 167.39 132.199 169.39C132.486 171.405 133.041 171.499 144.5 171.467C151.1 171.449 159.425 171.114 163 170.723C175.248 169.383 213.149 168.022 239.798 167.965C266.742 167.907 274.025 167.192 277.234 164.288C281.273 160.633 278.677 159.216 271.188 160.989ZM1211.5 162.246C1210.1 163.077 1200.11 163.498 1178 163.658C1146.74 163.884 1117.01 165.136 1093 167.237C1082.49 168.156 1076.88 168.515 1066.25 168.949C1064.44 169.023 1064.71 172.676 1066.58 173.393C1068.87 174.272 1077.96 174.138 1090 173.047C1095.78 172.524 1107.25 171.802 1115.5 171.443C1123.75 171.083 1130.87 170.562 1131.33 170.284C1131.79 170.006 1149.79 169.679 1171.34 169.556C1212.15 169.324 1213.77 169.157 1216.02 164.956C1217.93 161.393 1215.45 159.906 1211.5 162.246ZM527.041 171.233C516.05 173.464 500.801 173.486 490.193 171.288C482.931 169.783 481.772 169.75 480.979 171.033C479.187 173.932 483.441 175.976 495.5 178.01C504.139 179.468 517.452 179.079 527.676 177.07C533.621 175.902 541.127 175.192 546.685 175.274C556.508 175.417 561 174.053 561 170.928C561 169.365 559.744 169.208 548.291 169.347C540.807 169.437 532.069 170.213 527.041 171.233ZM1624 187.557C1614.38 188.27 1602.68 189.395 1598 190.058C1593.32 190.721 1579.41 191.428 1567.08 191.629C1547.83 191.944 1544.4 192.233 1542.81 193.675C1541.79 194.598 1541.09 195.781 1541.27 196.302C1541.45 196.842 1550.61 197.423 1562.54 197.652C1580.33 197.994 1585.54 197.735 1597 195.94C1604.43 194.776 1617.03 193.607 1625 193.342C1641.24 192.801 1645.26 191.841 1644.8 188.618C1644.42 185.983 1644.92 186.008 1624 187.557ZM261 207.561C252.027 208.463 242.806 208.693 233.5 208.245C217.508 207.475 182.789 207.312 160 207.9C144.879 208.289 129.561 209.917 127.184 211.386C125.825 212.226 125.606 214.639 126.821 215.389C127.272 215.668 133.235 215.48 140.071 214.971C168.867 212.826 205.096 212.423 222.355 214.057C235.551 215.305 253.448 214.749 274.751 212.428C283.163 211.511 286.106 206.642 278.422 206.352C276.265 206.27 268.425 206.815 261 207.561ZM1200.5 210.737C1181.89 212.436 1169.82 212.5 1154.5 210.978C1147.58 210.291 1135.15 210.139 1121 210.569C1108.62 210.944 1095.58 211.173 1092 211.076C1084.14 210.863 1060.98 213.624 1059.67 214.93C1059.16 215.445 1059.02 216.598 1059.36 217.494C1059.89 218.869 1061.04 219.023 1066.74 218.483C1081.18 217.116 1108.64 216.452 1134 216.857C1195.54 217.84 1217.11 216.977 1220.07 213.415C1221.6 211.568 1220.52 208.965 1218.28 209.138C1217.3 209.213 1209.3 209.933 1200.5 210.737ZM1400.75 211.81C1397.61 212.07 1396.91 212.554 1396.41 214.81C1396.09 216.29 1395.37 218.986 1394.81 220.803C1394.26 222.62 1394.09 225.209 1394.43 226.557C1394.76 227.905 1395.05 281.021 1395.06 344.591L1395.08 460.174L1397.5 462.592L1399.92 465.01L1582.71 464.755L1765.5 464.5L1765.75 338.25L1766.01 212L1759.25 211.981C1662.2 211.707 1403.48 211.584 1400.75 211.81ZM474.253 214.25C472.193 216.846 471.715 224.285 471.924 250.5C472.043 265.35 472.221 318.996 472.32 369.714C472.49 456.774 472.6 462.028 474.286 463.714C475.988 465.416 484.768 465.5 660.124 465.5H844.177L846.005 463.243C847.755 461.081 847.826 455.792 847.666 338.646C847.528 236.604 847.272 216.033 846.128 214.654C844.86 213.126 830.632 213 660 213C513.392 213 475.04 213.258 474.253 214.25ZM1403.75 217.816C1400.96 218.138 1400.69 218.816 1401.85 222.647C1402.37 224.382 1414.99 234 1416.74 234C1417 234 1418.85 235.275 1420.86 236.834C1422.86 238.392 1425.21 239.923 1426.07 240.235C1426.94 240.547 1434.94 245.571 1443.85 251.401C1452.76 257.23 1460.19 262 1460.37 262C1460.74 262 1475.57 271.555 1482 275.942C1491.72 282.568 1500.3 288 1501.06 288C1501.5 288 1502.45 288.573 1503.18 289.272C1504.66 290.7 1515.6 298 1516.26 298C1516.49 298 1523 302.163 1530.72 307.25C1546.66 317.76 1560.38 326.563 1565.41 329.5C1569.4 331.832 1580.27 339.108 1581 339.934C1582.03 341.101 1588.22 344 1589.68 344C1590.51 344 1592.39 343.175 1593.85 342.168C1595.31 341.16 1600.32 338.213 1605 335.62C1609.68 333.026 1615.38 329.688 1617.68 328.202C1619.98 326.716 1627.86 321.696 1635.18 317.047C1642.51 312.398 1648.95 308.237 1649.5 307.801C1653.86 304.34 1662.91 298 1663.49 298C1663.89 298 1670.08 293.387 1677.25 287.75C1684.41 282.113 1692.65 275.7 1695.54 273.5C1698.43 271.3 1704.46 266.222 1708.94 262.216C1713.42 258.21 1719.32 253.331 1722.04 251.374C1727.02 247.8 1741.98 239.39 1745.25 238.333C1746.21 238.022 1747 237.424 1747 237.005C1747 236.586 1748.35 235.683 1750 235C1751.65 234.317 1753 233.394 1753 232.95C1753 231.623 1756.04 229 1757.57 229C1759.55 229 1759.34 233.045 1757.23 235.551C1754.14 239.214 1749.15 242.416 1736.5 248.84C1729.41 252.44 1711.51 266.046 1706 272.025C1705.72 272.323 1700.78 276.256 1695 280.766C1689.22 285.276 1683.81 289.549 1682.97 290.262C1682.13 290.975 1679.32 293.085 1676.72 294.949C1674.12 296.814 1672 298.713 1672 299.17C1672 299.626 1671.6 300 1671.1 300C1670.61 300 1664.42 303.938 1657.35 308.75C1644.39 317.572 1624.52 330.651 1621.26 332.498C1620.29 333.048 1616.58 335.356 1613 337.628C1609.42 339.9 1604.7 342.678 1602.5 343.801C1593.86 348.211 1593.74 347.762 1605.72 355.77C1611.67 359.747 1616.89 363 1617.31 363C1617.74 363 1620.47 364.8 1623.38 367C1626.3 369.2 1629.04 371 1629.47 371C1629.91 371 1634.6 373.845 1639.88 377.321C1645.17 380.798 1650.84 384.474 1652.47 385.491C1654.11 386.508 1655.91 387.73 1656.47 388.208C1658.43 389.86 1671.3 398 1671.96 398C1672.32 398 1673.51 398.788 1674.59 399.75C1675.67 400.712 1678.12 402.366 1680.03 403.425C1681.94 404.483 1683.72 405.625 1684 405.961C1684.28 406.297 1688.1 408.793 1692.5 411.507C1696.9 414.221 1703.32 418.367 1706.76 420.721C1710.2 423.074 1713.21 425 1713.45 425C1713.69 425 1717.4 427.386 1721.69 430.301C1725.99 433.217 1731.7 436.93 1734.39 438.551C1737.07 440.173 1740.27 442.175 1741.5 443C1742.73 443.825 1746.38 446.102 1749.62 448.06C1753.27 450.272 1755.61 452.4 1755.8 453.682C1756.17 456.202 1753.34 457.528 1751.27 455.806C1749.28 454.162 1745.9 452.176 1743.75 451.399C1742.79 451.051 1742 450.369 1742 449.883C1742 449.398 1741.58 449 1741.07 449C1740.56 449 1737.52 447.273 1734.32 445.162C1712.58 430.826 1707.39 427.455 1706.5 427.107C1705.95 426.891 1704.16 425.766 1702.52 424.607C1700.88 423.448 1698.77 422.05 1697.84 421.5C1690.3 417.084 1686.21 414.479 1684.5 413.021C1683.4 412.082 1678.9 409.173 1674.5 406.556C1670.1 403.939 1665.6 400.991 1664.5 400.004C1663.4 399.018 1660.92 397.362 1659 396.325C1654.78 394.052 1647.58 389.484 1629.1 377.348C1621.43 372.314 1610.51 365.374 1604.83 361.925C1599.15 358.475 1593.82 355.125 1593 354.479C1589.89 352.043 1588.02 352.2 1581.83 355.413C1576.18 358.349 1561.95 366.468 1558 369.013C1557.18 369.544 1554.75 370.925 1552.61 372.082C1550.47 373.238 1548.22 374.618 1547.61 375.147C1545.9 376.633 1532.09 386.55 1526.5 390.307C1523.75 392.156 1520.84 394.465 1520.04 395.439C1519.24 396.412 1517.66 397.631 1516.54 398.147C1513.44 399.575 1510.82 401.227 1506.89 404.25C1504.92 405.762 1503.03 407 1502.68 407C1502.33 407 1499.14 408.949 1495.59 411.331C1492.04 413.713 1484.72 417.806 1479.32 420.426C1473.92 423.046 1467.92 426.044 1466 427.089C1464.08 428.133 1458.68 430.857 1454 433.143C1434.95 442.456 1427.48 446.355 1427.17 447.156C1426.98 447.62 1426.22 448 1425.47 448C1424.72 448 1422.09 449.358 1419.63 451.019C1417.17 452.679 1413.5 454.731 1411.47 455.577C1409.44 456.424 1408.04 457.369 1408.34 457.678C1408.99 458.328 1761.88 458.865 1763.75 458.218C1764.74 457.876 1765 432.91 1765 337.893V218L1760.75 217.86C1751.64 217.561 1406.34 217.518 1403.75 217.816ZM479 222.082C479 225.316 479.509 225.983 484.25 228.965C487.137 230.781 491.3 233.445 493.5 234.884C495.7 236.323 498.175 237.843 499 238.262C500.579 239.063 501.276 239.512 513.362 247.5C517.523 250.25 526.584 256.1 533.498 260.5C540.412 264.9 549.765 270.888 554.284 273.807C562.313 278.994 570.81 284.399 574.186 286.467C575.114 287.035 579.839 290.108 584.686 293.296C589.534 296.484 596.397 300.984 599.938 303.296C603.479 305.608 607.377 308.175 608.6 309C609.823 309.825 613.001 311.813 615.662 313.417C618.323 315.022 625.45 319.571 631.5 323.527C637.55 327.483 643.85 331.471 645.5 332.388C647.15 333.306 650.91 335.797 653.855 337.924C656.801 340.051 660.942 342.572 663.058 343.526L666.906 345.261L680.703 337.248C697.07 327.741 718.25 314.402 729.817 306.315C740.385 298.927 767.303 279.08 767.984 278.174C768.268 277.797 770.075 276.299 772 274.846C773.925 273.393 780.225 268.05 786 262.973C797.8 252.6 800.67 250.612 815.5 242.537C823.615 238.119 829.533 234.052 830.758 232.053C832.069 229.915 835.439 229.283 836.487 230.979C837.219 232.163 835.277 236.026 833.087 237.746C828.591 241.278 820.394 246.389 814.082 249.595C810.186 251.575 806.754 253.589 806.456 254.07C806.159 254.552 804.472 255.633 802.708 256.471C799.539 257.978 794.814 261.81 788 268.4C786.075 270.261 781.35 274.31 777.5 277.398C773.65 280.485 768.843 284.358 766.817 286.005C764.792 287.652 762.692 289 762.151 289C761.61 289 760.342 290.068 759.333 291.373C758.325 292.679 753.9 296.142 749.5 299.07C745.1 301.998 741.05 304.786 740.5 305.266C738.401 307.096 719.429 320.241 718 320.855C717.175 321.21 713.8 323.277 710.5 325.449C692.608 337.223 674.548 348 672.709 348C672.227 348 671.983 348.407 672.167 348.905C672.481 349.756 687.859 360.112 700.698 368.117C703.889 370.107 711.312 374.832 717.193 378.617C738.389 392.261 740.37 393.529 743.555 395.5C747.452 397.911 752.312 401.252 753 401.992C753.275 402.287 757.55 404.964 762.5 407.939C767.45 410.915 776.225 416.571 782 420.509C787.775 424.447 794.525 428.799 797 430.181C799.475 431.562 804.148 434.449 807.385 436.596C810.622 438.743 816.472 442.624 820.385 445.22C824.298 447.816 828.451 450.369 829.614 450.893C833.134 452.482 833.84 457 830.568 457C829.845 457 825.79 454.863 821.556 452.25C817.323 449.637 812.878 446.922 811.68 446.215C810.481 445.509 806.125 442.705 802 439.985C797.875 437.266 791.35 433.134 787.5 430.803C783.65 428.473 780.275 426.281 780 425.932C779.281 425.022 768.557 418.176 764.25 415.879C763.013 415.219 762 414.301 762 413.839C762 413.378 761.539 413 760.975 413C760.411 413 754.224 409.263 747.225 404.696C740.226 400.129 732.475 395.166 730 393.666C727.525 392.167 722.946 389.266 719.824 387.22C716.702 385.174 709.572 380.575 703.98 377C698.388 373.425 691.267 368.828 688.156 366.784C685.045 364.74 681.922 362.773 681.215 362.413C680.508 362.053 676.929 359.788 673.262 357.38C669.594 354.971 666.172 353 665.656 353C664.67 353 655.859 357.136 655 358.002C654.192 358.817 643.914 365 643.368 365C642.127 365 624.81 375.744 618.5 380.428C614.65 383.286 609.26 387.171 606.522 389.062C603.784 390.953 600.409 393.542 599.022 394.815C597.635 396.089 595.15 397.845 593.5 398.718C591.85 399.591 584.65 404.181 577.5 408.918C570.35 413.655 559.55 419.955 553.5 422.918C547.45 425.881 539.8 429.673 536.5 431.344C528.806 435.24 526.977 436.146 518.5 440.257C508.605 445.057 500.586 449.291 500 450.024C499.725 450.368 496.979 451.914 493.898 453.459C490.817 455.004 487.217 457.097 485.898 458.112C483.565 459.906 488.352 459.956 662.736 459.978L841.971 460L841.972 340.05C841.972 248.502 841.691 219.927 840.784 219.366C840.13 218.963 758.462 218.602 659.298 218.566L479 218.5V222.082ZM478.923 248.71C478.444 352.974 479.016 455.467 480.077 455.205C480.734 455.043 483.122 453.656 485.385 452.124C490.78 448.472 509.162 438.501 520.5 433.078C556.492 415.86 567.666 409.777 582.678 399.229C586.803 396.331 591.489 393.282 593.089 392.454C594.69 391.626 596 390.607 596 390.19C596 389.773 597.462 388.587 599.25 387.555C601.038 386.523 605.875 383.136 610 380.029C620.431 372.171 628.559 366.756 636.08 362.657C639.611 360.733 646.074 357.106 650.442 354.598C654.81 352.091 658.86 349.87 659.442 349.664C660.479 349.297 656.225 345.099 654.749 345.033C654.336 345.015 649.324 341.962 643.61 338.25C637.896 334.538 629.572 329.25 625.11 326.5C620.649 323.75 613.962 319.393 610.249 316.819C606.537 314.244 599.675 309.801 595 306.946C590.325 304.091 582.675 299.249 578 296.185C569.832 290.832 558.252 283.448 554.896 281.453C554.014 280.929 549.818 278.137 545.573 275.25C541.327 272.363 537.674 270 537.456 270C537.237 270 535.133 268.7 532.779 267.11C520.135 258.572 493.077 241 492.574 241C492.253 241 489.068 238.957 485.495 236.46L479 231.92L478.923 248.71ZM1401.34 343.5C1401.32 404.825 1401.58 454.98 1401.91 454.957C1402.23 454.933 1404.3 453.823 1406.5 452.491C1420.74 443.867 1436.19 435.574 1455 426.452C1476.97 415.8 1477.83 415.366 1484.5 411.665C1493.42 406.713 1516.2 391.598 1526.86 383.56C1543.84 370.747 1555.84 363.073 1576.08 352.09L1583.35 348.145L1570.93 340.163C1564.09 335.772 1555.12 330.045 1551 327.436C1546.88 324.827 1539 319.758 1533.5 316.173C1528 312.587 1521.03 308.087 1518 306.173C1514.97 304.258 1508.68 300.173 1504.01 297.096C1499.33 294.018 1495.06 291.315 1494.51 291.088C1493.95 290.862 1486.52 286.097 1478 280.5C1469.48 274.903 1462.05 270.137 1461.5 269.91C1460.95 269.682 1456.45 266.841 1451.5 263.596C1446.55 260.351 1436.65 253.879 1429.5 249.214C1422.35 244.549 1413.5 238.768 1409.84 236.366C1406.18 233.965 1402.78 232 1402.28 232C1401.73 232 1401.35 276.884 1401.34 343.5ZM143.58 260.944C133.519 261.508 131.441 262.462 134.587 265.072C135.859 266.128 140.192 266.418 153.37 266.332C162.792 266.271 173.069 266.579 176.209 267.018C179.35 267.457 191.05 268.108 202.209 268.464C213.369 268.821 228.8 269.533 236.5 270.046C259.134 271.556 267.721 271.298 274.535 268.904C280.437 266.829 281.955 265.678 281.985 263.25C282.006 261.491 276.855 261.68 270.801 263.66C266.212 265.161 263.321 265.207 240.613 264.144C226.801 263.497 208.975 262.743 201 262.468C193.025 262.193 180.673 261.525 173.55 260.984C166.428 260.443 159.003 260.087 157.05 260.194C155.098 260.3 149.036 260.638 143.58 260.944ZM1068.43 266.3C1066.25 267.515 1066.72 269.943 1069.32 270.932C1070.6 271.417 1078.81 271.574 1087.57 271.28C1097.33 270.953 1106.32 271.187 1110.76 271.884C1114.76 272.51 1128.03 273.278 1140.26 273.589C1152.49 273.901 1163.11 274.351 1163.86 274.59C1164.61 274.828 1174.06 275.299 1184.86 275.634C1203.11 276.202 1204.99 276.093 1211.5 274.095C1220.11 271.45 1221.46 270.64 1220.68 268.601C1219.9 266.573 1214.95 266.523 1209.32 268.487C1204.06 270.319 1198.13 270.443 1180.5 269.091C1172.8 268.501 1157.27 268.01 1146 268.001C1134.73 267.992 1121.68 267.451 1117 266.798C1107.38 265.455 1070.62 265.078 1068.43 266.3ZM29.664 292.819C28.13 294.513 28 304.725 28 423.174V551.69L30.105 553.595C32.132 555.429 34.752 555.5 100.693 555.5H169.177L170.917 553.351C172.551 551.333 172.652 543.377 172.578 422.52C172.502 297.078 172.452 293.804 170.591 292.443C169.002 291.281 157.164 291.041 100.004 291.014C34.589 290.983 31.248 291.068 29.664 292.819ZM205.578 293.25C204.307 295.198 204.105 312.705 204.074 423.612L204.038 551.725L206.124 553.612C208.126 555.424 210.977 555.5 276.951 555.5C333.745 555.5 345.98 555.261 347.346 554.128C348.869 552.864 349 542.48 349 422.913C349 295.565 348.963 293.05 347.066 292.035C345.786 291.35 321.769 291 276.089 291H207.046L205.578 293.25ZM36.13 298.148C32.976 299.314 33.746 302.425 37.364 303.134C38.574 303.372 39.942 305.431 41.261 309C42.378 312.025 43.677 314.65 44.146 314.833C44.616 315.017 45 315.72 45 316.397C45 317.074 47.025 320.647 49.5 324.338C51.975 328.028 54 331.271 54 331.544C54 331.816 55.059 333.718 56.354 335.77C57.649 337.821 59.038 340.625 59.442 342C60.317 344.98 69.82 364.09 71.104 365.45C71.597 365.972 72 367.022 72 367.782C72 369.247 77.407 382.461 79.045 385C79.577 385.825 80.297 387.175 80.645 388C80.993 388.825 83.405 394 86.004 399.5C88.604 405 92.927 414.542 95.612 420.704C98.296 426.866 100.801 431.591 101.177 431.204C102.774 429.562 124.22 385.953 126.59 379.529C128.016 375.663 129.768 371.15 130.483 369.5C133.696 362.087 138 350.184 138 348.712C138 347.822 138.4 346.06 138.889 344.797C139.378 343.534 140.785 338.9 142.016 334.5C143.247 330.1 145.573 322.225 147.185 317C148.797 311.775 150.54 306.118 151.058 304.429C151.576 302.74 152 300.432 152 299.299C152 297.245 151.892 297.241 95.13 297.3C63.851 297.333 37.301 297.714 36.13 298.148ZM158.592 299.316C157.84 300.517 156.937 303.3 156.587 305.5C155.971 309.361 153.042 319.412 146.917 338.678C145.313 343.726 144 348.733 144 349.805C144 351.58 140.026 362.609 136.44 370.784C135.648 372.59 135 374.482 135 374.989C135 376.149 127.153 393.437 124.102 399C120.808 405.005 110.992 425.726 110.996 426.667C110.998 427.308 110.642 427.983 110.205 428.167C109.195 428.59 105 436.683 105 438.208C105 440.794 114.024 463.901 117.22 469.5C119.702 473.848 124.504 481.766 127.731 486.83C131.089 492.102 138 508.799 138 511.643C138 512.453 139.072 515.035 140.382 517.382C141.693 519.73 143.802 524.541 145.07 528.075C147.346 534.417 149.683 538.946 151.266 540.083C151.712 540.404 152.173 541.979 152.289 543.583C152.469 546.066 152.102 546.546 149.827 546.809C147.594 547.067 146.739 546.408 144.64 542.809C143.258 540.439 141.384 536.25 140.476 533.5C139.569 530.75 137.787 526.25 136.517 523.5C132.202 514.158 129 506.065 129 504.502C129 502.33 124.145 492.94 116.187 479.718C112.473 473.548 107.719 464 105.622 458.5C103.525 453 101.464 447.879 101.042 447.12C100.515 446.171 98.622 448.676 94.995 455.12C92.091 460.279 87.304 468.464 84.357 473.308C81.411 478.152 79 482.305 79 482.537C79 482.768 76.75 486.041 74 489.81C71.25 493.579 69 496.941 69 497.281C69 497.915 63.047 507.098 62.052 508C60.784 509.149 41.013 547.431 41.002 548.758C41.001 548.899 69.013 548.899 103.25 548.758L165.5 548.5V423.112V297.723L162.73 297.428C160.76 297.218 159.564 297.764 158.592 299.316ZM212.941 298.218C210.794 299.012 210.736 299.149 211.607 301.418C211.941 302.288 213.048 303 214.067 303C215.386 303 216.276 304.225 217.158 307.25C217.839 309.587 219.368 313.075 220.557 315C221.746 316.925 224.02 320.698 225.609 323.385C227.199 326.072 229.281 329.447 230.235 330.885C231.189 332.323 232.399 334.469 232.923 335.653C233.448 336.837 234.354 338.101 234.938 338.462C235.522 338.823 236 339.935 236 340.935C236 342.93 239.444 350.719 243.767 358.5C245.295 361.25 248.276 367.775 250.391 373C252.507 378.225 257.275 388.8 260.986 396.5C264.698 404.2 269.893 415.338 272.531 421.251L277.328 432.003L280.808 425.751C283.848 420.289 300.713 385.966 303.042 380.5C304.017 378.213 310.26 361.458 313.848 351.5C314.798 348.862 319.798 330.892 321.924 322.476C322.344 320.814 323.146 318.564 323.706 317.476C324.666 315.616 327.614 303.879 328.222 299.5C328.497 297.52 327.926 297.5 271.691 297.5C240.445 297.5 214.008 297.823 212.941 298.218ZM335.555 298.588C334.859 299.284 333.73 302.696 333.047 306.169C331.86 312.202 330.483 316.964 323.92 337.747C322.314 342.832 321 347.706 321 348.576C321 349.447 319.858 353.161 318.463 356.829C317.067 360.498 314.558 367.1 312.887 371.5C309.127 381.401 303.345 393.819 290.783 418.975L281.057 438.45L284.16 446.975C285.866 451.664 288.328 457.586 289.631 460.135C290.934 462.685 292 465.315 292 465.98C292 466.645 293.978 470.184 296.395 473.845C305.388 487.462 309.744 496.09 313.613 507.946C314.969 512.101 317.411 518.236 319.039 521.579C320.668 524.922 322 528.17 322 528.795C322 530.182 325.232 537.297 326.191 538.023C326.572 538.31 327.566 539.862 328.4 541.47C330.107 544.76 329.09 547 325.89 547C324.298 547 319 540.405 319 538.424C319 538.085 316.117 530.988 312.594 522.654C309.071 514.319 305.695 505.65 305.093 503.388C303.864 498.776 299.945 491.115 294.037 481.772C288.886 473.629 283.916 463.431 280.379 453.75C278.822 449.488 277.312 446.003 277.024 446.007C276.736 446.01 274.749 449.273 272.609 453.257C267.268 463.2 258.871 477.22 257.298 478.821C256.584 479.548 256 480.584 256 481.124C256 481.664 253.584 485.573 250.631 489.812C247.678 494.05 244.415 499.089 243.38 501.009C242.345 502.929 240.696 505.625 239.715 507C235.322 513.161 232.841 517.596 225.289 532.788L217.229 549H279.615H342L342.03 514.75C342.174 350.828 342.059 298.725 341.551 298.217C340.433 297.099 336.82 297.323 335.555 298.588ZM959.602 298.887C958.012 300.645 957.881 309.908 957.697 433.475L957.5 566.177L959.861 568.088C962.136 569.93 964.8 570 1032.96 570C1100.21 570 1103.77 569.91 1105.34 568.171C1106.87 566.489 1107 555.72 1107 433.671C1107 302.333 1106.98 300.98 1105 299C1103.04 297.038 1101.67 297 1032.16 297C963.991 297 961.245 297.071 959.602 298.887ZM1141.65 299.25C1140.48 301.143 1140.24 322.368 1140.16 433.159C1140.07 564.197 1140.08 564.83 1142.11 567.409L1144.15 570H1215H1285.85L1287.86 567.454C1289.84 564.934 1289.86 563.585 1289.68 433.059C1289.51 304.94 1289.45 301.15 1287.59 299.105C1285.69 297.003 1285.61 297 1214.37 297H1143.05L1141.65 299.25ZM383.191 298.85C381.921 299.207 380.909 299.837 380.941 300.25C380.973 300.663 381 301.858 381 302.906C381 304.311 381.519 304.677 382.972 304.297C385.047 303.754 386.243 305.63 387.479 311.368C387.819 312.945 388.405 313.928 388.781 313.552C389.812 312.521 389.005 300.711 387.804 299.264C386.667 297.894 386.605 297.888 383.191 298.85ZM964.564 303.769C964.254 304.08 964.007 305.946 964.015 307.917C964.025 310.288 964.32 311.044 964.885 310.152C966.579 307.479 969.28 309.41 971.022 314.537C971.963 317.307 976.45 325.632 980.993 333.037C985.536 340.442 989.816 348.075 990.504 350C991.193 351.925 994.008 357.846 996.76 363.157C999.512 368.468 1002.57 374.993 1003.56 377.657C1004.55 380.321 1005.96 383.388 1006.68 384.473C1007.41 385.557 1008.01 387.132 1008.02 387.973C1008.03 388.813 1012.08 397.59 1017.02 407.478C1021.96 417.365 1026 426.008 1026 426.683C1026 427.358 1027.31 430.743 1028.92 434.205C1030.52 437.667 1032.01 441.136 1032.22 441.914C1032.63 443.42 1036.22 438.038 1037.51 433.971C1037.91 432.72 1039.45 429.627 1040.94 427.098C1051.46 409.243 1065.31 376.951 1071.01 357C1073.28 349.025 1076.26 339.204 1077.63 335.176C1081.22 324.573 1084.86 311.743 1085.61 307.017L1086.27 302.918L1025.7 303.062C992.385 303.141 964.874 303.459 964.564 303.769ZM1093.04 303.978C1092.52 304.297 1091.67 307.02 1091.15 310.029C1090.63 313.038 1089.72 316.85 1089.12 318.5C1088.52 320.15 1086.24 327.35 1084.05 334.5C1081.86 341.65 1078.27 353.35 1076.08 360.5C1072.52 372.113 1069.78 379.985 1065.47 391C1063.74 395.443 1052.61 418.368 1049.94 423C1048.84 424.925 1045.41 431.626 1042.33 437.891L1036.73 449.281L1039.97 456.891C1041.75 461.076 1043.56 465.85 1043.98 467.5C1044.41 469.15 1045.49 471.85 1046.37 473.5C1047.26 475.15 1047.99 476.911 1047.99 477.412C1048 478.283 1050.49 482.487 1057.53 493.5C1061.7 500.025 1066.43 510.263 1070.56 521.703C1074.7 533.149 1079.22 543.505 1083.76 551.911C1086.59 557.147 1087.04 558.715 1086.12 560.173C1085.51 561.163 1085 562.223 1085 562.528C1085 562.834 1088.49 562.953 1092.75 562.792L1100.5 562.5L1100.76 433.361L1101.03 304.222L1097.5 303.81C1095.56 303.584 1093.55 303.659 1093.04 303.978ZM1151.25 303.749C1147.08 304.108 1147 304.185 1147.02 307.807C1147.03 310.539 1147.28 311.11 1147.99 310C1149.47 307.674 1152.11 309.917 1153.52 314.709C1154.19 316.97 1155.62 320.098 1156.7 321.66C1157.79 323.222 1158.96 325.296 1159.31 326.27C1159.66 327.243 1161.69 330.618 1163.81 333.77C1165.93 336.921 1168.82 341.75 1170.24 344.5C1175.36 354.468 1184.88 374.626 1186.99 380C1191.95 392.586 1195.55 400.816 1198.35 406C1204.52 417.412 1206.98 422.548 1206.99 424.05C1206.99 424.902 1207.37 426.027 1207.83 426.55C1208.28 427.072 1210.15 430.999 1211.97 435.275L1215.29 443.05L1219.53 434.775C1221.87 430.224 1226.56 421.1 1229.97 414.5C1233.37 407.9 1237.3 399.8 1238.69 396.5C1240.09 393.2 1242.06 388.7 1243.07 386.5C1245.8 380.55 1249.15 370.868 1253.96 355C1255.71 349.225 1258.68 339.578 1260.57 333.562C1262.46 327.546 1264 321.899 1264 321.012C1264 320.126 1264.44 318.957 1264.98 318.415C1265.84 317.563 1267.85 309.518 1268.34 305C1268.48 303.683 1261.6 303.493 1212 303.441C1180.92 303.409 1153.59 303.547 1151.25 303.749ZM1275.45 304.692C1274.7 305.447 1273.79 307.737 1273.45 309.782C1273.1 311.827 1271.99 316.2 1270.98 319.5C1269.97 322.8 1267.72 330.225 1265.97 336C1264.22 341.775 1262.22 348.3 1261.51 350.5C1260.81 352.7 1259.46 357.2 1258.52 360.5C1256.17 368.766 1253.83 375.317 1252.83 376.45C1252.38 376.972 1252 378.254 1252 379.299C1252 381.512 1251.89 381.77 1240.48 406.5C1236.86 414.359 1231.88 424.374 1228.77 430.038C1226.23 434.673 1225.83 435.434 1222.13 442.636C1220.96 444.911 1220 447.771 1220 448.992C1220 450.213 1222.56 457.577 1225.69 465.356C1230.87 478.234 1233.98 484.233 1241.76 496.342C1244.89 501.206 1247.91 508.019 1252.49 520.5C1254.31 525.45 1256.35 531.019 1257.04 532.876C1257.72 534.733 1259.79 539.357 1261.64 543.152C1263.49 546.948 1265 550.307 1265 550.619C1265 550.93 1265.9 552.329 1267 553.727C1269.46 556.861 1269.56 559.586 1267.25 560.883C1264.47 562.443 1267.55 563.148 1275.6 562.799L1282.5 562.5L1282.75 433.364L1283.01 304.228L1279.92 303.774C1278.07 303.504 1276.27 303.875 1275.45 304.692ZM1321.98 307.25C1321.55 355.822 1321.7 563 1322.16 563C1322.53 563 1324.67 559.202 1326.91 554.559L1331 546.118V440.027C1331 324.519 1331.44 333.943 1325.47 323C1321.76 316.183 1322.46 307.647 1326.47 310.971C1327.22 311.6 1328.14 313.887 1328.51 316.052C1329.69 323.019 1331 321.44 1331 313.059V305H1326.5C1322.51 305 1322 305.253 1321.98 307.25ZM34.18 428.549C34.247 493.751 34.651 546.738 35.077 546.299C35.504 545.86 38.165 540.775 40.991 535C51.426 513.679 53.458 510.16 66.898 490.134C68.879 487.182 70.937 484.032 71.472 483.134C72.007 482.235 74.306 478.575 76.582 475C81.066 467.957 84.117 462.628 90.32 451C92.52 446.875 94.887 442.665 95.579 441.644C97.246 439.185 96.622 437.389 86.498 415.5C76.446 393.768 67.147 373.08 66.495 371C66.065 369.625 64.196 365.638 62.342 362.139C60.488 358.641 57.315 351.891 55.291 347.139C53.267 342.388 50.08 336.25 48.208 333.5C46.336 330.75 42.56 324.337 39.816 319.25C37.072 314.163 34.654 310 34.443 310C34.231 310 34.113 363.347 34.18 428.549ZM211.073 428.25C211.072 493.563 211.22 547 211.403 547C211.902 547 224 522.354 224 521.336C224 520.851 225.575 518.063 227.5 515.14C229.425 512.217 231 509.626 231 509.382C231 508.927 248.536 481.875 252.292 476.536C254.375 473.574 263.231 458.139 269.726 446.149C273.608 438.982 273.569 438.034 269.003 428.5C267.423 425.2 264.344 418.45 262.162 413.5C259.98 408.55 256.169 400.225 253.694 395C251.219 389.775 247.533 381.45 245.504 376.5C243.475 371.55 239.891 363.9 237.541 359.5C235.191 355.1 232.452 349.25 231.455 346.5C230.458 343.75 227.698 338.448 225.321 334.719C222.945 330.989 221 327.539 221 327.052C221 326.565 220.607 326.017 220.126 325.833C219.645 325.65 217.412 321.9 215.163 317.5L211.075 309.5L211.073 428.25ZM381.031 311C380.742 313.155 380.452 549 380.739 549C380.87 549 382.783 545.41 384.989 541.022L389 533.044V429.664V326.284L385.594 319.75C383.721 316.156 381.973 312.38 381.71 311.358C381.376 310.058 381.172 309.951 381.031 311ZM964.068 437.25C964.03 505.863 964.209 562 964.464 562C964.719 562 968.312 555.137 972.448 546.75C982.268 526.839 985.409 521.313 995.222 506.684C1004.88 492.281 1014.78 476.238 1020.02 466.5C1030.04 447.857 1029.29 449.804 1027.7 446.5C1026.9 444.85 1025.44 441.475 1024.45 439C1023.46 436.525 1021.9 432.7 1020.98 430.5C1020.07 428.3 1018.7 424.925 1017.96 423C1017.21 421.075 1015.15 417.025 1013.4 414C1009.28 406.92 1005 397.551 1005 395.623C1005 394.795 1004.63 393.889 1004.18 393.61C1003.73 393.331 1002.11 389.817 1000.6 385.801C999.078 381.785 995.668 374.225 993.019 369C990.37 363.775 987.174 357.025 985.917 354C984.66 350.975 981.577 345.33 979.066 341.456C974.879 334.997 967.54 321.065 965.129 315C964.462 313.322 964.113 353.521 964.068 437.25ZM1147.02 324.5C1146.76 359.504 1147.07 560.408 1147.39 560.725C1147.6 560.938 1149.21 558.049 1150.96 554.306C1152.71 550.563 1154.63 546.604 1155.23 545.509C1155.83 544.413 1158.13 539.913 1160.35 535.509C1164.35 527.556 1171.69 514.958 1172.88 514C1173.22 513.725 1174.14 512.27 1174.91 510.767C1175.69 509.264 1177.15 507.145 1178.16 506.059C1179.17 504.972 1180 503.808 1180 503.472C1180 503.136 1181.28 500.979 1182.85 498.68C1186.87 492.766 1199.66 471.367 1206.42 459.229L1212.14 448.957L1210.22 445.729C1209.17 443.953 1206.83 438.9 1205.02 434.5C1200.31 423.082 1195.03 411.749 1193.6 410C1192.93 409.175 1191.56 406.475 1190.57 404C1189.58 401.525 1187.43 396.35 1185.8 392.5C1184.17 388.65 1182.48 384.6 1182.04 383.5C1181.6 382.4 1178.75 376.325 1175.71 370C1172.68 363.675 1168.97 355.8 1167.46 352.5C1165.96 349.2 1162.32 342.626 1159.37 337.892C1156.41 333.157 1154 328.918 1154 328.47C1154 328.023 1153.3 326.885 1152.45 325.94C1151.59 324.995 1150.04 322.035 1148.99 319.361L1147.09 314.5L1147.02 324.5ZM1029.97 460.769C1028.61 463.371 1027.28 465.725 1027 466C1026.72 466.275 1025.46 468.525 1024.19 471C1022.93 473.475 1021.13 476.705 1020.2 478.178C1019.26 479.652 1016.53 484.152 1014.12 488.178C1011.7 492.205 1004.7 503.15 998.551 512.5C992.401 521.85 984.559 535.35 981.122 542.5C977.686 549.65 974.228 556.694 973.437 558.154C972.647 559.614 972 561.308 972 561.919C972 562.72 987.152 563.011 1026.38 562.965C1056.29 562.93 1081.01 562.653 1081.32 562.35C1081.62 562.047 1080.47 559.257 1078.77 556.15C1073.1 545.835 1065 527.378 1065 524.792C1065 521.957 1053.59 498.19 1048.85 491.136C1044.45 484.601 1040.59 476.539 1037.06 466.5C1035.31 461.55 1033.56 457.171 1033.16 456.769C1032.76 456.367 1031.33 458.167 1029.97 460.769ZM1213.66 458.829C1212.75 459.835 1212 460.953 1212 461.314C1212 461.675 1210.72 464.114 1209.17 466.735C1207.61 469.356 1202.77 477.494 1198.42 484.821C1189.32 500.134 1189.17 500.359 1182.5 510.159C1179.75 514.196 1177.32 517.95 1177.09 518.5C1176.87 519.05 1175.68 520.85 1174.46 522.5C1173.23 524.15 1171.04 527.75 1169.6 530.5C1168.16 533.25 1166.59 536.175 1166.11 537C1164.42 539.895 1154 561.735 1154 562.374C1154 563.412 1263.9 562.964 1264.55 561.923C1264.86 561.416 1264.75 561 1264.29 561C1263.84 561 1261.27 556.612 1258.59 551.25C1255.91 545.888 1253.15 540.375 1252.45 539C1251.76 537.625 1249.52 531.55 1247.49 525.5C1245.45 519.45 1243.45 514.05 1243.04 513.5C1242.63 512.95 1241.84 511.149 1241.28 509.499C1240.73 507.848 1237.18 501.323 1233.39 494.999C1227.42 485.035 1225.16 480.6 1220.9 470.5C1220.43 469.4 1219.11 465.913 1217.95 462.75C1216.8 459.587 1215.73 457 1215.58 457C1215.43 457 1214.57 457.823 1213.66 458.829ZM1543.5 485.086C1541.3 485.557 1536.58 485.929 1533 485.914C1529.42 485.898 1518.88 486.206 1509.57 486.597C1498.98 487.041 1483.98 486.826 1469.57 486.021C1448.69 484.857 1445.56 484.896 1436.62 486.436C1424.42 488.536 1420.02 489.972 1418.6 492.309C1417.73 493.746 1417.89 494.404 1419.38 495.516C1421 496.716 1421.66 496.709 1424.07 495.461C1429.81 492.497 1439.94 491.486 1459 491.975C1497.9 492.974 1544.43 492.185 1551.51 490.407C1554.77 489.59 1555.33 487.345 1552.74 485.527C1550.35 483.857 1549.45 483.814 1543.5 485.086ZM517 486.643C500.188 489.66 495 491.617 495 494.94C495 497.667 496.83 497.905 502.5 495.916C511.374 492.803 524.78 491.953 548.562 492.994C560.628 493.522 578.825 493.683 589 493.352C599.175 493.021 609.3 492.753 611.5 492.755C613.7 492.758 619.011 492.306 623.302 491.75C630.423 490.828 631.078 490.554 630.802 488.62C630.51 486.567 630.04 486.503 616 486.58C608.025 486.624 594.75 486.849 586.5 487.08C578.25 487.311 559.8 487.206 545.5 486.847C531.2 486.488 518.375 486.396 517 486.643ZM615.5 518.087C613.85 518.44 609.35 518.509 605.5 518.241C601.593 517.969 592.313 518.533 584.5 519.517C573.589 520.891 567.632 521.11 557.5 520.51C540.651 519.513 501.413 519.892 498.282 521.083C496.738 521.67 495.977 522.642 496.19 523.753C496.498 525.351 498.614 525.521 521.013 525.741C534.481 525.874 552.025 526.274 560 526.632C569.771 527.07 576.294 526.895 580 526.096C583.025 525.444 593.592 524.666 603.481 524.367C613.371 524.068 622.258 523.397 623.231 522.876C624.959 521.951 625.738 518.127 624.25 517.871C621.751 517.441 618.103 517.532 615.5 518.087ZM1512 518.061C1507.48 519.579 1492.67 520.512 1483.5 519.856C1471.43 518.992 1425.14 519.021 1422 519.895C1420.42 520.333 1419.5 521.312 1419.5 522.545C1419.5 524.438 1420.72 524.523 1458 525.24C1489.4 525.844 1498.81 525.706 1509.04 524.49C1515.94 523.671 1526.98 523 1533.59 523C1545.95 523 1548 522.408 1548 518.847C1548 517.243 1546.57 517.099 1531.25 517.157C1522.04 517.192 1513.38 517.599 1512 518.061ZM387.583 547.866C387.152 548.563 387.07 549.403 387.4 549.733C388.295 550.628 389.271 549.312 388.787 547.862C388.449 546.846 388.213 546.846 387.583 547.866ZM597 551.039C591.225 551.483 572.55 551.893 555.5 551.952C527.888 552.047 523.489 552.287 515.25 554.152C506.739 556.079 506 556.438 506 558.643C506 559.961 504.963 562.718 503.695 564.77C499.304 571.874 498.36 579.565 500.531 590.544C501.163 593.74 508.04 600.604 513 602.988C518.085 605.431 536.132 611.389 543.124 612.932C557.376 616.076 578.706 616.848 654 616.943C679.89 616.975 692.803 614.179 699.279 607.139C706.173 599.644 709.136 586.038 705.973 576.394C704.607 572.228 698.559 565.63 695.101 564.532C693.946 564.165 693 563.539 693 563.14C693 562.434 686.805 560.291 678.33 558.064C667.28 555.16 650.882 552.868 635 552.008C625.375 551.487 615.25 550.874 612.5 550.647C609.75 550.419 602.775 550.596 597 551.039ZM1444.5 551.573C1430.33 555.122 1429.52 555.462 1429.15 558.032C1428.96 559.375 1428.01 561.605 1427.04 562.987C1422.77 569.091 1420.67 583.376 1423.11 589.782C1424.35 593.037 1431.05 599.288 1436.27 602.059C1441.61 604.892 1460.47 611.033 1467 612.062C1470.03 612.539 1475.65 613.467 1479.5 614.125C1483.91 614.879 1501.13 615.419 1526 615.584C1547.73 615.728 1571.35 615.899 1578.5 615.964C1596.96 616.13 1607.28 614.842 1614.29 611.495C1624.57 606.584 1630.38 596.894 1630.27 584.848C1630.11 568.115 1620.92 560.888 1593 555.52C1586.94 554.356 1582.7 553.655 1566 551.062C1561.87 550.421 1544.92 550.299 1519.5 550.727C1470.2 551.559 1467.31 551.559 1458 550.735C1452.7 550.265 1448.74 550.511 1444.5 551.573ZM1669.43 552.386C1658.38 555.155 1658 555.377 1658 559.059C1658 560.677 1657.63 562 1657.17 562C1656.72 562 1655.25 564.329 1653.92 567.176C1650.83 573.787 1650.42 587.921 1653.21 592C1656.49 596.797 1664.82 602.368 1672.72 605.051C1677 606.504 1681.18 607.961 1682 608.289C1687.6 610.513 1693.65 612 1697.1 612C1699.32 612 1701.93 612.426 1702.9 612.946C1706.67 614.963 1725.74 616.043 1745.75 615.372L1766 614.694V611.853V609.013L1744.75 609.349C1717.59 609.779 1699.08 607.398 1680.12 601.032C1666.12 596.332 1664.23 595.298 1660.38 590.259C1657.97 587.089 1657.66 585.855 1657.77 579.756C1657.93 571.461 1661.02 565.258 1666.81 561.652C1672.42 558.152 1684.12 555.657 1690.88 556.517C1693.97 556.91 1700.55 557.125 1705.5 556.993C1726.41 556.439 1732.36 556.325 1748.75 556.167L1766 556V552.92V549.839L1736.25 550.632C1703.24 551.512 1700.4 551.516 1687.5 550.69C1680.12 550.217 1676.87 550.522 1669.43 552.386ZM825 557.226C818.675 557.625 800.675 557.907 785 557.852C755.398 557.748 749.649 558.379 743.504 562.405C737.276 566.486 733.251 576.361 734.467 584.576C734.918 587.623 736.136 589.678 739.285 592.71C744.539 597.766 745.783 598.399 758.488 602.473C774.244 607.526 800.878 611.629 811.616 610.658C815.402 610.315 829.17 610.027 842.211 610.018L865.923 610L866.211 589.12C866.37 577.635 866.352 565.809 866.17 562.838L865.84 557.437L855.17 557.136C849.302 556.97 842.7 556.759 840.5 556.667C838.3 556.575 831.325 556.827 825 557.226ZM1452.88 556.456C1452.54 556.792 1449.39 557.781 1445.88 558.654C1432.85 561.895 1428.34 568.93 1428.91 585.176C1429.05 589.415 1437.55 597.358 1443.6 598.921C1446.3 599.617 1449.4 600.582 1450.5 601.066C1456.21 603.58 1462.78 605.225 1475 607.2C1486.9 609.123 1492.78 609.402 1524.5 609.542C1544.3 609.629 1565.45 610.042 1571.5 610.46C1579.39 611.004 1586.22 610.782 1595.66 609.672C1611.71 607.784 1617.43 605.461 1620.69 599.5C1627.89 586.323 1625.16 573.273 1614 567.5C1608.44 564.624 1592.01 560.84 1572 557.823C1563.65 556.563 1507.42 556.07 1479.5 557.011C1472.9 557.234 1464.35 557.063 1460.49 556.631C1456.64 556.199 1453.21 556.121 1452.88 556.456ZM524 559.319C514.114 562.23 512.811 563.061 509.124 568.806C506.358 573.117 506 574.509 506 580.944C506 587.567 506.276 588.56 509.108 592.136C512.315 596.185 516.285 598.738 521.5 600.102C523.15 600.534 527.875 602.052 532 603.476C547.912 608.969 562.495 610.378 605.5 610.577C626.95 610.677 649.9 610.831 656.5 610.92C674.258 611.16 685.915 609.602 691.509 606.244C702.988 599.352 705.055 578.964 695.076 571.061C689.476 566.625 682.302 564.265 666 561.494C661.875 560.793 657.275 559.939 655.778 559.595C646.627 557.496 604.702 556.99 550 558.317C549.175 558.337 544.675 558.074 540 557.732C532.92 557.215 530.247 557.48 524 559.319ZM1329 562C1328.15 563.596 1328.24 564 1329.46 564C1330.33 564 1331 563.131 1331 562C1331 560.9 1330.79 560 1330.54 560C1330.28 560 1329.59 560.9 1329 562ZM1418.58 636.318C1416.86 637.579 1416.77 645.357 1416.68 815.425C1416.58 989.151 1416.62 993.247 1418.48 994.607C1420.07 995.774 1435.58 996 1514.06 996C1606.74 996 1607.76 995.978 1610.32 993.966L1612.9 991.932L1612.91 815.734C1612.92 661.521 1612.74 639.253 1611.44 637.268L1609.95 635H1515.17C1438.31 635 1420.04 635.249 1418.58 636.318ZM1635.57 636.571C1634.71 637.436 1633.99 638.673 1633.98 639.321C1633.95 640.869 1633.95 987.843 1633.98 990.679C1634.03 996.186 1631.67 996 1701.57 996H1766V992.533V989.066L1712.25 989.039C1682.69 989.024 1655.86 989.009 1652.63 989.006L1646.76 989L1649.2 985.75C1651.38 982.851 1667 951.864 1667 950.439C1667 950.124 1668.09 948.432 1669.43 946.679C1670.77 944.926 1672.34 942.368 1672.93 940.996C1673.52 939.623 1675.46 936.396 1677.25 933.825C1679.04 931.254 1682.75 925.485 1685.5 921.004C1688.25 916.524 1691.29 911.921 1692.25 910.776C1693.21 909.631 1694 908.088 1694 907.347C1694 906.606 1694.42 906 1694.93 906C1695.45 906 1696.17 905.056 1696.53 903.901C1696.9 902.747 1698.09 900.908 1699.19 899.814C1700.28 898.72 1701.82 896.402 1702.62 894.662C1703.41 892.923 1704.84 890.325 1705.78 888.888C1709.84 882.724 1718.57 868.035 1721.47 862.5C1726.28 853.325 1731.11 845.053 1731.95 844.529C1732.98 843.897 1735.21 848.553 1739.37 860C1742.97 869.895 1750.61 887.071 1751.81 887.977C1753.23 889.046 1760.59 900.685 1763.21 906L1765.92 911.5L1765.96 904.858C1766 898.524 1765.75 897.805 1760.52 889.358C1757.51 884.486 1754.58 879.956 1754.02 879.292C1753.46 878.628 1753 877.629 1753 877.073C1753 876.516 1752.18 874.585 1751.17 872.78C1750.16 870.976 1748.51 867.25 1747.5 864.5C1746.5 861.75 1745.29 859.073 1744.83 858.55C1744.38 858.028 1744 856.43 1744 855C1744 853.57 1743.6 851.972 1743.1 851.45C1740.95 849.171 1736.89 836.915 1737.58 834.754C1738.23 832.694 1745.09 818.234 1747.66 813.5C1748.26 812.4 1749.8 809.475 1751.08 807C1752.37 804.525 1754.41 800.7 1755.62 798.5C1764.21 782.926 1765.41 779.696 1765.69 771.5C1765.84 767.1 1765.71 764.175 1765.4 765C1764.5 767.356 1740.56 815.441 1740 816C1739.72 816.275 1738.15 819.305 1736.5 822.734C1734.85 826.162 1733.28 828.969 1733 828.971C1731.53 828.983 1723 811.843 1723 808.888C1723 808.027 1714.48 789.333 1713.02 787C1711.19 784.059 1706.68 774.233 1698.81 756C1690.79 737.412 1689.39 734.324 1680.26 715C1677.54 709.225 1674.5 702.7 1673.53 700.5C1672.55 698.3 1670.68 695.068 1669.38 693.317C1668.07 691.566 1667 689.875 1667 689.558C1667 689.242 1665.65 687.119 1664 684.841C1662.35 682.564 1661 680.27 1661 679.745C1661 679.22 1659.65 676.79 1658 674.345C1656.35 671.9 1655 669.472 1655 668.95C1655 668.427 1654.58 668 1654.07 668C1653.55 668 1652.82 666.987 1652.44 665.75C1652.07 664.513 1651.25 662.872 1650.63 662.105C1650.01 661.338 1649.05 658.416 1648.5 655.613C1647.77 651.914 1646.99 650.419 1645.64 650.164C1644.62 649.971 1643.42 650.192 1642.96 650.656C1641.12 652.552 1644.28 661.777 1650.74 673.346C1654.46 679.997 1657.68 685.902 1657.9 686.469C1658.11 687.036 1659.5 689.075 1660.98 691C1664.17 695.142 1666.15 698.712 1669.05 705.5C1670.23 708.25 1674.04 716.35 1677.54 723.5C1681.03 730.65 1685.08 739.425 1686.54 743C1687.99 746.575 1689.59 749.928 1690.09 750.45C1690.59 750.973 1691 752.004 1691 752.742C1691 753.48 1692.35 756.971 1694 760.5C1695.65 764.029 1697 767.125 1697 767.379C1697 767.633 1700.42 774.964 1704.6 783.67C1715.64 806.656 1717.73 811.211 1718.52 814C1718.91 815.375 1721.49 821.104 1724.24 826.731C1729.03 836.511 1729.18 837.07 1727.67 839.386C1726.79 840.719 1724.73 844.308 1723.08 847.36C1721.42 850.413 1719.63 853.718 1719.09 854.705C1717.79 857.095 1709.17 872.098 1708.01 874C1707.5 874.825 1703.87 880.9 1699.93 887.5C1695.99 894.1 1692.46 899.725 1692.08 900C1691.71 900.275 1690.22 902.525 1688.78 905C1687.33 907.475 1685.44 910.4 1684.58 911.5C1678.65 919.033 1665.37 941.603 1656.92 958.5C1646.21 979.891 1642.46 986.944 1640.97 988.426C1640.4 989 1640.13 922.675 1640.27 815.428L1640.5 641.5L1672.5 641.27C1690.1 641.143 1718.34 641.031 1735.25 641.02L1766 641V638V635H1701.57C1644.33 635 1636.97 635.175 1635.57 636.571ZM1422.94 659.25C1422.54 778.299 1422.63 989 1423.07 989C1423.94 989 1426.9 983.508 1438.49 960.33C1444.32 948.686 1449.89 938.111 1450.86 936.83C1451.84 935.548 1454.37 931.575 1456.49 928C1458.61 924.425 1463.75 916.399 1467.92 910.164C1476.04 898.024 1476.02 898.057 1480.47 890.5C1482.1 887.75 1485.28 882.575 1487.55 879C1489.82 875.425 1491.96 871.704 1492.31 870.73C1492.66 869.757 1494.76 866.294 1496.98 863.035C1499.19 859.776 1501 856.5 1501 855.755C1501 855.01 1501.43 853.972 1501.95 853.448C1503.11 852.287 1507.43 844.738 1509.57 840.113C1511.12 836.767 1511.07 836.567 1505.5 823.613C1502.4 816.401 1499.39 809.375 1498.82 808C1498.24 806.625 1497.37 804.825 1496.88 804C1496.39 803.175 1495.72 801.825 1495.4 801C1494.82 799.51 1493.2 796.061 1482.7 774C1479.69 767.675 1475.54 758.225 1473.48 753C1471.42 747.775 1466.38 736.525 1462.28 728C1458.18 719.475 1453.76 709.968 1452.45 706.874C1449.74 700.444 1446.42 694.41 1444 691.5C1443.08 690.4 1441.08 687.025 1439.56 684C1438.03 680.975 1435.68 677.035 1434.33 675.244C1428.16 667.025 1423.3 651.59 1426.5 650.363C1428.93 649.43 1430.85 651.802 1431.57 656.631C1431.94 659.089 1432.86 661.72 1433.62 662.478C1434.38 663.237 1435 664.338 1435 664.926C1435 665.514 1436.52 668.134 1438.38 670.748C1440.24 673.361 1442.68 677.335 1443.81 679.577C1444.94 681.819 1447.63 686.319 1449.78 689.577C1453.37 695.007 1457.25 702.647 1466.01 721.5C1467.8 725.35 1470.52 731.2 1472.05 734.5C1476.01 743.022 1484 761.854 1484 762.657C1484 763.029 1487.1 769.67 1490.88 777.416C1500.18 796.434 1504.72 806.203 1507.12 812.351C1508.22 815.183 1510.53 820.4 1512.24 823.945L1515.36 830.391L1522.47 815.945C1526.39 808 1531.21 798.748 1533.19 795.384C1535.16 792.02 1537.12 788.195 1537.53 786.884C1537.94 785.573 1540.7 779.592 1543.67 773.594C1546.63 767.596 1551.09 757.471 1553.57 751.094C1556.05 744.717 1558.5 738.6 1559.02 737.5C1560.56 734.187 1566.76 714.699 1570.48 701.505C1574.41 687.561 1578.44 675.226 1579.38 674.29C1579.72 673.947 1580 672.954 1580 672.083C1579.99 671.213 1581.08 666.9 1582.41 662.5C1585.5 652.288 1587.8 642.133 1587.16 641.495C1586.89 641.223 1549.84 641 1504.83 641H1423L1422.94 659.25ZM1594.41 641.74C1593.81 642.158 1592.77 645.425 1592.09 649C1590.99 654.788 1585.74 673.454 1582.94 681.5C1580.66 688.082 1572.14 716.624 1569.52 726.5C1568.78 729.25 1566.34 735.743 1564.09 740.929C1561.84 746.116 1560 751.005 1560 751.794C1560 752.583 1558.92 755.315 1557.6 757.865C1554.4 764.03 1551 771.47 1551 772.3C1551 773.106 1540.54 794.216 1536.18 802.205C1534.47 805.343 1532.63 808.718 1532.1 809.705C1531.57 810.692 1528.4 817.175 1525.06 824.111L1518.99 836.722L1521.58 842.611C1523 845.85 1524.76 849.85 1525.49 851.5C1526.22 853.15 1527.11 855.85 1527.48 857.5C1527.85 859.15 1528.76 861.85 1529.5 863.5C1535.31 876.426 1538.12 881.971 1540.38 884.944C1541.82 886.839 1543 888.939 1543 889.611C1543 890.283 1543.4 890.983 1543.88 891.167C1544.77 891.503 1556 911.278 1556 912.511C1556 912.877 1557.28 915.949 1558.85 919.338C1560.42 922.727 1562.7 928.425 1563.92 932C1565.14 935.575 1568.18 943.45 1570.67 949.5C1573.16 955.55 1575.91 962.3 1576.79 964.5C1577.66 966.7 1578.97 969.21 1579.69 970.079C1580.41 970.947 1581 971.977 1581 972.368C1581 972.759 1582.58 975.418 1584.5 978.276C1588.23 983.809 1588.73 985.875 1586.8 987.8C1585.87 988.733 1587.87 989 1595.8 989H1606.01L1605.75 815.25L1605.5 641.5L1600.5 641.24C1597.75 641.097 1595.01 641.322 1594.41 641.74ZM477.571 661.571C476.707 662.436 476 664.596 476 666.371C476 668.147 475.472 670.128 474.827 670.773C473.93 671.67 473.93 672.551 474.827 674.52C475.703 676.442 476 706.582 476 793.476C476 923.667 475.343 912.93 483.321 913.077C488.68 913.176 791.634 913.174 823.679 913.075C844.258 913.011 848.091 912.766 849.429 911.429C850.84 910.017 851 897.352 851 786.968V664.078L848.811 662.039C846.625 660.002 846.411 660 662.883 660C497.18 660 478.989 660.154 477.571 661.571ZM482.19 669.727C482.398 672.228 483.158 673.798 484.5 674.5C485.6 675.075 491.225 678.64 497 682.421C507.555 689.333 513.929 693.441 528.249 702.563C532.511 705.279 540.972 710.763 547.051 714.75C553.13 718.737 558.292 722 558.523 722C558.753 722 560.867 723.292 563.221 724.871C568.105 728.147 583.368 738.067 596.285 746.36C601.116 749.462 605.298 752 605.577 752C605.856 752 606.628 752.468 607.292 753.04C607.956 753.612 612.775 756.822 618 760.173C636.886 772.285 655.582 784.382 659.5 787.025C669.169 793.549 668.818 793.525 678.163 788.297C682.748 785.731 687.932 782.879 689.683 781.958C691.434 781.037 695.034 778.732 697.683 776.836C700.332 774.939 703.175 773.083 704 772.711C704.825 772.339 709.708 769.327 714.85 766.018C719.993 762.708 724.568 760 725.017 760C725.466 760 725.983 759.609 726.167 759.132C726.35 758.654 731 755.21 736.5 751.478C742 747.746 746.65 744.311 746.833 743.846C747.017 743.381 747.642 743 748.223 743C748.804 743 752.254 740.631 755.889 737.736C759.525 734.84 764.075 731.273 766 729.807C767.925 728.342 770.703 726.098 772.174 724.822C773.645 723.545 776.283 721.375 778.036 720C779.789 718.625 785.287 714.013 790.255 709.752C800.155 701.259 806.238 696.993 815.755 691.868C827.493 685.547 830.73 683.426 834.248 679.751C837.264 676.601 839 676.852 839 680.438C839 683.828 830.334 690.68 818.75 696.449C813.388 699.119 809 701.686 809 702.152C809 702.618 808.395 703 807.655 703C806.915 703 805.495 703.9 804.5 705C803.505 706.1 802.337 707 801.905 707C801.473 707 798.055 709.884 794.31 713.409C788.141 719.214 783.872 722.749 770 733.541C767.525 735.467 763.925 738.343 762 739.932C757.775 743.421 743.059 754 742.431 754C742.185 754 738.05 756.831 733.242 760.291C723.562 767.258 723.344 767.398 705.847 777.937C699.056 782.027 692.6 786.128 691.5 787.049C690.4 787.97 686.35 790.418 682.5 792.489C678.65 794.559 675.377 796.357 675.226 796.484C675.075 796.611 679.35 799.568 684.726 803.055C690.102 806.543 694.725 809.644 695 809.948C695.275 810.252 696.4 811.039 697.5 811.699C707.019 817.404 713.905 821.713 716 823.276C719.774 826.09 731.977 834 732.546 834C732.821 834 739.673 838.421 747.773 843.824C767.811 857.192 773.729 861 774.461 861C775.39 861 804.447 880.366 804.833 881.243C805.017 881.66 805.656 882 806.253 882C806.85 882 811.2 884.596 815.92 887.768C820.639 890.941 826.218 894.428 828.317 895.518C835.533 899.264 838.081 903.205 834.104 904.467C832.789 904.884 828.814 902.836 821.134 897.784C815.044 893.778 806.621 888.25 802.416 885.5C798.212 882.75 793.586 879.717 792.136 878.761C790.686 877.805 788.825 876.706 788 876.321C787.175 875.935 778.72 870.53 769.212 864.31C759.703 858.089 751.674 853 751.369 853C751.065 853 749.784 852.212 748.523 851.25C747.263 850.288 745.237 848.825 744.022 848C742.808 847.175 740.887 845.712 739.754 844.75C738.621 843.788 737.261 843 736.731 843C736.202 843 732.558 840.906 728.634 838.347C724.711 835.788 717.225 830.902 712 827.489C706.775 824.077 701.375 820.703 700 819.993C698.625 819.282 697.275 818.407 697 818.048C696.725 817.688 694.7 816.317 692.5 815C690.3 813.683 688.275 812.343 688 812.022C687.725 811.701 684.229 809.483 680.231 807.093C676.233 804.703 672.719 802.354 672.422 801.874C671.366 800.165 666.963 801.044 661.273 804.102C658.098 805.807 654.79 807.832 653.921 808.602C653.053 809.371 651.99 810 651.56 810C651.13 810 647.053 812.25 642.5 815C637.947 817.75 633.83 820 633.351 820C632.872 820 631.266 821.125 629.783 822.5C628.301 823.875 626.801 825 626.451 825C626.102 825 624.784 825.788 623.523 826.75C622.263 827.712 620.237 829.175 619.022 830C617.808 830.825 615.843 832.339 614.657 833.365C613.471 834.391 611.375 835.938 610 836.803C608.625 837.667 604.319 840.765 600.431 843.687C596.543 846.609 593.059 849 592.69 849C592.32 849 589.954 850.575 587.432 852.5C584.91 854.425 582.354 856 581.752 856C581.15 856 579.888 856.696 578.948 857.547C576.266 859.975 560.067 869.313 554.109 871.866C551.144 873.137 546.194 875.531 543.109 877.187C533.445 882.373 528.766 884.763 520 888.989C515.325 891.243 507.9 895.078 503.5 897.512C499.1 899.946 493.769 902.883 491.653 904.038C489.537 905.194 488 906.334 488.238 906.571C488.738 907.071 844.142 907.192 844.642 906.692C844.942 906.392 845.049 850.244 845.013 713.25L845 666H663.44H481.879L482.19 669.727ZM481.992 680.224C481.977 680.77 481.971 831.319 481.986 867.372L482 904.244L484.25 902.645C490.796 897.994 512.77 886.201 539 873.263C555.225 865.259 569.4 857.924 570.5 856.961C571.6 855.998 574.075 854.361 576 853.323C579.47 851.452 596.117 840.604 599 838.336C599.825 837.687 605.225 833.653 611 829.372C616.775 825.091 621.725 821.344 622 821.044C622.531 820.466 623.204 820.059 638 811.365C643.225 808.295 648.625 805.013 650 804.071C651.375 803.129 654.844 801.265 657.709 799.929C660.574 798.593 662.936 797.231 662.959 796.902C662.982 796.573 657.763 792.973 651.361 788.902C644.96 784.831 638.885 780.712 637.861 779.75C636.838 778.788 635.741 778 635.425 778C635.109 778 631.72 775.975 627.894 773.5C624.068 771.025 620.749 769 620.519 769C620.289 769 618.165 767.716 615.8 766.147C608.559 761.343 581.829 743.928 576 740.217C572.975 738.291 567.575 734.814 564 732.49C560.425 730.166 554.125 726.135 550 723.531C536.884 715.251 504.595 694.221 502 692.267C500.625 691.232 497.25 689.1 494.5 687.529C491.75 685.958 489.275 684.359 489 683.976C488.461 683.224 482.005 679.768 481.992 680.224ZM928.273 741.08C926.771 741.607 926.628 745.384 926.703 782.58L926.786 823.5L1128.86 823.752L1330.93 824.005L1331.21 801.752C1331.37 789.514 1331.28 770.811 1331 760.192L1330.5 740.884L1130.21 740.692C1020.05 740.586 929.181 740.761 928.273 741.08ZM0 835.513V839.027L194.634 838.98C301.682 838.955 389.439 839.105 389.648 839.315C389.858 839.525 390.02 1004.02 390.009 1204.85L389.989 1570H393.533H397.076L396.788 1203.1C396.506 843.926 396.46 836.166 394.595 834.105L392.69 832H196.345H0V835.513ZM1512.6 847.25C1504.33 862.493 1494.55 879.336 1489.52 887C1487.18 890.575 1484.69 894.625 1483.98 896C1483.28 897.375 1478.5 904.873 1473.35 912.663C1468.21 920.452 1464 927.142 1464 927.529C1464 927.916 1462.48 930.317 1460.63 932.866C1458.78 935.415 1456.18 939.525 1454.85 942C1453.52 944.475 1451.21 948.404 1449.72 950.73C1448.22 953.057 1447 955.217 1447 955.531C1447 956.559 1434.1 982.417 1431.93 985.75L1429.8 989H1506.32H1582.83L1577.23 979.25C1572.04 970.23 1568.59 962.279 1560.8 941.5C1559.15 937.1 1555.6 928.252 1552.9 921.838C1550.21 915.423 1548 909.881 1548 909.521C1548 909.161 1546.88 907.392 1545.5 905.589C1544.12 903.786 1543 901.945 1543 901.497C1543 901.049 1540.3 896.515 1537 891.421C1533.7 886.326 1531 881.873 1531 881.523C1531 881.174 1529.74 878.326 1528.2 875.194C1526.66 872.062 1523.69 864.775 1521.6 859C1517.28 847.066 1515.94 844 1515.02 844C1514.66 844 1513.58 845.462 1512.6 847.25ZM934.026 856C924.085 856.475 923.488 856.627 922.296 859C921.295 860.992 921.035 933.471 921.016 1215.75L920.993 1570H924.358H927.723L927.612 1268.25L927.5 966.5L1127.73 966.392C1287.52 966.305 1328.26 966.028 1329.48 965.019C1331.51 963.331 1331.4 961.262 1329.25 960.584C1328.29 960.282 1238.62 960.061 1130 960.093C1021.38 960.125 931.375 960.117 930 960.075L927.5 959.999L927.377 911L927.253 862H1129.63H1332V1216V1570H1335.25H1338.5L1338.24 1225.25C1338.1 1035.64 1337.99 875.749 1337.99 869.941C1338 862.487 1337.59 858.823 1336.61 857.479C1335.25 855.619 1330.74 855.574 1139.86 855.537C1032.41 855.517 939.787 855.725 934.026 856ZM712.89 924.443C711.459 925.874 686.979 927.413 665 927.453C636.436 927.506 635.798 927.645 633.799 934.291C632.891 937.31 633.018 940.517 634.424 950.039C635.394 956.615 636.552 966.834 636.997 972.748C637.442 978.662 638.372 989.705 639.064 997.289C640.049 1008.09 640.059 1011.34 639.11 1012.29C638.444 1012.96 635.352 1013.5 632.239 1013.5C627.188 1013.5 626.421 1013.78 625.122 1016.09C624.321 1017.52 623.952 1019.43 624.301 1020.34C625.142 1022.54 628.425 1022.43 635.5 1020C638.697 1018.9 642.149 1018 643.17 1018C644.191 1018 645.809 1017.59 646.764 1017.09C651.503 1014.6 658.523 1012.87 664.197 1012.78C667.664 1012.73 681.437 1013.05 694.805 1013.49C726.094 1014.54 737.566 1013.08 744.25 1007.22C746.898 1004.9 746.594 996.915 743.68 992.23C738.179 983.386 737.614 980.613 738.027 964.5C738.532 944.796 738.407 933.759 737.645 930.722C736.96 927.992 734.343 926.698 726.201 925.064C720.789 923.977 713.687 923.646 712.89 924.443ZM502 931.844C494.725 934.068 490.651 936.36 487.986 939.73C485.968 942.282 485.847 943.209 486.45 951.5C486.81 956.45 487.502 961.85 487.989 963.5C488.476 965.15 489.382 972.937 490.001 980.805C491.27 996.923 493.227 1007.66 495.268 1009.7C497.471 1011.9 500.293 1010.23 499.635 1007.11C497.841 998.612 496.072 985.65 495.49 976.744C495.122 971.11 494.447 964.925 493.989 963C493.532 961.075 492.856 955.848 492.487 951.384C491.816 943.269 491.816 943.267 494.693 941.219C496.276 940.092 500.93 938.481 505.035 937.638C511.531 936.306 513.798 936.282 522.5 937.458C528 938.201 534.598 939.295 537.162 939.889C544.423 941.571 578.941 941.677 589.835 940.05C597.884 938.849 599.297 938.853 600.09 940.079C601.196 941.787 600.602 948.973 598.568 958.5C596.626 967.595 596.634 978.971 598.588 986.5C600.917 995.475 602.288 1003.86 602.4 1009.83C602.579 1019.4 599.622 1019.77 572.5 1013.61C568.65 1012.73 558.975 1011.73 551 1011.38C539.151 1010.86 534.58 1011.09 526 1012.62C520.225 1013.65 511.45 1014.5 506.5 1014.5C498.011 1014.5 497.482 1014.62 497.189 1016.68C496.984 1018.12 497.639 1019.27 499.111 1020.06C501.745 1021.47 515.599 1021.48 519.289 1020.08C520.699 1019.54 526.546 1018.58 532.281 1017.93C543.028 1016.72 565.531 1017.82 574.5 1019.99C594.459 1024.81 598.162 1025.04 603.102 1021.72C609.119 1017.67 610.222 1007.57 606.294 992.5C601.803 975.266 601.778 971.383 606.026 952.155C607.639 944.851 606.541 936.492 603.706 934.507C600.964 932.586 597.515 932.611 584.79 934.644C575.836 936.075 572.284 936.137 557.436 935.122C548.051 934.481 537.701 933.493 534.436 932.928C514.592 929.492 510.178 929.344 502 931.844ZM699.5 932.742C688.924 934.366 685.022 934.477 659.5 933.876C639.581 933.408 639.063 933.612 639.598 941.727C639.807 944.902 640.656 952.225 641.485 958C642.313 963.775 643.218 973.155 643.495 978.844C643.771 984.533 644.235 989.571 644.524 990.039C644.813 990.507 645.271 995.046 645.54 1000.13C645.81 1005.21 646.154 1009.49 646.304 1009.64C646.455 1009.79 648.586 1009.15 651.039 1008.22C654.843 1006.78 658.371 1006.6 675 1006.98C716.671 1007.95 730.103 1007.65 735.25 1005.67C739.543 1004.01 740 1003.53 740 1000.64C740 998.883 739.281 996.419 738.403 995.165C737.525 993.912 735.665 990.099 734.269 986.693C731.779 980.615 731.735 980.057 731.887 956.733L732.042 932.966L729.456 931.983C725.762 930.579 711.179 930.948 699.5 932.742ZM0.417 933.917C0.188 934.146 0 935.38 0 936.66V938.986L141.25 939.243C218.938 939.384 306.35 939.275 335.5 939C387.293 938.511 388.5 938.455 388.5 936.541C388.5 935.113 387.551 934.377 385 933.825C381.454 933.058 1.185 933.149 0.417 933.917ZM833.747 933.563C833.281 933.984 812.495 936.104 803.5 936.648C797.92 936.986 790.014 936.604 782.696 935.643C769.263 933.878 767.19 934.319 764.075 939.598C761.59 943.81 761.325 953.821 762.913 983.5C764.248 1008.44 764.461 1010 766.544 1010C767.372 1010 768.467 1011.1 768.977 1012.44C770.4 1016.18 780.503 1020.99 787 1021.01C790.608 1021.03 803.957 1018.39 807.5 1016.96C808.6 1016.52 816.474 1015.88 824.999 1015.54C842.151 1014.87 847.229 1013.8 849.998 1010.28C851.951 1007.79 851.927 1005.73 849.831 995.5C847.774 985.469 847.187 969.237 848.589 961.175C849.324 956.954 850.218 950.528 850.577 946.894C851.201 940.58 851.101 940.145 848.303 937.013C845.707 934.108 844.733 933.715 839.685 933.539C836.555 933.429 833.882 933.44 833.747 933.563ZM769.929 942.071C767.908 944.092 767.853 944.795 768.482 960.336C769.442 984.052 769.869 996.726 769.938 1003.64C769.997 1009.52 770.114 1009.79 772.75 1010.29C774.263 1010.58 777.3 1011.51 779.5 1012.36C784.925 1014.46 790.983 1014.35 800.433 1011.97C806.259 1010.5 813.033 1009.84 825.933 1009.47C847.363 1008.87 848.238 1008.32 844.385 997.876C841.893 991.122 841.278 964.785 843.375 954.642C845.426 944.726 845.436 941.381 843.418 940.607C840.637 939.54 831.921 939.968 815.659 941.971C800.949 943.782 798.985 943.816 788.159 942.448C781.746 941.638 775.494 940.749 774.265 940.472C772.823 940.148 771.286 940.714 769.929 942.071ZM34.367 973.389L31.945 975.5L31.709 1105.82C31.506 1217.27 31.677 1236.32 32.889 1237.32C33.942 1238.2 53.99 1238.57 110.874 1238.77L187.441 1239.05L190.122 1241.62C194.32 1245.64 196.41 1244.53 196.968 1237.99C197.225 1234.97 197.422 1174.5 197.406 1103.61L197.376 974.723L195.195 972.957C193.151 971.302 188.11 971.194 114.902 971.234C36.877 971.277 36.786 971.28 34.367 973.389ZM43 977.821C41.075 977.998 39.088 978.545 38.584 979.037C38.036 979.572 41.111 983.463 46.233 988.716C50.943 993.547 56.305 999.3 58.149 1001.5C59.992 1003.7 62.965 1007.08 64.755 1009C68.502 1013.03 81 1031.39 81 1032.87C81 1033.41 81.578 1034.45 82.284 1035.18C82.989 1035.9 85.649 1040.1 88.194 1044.5C90.739 1048.9 93.551 1053.3 94.445 1054.28C98.158 1058.36 108.824 1076.55 113.77 1087.24C114.721 1089.3 115.886 1090.85 116.358 1090.7C116.83 1090.55 121.338 1083.69 126.375 1075.46C131.413 1067.23 136.834 1058.49 138.423 1056.02C140.011 1053.56 142.752 1048.61 144.513 1045.02C146.273 1041.44 149.18 1035.58 150.972 1032C152.764 1028.42 155.356 1023.25 156.731 1020.5C158.107 1017.75 159.562 1015.28 159.965 1015C160.369 1014.72 162.42 1010.45 164.524 1005.5C167.99 997.345 170.576 993.056 177.065 984.696C179.403 981.684 183.585 981.256 183.395 984.049C183.337 984.901 181.286 988.275 178.836 991.549C176.387 994.822 172.689 1001.1 170.618 1005.5C168.547 1009.9 165.777 1015.53 164.462 1018C163.147 1020.47 159.305 1028.12 155.925 1035C152.544 1041.88 149.407 1048.18 148.952 1049C146.654 1053.17 136.163 1070.06 133.426 1074C128.709 1080.79 120 1096.75 120 1098.6C120 1100.55 135.718 1131.25 139.801 1137.27C141.378 1139.6 145.264 1146.9 148.437 1153.5C155.827 1168.88 159.172 1175.37 160.017 1176C161.061 1176.77 170 1189.8 170 1190.55C170 1190.91 171.315 1193.16 172.922 1195.54C176.16 1200.34 177.878 1203.82 181.029 1212C183.389 1218.12 190.121 1231 190.96 1231C191.609 1231 191.38 979.046 190.731 978.397C190.215 977.882 48.365 977.329 43 977.821ZM38.561 989.902C37.722 991.259 38.342 1221 39.185 1221C39.561 1221 42.187 1216.39 45.019 1210.75C47.851 1205.11 51.186 1199.15 52.428 1197.5C54.631 1194.58 56.764 1190.87 64.509 1176.5C66.585 1172.65 68.822 1168.82 69.481 1168C70.616 1166.58 73.998 1160.74 78.173 1153C79.211 1151.08 82.962 1145 86.509 1139.5C90.056 1134 94.88 1126.44 97.229 1122.7C99.578 1118.96 102.729 1114.01 104.231 1111.7C105.733 1109.39 108.201 1105.11 109.716 1102.2L112.47 1096.89L108.531 1089.2C106.365 1084.96 101.984 1077.16 98.796 1071.86C95.608 1066.57 93 1061.76 93 1061.2C93 1060.63 92.62 1060.02 92.155 1059.83C90.952 1059.36 82.887 1047.55 79.124 1040.75C71.594 1027.15 68.532 1022.64 60 1012.61C57.525 1009.7 54.061 1005.53 52.303 1003.34C46.417 996.004 39.169 988.918 38.561 989.902ZM276.293 997.09C267.929 997.526 257.659 998.358 253.47 998.941C249.282 999.523 244.057 1000 241.858 1000C238.291 1000 237.895 1000.24 238.18 1002.24C238.594 1005.13 244.148 1006.2 252.5 1005C258.758 1004.1 296.389 1002.41 298.996 1002.91C299.82 1003.07 304.682 1002.89 309.801 1002.5C317.641 1001.91 319.06 1001.55 318.796 1000.18C317.972 995.903 310.103 995.331 276.293 997.09ZM962.984 1003.02C961.247 1005.46 960.964 1006.83 961.52 1010.12C962.175 1014 962.28 1057.75 961.991 1206.91L961.862 1273.32L965.046 1274.66C967.612 1275.74 983.164 1276 1045.25 1276H1122.27L1124.65 1278.57C1126.15 1280.18 1127.86 1281.02 1129.27 1280.82C1131.12 1280.55 1131.57 1279.74 1131.93 1276C1132.16 1273.53 1132.39 1211.05 1132.43 1137.17C1132.5 1005.31 1132.46 1002.81 1130.56 1001.42C1128.92 1000.22 1115.89 1000 1046.88 1000H965.136L962.984 1003.02ZM972.5 1005.83C970.85 1006.01 969.09 1006.55 968.589 1007.04C968.049 1007.56 971.259 1011.56 976.458 1016.84C981.287 1021.75 985.522 1026.21 985.869 1026.75C986.216 1027.3 988.525 1030.12 991 1033.03C993.475 1035.94 996.874 1039.93 998.554 1041.91C1002.24 1046.24 1009 1055.56 1009 1056.3C1009 1057.26 1018.13 1072.3 1023.88 1080.83C1030.39 1090.48 1035.4 1098.44 1037.2 1102C1037.89 1103.38 1038.72 1104.72 1039.05 1105C1039.37 1105.28 1041.61 1109.44 1044.02 1114.25C1046.43 1119.06 1048.67 1123 1048.99 1123C1049.31 1123 1051.11 1120.41 1052.98 1117.25C1056.84 1110.72 1066.26 1095.85 1069.1 1091.79C1070.15 1090.3 1071 1088.85 1071 1088.56C1071 1088.27 1072.49 1085.67 1074.31 1082.77C1076.13 1079.87 1079.28 1073.9 1081.33 1069.5C1085.35 1060.84 1086.14 1059.29 1092.4 1048C1094.69 1043.88 1097.39 1038.25 1098.4 1035.5C1102.84 1023.42 1111.71 1011 1115.89 1011C1118.91 1011 1118.54 1013.53 1114.84 1018.2C1109.49 1024.96 1107.51 1028.27 1105.1 1034.5C1102.76 1040.54 1097.43 1051.57 1095.87 1053.58C1094.95 1054.77 1089.82 1065.11 1085.52 1074.41C1084.02 1077.66 1081.26 1082.49 1079.4 1085.15C1077.53 1087.81 1076 1090.32 1076 1090.74C1075.99 1091.16 1074.2 1093.86 1072.02 1096.74C1069.83 1099.63 1067.75 1103.15 1067.39 1104.57C1067.03 1106 1066.13 1107.4 1065.37 1107.69C1064.62 1107.98 1064 1108.65 1064 1109.19C1064 1109.72 1062.47 1112.49 1060.61 1115.33C1056.52 1121.57 1053 1128.8 1053 1130.96C1053 1131.84 1054.34 1135.24 1055.97 1138.53C1057.6 1141.81 1058.95 1144.85 1058.97 1145.27C1058.99 1145.69 1060.05 1147.72 1061.33 1149.77C1062.61 1151.82 1065.17 1156.42 1067.02 1160C1068.87 1163.58 1070.94 1167.18 1071.63 1168.01C1073.48 1170.25 1088 1198.84 1088 1200.24C1088 1200.91 1091.04 1205.86 1094.75 1211.24C1098.46 1216.62 1101.95 1221.82 1102.5 1222.78C1103.05 1223.75 1105.59 1228.13 1108.14 1232.52C1110.69 1236.91 1114.01 1243.42 1115.53 1247C1119.33 1255.97 1125.38 1267.99 1126.09 1268C1126.41 1268 1126.75 1209.05 1126.83 1137C1126.96 1033.03 1126.73 1005.98 1125.75 1005.91C1121.72 1005.64 974.969 1005.56 972.5 1005.83ZM968.246 1138.45C968.386 1204.7 968.796 1258.58 969.158 1258.2C969.521 1257.81 971.844 1253.6 974.321 1248.84C976.799 1244.07 980.509 1237.55 982.566 1234.34C987.469 1226.68 989.583 1223.01 994.177 1214.16C996.273 1210.13 998.897 1205.55 1000.01 1203.99C1001.12 1202.42 1002.82 1199.42 1003.78 1197.32C1004.74 1195.22 1007.76 1190.12 1010.48 1186C1016.99 1176.16 1025 1162.88 1025 1161.92C1025 1161.51 1025.34 1161.02 1025.75 1160.83C1026.54 1160.48 1035 1148.42 1035 1147.65C1035 1147.4 1036.8 1144.34 1039.01 1140.85C1045.99 1129.78 1045.92 1131.41 1039.93 1119.3C1037 1113.36 1032.66 1105.45 1030.3 1101.72C1027.93 1097.99 1026 1094.77 1026 1094.56C1026 1094.35 1023.16 1089.94 1019.69 1084.74C1012.95 1074.67 1009.78 1069.6 1006.7 1064C1003.36 1057.93 996.265 1047.62 993.284 1044.5C991.707 1042.85 986.852 1037.22 982.497 1032C973.703 1021.45 970.363 1018 968.944 1018C968.345 1018 968.086 1062.64 968.246 1138.45ZM1687.5 1021.87C1681.3 1022.75 1678 1024.5 1678 1026.93C1678 1029.22 1680.34 1030.26 1681.93 1028.67C1683.24 1027.36 1721.35 1027.03 1743 1028.15C1749.88 1028.5 1757.75 1028.5 1760.5 1028.15C1765 1027.56 1765.53 1027.23 1765.81 1024.8L1766.12 1022.09L1753.81 1022.2C1747.04 1022.25 1730.48 1022.04 1717 1021.73C1703.52 1021.42 1690.25 1021.48 1687.5 1021.87ZM1227.88 1025.45C1227.5 1025.83 1215.02 1026.69 1182.57 1028.56C1175.77 1028.95 1173.69 1030.02 1174.69 1032.62C1175.56 1034.9 1178.74 1035.18 1191.78 1034.11C1198.77 1033.54 1212.6 1032.8 1222.5 1032.46C1251.96 1031.45 1256.9 1031.18 1257.97 1030.52C1259.63 1029.49 1259.16 1027.15 1257.07 1026.04C1255.22 1025.05 1228.82 1024.52 1227.88 1025.45ZM1472 1028L1459.5 1028.5V1031V1033.5L1489.5 1033.53C1514.57 1033.56 1520.71 1033.86 1526.89 1035.33C1534.82 1037.21 1559.67 1038.12 1563.75 1036.67C1565.21 1036.15 1566 1035.05 1566 1033.53C1566 1031.2 1565.99 1031.19 1552.02 1031.13C1542.87 1031.09 1533.68 1030.35 1525.43 1028.99C1512.58 1026.87 1504.1 1026.72 1472 1028ZM280.949 1031.35C279.944 1032.42 262.691 1033.94 249.762 1034.11C236.524 1034.27 234.039 1035.05 235.404 1038.61C235.967 1040.08 238.189 1040.19 256.766 1039.72C268.17 1039.44 280.282 1038.66 283.681 1038.01C288.994 1036.98 291.91 1037.11 304.435 1038.92C319.901 1041.16 324 1040.96 324 1037.95C324 1035.35 322.596 1034.77 315.188 1034.3C311.591 1034.07 307.773 1033.41 306.704 1032.84C304.59 1031.71 281.849 1030.39 280.949 1031.35ZM1516 1054.5C1512.95 1056.25 1507.77 1056.37 1501.24 1054.87C1497.3 1053.96 1495.76 1054.01 1493.42 1055.13C1488.27 1057.6 1489.71 1059.41 1497.5 1060.27C1514.42 1062.12 1514.53 1062.12 1518.12 1059.7C1524.37 1055.5 1522.46 1050.81 1516 1054.5ZM1749.56 1054.53C1748 1055.71 1744.49 1055.92 1731.06 1055.62C1714.19 1055.23 1710.42 1055.74 1709.34 1058.55C1708.28 1061.32 1710.28 1061.83 1719.57 1061.15C1724.57 1060.79 1730.42 1060.81 1732.57 1061.2C1739.47 1062.45 1749.61 1062.26 1751.88 1060.84C1754.6 1059.15 1755.51 1056.33 1753.96 1054.45C1752.48 1052.67 1752.01 1052.68 1749.56 1054.53ZM1214 1062.48C1209.32 1063.19 1198.08 1064.07 1189.02 1064.45C1172.76 1065.12 1170.55 1065.66 1171.7 1068.66C1172.37 1070.41 1199.33 1070.51 1214.14 1068.82C1227.59 1067.28 1236.07 1067.53 1250.63 1069.9C1263.02 1071.91 1265 1071.64 1265 1067.9C1265 1065.95 1263.91 1065.55 1256 1064.57C1253.53 1064.27 1247.9 1063.35 1243.5 1062.54C1233.89 1060.77 1225.4 1060.76 1214 1062.48ZM233.614 1064.53C230.89 1067.25 232.736 1069 238.357 1069.01C241.186 1069.02 245.975 1069.71 249 1070.55C252.569 1071.54 260.82 1072.25 272.5 1072.57C282.4 1072.83 294.325 1073.52 299 1074.1C309.434 1075.38 315.358 1074.4 315.808 1071.3C316.005 1069.94 315.461 1068.97 314.308 1068.6C313.314 1068.29 300.8 1067.59 286.5 1067.04C272.2 1066.49 256 1065.36 250.5 1064.53C237.944 1062.62 235.519 1062.62 233.614 1064.53ZM1171.25 1095.22C1170.01 1095.82 1169 1097.14 1169 1098.16C1169 1099.7 1169.72 1099.99 1173.26 1099.85C1175.61 1099.77 1179.77 1100.2 1182.51 1100.81C1194.71 1103.55 1201.14 1104.11 1227 1104.69C1252.14 1105.25 1254.62 1105.16 1255.92 1103.6C1259.14 1099.72 1256.22 1099.21 1226.5 1098.48C1211.1 1098.09 1198.24 1097.63 1197.92 1097.44C1197.11 1096.95 1176.98 1093.99 1175.07 1094.07C1174.21 1094.1 1172.49 1094.62 1171.25 1095.22ZM1399.84 1097.93C1397.14 1100.12 1396.82 1102.62 1397 1120.5C1397.08 1128.2 1397.22 1182.07 1397.32 1240.21C1397.49 1340.23 1397.6 1346.02 1399.29 1347.71C1400.99 1349.42 1409.69 1349.5 1583.29 1349.5L1765.5 1349.49L1765.81 1346.3L1766.12 1343.11L1587.91 1343.07C1489.89 1343.05 1409.52 1342.86 1409.31 1342.64C1409.1 1342.43 1410.93 1341.31 1413.38 1340.16C1415.84 1339.01 1418.13 1337.6 1418.48 1337.03C1418.83 1336.46 1419.81 1336 1420.66 1336C1421.5 1336 1423.39 1335.16 1424.85 1334.14C1427.58 1332.21 1443.81 1323.69 1450 1320.92C1451.92 1320.06 1456.65 1317.74 1460.5 1315.76C1464.35 1313.79 1472.76 1309.62 1479.2 1306.5C1485.63 1303.38 1491.42 1300.2 1492.07 1299.42C1492.72 1298.64 1493.88 1298 1494.65 1298C1495.43 1298 1496.32 1297.32 1496.64 1296.5C1496.95 1295.68 1497.89 1295 1498.71 1295C1499.54 1295 1501.92 1293.65 1504 1292C1506.08 1290.35 1508.17 1288.98 1508.64 1288.96C1509.12 1288.94 1511.06 1287.59 1512.96 1285.96C1514.87 1284.33 1516.93 1283 1517.56 1283C1518.18 1283 1519.78 1282.05 1521.1 1280.89C1522.42 1279.74 1525.53 1277.4 1528 1275.69C1530.47 1273.99 1533.11 1271.99 1533.86 1271.26C1534.61 1270.53 1538.97 1267.43 1543.56 1264.37C1548.15 1261.32 1552.43 1258.19 1553.07 1257.41C1553.72 1256.63 1554.68 1256 1555.22 1256C1555.76 1256 1558.74 1254.49 1561.85 1252.65C1586.27 1238.14 1589.27 1236.73 1592.51 1238.15C1597.07 1240.16 1607.08 1246.45 1642.77 1269.75C1651.4 1275.39 1659 1280 1659.65 1280C1660.3 1280 1660.98 1280.35 1661.17 1280.77C1661.47 1281.48 1665.02 1283.87 1687.5 1298.48C1694.45 1303 1706.07 1310.39 1711.12 1313.5C1712.01 1314.05 1715.92 1316.64 1719.82 1319.25C1723.71 1321.86 1727.07 1324 1727.28 1324C1727.49 1324 1733.47 1327.83 1740.58 1332.52C1748.04 1337.44 1754.34 1340.92 1755.49 1340.77C1758.83 1340.32 1758.47 1337.25 1754.82 1335.09C1752.99 1334 1750.92 1332.61 1750.22 1331.99C1749.51 1331.37 1745.91 1329.08 1742.22 1326.89C1734.49 1322.32 1719.02 1312.5 1717.42 1311.15C1715.28 1309.34 1698.39 1298.37 1696.8 1297.75C1695.91 1297.41 1685.8 1290.98 1674.34 1283.45C1662.88 1275.93 1651.92 1268.78 1650 1267.57C1648.08 1266.35 1642.68 1262.89 1638 1259.87C1633.32 1256.84 1622.19 1249.7 1613.25 1243.99C1604.31 1238.28 1597 1233.35 1597 1233.03C1597 1232.71 1598.69 1231.57 1600.75 1230.49C1606.01 1227.74 1624.4 1216.76 1625 1216.01C1625.28 1215.67 1627.3 1214.32 1629.5 1213.01C1637.56 1208.19 1658.54 1194.32 1660.05 1192.81C1660.9 1191.96 1662.54 1190.96 1663.69 1190.6C1664.84 1190.23 1666.94 1188.86 1668.37 1187.54C1669.79 1186.22 1673.34 1183.55 1676.26 1181.62C1679.17 1179.68 1682.64 1176.95 1683.95 1175.55C1685.27 1174.15 1686.88 1173 1687.52 1173C1688.16 1173 1689.54 1172.06 1690.58 1170.91C1691.62 1169.76 1695.85 1166.3 1699.98 1163.21C1704.12 1160.13 1709.35 1155.78 1711.61 1153.55C1718.7 1146.57 1724.99 1141.64 1732.11 1137.5C1735.9 1135.3 1742.85 1131.27 1747.57 1128.54C1757.57 1122.75 1761 1119.65 1761 1116.36C1761 1113.06 1757.9 1113.29 1755.32 1116.79C1754.18 1118.33 1747.74 1122.59 1740.88 1126.34C1725.92 1134.53 1721.43 1137.7 1707.33 1150C1701.34 1155.22 1694.28 1161.08 1691.64 1163C1689 1164.92 1684.29 1168.55 1681.17 1171.06C1678.05 1173.57 1672.73 1177.49 1669.36 1179.77C1665.98 1182.06 1662.6 1184.52 1661.86 1185.25C1661.11 1185.98 1658.7 1187.64 1656.5 1188.95C1654.3 1190.25 1651.38 1192.3 1650 1193.5C1648.62 1194.69 1645.47 1196.87 1643 1198.33C1640.53 1199.79 1636.19 1202.45 1633.36 1204.24C1613.91 1216.57 1613.72 1216.68 1601.1 1223.85C1592.45 1228.76 1591.5 1229.08 1589.1 1227.9C1585.89 1226.32 1571.94 1217.55 1559.68 1209.4C1554.63 1206.04 1548.97 1202.5 1547.09 1201.54C1545.22 1200.58 1543.2 1199.36 1542.59 1198.83C1541.4 1197.79 1516.95 1181.92 1510.5 1178C1508.3 1176.66 1506.05 1175.21 1505.5 1174.78C1503.35 1173.08 1471.77 1152.78 1448.18 1137.93C1441.54 1133.75 1424.61 1122.73 1414.23 1115.83C1410.23 1113.17 1406.54 1111 1406.02 1111C1404.41 1111 1403.16 1107.62 1403.71 1104.74L1404.23 1102H1585.12H1766V1099.15V1096.29L1584.02 1096.22C1410.83 1096.15 1401.93 1096.23 1399.84 1097.93ZM231.38 1100.45C230.55 1102.62 231.652 1103.77 235.261 1104.51C237.043 1104.88 240.525 1105.88 243 1106.73C246.516 1107.95 252.859 1108.33 272 1108.48C285.475 1108.59 299.439 1109.03 303.032 1109.46C308.532 1110.11 309.781 1109.97 310.946 1108.57C314.93 1103.77 304.545 1102.02 271.96 1102.01C253.393 1102 246.019 1101.63 241.661 1100.5C234.447 1098.62 232.087 1098.61 231.38 1100.45ZM110.458 1111.59C108.281 1115.22 105.595 1119.61 104.489 1121.34C103.384 1123.08 101.584 1126.02 100.489 1127.88C99.395 1129.73 97.5 1132.48 96.278 1133.99C95.056 1135.49 93.578 1137.8 92.992 1139.11C92.407 1140.42 90.391 1143.97 88.513 1147C86.634 1150.03 83.992 1154.53 82.642 1157C81.292 1159.47 78.95 1163.3 77.437 1165.5C75.924 1167.7 72.748 1173.19 70.378 1177.71C63.886 1190.08 63.785 1190.25 54.396 1205C53.171 1206.92 50.631 1211.42 48.752 1215C46.872 1218.58 43.941 1223.73 42.238 1226.46C40.535 1229.19 39.361 1231.77 39.63 1232.21C39.899 1232.65 72.267 1232.93 111.559 1232.85C177.134 1232.7 183 1232.56 183 1231.05C183 1230.14 182.586 1228.97 182.079 1228.45C180.626 1226.95 174.332 1213.79 173.612 1210.75C172.834 1207.46 165.207 1194.23 156.292 1180.71C152.742 1175.32 148.501 1167.9 146.866 1164.21C142.588 1154.55 138.081 1145.9 132.948 1137.5C129.651 1132.1 128.195 1129.39 121.553 1116.25C118.425 1110.06 115.539 1105 115.141 1105C114.742 1105 112.635 1107.97 110.458 1111.59ZM508.845 1105.78C500.826 1106 497.88 1106.44 496.938 1107.57C493.687 1111.49 493.924 1111.5 606.19 1111.5C709.39 1111.5 714.33 1111.42 715.39 1109.69C716.277 1108.25 716.117 1107.6 714.59 1106.46C712.966 1105.26 698.183 1105.08 616.09 1105.27C562.965 1105.4 514.705 1105.63 508.845 1105.78ZM1403.28 1228.5C1403.28 1289.83 1403.56 1339.97 1403.89 1339.92C1404.23 1339.88 1406.53 1338.57 1409 1337.01C1419.35 1330.48 1435.5 1321.74 1450.5 1314.54C1459.3 1310.32 1467.18 1306.45 1468 1305.94C1468.82 1305.43 1471.29 1304.24 1473.47 1303.31C1479.78 1300.6 1490.15 1294.93 1494.5 1291.81C1496.7 1290.23 1505.93 1283.97 1515 1277.91C1524.07 1271.84 1535.55 1263.76 1540.5 1259.96C1545.45 1256.15 1551.97 1251.66 1555 1249.98C1558.03 1248.3 1563.2 1245.36 1566.5 1243.45C1569.8 1241.54 1575.31 1238.53 1578.75 1236.77C1585.28 1233.43 1586.03 1232.61 1583.44 1231.62C1581.92 1231.03 1556.67 1214.69 1548.34 1208.9C1546.05 1207.3 1543.84 1206 1543.44 1206C1542.47 1206 1532.03 1199.07 1529.56 1196.79C1528.5 1195.81 1527.2 1195 1526.68 1195C1526.16 1195 1523.55 1193.42 1520.87 1191.5C1518.19 1189.58 1515.83 1188 1515.63 1188C1515.43 1188 1510.96 1185.19 1505.71 1181.75C1500.46 1178.31 1488.45 1170.55 1479.01 1164.5C1469.57 1158.45 1458.17 1151.07 1453.68 1148.1C1449.18 1145.13 1443.35 1141.42 1440.71 1139.85C1438.08 1138.29 1435.38 1136.56 1434.71 1136C1433.1 1134.67 1422.89 1128 1422.46 1128C1422.28 1128 1418.43 1125.53 1413.91 1122.5C1409.39 1119.47 1405.15 1117 1404.49 1117C1403.55 1117 1403.28 1142.11 1403.28 1228.5ZM1168.67 1131.67C1167 1133.33 1168.13 1135.99 1170.75 1136.55C1172.26 1136.87 1175.53 1137.87 1178 1138.77C1181.61 1140.08 1187.17 1140.44 1206 1140.61C1218.93 1140.73 1233.81 1141.12 1239.07 1141.48C1246.99 1142.02 1248.86 1141.87 1249.91 1140.61C1253.64 1136.11 1245.61 1134.83 1211.5 1134.46C1188.57 1134.21 1181.47 1133.81 1177.59 1132.57C1172.29 1130.88 1169.72 1130.61 1168.67 1131.67ZM1045.78 1139.78C1044.83 1141.82 1040.18 1149.35 1035.44 1156.5C1030.71 1163.65 1026.4 1170.4 1025.88 1171.5C1024.61 1174.13 1023.28 1176.29 1018.49 1183.5C1016.3 1186.8 1013.81 1190.85 1012.96 1192.5C1010.3 1197.66 1007.57 1202.44 1006.39 1204C1005.14 1205.65 1001.52 1212.06 996.212 1222C990.547 1232.61 989.618 1234.21 985.379 1240.69C983.152 1244.1 979.636 1250.23 977.565 1254.31C975.494 1258.39 972.72 1262.98 971.4 1264.52C970.08 1266.05 969 1267.66 969 1268.08C969 1269.34 981.355 1269.51 1051.25 1269.24C1100.59 1269.04 1118 1268.67 1118 1267.83C1118 1267.2 1115.89 1262.36 1113.31 1257.09C1110.74 1251.82 1107.92 1245.93 1107.06 1244.02C1106.2 1242.1 1103.81 1237.71 1101.75 1234.25C1099.69 1230.79 1098 1227.55 1098 1227.04C1098 1226.54 1095.37 1222.61 1092.16 1218.31C1085.79 1209.79 1086.07 1210.28 1077.01 1191.5C1073.56 1184.35 1069.28 1176.03 1067.49 1173C1059.53 1159.49 1049 1139.01 1049 1137.01C1049 1134.86 1047.43 1136.21 1045.78 1139.78ZM831.682 1158.75C831.442 1159.16 831.303 1208.05 831.373 1267.39C831.492 1368.32 831.611 1375.35 833.222 1376.37C834.474 1377.16 835.257 1377.14 836.085 1376.31C837.178 1375.22 837.581 1305.92 837.142 1194.25L837 1158H834.559C833.216 1158 831.922 1158.34 831.682 1158.75ZM269 1179.04C247.448 1180.43 236.772 1182.04 233.865 1184.34C228.152 1188.87 226.534 1196.51 226.899 1217.25C226.994 1222.65 227.15 1223 229.433 1223C232.566 1223 232.791 1222.01 232.923 1207.68C233.012 1197.97 233.389 1195.16 235.036 1191.93C236.139 1189.77 237.594 1187.97 238.27 1187.94C238.947 1187.9 243.325 1187.35 248 1186.72C260.439 1185.03 318.263 1184.96 329.5 1186.62C334.45 1187.35 340.212 1187.78 342.304 1187.57C345.163 1187.28 346.749 1187.74 348.686 1189.41C350.86 1191.28 351.401 1192.87 352.141 1199.56C352.623 1203.93 353.404 1210.83 353.876 1214.9C354.348 1218.97 354.54 1223.05 354.302 1223.95C354.065 1224.86 349.513 1227.73 344.186 1230.32C331.194 1236.66 323.903 1237.35 309.665 1233.6C304.255 1232.18 299.479 1230.8 299.051 1230.53C298.623 1230.27 294.133 1229.58 289.074 1229.01C281.895 1228.2 277.857 1228.28 270.687 1229.38C260.344 1230.98 230.29 1230.18 224.007 1228.14C219.812 1226.77 213.338 1226.65 212.556 1227.91C210.73 1230.86 217.727 1234.08 230.5 1236.15C239.397 1237.6 262.359 1237.56 271.5 1236.08C280.34 1234.65 291.046 1235.19 300.25 1237.54C303.413 1238.34 308.587 1239.66 311.75 1240.46C322.399 1243.18 335.914 1241.69 343.561 1236.96C345.307 1235.88 347.358 1234.99 348.118 1234.98C350.592 1234.95 359.045 1229.01 359.877 1226.73C360.745 1224.34 359.934 1211.82 358.017 1198C356.953 1190.33 356.483 1189.13 353.216 1185.75C349.974 1182.39 349.064 1182 344.547 1181.99C341.771 1181.99 336.688 1181.53 333.251 1180.97C329.814 1180.41 320.814 1179.76 313.251 1179.51C305.688 1179.27 295 1178.91 289.5 1178.72C284 1178.52 274.775 1178.67 269 1179.04ZM1191.5 1215.42C1173.05 1217.12 1171.46 1217.53 1168.49 1221.43C1164.49 1226.67 1163.02 1233.26 1163.01 1246.05C1163 1258.33 1163.77 1260.73 1167.15 1258.92C1168.78 1258.04 1169 1256.59 1169 1246.41C1169 1233.97 1170.25 1226.95 1172.85 1224.7C1175.93 1222.05 1192.44 1220.43 1222 1219.91C1236.47 1219.65 1270.12 1220.97 1273.5 1221.93C1275.15 1222.4 1278.75 1222.85 1281.5 1222.93C1288.3 1223.12 1289.5 1223.61 1290.91 1226.71C1291.58 1228.18 1292.79 1236.55 1293.59 1245.31C1295.07 1261.43 1294.79 1264 1291.57 1264C1290.91 1264 1287.18 1265.58 1283.28 1267.5C1278.89 1269.66 1273.36 1271.43 1268.83 1272.12C1261.13 1273.29 1261.02 1273.28 1239 1267.49C1230.49 1265.25 1217.49 1264.62 1209 1266.02C1196.87 1268.03 1179.66 1268.2 1169.5 1266.42C1149.55 1262.92 1148 1262.88 1148 1266C1148 1267.91 1151.56 1269.5 1161.5 1272.03C1169.66 1274.1 1196.83 1274.46 1209 1272.66C1220.19 1271.01 1230.17 1271.57 1240.5 1274.44C1256.78 1278.96 1262.2 1279.62 1270.27 1278.07C1276.93 1276.79 1278.88 1276.07 1289 1271.16C1292.58 1269.42 1295.99 1268 1296.59 1268C1297.2 1268 1298.49 1267.12 1299.46 1266.04C1300.99 1264.35 1301.16 1262.74 1300.7 1254.29C1299.95 1240.71 1298.26 1229.14 1296.41 1225C1294.09 1219.81 1289.09 1217 1282.17 1217C1279.05 1217 1274.92 1216.54 1272.99 1215.99C1267.33 1214.35 1207.64 1213.93 1191.5 1215.42ZM274.383 1298.44C273.396 1301.02 275.24 1301.71 284.886 1302.41C294.457 1303.1 308.973 1304.55 322.228 1306.13C332.359 1307.34 338 1306.19 338 1302.92C338 1301.37 337.272 1300.99 334.25 1300.97C332.188 1300.95 326 1300.28 320.5 1299.47C315 1298.66 302.525 1297.7 292.779 1297.34C276.444 1296.74 275.004 1296.82 274.383 1298.44ZM176 1302.87C173.567 1304.94 173.551 1305.04 175.412 1306.48C176.55 1307.36 178.29 1307.71 179.712 1307.36C181.026 1307.03 193.23 1307.33 206.832 1308.03C232.894 1309.37 236.53 1309.01 235.8 1305.18C235.432 1303.25 230.4 1302.76 198 1301.5C178.994 1300.76 178.437 1300.79 176 1302.87ZM54.781 1305C44.792 1305.39 41.711 1305.85 40.424 1307.14C38.906 1308.66 38.94 1308.94 40.893 1310.89C42.959 1312.96 43.709 1313 79.845 1313C114.27 1313 116.799 1312.88 118.345 1311.17C120.353 1308.95 120.495 1306.13 118.635 1305.41C116.749 1304.69 70.321 1304.39 54.781 1305ZM38.67 1333.66C37.33 1335 38.114 1337.57 40.879 1340.91L43.704 1344.31L77.602 1344.41L111.5 1344.5L117 1342L122.5 1339.5L244.5 1339L366.5 1338.5V1336V1333.5L202.92 1333.25C112.95 1333.11 39.038 1333.29 38.67 1333.66ZM1213.75 1336.09C1209.76 1338.39 1213.05 1340.91 1220 1340.89C1223.8 1340.87 1249.23 1343.07 1255.5 1343.95C1269.09 1345.86 1272.46 1345.99 1275 1344.71C1276.39 1344 1277.5 1342.57 1277.5 1341.47C1277.5 1339.8 1276.74 1339.47 1272.5 1339.3C1269.75 1339.18 1261.2 1338.41 1253.5 1337.59C1234.44 1335.54 1215.92 1334.85 1213.75 1336.09ZM1117.96 1339.96C1110.5 1340.72 1109 1341.38 1109 1343.92C1109 1345.56 1110.45 1345.79 1124.25 1346.36C1167.67 1348.16 1169.43 1348.17 1171.41 1346.7C1172.46 1345.93 1173.08 1344.64 1172.77 1343.85C1172.33 1342.71 1167.54 1342.16 1149.63 1341.18C1137.21 1340.51 1126.47 1339.81 1125.77 1339.62C1125.07 1339.44 1121.56 1339.59 1117.96 1339.96ZM972.25 1345.21C969.687 1346.46 969.309 1349.18 971.452 1350.96C972.521 1351.85 982.906 1352.2 1010.88 1352.3C1046.72 1352.43 1048.97 1352.34 1050.93 1350.57C1053.34 1348.38 1053.64 1345.46 1051.53 1344.65C1048.65 1343.55 974.597 1344.07 972.25 1345.21ZM995.25 1372.77L969 1373.03L969.036 1375.77C969.056 1377.27 970.079 1379.73 971.31 1381.23L973.549 1383.97L1010.48 1384.06C1041.27 1384.14 1047.59 1383.92 1048.46 1382.74C1049.03 1381.96 1050.85 1380.93 1052.5 1380.46C1054.15 1379.99 1111.93 1379.35 1180.89 1379.05C1298.11 1378.54 1306.35 1378.39 1307.37 1376.78C1308.15 1375.54 1308.15 1374.75 1307.37 1373.97C1306.35 1372.95 1067.94 1372.03 995.25 1372.77ZM43.104 1376.92C40.858 1378.34 42.555 1380.69 46.332 1381.4C48.252 1381.76 118.786 1382.11 203.075 1382.17C349.719 1382.27 356.384 1382.2 357.646 1380.47C361.019 1375.86 366.511 1376.01 200.633 1376.02C112.216 1376.03 43.895 1376.42 43.104 1376.92ZM1479 1379.98C1477.79 1380.74 1477.4 1384.38 1477 1398.74C1476.31 1423.28 1477.06 1438.8 1479 1440.02C1479.92 1440.61 1529.49 1440.97 1607.56 1440.98C1715.7 1441 1734.91 1440.79 1736.56 1439.58C1738.39 1438.25 1738.51 1436.56 1738.76 1410.59C1739.01 1384.11 1738.95 1382.95 1737.01 1381.01C1735.02 1379.02 1733.95 1379 1607.75 1379.02C1529.53 1379.03 1479.92 1379.39 1479 1379.98ZM1485.75 1384.82L1483 1385.13V1410.07V1435H1608H1733V1410.47C1733 1390.46 1732.74 1385.84 1731.61 1385.41C1730.15 1384.84 1490.49 1384.27 1485.75 1384.82ZM464.24 1385.82L461.98 1386.14L462.24 1432.32L462.5 1478.5L664.25 1478.75L866 1479.01V1432.25V1385.5H666.25C556.387 1385.5 465.483 1385.64 464.24 1385.82ZM1570.66 1398.99C1567.5 1402.74 1566.24 1411.23 1567.95 1417.31C1570.08 1424.95 1578.67 1428.41 1584.36 1423.93C1587.23 1421.67 1587.84 1418.54 1585.57 1417.67C1584.79 1417.37 1583.61 1417.77 1582.95 1418.56C1581.23 1420.63 1577.39 1420.33 1575.16 1417.94C1572.43 1415.01 1571.72 1408.28 1573.78 1404.79C1575.06 1402.62 1576.18 1402 1578.77 1402C1581.58 1402 1582.31 1402.51 1583.46 1405.25C1585.25 1409.53 1586.04 1410.21 1587.66 1408.87C1589.81 1407.08 1589.22 1402.41 1586.41 1399.08C1584.12 1396.35 1583.22 1396 1578.5 1396C1573.82 1396 1572.87 1396.36 1570.66 1398.99ZM709.5 1397.95C700.637 1398.98 688.528 1404.5 684.144 1409.49C679.471 1414.81 679.804 1418.64 685.386 1423.79C690.724 1428.71 693.712 1430.3 701.5 1432.36C710.788 1434.83 719.817 1435.01 723.985 1432.83C725.902 1431.82 728.404 1431 729.544 1431C730.685 1431 732.491 1430.34 733.559 1429.53C734.626 1428.72 736.218 1428.05 737.096 1428.03C742.02 1427.93 750.985 1420.31 753.351 1414.21C754.804 1410.47 754.836 1409.58 753.609 1407.21C751.577 1403.28 749.142 1401.42 743.58 1399.56C737.77 1397.61 719.709 1396.76 709.5 1397.95ZM1625.36 1398.77C1624.18 1399.72 1622.42 1402.08 1621.45 1404C1620.48 1405.92 1618.98 1408.02 1618.11 1408.66C1616.67 1409.71 1616.69 1410 1618.26 1411.74C1619.22 1412.79 1620 1415.03 1620 1416.71C1620 1420.16 1622.2 1422.52 1624.56 1421.61C1625.69 1421.18 1626.07 1419.98 1625.85 1417.45C1625.49 1413.32 1626.91 1412.04 1631.84 1412.02L1635.18 1412L1634.84 1417.25C1634.53 1422.05 1634.69 1422.53 1636.75 1422.82C1638.37 1423.05 1639.25 1422.46 1639.92 1420.71C1640.98 1417.92 1639.78 1407.11 1637.88 1402.32C1635.84 1397.19 1629.53 1395.4 1625.36 1398.77ZM621.081 1401.58C610.805 1403.97 598.914 1409.32 596.25 1412.77C594.306 1415.28 594.697 1421.3 596.928 1423.21C601.068 1426.75 613.816 1432.57 620.839 1434.12C635.696 1437.41 650.691 1435.59 656.265 1429.84C659.354 1426.65 659.5 1426.15 659.5 1418.64V1410.77L655.101 1406.87C652.681 1404.72 649.531 1402.72 648.101 1402.43C646.67 1402.13 642.995 1401.24 639.934 1400.44C633.116 1398.67 633.785 1398.63 621.081 1401.58ZM1598.76 1399.93C1592.78 1400.76 1590.7 1402.54 1593.39 1404.53C1594.43 1405.3 1596.78 1405.87 1598.6 1405.8C1603.81 1405.61 1605 1407.29 1605.02 1414.87C1605.03 1422.3 1605.87 1424.37 1608.62 1423.82C1610.61 1423.43 1610.79 1421.81 1609.97 1411.54C1609.6 1406.94 1609.75 1406.53 1612.04 1406C1613.58 1405.63 1614.62 1404.59 1614.82 1403.21C1615.09 1401.35 1614.66 1401 1612.13 1401C1610.47 1401 1608.84 1400.55 1608.5 1400C1607.83 1398.92 1606.09 1398.91 1598.76 1399.93ZM787.233 1403.51C784.336 1404.21 780.864 1405.51 779.518 1406.4C778.172 1407.28 776.418 1408 775.621 1408C774.824 1408 772.505 1409.62 770.467 1411.6C767.107 1414.86 766.813 1415.57 767.303 1419.22C768.013 1424.52 773.169 1429.8 781.883 1434.18L788.5 1437.5L807.882 1437.21C821.712 1437 828.229 1436.51 830.633 1435.51C839.611 1431.76 841.641 1423.75 835.613 1415.85C832.734 1412.08 831.049 1411 824.363 1408.64C805.672 1402.04 797.731 1400.94 787.233 1403.51ZM1627.66 1403.83C1625.33 1406.4 1625.57 1407 1628.94 1407C1632.39 1407 1633.67 1405.51 1631.96 1403.46C1630.39 1401.56 1629.66 1401.62 1627.66 1403.83ZM711.336 1404.06C702.618 1404.91 694.522 1408.11 689.637 1412.64C686.3 1415.73 686.304 1417.84 689.656 1420.72C692.922 1423.53 694 1423.6 694 1421C694 1419.72 694.667 1419 695.845 1419C696.86 1419 698.505 1419.9 699.5 1421C700.495 1422.1 702.05 1423 702.955 1423C703.86 1423 705.164 1423.56 705.853 1424.25C706.708 1425.1 710.692 1425.5 718.412 1425.49C729.222 1425.48 730.01 1425.34 736.345 1422.15C747.443 1416.58 751.23 1409.72 744.996 1406.5C739.192 1403.5 726.593 1402.58 711.336 1404.06ZM516 1406.58C499.629 1410.55 498.905 1410.78 496.685 1412.66C490.422 1417.97 489.18 1420.98 490.991 1426.47C492.452 1430.9 497.603 1433.73 511.067 1437.52C516.211 1438.97 521.955 1440.79 523.832 1441.57C528.624 1443.58 531.154 1443.33 533.729 1440.61C534.994 1439.28 537.708 1437.98 540.008 1437.61C550.149 1435.99 562.394 1430.62 565.235 1426.55C565.639 1425.97 565.976 1423.85 565.985 1421.83C566.003 1417.33 562.357 1412.61 557.13 1410.37C542.006 1403.86 531.255 1402.87 516 1406.58ZM627.5 1405.95C626.4 1406.4 623.025 1407.3 620 1407.96C609.332 1410.26 601 1414.67 601 1418C601 1420.54 611.51 1426 616.409 1426C618.316 1426 622.941 1426.71 626.688 1427.59C635.41 1429.62 647.526 1429.2 651.294 1426.73C653.682 1425.16 654 1424.32 654 1419.55C654 1412.02 651.001 1409.1 640.843 1406.74C632.675 1404.84 630.529 1404.72 627.5 1405.95ZM786.5 1409.72C777.611 1412.44 773.62 1414.84 773.193 1417.73C772.784 1420.5 778.229 1426.58 783.332 1429.05C788.664 1431.62 790.973 1431.61 790.293 1429.01C789.625 1426.46 792.103 1425.45 795.104 1427.06C799.241 1429.27 808.406 1430.93 816.703 1430.96C824.711 1431 828.817 1430.01 832.142 1427.25C835.414 1424.53 831.333 1417.49 825.202 1415.27C808.858 1409.37 803.318 1407.97 796.701 1408.1C793.841 1408.15 789.25 1408.88 786.5 1409.72ZM515.867 1412.49C503.311 1415.01 497.386 1417.86 496.337 1421.89C495.244 1426.08 503.235 1430.84 513.5 1432.12C516.8 1432.54 521.75 1433.16 524.5 1433.52C534.018 1434.75 558.461 1427.69 560.11 1423.23C561.633 1419.12 555.216 1414.59 543.53 1411.55C535.633 1409.49 529.815 1409.69 515.867 1412.49ZM973.362 1418.5C973.045 1419.32 973.046 1420.68 973.363 1421.5C973.873 1422.83 992.591 1422.98 1136.21 1422.75C1294.12 1422.51 1298.48 1422.45 1298.83 1420.62C1299.03 1419.59 1298.59 1418.36 1297.85 1417.89C1297.11 1417.42 1223.92 1417.02 1135.22 1417.02C992.77 1417 973.87 1417.17 973.362 1418.5Z" fill="black"/>
</g>
<defs>
<clipPath id="clip0_718_1972">
<rect width="1766" height="1571" fill="white"/>
</clipPath>
</defs>
</svg>
